<?xml version="1.0" encoding="UTF-8" standalone="no"?>
<!DOCTYPE svg PUBLIC "-//W3C//DTD SVG 1.1//EN"
 "http://www.w3.org/Graphics/SVG/1.1/DTD/svg11.dtd">
<!-- Generated by graphviz version 2.43.0 (0)
 -->
<!-- Title: BoosterSeat::Stopwatch Pages: 1 -->
<svg width="403pt" height="248pt"
 viewBox="0.00 0.00 403.00 248.00" xmlns="http://www.w3.org/2000/svg" xmlns:xlink="http://www.w3.org/1999/xlink">
<g id="graph0" class="graph" transform="scale(1 1) rotate(0) translate(4 244)">
<title>BoosterSeat::Stopwatch</title>
<!-- Node1 -->
<g id="node1" class="node">
<title>Node1</title>
<g id="a_node1"><a xlink:title=" ">
<polygon fill="#bfbfbf" stroke="black" points="120,-0.5 120,-123.5 253,-123.5 253,-0.5 120,-0.5"/>
<text text-anchor="middle" x="186.5" y="-111.5" font-family="Helvetica,sans-Serif" font-size="10.00">BoosterSeat::Stopwatch</text>
<polyline fill="none" stroke="black" points="120,-104.5 253,-104.5 "/>
<text text-anchor="middle" x="186.5" y="-92.5" font-family="Helvetica,sans-Serif" font-size="10.00"> </text>
<polyline fill="none" stroke="black" points="120,-85.5 253,-85.5 "/>
<text text-anchor="start" x="128" y="-73.5" font-family="Helvetica,sans-Serif" font-size="10.00">+ Stopwatch()</text>
<text text-anchor="start" x="128" y="-62.5" font-family="Helvetica,sans-Serif" font-size="10.00">+ ~Stopwatch()</text>
<text text-anchor="start" x="128" y="-51.5" font-family="Helvetica,sans-Serif" font-size="10.00">+ elapsed()</text>
<text text-anchor="start" x="128" y="-40.5" font-family="Helvetica,sans-Serif" font-size="10.00">+ reset()</text>
<text text-anchor="start" x="128" y="-29.5" font-family="Helvetica,sans-Serif" font-size="10.00">+ start()</text>
<text text-anchor="start" x="128" y="-18.5" font-family="Helvetica,sans-Serif" font-size="10.00">+ state()</text>
<text text-anchor="start" x="128" y="-7.5" font-family="Helvetica,sans-Serif" font-size="10.00">+ stop()</text>
</a>
</g>
</g>
<!-- Node2 -->
<g id="node2" class="node">
<title>Node2</title>
<g id="a_node2"><a xlink:title=" ">
<polygon fill="none" stroke="#bfbfbf" points="0,-182.5 0,-239.5 57,-239.5 57,-182.5 0,-182.5"/>
<text text-anchor="middle" x="28.5" y="-227.5" font-family="Helvetica,sans-Serif" font-size="10.00">duration</text>
<polyline fill="none" stroke="#bfbfbf" points="0,-220.5 57,-220.5 "/>
<text text-anchor="middle" x="28.5" y="-208.5" font-family="Helvetica,sans-Serif" font-size="10.00"> </text>
<polyline fill="none" stroke="#bfbfbf" points="0,-201.5 57,-201.5 "/>
<text text-anchor="middle" x="28.5" y="-189.5" font-family="Helvetica,sans-Serif" font-size="10.00"> </text>
</a>
</g>
</g>
<!-- Node2&#45;&gt;Node1 -->
<g id="edge1" class="edge">
<title>Node2&#45;&gt;Node1</title>
<path fill="none" stroke="#404040" d="M56.04,-182.2C68.55,-169.75 83.62,-154.98 97.5,-142 101.71,-138.06 106.06,-134.04 110.47,-130.01"/>
<polygon fill="none" stroke="#404040" points="110.7,-129.8 112.45,-122.8 119.58,-121.73 117.83,-128.72 110.7,-129.8"/>
<text text-anchor="middle" x="123" y="-150.5" font-family="Helvetica,sans-Serif" font-size="10.00"> &#45;elapsed_</text>
</g>
<!-- Node3 -->
<g id="node3" class="node">
<title>Node3</title>
<g id="a_node3"><a xlink:title=" ">
<polygon fill="none" stroke="#bfbfbf" points="75.5,-182.5 75.5,-239.5 197.5,-239.5 197.5,-182.5 75.5,-182.5"/>
<text text-anchor="middle" x="136.5" y="-227.5" font-family="Helvetica,sans-Serif" font-size="10.00">high_resolution_clock</text>
<polyline fill="none" stroke="#bfbfbf" points="75.5,-220.5 197.5,-220.5 "/>
<text text-anchor="middle" x="136.5" y="-208.5" font-family="Helvetica,sans-Serif" font-size="10.00"> </text>
<polyline fill="none" stroke="#bfbfbf" points="75.5,-201.5 197.5,-201.5 "/>
<text text-anchor="middle" x="136.5" y="-189.5" font-family="Helvetica,sans-Serif" font-size="10.00"> </text>
</a>
</g>
</g>
<!-- Node3&#45;&gt;Node1 -->
<g id="edge2" class="edge">
<title>Node3&#45;&gt;Node1</title>
<path fill="none" stroke="#404040" d="M145.9,-182.35C150.48,-168.9 156.21,-152.05 161.92,-135.28"/>
<polygon fill="none" stroke="#404040" points="161.98,-135.08 160.13,-128.11 165.85,-123.72 167.7,-130.69 161.98,-135.08"/>
<text text-anchor="middle" x="177.5" y="-150.5" font-family="Helvetica,sans-Serif" font-size="10.00"> &#45;clock_</text>
</g>
<!-- Node4 -->
<g id="node4" class="node">
<title>Node4</title>
<g id="a_node4"><a xlink:title=" ">
<polygon fill="none" stroke="#bfbfbf" points="215.5,-182.5 215.5,-239.5 257.5,-239.5 257.5,-182.5 215.5,-182.5"/>
<text text-anchor="middle" x="236.5" y="-227.5" font-family="Helvetica,sans-Serif" font-size="10.00">State</text>
<polyline fill="none" stroke="#bfbfbf" points="215.5,-220.5 257.5,-220.5 "/>
<text text-anchor="middle" x="236.5" y="-208.5" font-family="Helvetica,sans-Serif" font-size="10.00"> </text>
<polyline fill="none" stroke="#bfbfbf" points="215.5,-201.5 257.5,-201.5 "/>
<text text-anchor="middle" x="236.5" y="-189.5" font-family="Helvetica,sans-Serif" font-size="10.00"> </text>
</a>
</g>
</g>
<!-- Node4&#45;&gt;Node1 -->
<g id="edge3" class="edge">
<title>Node4&#45;&gt;Node1</title>
<path fill="none" stroke="#404040" d="M227.1,-182.35C222.52,-168.9 216.79,-152.05 211.08,-135.28"/>
<polygon fill="none" stroke="#404040" points="211.02,-135.08 205.3,-130.69 207.15,-123.72 212.87,-128.11 211.02,-135.08"/>
<text text-anchor="middle" x="238" y="-150.5" font-family="Helvetica,sans-Serif" font-size="10.00"> &#45;state_</text>
</g>
<!-- Node5 -->
<g id="node5" class="node">
<title>Node5</title>
<g id="a_node5"><a xlink:title=" ">
<polygon fill="none" stroke="#bfbfbf" points="276,-182.5 276,-239.5 395,-239.5 395,-182.5 276,-182.5"/>
<text text-anchor="middle" x="335.5" y="-227.5" font-family="Helvetica,sans-Serif" font-size="10.00">time_point&lt; Clock &gt;</text>
<polyline fill="none" stroke="#bfbfbf" points="276,-220.5 395,-220.5 "/>
<text text-anchor="middle" x="335.5" y="-208.5" font-family="Helvetica,sans-Serif" font-size="10.00"> </text>
<polyline fill="none" stroke="#bfbfbf" points="276,-201.5 395,-201.5 "/>
<text text-anchor="middle" x="335.5" y="-189.5" font-family="Helvetica,sans-Serif" font-size="10.00"> </text>
</a>
</g>
</g>
<!-- Node5&#45;&gt;Node1 -->
<g id="edge4" class="edge">
<title>Node5&#45;&gt;Node1</title>
<path fill="none" stroke="#404040" d="M307.47,-182.35C293.06,-168.13 274.78,-150.09 256.82,-132.37"/>
<polygon fill="none" stroke="#404040" points="256.59,-132.15 249.51,-130.78 248.05,-123.72 255.13,-125.09 256.59,-132.15"/>
<text text-anchor="middle" x="315.5" y="-156" font-family="Helvetica,sans-Serif" font-size="10.00"> &#45;start_</text>
<text text-anchor="middle" x="315.5" y="-145" font-family="Helvetica,sans-Serif" font-size="10.00">&#45;stop_time_</text>
</g>
</g>
</svg>
