<?xml version="1.0" encoding="UTF-8" standalone="no"?>
<!DOCTYPE svg PUBLIC "-//W3C//DTD SVG 1.1//EN"
 "http://www.w3.org/Graphics/SVG/1.1/DTD/svg11.dtd">
<!-- Generated by graphviz version 2.43.0 (0)
 -->
<!-- Title: bst::ConsecutiveValuesFilter&lt; T &gt; Pages: 1 -->
<svg width="217pt" height="237pt"
 viewBox="0.00 0.00 216.50 237.00" xmlns="http://www.w3.org/2000/svg" xmlns:xlink="http://www.w3.org/1999/xlink">
<g id="graph0" class="graph" transform="scale(1 1) rotate(0) translate(4 233)">
<title>bst::ConsecutiveValuesFilter&lt; T &gt;</title>
<!-- Node1 -->
<g id="node1" class="node">
<title>Node1</title>
<g id="a_node1"><a xlink:title="A simple counting filter that allows for some noise.">
<polygon fill="#bfbfbf" stroke="black" points="0,-0.5 0,-112.5 183,-112.5 183,-0.5 0,-0.5"/>
<text text-anchor="middle" x="91.5" y="-100.5" font-family="Helvetica,sans-Serif" font-size="10.00">bst::ConsecutiveValuesFilter&lt; T &gt;</text>
<polyline fill="none" stroke="black" points="0,-93.5 183,-93.5 "/>
<text text-anchor="middle" x="91.5" y="-81.5" font-family="Helvetica,sans-Serif" font-size="10.00"> </text>
<polyline fill="none" stroke="black" points="0,-74.5 183,-74.5 "/>
<text text-anchor="start" x="8" y="-62.5" font-family="Helvetica,sans-Serif" font-size="10.00">+ ConsecutiveValuesFilter()</text>
<text text-anchor="start" x="8" y="-51.5" font-family="Helvetica,sans-Serif" font-size="10.00">+ ~ConsecutiveValuesFilter()</text>
<text text-anchor="start" x="8" y="-40.5" font-family="Helvetica,sans-Serif" font-size="10.00">+ addValue()</text>
<text text-anchor="start" x="8" y="-29.5" font-family="Helvetica,sans-Serif" font-size="10.00">+ getCurrentValue()</text>
<text text-anchor="start" x="8" y="-18.5" font-family="Helvetica,sans-Serif" font-size="10.00">+ reset()</text>
<text text-anchor="start" x="8" y="-7.5" font-family="Helvetica,sans-Serif" font-size="10.00">+ setFilterThreshold()</text>
</a>
</g>
</g>
<!-- Node2 -->
<g id="node2" class="node">
<title>Node2</title>
<g id="a_node2"><a xlink:title=" ">
<polygon fill="none" stroke="#bfbfbf" points="16,-171.5 16,-228.5 61,-228.5 61,-171.5 16,-171.5"/>
<text text-anchor="middle" x="38.5" y="-216.5" font-family="Helvetica,sans-Serif" font-size="10.00">size_t</text>
<polyline fill="none" stroke="#bfbfbf" points="16,-209.5 61,-209.5 "/>
<text text-anchor="middle" x="38.5" y="-197.5" font-family="Helvetica,sans-Serif" font-size="10.00"> </text>
<polyline fill="none" stroke="#bfbfbf" points="16,-190.5 61,-190.5 "/>
<text text-anchor="middle" x="38.5" y="-178.5" font-family="Helvetica,sans-Serif" font-size="10.00"> </text>
</a>
</g>
</g>
<!-- Node2&#45;&gt;Node1 -->
<g id="edge1" class="edge">
<title>Node2&#45;&gt;Node1</title>
<path fill="none" stroke="#404040" d="M35.23,-171.26C34.67,-158.68 35.33,-143.8 39.5,-131 40.3,-128.56 41.2,-126.13 42.2,-123.73"/>
<polygon fill="none" stroke="#404040" points="42.33,-123.46 41.31,-116.32 47.51,-112.63 48.53,-119.77 42.33,-123.46"/>
<text text-anchor="middle" x="81" y="-145" font-family="Helvetica,sans-Serif" font-size="10.00"> &#45;current_count_</text>
<text text-anchor="middle" x="81" y="-134" font-family="Helvetica,sans-Serif" font-size="10.00">&#45;filter_threshold_</text>
</g>
<!-- Node3 -->
<g id="node3" class="node">
<title>Node3</title>
<g id="a_node3"><a xlink:title=" ">
<polygon fill="none" stroke="#bfbfbf" points="130,-171.5 130,-228.5 159,-228.5 159,-171.5 130,-171.5"/>
<text text-anchor="middle" x="144.5" y="-216.5" font-family="Helvetica,sans-Serif" font-size="10.00">T</text>
<polyline fill="none" stroke="#bfbfbf" points="130,-209.5 159,-209.5 "/>
<text text-anchor="middle" x="144.5" y="-197.5" font-family="Helvetica,sans-Serif" font-size="10.00"> </text>
<polyline fill="none" stroke="#bfbfbf" points="130,-190.5 159,-190.5 "/>
<text text-anchor="middle" x="144.5" y="-178.5" font-family="Helvetica,sans-Serif" font-size="10.00"> </text>
</a>
</g>
</g>
<!-- Node3&#45;&gt;Node1 -->
<g id="edge2" class="edge">
<title>Node3&#45;&gt;Node1</title>
<path fill="none" stroke="#404040" d="M136.15,-171.35C132.25,-158.93 127.39,-144.14 122.5,-131 121.63,-128.67 120.73,-126.3 119.81,-123.91"/>
<polygon fill="none" stroke="#404040" points="119.78,-123.84 113.86,-119.73 115.37,-112.68 121.3,-116.79 119.78,-123.84"/>
<text text-anchor="middle" x="169" y="-145" font-family="Helvetica,sans-Serif" font-size="10.00"> &#45;current_value_</text>
<text text-anchor="middle" x="169" y="-134" font-family="Helvetica,sans-Serif" font-size="10.00">&#45;new_value_</text>
</g>
</g>
</svg>
