<?xml version="1.0" encoding="UTF-8" standalone="no"?>
<!DOCTYPE svg PUBLIC "-//W3C//DTD SVG 1.1//EN"
 "http://www.w3.org/Graphics/SVG/1.1/DTD/svg11.dtd">
<!-- Generated by graphviz version 2.43.0 (0)
 -->
<!-- Title: bst::Pressure::atmospheres Pages: 1 -->
<svg width="383pt" height="66pt"
 viewBox="0.00 0.00 383.00 66.00" xmlns="http://www.w3.org/2000/svg" xmlns:xlink="http://www.w3.org/1999/xlink">
<g id="graph0" class="graph" transform="scale(1 1) rotate(0) translate(4 62)">
<title>bst::Pressure::atmospheres</title>
<!-- Node1 -->
<g id="node1" class="node">
<title>Node1</title>
<g id="a_node1"><a xlink:title=" ">
<polygon fill="#bfbfbf" stroke="black" points="226,-19.5 226,-38.5 375,-38.5 375,-19.5 226,-19.5"/>
<text text-anchor="middle" x="300.5" y="-26.5" font-family="Helvetica,sans-Serif" font-size="10.00">bst::Pressure::atmospheres</text>
</a>
</g>
</g>
<!-- Node2 -->
<g id="node2" class="node">
<title>Node2</title>
<g id="a_node2"><a xlink:href="classbst_1_1Pressure.html#ac452d7cec5b15a3c00ea1b1aa15c8747" target="_top" xlink:title=" ">
<polygon fill="none" stroke="black" points="0,-38.5 0,-57.5 190,-57.5 190,-38.5 0,-38.5"/>
<text text-anchor="middle" x="95" y="-45.5" font-family="Helvetica,sans-Serif" font-size="10.00">bst::Pressure::setFromAtmospheres</text>
</a>
</g>
</g>
<!-- Node1&#45;&gt;Node2 -->
<g id="edge1" class="edge">
<title>Node1&#45;&gt;Node2</title>
<path fill="none" stroke="midnightblue" d="M215.57,-36.84C207.14,-37.62 198.55,-38.43 190.03,-39.22"/>
<polygon fill="midnightblue" stroke="midnightblue" points="216.11,-40.3 225.74,-35.89 215.46,-33.33 216.11,-40.3"/>
</g>
<!-- Node3 -->
<g id="node3" class="node">
<title>Node3</title>
<g id="a_node3"><a xlink:href="science__test_8cpp.html#ac052ebacfde7f84981dea28dc0d72d21" target="_top" xlink:title=" ">
<polygon fill="none" stroke="black" points="74.5,-0.5 74.5,-19.5 115.5,-19.5 115.5,-0.5 74.5,-0.5"/>
<text text-anchor="middle" x="95" y="-7.5" font-family="Helvetica,sans-Serif" font-size="10.00">TEST</text>
</a>
</g>
</g>
<!-- Node1&#45;&gt;Node3 -->
<g id="edge2" class="edge">
<title>Node1&#45;&gt;Node3</title>
<path fill="none" stroke="midnightblue" d="M215.48,-21.16C178.73,-17.72 138.8,-14 115.66,-11.84"/>
<polygon fill="midnightblue" stroke="midnightblue" points="215.46,-24.67 225.74,-22.11 216.11,-17.7 215.46,-24.67"/>
</g>
</g>
</svg>
