<?xml version="1.0" encoding="UTF-8" standalone="no"?>
<!DOCTYPE svg PUBLIC "-//W3C//DTD SVG 1.1//EN"
 "http://www.w3.org/Graphics/SVG/1.1/DTD/svg11.dtd">
<!-- Generated by graphviz version 2.43.0 (0)
 -->
<!-- Title: bst::BoosterSeatException Pages: 1 -->
<svg width="392pt" height="215pt"
 viewBox="0.00 0.00 392.00 215.00" xmlns="http://www.w3.org/2000/svg" xmlns:xlink="http://www.w3.org/1999/xlink">
<g id="graph0" class="graph" transform="scale(1 1) rotate(0) translate(4 211)">
<title>bst::BoosterSeatException</title>
<!-- Node1 -->
<g id="node1" class="node">
<title>Node1</title>
<g id="a_node1"><a xlink:title=" ">
<polygon fill="#bfbfbf" stroke="black" points="94.5,-0.5 94.5,-101.5 245.5,-101.5 245.5,-0.5 94.5,-0.5"/>
<text text-anchor="middle" x="170" y="-89.5" font-family="Helvetica,sans-Serif" font-size="10.00">bst::BoosterSeatException</text>
<polyline fill="none" stroke="black" points="94.5,-82.5 245.5,-82.5 "/>
<text text-anchor="middle" x="170" y="-70.5" font-family="Helvetica,sans-Serif" font-size="10.00"> </text>
<polyline fill="none" stroke="black" points="94.5,-63.5 245.5,-63.5 "/>
<text text-anchor="start" x="102.5" y="-51.5" font-family="Helvetica,sans-Serif" font-size="10.00">+ BoosterSeatException()</text>
<text text-anchor="start" x="102.5" y="-40.5" font-family="Helvetica,sans-Serif" font-size="10.00">+ ~BoosterSeatException()</text>
<text text-anchor="start" x="102.5" y="-29.5" font-family="Helvetica,sans-Serif" font-size="10.00">+ errorNumber()</text>
<text text-anchor="start" x="102.5" y="-18.5" font-family="Helvetica,sans-Serif" font-size="10.00">+ errorNumberEnum()</text>
<text text-anchor="start" x="102.5" y="-7.5" font-family="Helvetica,sans-Serif" font-size="10.00">+ what()</text>
</a>
</g>
</g>
<!-- Node2 -->
<g id="node2" class="node">
<title>Node2</title>
<g id="a_node2"><a xlink:title=" ">
<polygon fill="none" stroke="#bfbfbf" points="0,-149.5 0,-206.5 86,-206.5 86,-149.5 0,-149.5"/>
<text text-anchor="middle" x="43" y="-194.5" font-family="Helvetica,sans-Serif" font-size="10.00">std::exception</text>
<polyline fill="none" stroke="#bfbfbf" points="0,-187.5 86,-187.5 "/>
<text text-anchor="middle" x="43" y="-175.5" font-family="Helvetica,sans-Serif" font-size="10.00"> </text>
<polyline fill="none" stroke="#bfbfbf" points="0,-168.5 86,-168.5 "/>
<text text-anchor="middle" x="43" y="-156.5" font-family="Helvetica,sans-Serif" font-size="10.00"> </text>
</a>
</g>
</g>
<!-- Node2&#45;&gt;Node1 -->
<g id="edge1" class="edge">
<title>Node2&#45;&gt;Node1</title>
<path fill="none" stroke="midnightblue" d="M78.46,-142.1C91.22,-129.54 105.87,-115.12 119.66,-101.55"/>
<polygon fill="none" stroke="midnightblue" points="75.86,-139.75 71.19,-149.26 80.77,-144.74 75.86,-139.75"/>
</g>
<!-- Node3 -->
<g id="node3" class="node">
<title>Node3</title>
<g id="a_node3"><a xlink:title=" ">
<polygon fill="none" stroke="#bfbfbf" points="104.5,-149.5 104.5,-206.5 133.5,-206.5 133.5,-149.5 104.5,-149.5"/>
<text text-anchor="middle" x="119" y="-194.5" font-family="Helvetica,sans-Serif" font-size="10.00">int</text>
<polyline fill="none" stroke="#bfbfbf" points="104.5,-187.5 133.5,-187.5 "/>
<text text-anchor="middle" x="119" y="-175.5" font-family="Helvetica,sans-Serif" font-size="10.00"> </text>
<polyline fill="none" stroke="#bfbfbf" points="104.5,-168.5 133.5,-168.5 "/>
<text text-anchor="middle" x="119" y="-156.5" font-family="Helvetica,sans-Serif" font-size="10.00"> </text>
</a>
</g>
</g>
<!-- Node3&#45;&gt;Node1 -->
<g id="edge2" class="edge">
<title>Node3&#45;&gt;Node1</title>
<path fill="none" stroke="#404040" d="M116.13,-149.45C116,-139.91 116.86,-129.28 120,-120 120.86,-117.46 121.85,-114.94 122.95,-112.44"/>
<polygon fill="none" stroke="#404040" points="122.97,-112.41 122.11,-105.25 128.39,-101.7 129.25,-108.86 122.97,-112.41"/>
<text text-anchor="middle" x="159.5" y="-123" font-family="Helvetica,sans-Serif" font-size="10.00"> &#45;error_number_</text>
</g>
<!-- Node4 -->
<g id="node4" class="node">
<title>Node4</title>
<g id="a_node4"><a xlink:title=" ">
<polygon fill="none" stroke="#bfbfbf" points="199,-149.5 199,-206.5 243,-206.5 243,-149.5 199,-149.5"/>
<text text-anchor="middle" x="221" y="-194.5" font-family="Helvetica,sans-Serif" font-size="10.00">string</text>
<polyline fill="none" stroke="#bfbfbf" points="199,-187.5 243,-187.5 "/>
<text text-anchor="middle" x="221" y="-175.5" font-family="Helvetica,sans-Serif" font-size="10.00"> </text>
<polyline fill="none" stroke="#bfbfbf" points="199,-168.5 243,-168.5 "/>
<text text-anchor="middle" x="221" y="-156.5" font-family="Helvetica,sans-Serif" font-size="10.00"> </text>
</a>
</g>
</g>
<!-- Node4&#45;&gt;Node1 -->
<g id="edge3" class="edge">
<title>Node4&#45;&gt;Node1</title>
<path fill="none" stroke="#404040" d="M210.56,-149.38C206.97,-140.03 202.87,-129.53 199,-120 198.06,-117.68 197.09,-115.31 196.11,-112.93"/>
<polygon fill="none" stroke="#404040" points="196.04,-112.76 190.04,-108.76 191.42,-101.68 197.42,-105.68 196.04,-112.76"/>
<text text-anchor="middle" x="231.5" y="-123" font-family="Helvetica,sans-Serif" font-size="10.00"> &#45;message_</text>
</g>
<!-- Node5 -->
<g id="node5" class="node">
<title>Node5</title>
<g id="a_node5"><a xlink:title=" ">
<polygon fill="none" stroke="#bfbfbf" points="261.5,-149.5 261.5,-206.5 340.5,-206.5 340.5,-149.5 261.5,-149.5"/>
<text text-anchor="middle" x="301" y="-194.5" font-family="Helvetica,sans-Serif" font-size="10.00">ErrorNumber</text>
<polyline fill="none" stroke="#bfbfbf" points="261.5,-187.5 340.5,-187.5 "/>
<text text-anchor="middle" x="301" y="-175.5" font-family="Helvetica,sans-Serif" font-size="10.00"> </text>
<polyline fill="none" stroke="#bfbfbf" points="261.5,-168.5 340.5,-168.5 "/>
<text text-anchor="middle" x="301" y="-156.5" font-family="Helvetica,sans-Serif" font-size="10.00"> </text>
</a>
</g>
</g>
<!-- Node5&#45;&gt;Node1 -->
<g id="edge4" class="edge">
<title>Node5&#45;&gt;Node1</title>
<path fill="none" stroke="#404040" d="M285.94,-149.4C279.85,-139.54 272.29,-128.72 264,-120 260.74,-116.57 257.28,-113.19 253.69,-109.89"/>
<polygon fill="none" stroke="#404040" points="253.56,-109.77 246.41,-108.82 244.54,-101.85 251.69,-102.81 253.56,-109.77"/>
<text text-anchor="middle" x="328" y="-123" font-family="Helvetica,sans-Serif" font-size="10.00"> &#45;error_number_enum_</text>
</g>
</g>
</svg>
