<?xml version="1.0" encoding="UTF-8" standalone="no"?>
<!DOCTYPE svg PUBLIC "-//W3C//DTD SVG 1.1//EN"
 "http://www.w3.org/Graphics/SVG/1.1/DTD/svg11.dtd">
<!-- Generated by graphviz version 2.43.0 (0)
 -->
<!-- Title: bst::Pressure::psi Pages: 1 -->
<svg width="361pt" height="47pt"
 viewBox="0.00 0.00 361.00 47.00" xmlns="http://www.w3.org/2000/svg" xmlns:xlink="http://www.w3.org/1999/xlink">
<g id="graph0" class="graph" transform="scale(1 1) rotate(0) translate(4 43)">
<title>bst::Pressure::psi</title>
<!-- Node1 -->
<g id="node1" class="node">
<title>Node1</title>
<g id="a_node1"><a xlink:title=" ">
<polygon fill="#bfbfbf" stroke="black" points="253,-0.5 253,-19.5 353,-19.5 353,-0.5 253,-0.5"/>
<text text-anchor="middle" x="303" y="-7.5" font-family="Helvetica,sans-Serif" font-size="10.00">bst::Pressure::psi</text>
</a>
</g>
</g>
<!-- Node2 -->
<g id="node2" class="node">
<title>Node2</title>
<g id="a_node2"><a xlink:href="classbst_1_1Pressure.html#acbfb4d3faff283d7cec979b359eccfa3" target="_top" xlink:title=" ">
<polygon fill="none" stroke="black" points="77,-19.5 77,-38.5 217,-38.5 217,-19.5 77,-19.5"/>
<text text-anchor="middle" x="147" y="-26.5" font-family="Helvetica,sans-Serif" font-size="10.00">bst::Pressure::setFromPSI</text>
</a>
</g>
</g>
<!-- Node1&#45;&gt;Node2 -->
<g id="edge1" class="edge">
<title>Node1&#45;&gt;Node2</title>
<path fill="none" stroke="midnightblue" d="M242.8,-17.3C234.41,-18.34 225.73,-19.41 217.17,-20.47"/>
<polygon fill="midnightblue" stroke="midnightblue" points="243.35,-20.76 252.85,-16.06 242.5,-13.81 243.35,-20.76"/>
</g>
<!-- Node3 -->
<g id="node3" class="node">
<title>Node3</title>
<g id="a_node3"><a xlink:href="science__test_8cpp.html#ac052ebacfde7f84981dea28dc0d72d21" target="_top" xlink:title=" ">
<polygon fill="none" stroke="black" points="0,-0.5 0,-19.5 41,-19.5 41,-0.5 0,-0.5"/>
<text text-anchor="middle" x="20.5" y="-7.5" font-family="Helvetica,sans-Serif" font-size="10.00">TEST</text>
</a>
</g>
</g>
<!-- Node1&#45;&gt;Node3 -->
<g id="edge3" class="edge">
<title>Node1&#45;&gt;Node3</title>
<path fill="none" stroke="midnightblue" d="M242.56,-10C179.18,-10 82.37,-10 41.17,-10"/>
<polygon fill="midnightblue" stroke="midnightblue" points="242.82,-13.5 252.82,-10 242.82,-6.5 242.82,-13.5"/>
</g>
<!-- Node2&#45;&gt;Node3 -->
<g id="edge2" class="edge">
<title>Node2&#45;&gt;Node3</title>
<path fill="none" stroke="midnightblue" d="M73.34,-17.91C61.47,-16.1 50.12,-14.37 41.09,-12.99"/>
<polygon fill="midnightblue" stroke="midnightblue" points="72.97,-21.4 83.39,-19.44 74.03,-14.48 72.97,-21.4"/>
</g>
</g>
</svg>
