<?xml version="1.0" encoding="UTF-8" standalone="no"?>
<!DOCTYPE svg PUBLIC "-//W3C//DTD SVG 1.1//EN"
 "http://www.w3.org/Graphics/SVG/1.1/DTD/svg11.dtd">
<!-- Generated by graphviz version 2.43.0 (0)
 -->
<!-- Title: bst::RollingAverage&lt; T &gt; Pages: 1 -->
<svg width="248pt" height="259pt"
 viewBox="0.00 0.00 248.00 259.00" xmlns="http://www.w3.org/2000/svg" xmlns:xlink="http://www.w3.org/1999/xlink">
<g id="graph0" class="graph" transform="scale(1 1) rotate(0) translate(4 255)">
<title>bst::RollingAverage&lt; T &gt;</title>
<!-- Node1 -->
<g id="node1" class="node">
<title>Node1</title>
<g id="a_node1"><a xlink:title="Moving average calculator.">
<polygon fill="#bfbfbf" stroke="black" points="21,-0.5 21,-145.5 161,-145.5 161,-0.5 21,-0.5"/>
<text text-anchor="middle" x="91" y="-133.5" font-family="Helvetica,sans-Serif" font-size="10.00">bst::RollingAverage&lt; T &gt;</text>
<polyline fill="none" stroke="black" points="21,-126.5 161,-126.5 "/>
<text text-anchor="middle" x="91" y="-114.5" font-family="Helvetica,sans-Serif" font-size="10.00"> </text>
<polyline fill="none" stroke="black" points="21,-107.5 161,-107.5 "/>
<text text-anchor="start" x="29" y="-95.5" font-family="Helvetica,sans-Serif" font-size="10.00">+ RollingAverage()</text>
<text text-anchor="start" x="29" y="-84.5" font-family="Helvetica,sans-Serif" font-size="10.00">+ ~RollingAverage()</text>
<text text-anchor="start" x="29" y="-73.5" font-family="Helvetica,sans-Serif" font-size="10.00">+ addValue()</text>
<text text-anchor="start" x="29" y="-62.5" font-family="Helvetica,sans-Serif" font-size="10.00">+ clear()</text>
<text text-anchor="start" x="29" y="-51.5" font-family="Helvetica,sans-Serif" font-size="10.00">+ getAverage()</text>
<text text-anchor="start" x="29" y="-40.5" font-family="Helvetica,sans-Serif" font-size="10.00">+ getNumElements()</text>
<text text-anchor="start" x="29" y="-29.5" font-family="Helvetica,sans-Serif" font-size="10.00">+ getWindowSize()</text>
<text text-anchor="start" x="29" y="-18.5" font-family="Helvetica,sans-Serif" font-size="10.00">+ removeOldest()</text>
<text text-anchor="start" x="29" y="-7.5" font-family="Helvetica,sans-Serif" font-size="10.00">+ setWindowSize()</text>
</a>
</g>
</g>
<!-- Node2 -->
<g id="node2" class="node">
<title>Node2</title>
<g id="a_node2"><a xlink:title=" ">
<polygon fill="none" stroke="#bfbfbf" points="0,-193.5 0,-250.5 50,-250.5 50,-193.5 0,-193.5"/>
<text text-anchor="middle" x="25" y="-238.5" font-family="Helvetica,sans-Serif" font-size="10.00">double</text>
<polyline fill="none" stroke="#bfbfbf" points="0,-231.5 50,-231.5 "/>
<text text-anchor="middle" x="25" y="-219.5" font-family="Helvetica,sans-Serif" font-size="10.00"> </text>
<polyline fill="none" stroke="#bfbfbf" points="0,-212.5 50,-212.5 "/>
<text text-anchor="middle" x="25" y="-200.5" font-family="Helvetica,sans-Serif" font-size="10.00"> </text>
</a>
</g>
</g>
<!-- Node2&#45;&gt;Node1 -->
<g id="edge1" class="edge">
<title>Node2&#45;&gt;Node1</title>
<path fill="none" stroke="#404040" d="M37.41,-193.35C42.2,-182.69 47.94,-169.9 53.87,-156.7"/>
<polygon fill="none" stroke="#404040" points="53.96,-156.5 52.77,-149.39 58.87,-145.56 60.06,-152.67 53.96,-156.5"/>
<text text-anchor="middle" x="67" y="-167" font-family="Helvetica,sans-Serif" font-size="10.00"> &#45;sum_</text>
</g>
<!-- Node3 -->
<g id="node3" class="node">
<title>Node3</title>
<g id="a_node3"><a xlink:title=" ">
<polygon fill="none" stroke="#bfbfbf" points="68.5,-193.5 68.5,-250.5 113.5,-250.5 113.5,-193.5 68.5,-193.5"/>
<text text-anchor="middle" x="91" y="-238.5" font-family="Helvetica,sans-Serif" font-size="10.00">size_t</text>
<polyline fill="none" stroke="#bfbfbf" points="68.5,-231.5 113.5,-231.5 "/>
<text text-anchor="middle" x="91" y="-219.5" font-family="Helvetica,sans-Serif" font-size="10.00"> </text>
<polyline fill="none" stroke="#bfbfbf" points="68.5,-212.5 113.5,-212.5 "/>
<text text-anchor="middle" x="91" y="-200.5" font-family="Helvetica,sans-Serif" font-size="10.00"> </text>
</a>
</g>
</g>
<!-- Node3&#45;&gt;Node1 -->
<g id="edge2" class="edge">
<title>Node3&#45;&gt;Node1</title>
<path fill="none" stroke="#404040" d="M91,-193.35C91,-183.01 91,-170.66 91,-157.89"/>
<polygon fill="none" stroke="#404040" points="91,-157.56 87,-151.56 91,-145.56 95,-151.56 91,-157.56"/>
<text text-anchor="middle" x="128.5" y="-167" font-family="Helvetica,sans-Serif" font-size="10.00"> &#45;window_size_</text>
</g>
<!-- Node4 -->
<g id="node4" class="node">
<title>Node4</title>
<g id="a_node4"><a xlink:title=" ">
<polygon fill="none" stroke="#bfbfbf" points="138,-193.5 138,-250.5 240,-250.5 240,-193.5 138,-193.5"/>
<text text-anchor="middle" x="189" y="-238.5" font-family="Helvetica,sans-Serif" font-size="10.00">queue&lt; double &gt;</text>
<polyline fill="none" stroke="#bfbfbf" points="138,-231.5 240,-231.5 "/>
<text text-anchor="middle" x="189" y="-219.5" font-family="Helvetica,sans-Serif" font-size="10.00"> </text>
<polyline fill="none" stroke="#bfbfbf" points="138,-212.5 240,-212.5 "/>
<text text-anchor="middle" x="189" y="-200.5" font-family="Helvetica,sans-Serif" font-size="10.00"> </text>
</a>
</g>
</g>
<!-- Node4&#45;&gt;Node1 -->
<g id="edge3" class="edge">
<title>Node4&#45;&gt;Node1</title>
<path fill="none" stroke="#404040" d="M180.47,-193.46C176.95,-183.82 172.41,-173.13 167,-164 165.35,-161.21 163.61,-158.42 161.8,-155.64"/>
<polygon fill="none" stroke="#404040" points="161.74,-155.55 155.05,-152.86 154.97,-145.64 161.66,-148.34 161.74,-155.55"/>
<text text-anchor="middle" x="193.5" y="-167" font-family="Helvetica,sans-Serif" font-size="10.00"> &#45;queue_</text>
</g>
</g>
</svg>
