<?xml version="1.0" encoding="UTF-8" standalone="no"?>
<!DOCTYPE svg PUBLIC "-//W3C//DTD SVG 1.1//EN"
 "http://www.w3.org/Graphics/SVG/1.1/DTD/svg11.dtd">
<!-- Generated by graphviz version 2.43.0 (0)
 -->
<!-- Title: bst::SoftwareTimer Pages: 1 -->
<svg width="167pt" height="270pt"
 viewBox="0.00 0.00 166.50 270.00" xmlns="http://www.w3.org/2000/svg" xmlns:xlink="http://www.w3.org/1999/xlink">
<g id="graph0" class="graph" transform="scale(1 1) rotate(0) translate(4 266)">
<title>bst::SoftwareTimer</title>
<!-- Node1 -->
<g id="node1" class="node">
<title>Node1</title>
<g id="a_node1"><a xlink:title="A software timer class for manual control.">
<polygon fill="#bfbfbf" stroke="black" points="32,-0.5 32,-112.5 141,-112.5 141,-0.5 32,-0.5"/>
<text text-anchor="middle" x="86.5" y="-100.5" font-family="Helvetica,sans-Serif" font-size="10.00">bst::SoftwareTimer</text>
<polyline fill="none" stroke="black" points="32,-93.5 141,-93.5 "/>
<text text-anchor="middle" x="86.5" y="-81.5" font-family="Helvetica,sans-Serif" font-size="10.00"> </text>
<polyline fill="none" stroke="black" points="32,-74.5 141,-74.5 "/>
<text text-anchor="start" x="40" y="-62.5" font-family="Helvetica,sans-Serif" font-size="10.00">+ SoftwareTimer()</text>
<text text-anchor="start" x="40" y="-51.5" font-family="Helvetica,sans-Serif" font-size="10.00">+ isDone()</text>
<text text-anchor="start" x="40" y="-40.5" font-family="Helvetica,sans-Serif" font-size="10.00">+ reset()</text>
<text text-anchor="start" x="40" y="-29.5" font-family="Helvetica,sans-Serif" font-size="10.00">+ setDone()</text>
<text text-anchor="start" x="40" y="-18.5" font-family="Helvetica,sans-Serif" font-size="10.00">+ setNotDone()</text>
<text text-anchor="start" x="40" y="-7.5" font-family="Helvetica,sans-Serif" font-size="10.00">+ setTimeout()</text>
</a>
</g>
</g>
<!-- Node2 -->
<g id="node2" class="node">
<title>Node2</title>
<g id="a_node2"><a xlink:href="classbst_1_1ITimer.html" target="_top" xlink:title="Interface for a timer class.">
<polygon fill="none" stroke="black" points="0,-160.5 0,-261.5 91,-261.5 91,-160.5 0,-160.5"/>
<text text-anchor="middle" x="45.5" y="-249.5" font-family="Helvetica,sans-Serif" font-size="10.00">bst::ITimer</text>
<polyline fill="none" stroke="black" points="0,-242.5 91,-242.5 "/>
<text text-anchor="middle" x="45.5" y="-230.5" font-family="Helvetica,sans-Serif" font-size="10.00"> </text>
<polyline fill="none" stroke="black" points="0,-223.5 91,-223.5 "/>
<text text-anchor="start" x="8" y="-211.5" font-family="Helvetica,sans-Serif" font-size="10.00">+ ~ITimer()</text>
<text text-anchor="start" x="8" y="-200.5" font-family="Helvetica,sans-Serif" font-size="10.00">+ isDone()</text>
<text text-anchor="start" x="8" y="-189.5" font-family="Helvetica,sans-Serif" font-size="10.00">+ reset()</text>
<text text-anchor="start" x="8" y="-178.5" font-family="Helvetica,sans-Serif" font-size="10.00">+ setDone()</text>
<text text-anchor="start" x="8" y="-167.5" font-family="Helvetica,sans-Serif" font-size="10.00">+ setTimeout()</text>
</a>
</g>
</g>
<!-- Node2&#45;&gt;Node1 -->
<g id="edge1" class="edge">
<title>Node2&#45;&gt;Node1</title>
<path fill="none" stroke="midnightblue" d="M61.47,-150.61C64.83,-138.09 68.37,-124.92 71.69,-112.57"/>
<polygon fill="none" stroke="midnightblue" points="58.03,-149.92 58.81,-160.49 64.79,-151.74 58.03,-149.92"/>
</g>
<!-- Node3 -->
<g id="node3" class="node">
<title>Node3</title>
<g id="a_node3"><a xlink:title=" ">
<polygon fill="none" stroke="#bfbfbf" points="109.5,-182.5 109.5,-239.5 147.5,-239.5 147.5,-182.5 109.5,-182.5"/>
<text text-anchor="middle" x="128.5" y="-227.5" font-family="Helvetica,sans-Serif" font-size="10.00">bool</text>
<polyline fill="none" stroke="#bfbfbf" points="109.5,-220.5 147.5,-220.5 "/>
<text text-anchor="middle" x="128.5" y="-208.5" font-family="Helvetica,sans-Serif" font-size="10.00"> </text>
<polyline fill="none" stroke="#bfbfbf" points="109.5,-201.5 147.5,-201.5 "/>
<text text-anchor="middle" x="128.5" y="-189.5" font-family="Helvetica,sans-Serif" font-size="10.00"> </text>
</a>
</g>
</g>
<!-- Node3&#45;&gt;Node1 -->
<g id="edge2" class="edge">
<title>Node3&#45;&gt;Node1</title>
<path fill="none" stroke="#404040" d="M120.89,-182.38C116.43,-166.17 110.58,-144.92 104.97,-124.55"/>
<polygon fill="none" stroke="#404040" points="104.89,-124.28 99.44,-119.56 101.71,-112.71 107.15,-117.43 104.89,-124.28"/>
<text text-anchor="middle" x="133.5" y="-134" font-family="Helvetica,sans-Serif" font-size="10.00"> &#45;is_done_</text>
</g>
</g>
</svg>
