<?xml version="1.0" encoding="UTF-8" standalone="no"?>
<!DOCTYPE svg PUBLIC "-//W3C//DTD SVG 1.1//EN"
 "http://www.w3.org/Graphics/SVG/1.1/DTD/svg11.dtd">
<!-- Generated by graphviz version 2.43.0 (0)
 -->
<!-- Title: bst::Stopwatch Pages: 1 -->
<svg width="576pt" height="573pt"
 viewBox="0.00 0.00 576.46 573.00" xmlns="http://www.w3.org/2000/svg" xmlns:xlink="http://www.w3.org/1999/xlink">
<g id="graph0" class="graph" transform="scale(1 1) rotate(0) translate(4 569)">
<title>bst::Stopwatch</title>
<!-- Node1 -->
<g id="node1" class="node">
<title>Node1</title>
<g id="a_node1"><a xlink:title="A simple stopwatch class. Basic start (resume), stop (pause), and reset functionality.">
<polygon fill="#bfbfbf" stroke="black" points="188.96,-0.5 188.96,-211.5 334.96,-211.5 334.96,-0.5 188.96,-0.5"/>
<text text-anchor="middle" x="261.96" y="-199.5" font-family="Helvetica,sans-Serif" font-size="10.00">bst::Stopwatch</text>
<polyline fill="none" stroke="black" points="188.96,-192.5 334.96,-192.5 "/>
<text text-anchor="middle" x="261.96" y="-180.5" font-family="Helvetica,sans-Serif" font-size="10.00"> </text>
<polyline fill="none" stroke="black" points="188.96,-173.5 334.96,-173.5 "/>
<text text-anchor="start" x="196.96" y="-161.5" font-family="Helvetica,sans-Serif" font-size="10.00">+ Stopwatch()</text>
<text text-anchor="start" x="196.96" y="-150.5" font-family="Helvetica,sans-Serif" font-size="10.00">+ ~Stopwatch()</text>
<text text-anchor="start" x="196.96" y="-139.5" font-family="Helvetica,sans-Serif" font-size="10.00">+ elapsedMicroseconds()</text>
<text text-anchor="start" x="196.96" y="-128.5" font-family="Helvetica,sans-Serif" font-size="10.00">+ elapsedMicrosecondsF()</text>
<text text-anchor="start" x="196.96" y="-117.5" font-family="Helvetica,sans-Serif" font-size="10.00">+ elapsedMilliseconds()</text>
<text text-anchor="start" x="196.96" y="-106.5" font-family="Helvetica,sans-Serif" font-size="10.00">+ elapsedMillisecondsF()</text>
<text text-anchor="start" x="196.96" y="-95.5" font-family="Helvetica,sans-Serif" font-size="10.00">+ elapsedSeconds()</text>
<text text-anchor="start" x="196.96" y="-84.5" font-family="Helvetica,sans-Serif" font-size="10.00">+ elapsedSecondsF()</text>
<text text-anchor="start" x="196.96" y="-73.5" font-family="Helvetica,sans-Serif" font-size="10.00">+ isRunning()</text>
<text text-anchor="start" x="196.96" y="-62.5" font-family="Helvetica,sans-Serif" font-size="10.00">+ pause()</text>
<text text-anchor="start" x="196.96" y="-51.5" font-family="Helvetica,sans-Serif" font-size="10.00">+ reset()</text>
<text text-anchor="start" x="196.96" y="-40.5" font-family="Helvetica,sans-Serif" font-size="10.00">+ resume()</text>
<text text-anchor="start" x="196.96" y="-29.5" font-family="Helvetica,sans-Serif" font-size="10.00">+ start()</text>
<text text-anchor="start" x="196.96" y="-18.5" font-family="Helvetica,sans-Serif" font-size="10.00">+ stop()</text>
<text text-anchor="start" x="196.96" y="-7.5" font-family="Helvetica,sans-Serif" font-size="10.00"># getElapsed()</text>
</a>
</g>
</g>
<!-- Node2 -->
<g id="node2" class="node">
<title>Node2</title>
<g id="a_node2"><a xlink:href="classbst_1_1IStopwatch.html" target="_top" xlink:title=" ">
<polygon fill="none" stroke="black" points="68.96,-270.5 68.96,-459.5 214.96,-459.5 214.96,-270.5 68.96,-270.5"/>
<text text-anchor="middle" x="141.96" y="-447.5" font-family="Helvetica,sans-Serif" font-size="10.00">bst::IStopwatch</text>
<polyline fill="none" stroke="black" points="68.96,-440.5 214.96,-440.5 "/>
<text text-anchor="middle" x="141.96" y="-428.5" font-family="Helvetica,sans-Serif" font-size="10.00"> </text>
<polyline fill="none" stroke="black" points="68.96,-421.5 214.96,-421.5 "/>
<text text-anchor="start" x="76.96" y="-409.5" font-family="Helvetica,sans-Serif" font-size="10.00">+ ~IStopwatch()</text>
<text text-anchor="start" x="76.96" y="-398.5" font-family="Helvetica,sans-Serif" font-size="10.00">+ elapsedMicroseconds()</text>
<text text-anchor="start" x="76.96" y="-387.5" font-family="Helvetica,sans-Serif" font-size="10.00">+ elapsedMicrosecondsF()</text>
<text text-anchor="start" x="76.96" y="-376.5" font-family="Helvetica,sans-Serif" font-size="10.00">+ elapsedMilliseconds()</text>
<text text-anchor="start" x="76.96" y="-365.5" font-family="Helvetica,sans-Serif" font-size="10.00">+ elapsedMillisecondsF()</text>
<text text-anchor="start" x="76.96" y="-354.5" font-family="Helvetica,sans-Serif" font-size="10.00">+ elapsedSeconds()</text>
<text text-anchor="start" x="76.96" y="-343.5" font-family="Helvetica,sans-Serif" font-size="10.00">+ elapsedSecondsF()</text>
<text text-anchor="start" x="76.96" y="-332.5" font-family="Helvetica,sans-Serif" font-size="10.00">+ isRunning()</text>
<text text-anchor="start" x="76.96" y="-321.5" font-family="Helvetica,sans-Serif" font-size="10.00">+ pause()</text>
<text text-anchor="start" x="76.96" y="-310.5" font-family="Helvetica,sans-Serif" font-size="10.00">+ reset()</text>
<text text-anchor="start" x="76.96" y="-299.5" font-family="Helvetica,sans-Serif" font-size="10.00">+ resume()</text>
<text text-anchor="start" x="76.96" y="-288.5" font-family="Helvetica,sans-Serif" font-size="10.00">+ start()</text>
<text text-anchor="start" x="76.96" y="-277.5" font-family="Helvetica,sans-Serif" font-size="10.00">+ stop()</text>
</a>
</g>
</g>
<!-- Node2&#45;&gt;Node1 -->
<g id="edge1" class="edge">
<title>Node2&#45;&gt;Node1</title>
<path fill="none" stroke="midnightblue" d="M190.05,-261.01C197.62,-244.79 205.46,-228.01 213.05,-211.75"/>
<polygon fill="none" stroke="midnightblue" points="186.68,-259.95 185.62,-270.49 193.02,-262.91 186.68,-259.95"/>
</g>
<!-- Node3 -->
<g id="node3" class="node">
<title>Node3</title>
<g id="a_node3"><a xlink:title=" ">
<polygon fill="none" stroke="#bfbfbf" points="8.96,-507.5 8.96,-564.5 50.96,-564.5 50.96,-507.5 8.96,-507.5"/>
<text text-anchor="middle" x="29.96" y="-552.5" font-family="Helvetica,sans-Serif" font-size="10.00">State</text>
<polyline fill="none" stroke="#bfbfbf" points="8.96,-545.5 50.96,-545.5 "/>
<text text-anchor="middle" x="29.96" y="-533.5" font-family="Helvetica,sans-Serif" font-size="10.00"> </text>
<polyline fill="none" stroke="#bfbfbf" points="8.96,-526.5 50.96,-526.5 "/>
<text text-anchor="middle" x="29.96" y="-514.5" font-family="Helvetica,sans-Serif" font-size="10.00"> </text>
</a>
</g>
</g>
<!-- Node3&#45;&gt;Node1 -->
<g id="edge5" class="edge">
<title>Node3&#45;&gt;Node1</title>
<path fill="none" stroke="#404040" d="M20.89,-507.45C6,-456.98 -18.11,-347.72 22.96,-270 55.45,-208.52 122.71,-165.86 177.62,-139.65"/>
<polygon fill="none" stroke="#404040" points="177.9,-139.52 181.65,-133.36 188.78,-134.46 185.03,-140.62 177.9,-139.52"/>
<text text-anchor="middle" x="41.46" y="-362.5" font-family="Helvetica,sans-Serif" font-size="10.00"> &#45;state_</text>
</g>
<!-- Node3&#45;&gt;Node2 -->
<g id="edge2" class="edge">
<title>Node3&#45;&gt;Node2</title>
<path fill="none" stroke="#404040" d="M48.2,-507.47C55.34,-496.71 64,-483.64 73.14,-469.84"/>
<polygon fill="none" stroke="#404040" points="73.24,-469.69 73.22,-462.48 79.87,-459.69 79.89,-466.9 73.24,-469.69"/>
<text text-anchor="middle" x="87.96" y="-481" font-family="Helvetica,sans-Serif" font-size="10.00"> #state_</text>
</g>
<!-- Node4 -->
<g id="node4" class="node">
<title>Node4</title>
<g id="a_node4"><a xlink:title=" ">
<polygon fill="none" stroke="#bfbfbf" points="233.46,-336.5 233.46,-393.5 290.46,-393.5 290.46,-336.5 233.46,-336.5"/>
<text text-anchor="middle" x="261.96" y="-381.5" font-family="Helvetica,sans-Serif" font-size="10.00">duration</text>
<polyline fill="none" stroke="#bfbfbf" points="233.46,-374.5 290.46,-374.5 "/>
<text text-anchor="middle" x="261.96" y="-362.5" font-family="Helvetica,sans-Serif" font-size="10.00"> </text>
<polyline fill="none" stroke="#bfbfbf" points="233.46,-355.5 290.46,-355.5 "/>
<text text-anchor="middle" x="261.96" y="-343.5" font-family="Helvetica,sans-Serif" font-size="10.00"> </text>
</a>
</g>
</g>
<!-- Node4&#45;&gt;Node1 -->
<g id="edge3" class="edge">
<title>Node4&#45;&gt;Node1</title>
<path fill="none" stroke="#404040" d="M261.96,-336.5C261.96,-309.27 261.96,-265.71 261.96,-223.82"/>
<polygon fill="none" stroke="#404040" points="261.96,-223.77 257.96,-217.77 261.96,-211.77 265.96,-217.77 261.96,-223.77"/>
<text text-anchor="middle" x="287.46" y="-238.5" font-family="Helvetica,sans-Serif" font-size="10.00"> &#45;elapsed_</text>
</g>
<!-- Node5 -->
<g id="node5" class="node">
<title>Node5</title>
<g id="a_node5"><a xlink:title=" ">
<polygon fill="none" stroke="#bfbfbf" points="308.96,-336.5 308.96,-393.5 430.96,-393.5 430.96,-336.5 308.96,-336.5"/>
<text text-anchor="middle" x="369.96" y="-381.5" font-family="Helvetica,sans-Serif" font-size="10.00">high_resolution_clock</text>
<polyline fill="none" stroke="#bfbfbf" points="308.96,-374.5 430.96,-374.5 "/>
<text text-anchor="middle" x="369.96" y="-362.5" font-family="Helvetica,sans-Serif" font-size="10.00"> </text>
<polyline fill="none" stroke="#bfbfbf" points="308.96,-355.5 430.96,-355.5 "/>
<text text-anchor="middle" x="369.96" y="-343.5" font-family="Helvetica,sans-Serif" font-size="10.00"> </text>
</a>
</g>
</g>
<!-- Node5&#45;&gt;Node1 -->
<g id="edge4" class="edge">
<title>Node5&#45;&gt;Node1</title>
<path fill="none" stroke="#404040" d="M359.45,-336.4C349,-309.2 332.35,-266.54 316.96,-230 315.93,-227.55 314.88,-225.07 313.81,-222.58"/>
<polygon fill="none" stroke="#404040" points="313.81,-222.57 307.77,-218.63 309.08,-211.54 315.12,-215.48 313.81,-222.57"/>
<text text-anchor="middle" x="344.96" y="-238.5" font-family="Helvetica,sans-Serif" font-size="10.00"> &#45;clock_</text>
</g>
<!-- Node6 -->
<g id="node6" class="node">
<title>Node6</title>
<g id="a_node6"><a xlink:title=" ">
<polygon fill="none" stroke="#bfbfbf" points="449.46,-336.5 449.46,-393.5 568.46,-393.5 568.46,-336.5 449.46,-336.5"/>
<text text-anchor="middle" x="508.96" y="-381.5" font-family="Helvetica,sans-Serif" font-size="10.00">time_point&lt; Clock &gt;</text>
<polyline fill="none" stroke="#bfbfbf" points="449.46,-374.5 568.46,-374.5 "/>
<text text-anchor="middle" x="508.96" y="-362.5" font-family="Helvetica,sans-Serif" font-size="10.00"> </text>
<polyline fill="none" stroke="#bfbfbf" points="449.46,-355.5 568.46,-355.5 "/>
<text text-anchor="middle" x="508.96" y="-343.5" font-family="Helvetica,sans-Serif" font-size="10.00"> </text>
</a>
</g>
</g>
<!-- Node6&#45;&gt;Node1 -->
<g id="edge6" class="edge">
<title>Node6&#45;&gt;Node1</title>
<path fill="none" stroke="#404040" d="M490.67,-336.17C477.48,-316.86 458.75,-290.94 439.96,-270 410.67,-237.36 375.58,-204.16 344.32,-176.31"/>
<polygon fill="none" stroke="#404040" points="344.17,-176.18 337.03,-175.2 335.18,-168.23 342.33,-169.21 344.17,-176.18"/>
<text text-anchor="middle" x="450.96" y="-244" font-family="Helvetica,sans-Serif" font-size="10.00"> &#45;start_</text>
<text text-anchor="middle" x="450.96" y="-233" font-family="Helvetica,sans-Serif" font-size="10.00">&#45;stop_time_</text>
</g>
</g>
</svg>
