<?xml version="1.0" encoding="UTF-8" standalone="no"?>
<!DOCTYPE svg PUBLIC "-//W3C//DTD SVG 1.1//EN"
 "http://www.w3.org/Graphics/SVG/1.1/DTD/svg11.dtd">
<!-- Generated by graphviz version 2.43.0 (0)
 -->
<!-- Title: bst::Process::assertComplete Pages: 1 -->
<svg width="520pt" height="104pt"
 viewBox="0.00 0.00 520.00 104.00" xmlns="http://www.w3.org/2000/svg" xmlns:xlink="http://www.w3.org/1999/xlink">
<g id="graph0" class="graph" transform="scale(1 1) rotate(0) translate(4 100)">
<title>bst::Process::assertComplete</title>
<!-- Node1 -->
<g id="node1" class="node">
<title>Node1</title>
<g id="a_node1"><a xlink:title=" ">
<polygon fill="#bfbfbf" stroke="black" points="354,-38.5 354,-57.5 512,-57.5 512,-38.5 354,-38.5"/>
<text text-anchor="middle" x="433" y="-45.5" font-family="Helvetica,sans-Serif" font-size="10.00">bst::Process::assertComplete</text>
</a>
</g>
</g>
<!-- Node2 -->
<g id="node2" class="node">
<title>Node2</title>
<g id="a_node2"><a xlink:href="classbst_1_1Process.html#a2faf5c1ab432a8db219607d2bb6eff4e" target="_top" xlink:title=" ">
<polygon fill="none" stroke="black" points="178,-76.5 178,-95.5 318,-95.5 318,-76.5 178,-76.5"/>
<text text-anchor="middle" x="248" y="-83.5" font-family="Helvetica,sans-Serif" font-size="10.00">bst::Process::getExitCode</text>
</a>
</g>
</g>
<!-- Node1&#45;&gt;Node2 -->
<g id="edge1" class="edge">
<title>Node1&#45;&gt;Node2</title>
<path fill="none" stroke="midnightblue" d="M375.75,-59.68C349.79,-65.07 319.38,-71.39 294.85,-76.48"/>
<polygon fill="midnightblue" stroke="midnightblue" points="376.74,-63.05 385.82,-57.59 375.32,-56.2 376.74,-63.05"/>
</g>
<!-- Node5 -->
<g id="node5" class="node">
<title>Node5</title>
<g id="a_node5"><a xlink:href="classbst_1_1Process.html#ae3cb52cecf0cc13ea17e66ebd9b298c9" target="_top" xlink:title=" ">
<polygon fill="none" stroke="black" points="185,-38.5 185,-57.5 311,-57.5 311,-38.5 185,-38.5"/>
<text text-anchor="middle" x="248" y="-45.5" font-family="Helvetica,sans-Serif" font-size="10.00">bst::Process::getStderr</text>
</a>
</g>
</g>
<!-- Node1&#45;&gt;Node5 -->
<g id="edge4" class="edge">
<title>Node1&#45;&gt;Node5</title>
<path fill="none" stroke="midnightblue" d="M343.77,-48C332.73,-48 321.64,-48 311.12,-48"/>
<polygon fill="midnightblue" stroke="midnightblue" points="343.86,-51.5 353.86,-48 343.86,-44.5 343.86,-51.5"/>
</g>
<!-- Node6 -->
<g id="node6" class="node">
<title>Node6</title>
<g id="a_node6"><a xlink:href="classbst_1_1Process.html#a4f84316260d5f3ba65537abf7ded5304" target="_top" xlink:title=" ">
<polygon fill="none" stroke="black" points="184,-0.5 184,-19.5 312,-19.5 312,-0.5 184,-0.5"/>
<text text-anchor="middle" x="248" y="-7.5" font-family="Helvetica,sans-Serif" font-size="10.00">bst::Process::getStdout</text>
</a>
</g>
</g>
<!-- Node1&#45;&gt;Node6 -->
<g id="edge6" class="edge">
<title>Node1&#45;&gt;Node6</title>
<path fill="none" stroke="midnightblue" d="M375.75,-36.32C349.79,-30.93 319.38,-24.61 294.85,-19.52"/>
<polygon fill="midnightblue" stroke="midnightblue" points="375.32,-39.8 385.82,-38.41 376.74,-32.95 375.32,-39.8"/>
</g>
<!-- Node3 -->
<g id="node3" class="node">
<title>Node3</title>
<g id="a_node3"><a xlink:href="process__test_8cpp.html#a904e61a86eecf161200d732da0814715" target="_top" xlink:title=" ">
<polygon fill="none" stroke="black" points="77,-38.5 77,-57.5 142,-57.5 142,-38.5 77,-38.5"/>
<text text-anchor="middle" x="109.5" y="-45.5" font-family="Helvetica,sans-Serif" font-size="10.00">getOutput</text>
</a>
</g>
</g>
<!-- Node2&#45;&gt;Node3 -->
<g id="edge2" class="edge">
<title>Node2&#45;&gt;Node3</title>
<path fill="none" stroke="midnightblue" d="M202.49,-73.78C194.34,-71.54 185.91,-69.2 178,-67 166.27,-63.73 153.41,-60.12 142.08,-56.93"/>
<polygon fill="midnightblue" stroke="midnightblue" points="201.67,-77.19 212.24,-76.47 203.53,-70.44 201.67,-77.19"/>
</g>
<!-- Node4 -->
<g id="node4" class="node">
<title>Node4</title>
<g id="a_node4"><a xlink:href="process__test_8cpp.html#a2a3fb820745965d747a37acb3d034893" target="_top" xlink:title=" ">
<polygon fill="none" stroke="black" points="0,-38.5 0,-57.5 41,-57.5 41,-38.5 0,-38.5"/>
<text text-anchor="middle" x="20.5" y="-45.5" font-family="Helvetica,sans-Serif" font-size="10.00">TEST</text>
</a>
</g>
</g>
<!-- Node3&#45;&gt;Node4 -->
<g id="edge3" class="edge">
<title>Node3&#45;&gt;Node4</title>
<path fill="none" stroke="midnightblue" d="M66.32,-48C57.47,-48 48.54,-48 41,-48"/>
<polygon fill="midnightblue" stroke="midnightblue" points="66.6,-51.5 76.6,-48 66.6,-44.5 66.6,-51.5"/>
</g>
<!-- Node5&#45;&gt;Node3 -->
<g id="edge5" class="edge">
<title>Node5&#45;&gt;Node3</title>
<path fill="none" stroke="midnightblue" d="M174.68,-48C163.24,-48 151.95,-48 142.11,-48"/>
<polygon fill="midnightblue" stroke="midnightblue" points="174.74,-51.5 184.74,-48 174.74,-44.5 174.74,-51.5"/>
</g>
<!-- Node6&#45;&gt;Node3 -->
<g id="edge7" class="edge">
<title>Node6&#45;&gt;Node3</title>
<path fill="none" stroke="midnightblue" d="M202.49,-22.22C194.34,-24.46 185.91,-26.8 178,-29 166.27,-32.27 153.41,-35.88 142.08,-39.07"/>
<polygon fill="midnightblue" stroke="midnightblue" points="203.53,-25.56 212.24,-19.53 201.67,-18.81 203.53,-25.56"/>
</g>
</g>
</svg>
