<?xml version="1.0" encoding="UTF-8" standalone="no"?>
<!DOCTYPE svg PUBLIC "-//W3C//DTD SVG 1.1//EN"
 "http://www.w3.org/Graphics/SVG/1.1/DTD/svg11.dtd">
<!-- Generated by graphviz version 2.43.0 (0)
 -->
<!-- Title: bst::Stopwatch&lt; StopwatchClock &gt; Pages: 1 -->
<svg width="576pt" height="584pt"
 viewBox="0.00 0.00 576.10 584.00" xmlns="http://www.w3.org/2000/svg" xmlns:xlink="http://www.w3.org/1999/xlink">
<g id="graph0" class="graph" transform="scale(1 1) rotate(0) translate(4 580)">
<title>bst::Stopwatch&lt; StopwatchClock &gt;</title>
<!-- Node1 -->
<g id="node1" class="node">
<title>Node1</title>
<g id="a_node1"><a xlink:title="A simple stopwatch class. Basic start (resume), stop (pause), and reset functionality.">
<polygon fill="#bfbfbf" stroke="black" points="186.1,-0.5 186.1,-222.5 337.1,-222.5 337.1,-0.5 186.1,-0.5"/>
<text text-anchor="start" x="194.1" y="-210.5" font-family="Helvetica,sans-Serif" font-size="10.00">bst::Stopwatch&lt; Stopwatch</text>
<text text-anchor="middle" x="261.6" y="-199.5" font-family="Helvetica,sans-Serif" font-size="10.00">Clock &gt;</text>
<polyline fill="none" stroke="black" points="186.1,-192.5 337.1,-192.5 "/>
<text text-anchor="middle" x="261.6" y="-180.5" font-family="Helvetica,sans-Serif" font-size="10.00"> </text>
<polyline fill="none" stroke="black" points="186.1,-173.5 337.1,-173.5 "/>
<text text-anchor="start" x="194.1" y="-161.5" font-family="Helvetica,sans-Serif" font-size="10.00">+ Stopwatch()</text>
<text text-anchor="start" x="194.1" y="-150.5" font-family="Helvetica,sans-Serif" font-size="10.00">+ ~Stopwatch()</text>
<text text-anchor="start" x="194.1" y="-139.5" font-family="Helvetica,sans-Serif" font-size="10.00">+ elapsedMicroseconds()</text>
<text text-anchor="start" x="194.1" y="-128.5" font-family="Helvetica,sans-Serif" font-size="10.00">+ elapsedMicrosecondsF()</text>
<text text-anchor="start" x="194.1" y="-117.5" font-family="Helvetica,sans-Serif" font-size="10.00">+ elapsedMilliseconds()</text>
<text text-anchor="start" x="194.1" y="-106.5" font-family="Helvetica,sans-Serif" font-size="10.00">+ elapsedMillisecondsF()</text>
<text text-anchor="start" x="194.1" y="-95.5" font-family="Helvetica,sans-Serif" font-size="10.00">+ elapsedSeconds()</text>
<text text-anchor="start" x="194.1" y="-84.5" font-family="Helvetica,sans-Serif" font-size="10.00">+ elapsedSecondsF()</text>
<text text-anchor="start" x="194.1" y="-73.5" font-family="Helvetica,sans-Serif" font-size="10.00">+ isRunning()</text>
<text text-anchor="start" x="194.1" y="-62.5" font-family="Helvetica,sans-Serif" font-size="10.00">+ pause()</text>
<text text-anchor="start" x="194.1" y="-51.5" font-family="Helvetica,sans-Serif" font-size="10.00">+ reset()</text>
<text text-anchor="start" x="194.1" y="-40.5" font-family="Helvetica,sans-Serif" font-size="10.00">+ resume()</text>
<text text-anchor="start" x="194.1" y="-29.5" font-family="Helvetica,sans-Serif" font-size="10.00">+ start()</text>
<text text-anchor="start" x="194.1" y="-18.5" font-family="Helvetica,sans-Serif" font-size="10.00">+ stop()</text>
<text text-anchor="start" x="194.1" y="-7.5" font-family="Helvetica,sans-Serif" font-size="10.00"># getElapsed()</text>
</a>
</g>
</g>
<!-- Node2 -->
<g id="node2" class="node">
<title>Node2</title>
<g id="a_node2"><a xlink:href="classbst_1_1IStopwatch.html" target="_top" xlink:title=" ">
<polygon fill="none" stroke="black" points="68.6,-281.5 68.6,-470.5 214.6,-470.5 214.6,-281.5 68.6,-281.5"/>
<text text-anchor="middle" x="141.6" y="-458.5" font-family="Helvetica,sans-Serif" font-size="10.00">bst::IStopwatch</text>
<polyline fill="none" stroke="black" points="68.6,-451.5 214.6,-451.5 "/>
<text text-anchor="middle" x="141.6" y="-439.5" font-family="Helvetica,sans-Serif" font-size="10.00"> </text>
<polyline fill="none" stroke="black" points="68.6,-432.5 214.6,-432.5 "/>
<text text-anchor="start" x="76.6" y="-420.5" font-family="Helvetica,sans-Serif" font-size="10.00">+ ~IStopwatch()</text>
<text text-anchor="start" x="76.6" y="-409.5" font-family="Helvetica,sans-Serif" font-size="10.00">+ elapsedMicroseconds()</text>
<text text-anchor="start" x="76.6" y="-398.5" font-family="Helvetica,sans-Serif" font-size="10.00">+ elapsedMicrosecondsF()</text>
<text text-anchor="start" x="76.6" y="-387.5" font-family="Helvetica,sans-Serif" font-size="10.00">+ elapsedMilliseconds()</text>
<text text-anchor="start" x="76.6" y="-376.5" font-family="Helvetica,sans-Serif" font-size="10.00">+ elapsedMillisecondsF()</text>
<text text-anchor="start" x="76.6" y="-365.5" font-family="Helvetica,sans-Serif" font-size="10.00">+ elapsedSeconds()</text>
<text text-anchor="start" x="76.6" y="-354.5" font-family="Helvetica,sans-Serif" font-size="10.00">+ elapsedSecondsF()</text>
<text text-anchor="start" x="76.6" y="-343.5" font-family="Helvetica,sans-Serif" font-size="10.00">+ isRunning()</text>
<text text-anchor="start" x="76.6" y="-332.5" font-family="Helvetica,sans-Serif" font-size="10.00">+ pause()</text>
<text text-anchor="start" x="76.6" y="-321.5" font-family="Helvetica,sans-Serif" font-size="10.00">+ reset()</text>
<text text-anchor="start" x="76.6" y="-310.5" font-family="Helvetica,sans-Serif" font-size="10.00">+ resume()</text>
<text text-anchor="start" x="76.6" y="-299.5" font-family="Helvetica,sans-Serif" font-size="10.00">+ start()</text>
<text text-anchor="start" x="76.6" y="-288.5" font-family="Helvetica,sans-Serif" font-size="10.00">+ stop()</text>
</a>
</g>
</g>
<!-- Node2&#45;&gt;Node1 -->
<g id="edge1" class="edge">
<title>Node2&#45;&gt;Node1</title>
<path fill="none" stroke="midnightblue" d="M188.72,-271.91C196.11,-255.76 203.77,-239.01 211.22,-222.7"/>
<polygon fill="none" stroke="midnightblue" points="185.39,-270.79 184.41,-281.34 191.75,-273.7 185.39,-270.79"/>
</g>
<!-- Node3 -->
<g id="node3" class="node">
<title>Node3</title>
<g id="a_node3"><a xlink:title=" ">
<polygon fill="none" stroke="#bfbfbf" points="8.6,-518.5 8.6,-575.5 50.6,-575.5 50.6,-518.5 8.6,-518.5"/>
<text text-anchor="middle" x="29.6" y="-563.5" font-family="Helvetica,sans-Serif" font-size="10.00">State</text>
<polyline fill="none" stroke="#bfbfbf" points="8.6,-556.5 50.6,-556.5 "/>
<text text-anchor="middle" x="29.6" y="-544.5" font-family="Helvetica,sans-Serif" font-size="10.00"> </text>
<polyline fill="none" stroke="#bfbfbf" points="8.6,-537.5 50.6,-537.5 "/>
<text text-anchor="middle" x="29.6" y="-525.5" font-family="Helvetica,sans-Serif" font-size="10.00"> </text>
</a>
</g>
</g>
<!-- Node3&#45;&gt;Node1 -->
<g id="edge5" class="edge">
<title>Node3&#45;&gt;Node1</title>
<path fill="none" stroke="#404040" d="M20.53,-518.12C5.82,-467.57 -17.76,-358.83 22.6,-281 54.52,-219.44 120.41,-175.6 174.94,-148.1"/>
<polygon fill="none" stroke="#404040" points="175.27,-147.94 178.89,-141.7 186.04,-142.65 182.42,-148.88 175.27,-147.94"/>
<text text-anchor="middle" x="41.1" y="-373.5" font-family="Helvetica,sans-Serif" font-size="10.00"> &#45;state_</text>
</g>
<!-- Node3&#45;&gt;Node2 -->
<g id="edge2" class="edge">
<title>Node3&#45;&gt;Node2</title>
<path fill="none" stroke="#404040" d="M47.84,-518.47C54.97,-507.71 63.64,-494.64 72.78,-480.84"/>
<polygon fill="none" stroke="#404040" points="72.88,-480.69 72.86,-473.48 79.51,-470.69 79.53,-477.9 72.88,-480.69"/>
<text text-anchor="middle" x="87.6" y="-492" font-family="Helvetica,sans-Serif" font-size="10.00"> #state_</text>
</g>
<!-- Node4 -->
<g id="node4" class="node">
<title>Node4</title>
<g id="a_node4"><a xlink:title=" ">
<polygon fill="none" stroke="#bfbfbf" points="233.1,-347.5 233.1,-404.5 290.1,-404.5 290.1,-347.5 233.1,-347.5"/>
<text text-anchor="middle" x="261.6" y="-392.5" font-family="Helvetica,sans-Serif" font-size="10.00">duration</text>
<polyline fill="none" stroke="#bfbfbf" points="233.1,-385.5 290.1,-385.5 "/>
<text text-anchor="middle" x="261.6" y="-373.5" font-family="Helvetica,sans-Serif" font-size="10.00"> </text>
<polyline fill="none" stroke="#bfbfbf" points="233.1,-366.5 290.1,-366.5 "/>
<text text-anchor="middle" x="261.6" y="-354.5" font-family="Helvetica,sans-Serif" font-size="10.00"> </text>
</a>
</g>
</g>
<!-- Node4&#45;&gt;Node1 -->
<g id="edge3" class="edge">
<title>Node4&#45;&gt;Node1</title>
<path fill="none" stroke="#404040" d="M261.6,-347.4C261.6,-320.27 261.6,-276.91 261.6,-234.78"/>
<polygon fill="none" stroke="#404040" points="261.6,-234.66 257.6,-228.66 261.6,-222.66 265.6,-228.66 261.6,-234.66"/>
<text text-anchor="middle" x="287.1" y="-249.5" font-family="Helvetica,sans-Serif" font-size="10.00"> &#45;elapsed_</text>
</g>
<!-- Node5 -->
<g id="node5" class="node">
<title>Node5</title>
<g id="a_node5"><a xlink:title=" ">
<polygon fill="none" stroke="#bfbfbf" points="308.6,-347.5 308.6,-404.5 430.6,-404.5 430.6,-347.5 308.6,-347.5"/>
<text text-anchor="middle" x="369.6" y="-392.5" font-family="Helvetica,sans-Serif" font-size="10.00">high_resolution_clock</text>
<polyline fill="none" stroke="#bfbfbf" points="308.6,-385.5 430.6,-385.5 "/>
<text text-anchor="middle" x="369.6" y="-373.5" font-family="Helvetica,sans-Serif" font-size="10.00"> </text>
<polyline fill="none" stroke="#bfbfbf" points="308.6,-366.5 430.6,-366.5 "/>
<text text-anchor="middle" x="369.6" y="-354.5" font-family="Helvetica,sans-Serif" font-size="10.00"> </text>
</a>
</g>
</g>
<!-- Node5&#45;&gt;Node1 -->
<g id="edge4" class="edge">
<title>Node5&#45;&gt;Node1</title>
<path fill="none" stroke="#404040" d="M358.96,-347.45C348.41,-320.3 331.69,-277.67 316.6,-241 315.64,-238.68 314.67,-236.33 313.69,-233.97"/>
<polygon fill="none" stroke="#404040" points="313.66,-233.89 307.66,-229.89 309.05,-222.82 315.05,-226.82 313.66,-233.89"/>
<text text-anchor="middle" x="343.6" y="-249.5" font-family="Helvetica,sans-Serif" font-size="10.00"> &#45;clock_</text>
</g>
<!-- Node6 -->
<g id="node6" class="node">
<title>Node6</title>
<g id="a_node6"><a xlink:title=" ">
<polygon fill="none" stroke="#bfbfbf" points="449.1,-347.5 449.1,-404.5 568.1,-404.5 568.1,-347.5 449.1,-347.5"/>
<text text-anchor="middle" x="508.6" y="-392.5" font-family="Helvetica,sans-Serif" font-size="10.00">time_point&lt; Clock &gt;</text>
<polyline fill="none" stroke="#bfbfbf" points="449.1,-385.5 568.1,-385.5 "/>
<text text-anchor="middle" x="508.6" y="-373.5" font-family="Helvetica,sans-Serif" font-size="10.00"> </text>
<polyline fill="none" stroke="#bfbfbf" points="449.1,-366.5 568.1,-366.5 "/>
<text text-anchor="middle" x="508.6" y="-354.5" font-family="Helvetica,sans-Serif" font-size="10.00"> </text>
</a>
</g>
</g>
<!-- Node6&#45;&gt;Node1 -->
<g id="edge6" class="edge">
<title>Node6&#45;&gt;Node1</title>
<path fill="none" stroke="#404040" d="M490.2,-347.27C476.96,-328 458.22,-302.1 439.6,-281 410.9,-248.47 376.83,-215.14 346.22,-186.79"/>
<polygon fill="none" stroke="#404040" points="346.1,-186.67 338.97,-185.55 337.27,-178.54 344.39,-179.66 346.1,-186.67"/>
<text text-anchor="middle" x="450.6" y="-255" font-family="Helvetica,sans-Serif" font-size="10.00"> &#45;start_</text>
<text text-anchor="middle" x="450.6" y="-244" font-family="Helvetica,sans-Serif" font-size="10.00">&#45;stop_time_</text>
</g>
</g>
</svg>
