<?xml version="1.0" encoding="UTF-8" standalone="no"?>
<!DOCTYPE svg PUBLIC "-//W3C//DTD SVG 1.1//EN"
 "http://www.w3.org/Graphics/SVG/1.1/DTD/svg11.dtd">
<!-- Generated by graphviz version 2.43.0 (0)
 -->
<!-- Title: bst::geo::Path::distance Pages: 1 -->
<svg width="451pt" height="66pt"
 viewBox="0.00 0.00 451.00 66.00" xmlns="http://www.w3.org/2000/svg" xmlns:xlink="http://www.w3.org/1999/xlink">
<g id="graph0" class="graph" transform="scale(1 1) rotate(0) translate(4 62)">
<title>bst::geo::Path::distance</title>
<!-- Node1 -->
<g id="node1" class="node">
<title>Node1</title>
<g id="a_node1"><a xlink:title=" ">
<polygon fill="#bfbfbf" stroke="black" points="0,-19.5 0,-38.5 130,-38.5 130,-19.5 0,-19.5"/>
<text text-anchor="middle" x="65" y="-26.5" font-family="Helvetica,sans-Serif" font-size="10.00">bst::geo::Path::distance</text>
</a>
</g>
</g>
<!-- Node2 -->
<g id="node2" class="node">
<title>Node2</title>
<g id="a_node2"><a xlink:href="namespacebst_1_1geo.html#a1397b9fa084d6f595d9d20a24a37b5be" target="_top" xlink:title="Get the distance between two points in kilometers.">
<polygon fill="none" stroke="black" points="166,-19.5 166,-38.5 269,-38.5 269,-19.5 166,-19.5"/>
<text text-anchor="middle" x="217.5" y="-26.5" font-family="Helvetica,sans-Serif" font-size="10.00">bst::geo::distance</text>
</a>
</g>
</g>
<!-- Node1&#45;&gt;Node2 -->
<g id="edge1" class="edge">
<title>Node1&#45;&gt;Node2</title>
<path fill="none" stroke="midnightblue" d="M130.26,-29C138.67,-29 147.26,-29 155.61,-29"/>
<polygon fill="midnightblue" stroke="midnightblue" points="155.64,-32.5 165.64,-29 155.64,-25.5 155.64,-32.5"/>
</g>
<!-- Node3 -->
<g id="node3" class="node">
<title>Node3</title>
<g id="a_node3"><a xlink:href="classbst_1_1geo_1_1Point.html#a27b0ae1fa1110114a5f76304d2c4dd10" target="_top" xlink:title=" ">
<polygon fill="none" stroke="black" points="309,-38.5 309,-57.5 439,-57.5 439,-38.5 309,-38.5"/>
<text text-anchor="middle" x="374" y="-45.5" font-family="Helvetica,sans-Serif" font-size="10.00">bst::geo::Point::latitude</text>
</a>
</g>
</g>
<!-- Node2&#45;&gt;Node3 -->
<g id="edge2" class="edge">
<title>Node2&#45;&gt;Node3</title>
<path fill="none" stroke="midnightblue" d="M269.09,-35.22C278.59,-36.39 288.71,-37.63 298.76,-38.87"/>
<polygon fill="midnightblue" stroke="midnightblue" points="298.41,-42.35 308.76,-40.1 299.27,-35.41 298.41,-42.35"/>
</g>
<!-- Node4 -->
<g id="node4" class="node">
<title>Node4</title>
<g id="a_node4"><a xlink:href="classbst_1_1geo_1_1Point.html#ac93e692df104242a88e5c8b0a3409bc9" target="_top" xlink:title=" ">
<polygon fill="none" stroke="black" points="305,-0.5 305,-19.5 443,-19.5 443,-0.5 305,-0.5"/>
<text text-anchor="middle" x="374" y="-7.5" font-family="Helvetica,sans-Serif" font-size="10.00">bst::geo::Point::longitude</text>
</a>
</g>
</g>
<!-- Node2&#45;&gt;Node4 -->
<g id="edge3" class="edge">
<title>Node2&#45;&gt;Node4</title>
<path fill="none" stroke="midnightblue" d="M269.09,-22.78C277.31,-21.77 285.99,-20.7 294.69,-19.63"/>
<polygon fill="midnightblue" stroke="midnightblue" points="295.39,-23.07 304.89,-18.38 294.54,-16.12 295.39,-23.07"/>
</g>
</g>
</svg>
