<?xml version="1.0" encoding="UTF-8" standalone="no"?>
<!DOCTYPE svg PUBLIC "-//W3C//DTD SVG 1.1//EN"
 "http://www.w3.org/Graphics/SVG/1.1/DTD/svg11.dtd">
<!-- Generated by graphviz version 2.43.0 (0)
 -->
<!-- Title: bst::SoftwareStopwatch::stop Pages: 1 -->
<svg width="306pt" height="88pt"
 viewBox="0.00 0.00 306.00 88.00" xmlns="http://www.w3.org/2000/svg" xmlns:xlink="http://www.w3.org/1999/xlink">
<g id="graph0" class="graph" transform="scale(1 1) rotate(0) translate(4 84)">
<title>bst::SoftwareStopwatch::stop</title>
<!-- Node1 -->
<g id="node1" class="node">
<title>Node1</title>
<g id="a_node1"><a xlink:title=" ">
<polygon fill="#bfbfbf" stroke="black" points="167,-24.5 167,-54.5 298,-54.5 298,-24.5 167,-24.5"/>
<text text-anchor="start" x="175" y="-42.5" font-family="Helvetica,sans-Serif" font-size="10.00">bst::SoftwareStopwatch</text>
<text text-anchor="middle" x="232.5" y="-31.5" font-family="Helvetica,sans-Serif" font-size="10.00">::stop</text>
</a>
</g>
</g>
<!-- Node2 -->
<g id="node2" class="node">
<title>Node2</title>
<g id="a_node2"><a xlink:href="classbst_1_1SoftwareStopwatch.html#a53bf58d6e5d046c821a44f250b1b0b6b" target="_top" xlink:title=" ">
<polygon fill="none" stroke="black" points="0,-49.5 0,-79.5 131,-79.5 131,-49.5 0,-49.5"/>
<text text-anchor="start" x="8" y="-67.5" font-family="Helvetica,sans-Serif" font-size="10.00">bst::SoftwareStopwatch</text>
<text text-anchor="middle" x="65.5" y="-56.5" font-family="Helvetica,sans-Serif" font-size="10.00">::pause</text>
</a>
</g>
</g>
<!-- Node1&#45;&gt;Node2 -->
<g id="edge1" class="edge">
<title>Node1&#45;&gt;Node2</title>
<path fill="none" stroke="midnightblue" d="M156.76,-50.82C148.18,-52.12 139.48,-53.44 131.05,-54.72"/>
<polygon fill="midnightblue" stroke="midnightblue" points="157.4,-54.27 166.76,-49.31 156.35,-47.35 157.4,-54.27"/>
</g>
<!-- Node3 -->
<g id="node3" class="node">
<title>Node3</title>
<g id="a_node3"><a xlink:href="classbst_1_1SoftwareStopwatch.html#abf54cca37edf2823f359be70bb4d83a0" target="_top" xlink:title=" ">
<polygon fill="none" stroke="black" points="0,-0.5 0,-30.5 131,-30.5 131,-0.5 0,-0.5"/>
<text text-anchor="start" x="8" y="-18.5" font-family="Helvetica,sans-Serif" font-size="10.00">bst::SoftwareStopwatch</text>
<text text-anchor="middle" x="65.5" y="-7.5" font-family="Helvetica,sans-Serif" font-size="10.00">::reset</text>
</a>
</g>
</g>
<!-- Node1&#45;&gt;Node3 -->
<g id="edge2" class="edge">
<title>Node1&#45;&gt;Node3</title>
<path fill="none" stroke="midnightblue" d="M156.76,-28.63C148.18,-27.38 139.48,-26.12 131.05,-24.89"/>
<polygon fill="midnightblue" stroke="midnightblue" points="156.36,-32.11 166.76,-30.08 157.37,-25.18 156.36,-32.11"/>
</g>
</g>
</svg>
