<?xml version="1.0" encoding="UTF-8" standalone="no"?>
<!DOCTYPE svg PUBLIC "-//W3C//DTD SVG 1.1//EN"
 "http://www.w3.org/Graphics/SVG/1.1/DTD/svg11.dtd">
<!-- Generated by graphviz version 2.43.0 (0)
 -->
<!-- Title: bst::Pressure::millibars Pages: 1 -->
<svg width="416pt" height="47pt"
 viewBox="0.00 0.00 416.00 47.00" xmlns="http://www.w3.org/2000/svg" xmlns:xlink="http://www.w3.org/1999/xlink">
<g id="graph0" class="graph" transform="scale(1 1) rotate(0) translate(4 43)">
<title>bst::Pressure::millibars</title>
<!-- Node1 -->
<g id="node1" class="node">
<title>Node1</title>
<g id="a_node1"><a xlink:title=" ">
<polygon fill="#bfbfbf" stroke="black" points="280,-0.5 280,-19.5 408,-19.5 408,-0.5 280,-0.5"/>
<text text-anchor="middle" x="344" y="-7.5" font-family="Helvetica,sans-Serif" font-size="10.00">bst::Pressure::millibars</text>
</a>
</g>
</g>
<!-- Node2 -->
<g id="node2" class="node">
<title>Node2</title>
<g id="a_node2"><a xlink:href="classbst_1_1Pressure.html#a97776f78f27057065e1e91949bba0427" target="_top" xlink:title=" ">
<polygon fill="none" stroke="black" points="77,-19.5 77,-38.5 244,-38.5 244,-19.5 77,-19.5"/>
<text text-anchor="middle" x="160.5" y="-26.5" font-family="Helvetica,sans-Serif" font-size="10.00">bst::Pressure::setFromMillibars</text>
</a>
</g>
</g>
<!-- Node1&#45;&gt;Node2 -->
<g id="edge1" class="edge">
<title>Node1&#45;&gt;Node2</title>
<path fill="none" stroke="midnightblue" d="M269.7,-17.67C261.33,-18.55 252.77,-19.45 244.29,-20.33"/>
<polygon fill="midnightblue" stroke="midnightblue" points="270.19,-21.14 279.77,-16.62 269.46,-14.18 270.19,-21.14"/>
</g>
<!-- Node3 -->
<g id="node3" class="node">
<title>Node3</title>
<g id="a_node3"><a xlink:href="science__test_8cpp.html#ac052ebacfde7f84981dea28dc0d72d21" target="_top" xlink:title=" ">
<polygon fill="none" stroke="black" points="0,-0.5 0,-19.5 41,-19.5 41,-0.5 0,-0.5"/>
<text text-anchor="middle" x="20.5" y="-7.5" font-family="Helvetica,sans-Serif" font-size="10.00">TEST</text>
</a>
</g>
</g>
<!-- Node1&#45;&gt;Node3 -->
<g id="edge3" class="edge">
<title>Node1&#45;&gt;Node3</title>
<path fill="none" stroke="midnightblue" d="M269.65,-10C195.52,-10 85.74,-10 41.28,-10"/>
<polygon fill="midnightblue" stroke="midnightblue" points="269.87,-13.5 279.87,-10 269.87,-6.5 269.87,-13.5"/>
</g>
<!-- Node2&#45;&gt;Node3 -->
<g id="edge2" class="edge">
<title>Node2&#45;&gt;Node3</title>
<path fill="none" stroke="midnightblue" d="M80.01,-18.06C65.55,-16.06 51.71,-14.16 41.13,-12.7"/>
<polygon fill="midnightblue" stroke="midnightblue" points="79.71,-21.55 90.1,-19.44 80.67,-14.61 79.71,-21.55"/>
</g>
</g>
</svg>
