<?xml version="1.0" encoding="UTF-8" standalone="no"?>
<!DOCTYPE svg PUBLIC "-//W3C//DTD SVG 1.1//EN"
 "http://www.w3.org/Graphics/SVG/1.1/DTD/svg11.dtd">
<!-- Generated by graphviz version 2.43.0 (0)
 -->
<!-- Title: BoosterSeat::RollingAverage Pages: 1 -->
<svg width="260pt" height="226pt"
 viewBox="0.00 0.00 260.00 226.00" xmlns="http://www.w3.org/2000/svg" xmlns:xlink="http://www.w3.org/1999/xlink">
<g id="graph0" class="graph" transform="scale(1 1) rotate(0) translate(4 222)">
<title>BoosterSeat::RollingAverage</title>
<!-- Node1 -->
<g id="node1" class="node">
<title>Node1</title>
<g id="a_node1"><a xlink:title=" ">
<polygon fill="#bfbfbf" stroke="black" points="41.5,-0.5 41.5,-101.5 196.5,-101.5 196.5,-0.5 41.5,-0.5"/>
<text text-anchor="middle" x="119" y="-89.5" font-family="Helvetica,sans-Serif" font-size="10.00">BoosterSeat::RollingAverage</text>
<polyline fill="none" stroke="black" points="41.5,-82.5 196.5,-82.5 "/>
<text text-anchor="middle" x="119" y="-70.5" font-family="Helvetica,sans-Serif" font-size="10.00"> </text>
<polyline fill="none" stroke="black" points="41.5,-63.5 196.5,-63.5 "/>
<text text-anchor="start" x="49.5" y="-51.5" font-family="Helvetica,sans-Serif" font-size="10.00">+ RollingAverage()</text>
<text text-anchor="start" x="49.5" y="-40.5" font-family="Helvetica,sans-Serif" font-size="10.00">+ ~RollingAverage()</text>
<text text-anchor="start" x="49.5" y="-29.5" font-family="Helvetica,sans-Serif" font-size="10.00">+ count()</text>
<text text-anchor="start" x="49.5" y="-18.5" font-family="Helvetica,sans-Serif" font-size="10.00">+ getAverage()</text>
<text text-anchor="start" x="49.5" y="-7.5" font-family="Helvetica,sans-Serif" font-size="10.00">+ intervalCall()</text>
</a>
</g>
</g>
<!-- Node2 -->
<g id="node2" class="node">
<title>Node2</title>
<g id="a_node2"><a xlink:title=" ">
<polygon fill="none" stroke="#bfbfbf" points="0,-160.5 0,-217.5 50,-217.5 50,-160.5 0,-160.5"/>
<text text-anchor="middle" x="25" y="-205.5" font-family="Helvetica,sans-Serif" font-size="10.00">double</text>
<polyline fill="none" stroke="#bfbfbf" points="0,-198.5 50,-198.5 "/>
<text text-anchor="middle" x="25" y="-186.5" font-family="Helvetica,sans-Serif" font-size="10.00"> </text>
<polyline fill="none" stroke="#bfbfbf" points="0,-179.5 50,-179.5 "/>
<text text-anchor="middle" x="25" y="-167.5" font-family="Helvetica,sans-Serif" font-size="10.00"> </text>
</a>
</g>
</g>
<!-- Node2&#45;&gt;Node1 -->
<g id="edge1" class="edge">
<title>Node2&#45;&gt;Node1</title>
<path fill="none" stroke="#404040" d="M44.02,-160.48C53.75,-146.4 66,-128.68 77.76,-111.67"/>
<polygon fill="none" stroke="#404040" points="77.78,-111.64 77.9,-104.43 84.6,-101.76 84.48,-108.97 77.78,-111.64"/>
<text text-anchor="middle" x="92" y="-134" font-family="Helvetica,sans-Serif" font-size="10.00"> &#45;count_</text>
<text text-anchor="middle" x="92" y="-123" font-family="Helvetica,sans-Serif" font-size="10.00">&#45;sum_</text>
</g>
<!-- Node3 -->
<g id="node3" class="node">
<title>Node3</title>
<g id="a_node3"><a xlink:title=" ">
<polygon fill="none" stroke="#bfbfbf" points="68,-160.5 68,-217.5 170,-217.5 170,-160.5 68,-160.5"/>
<text text-anchor="middle" x="119" y="-205.5" font-family="Helvetica,sans-Serif" font-size="10.00">queue&lt; double &gt;</text>
<polyline fill="none" stroke="#bfbfbf" points="68,-198.5 170,-198.5 "/>
<text text-anchor="middle" x="119" y="-186.5" font-family="Helvetica,sans-Serif" font-size="10.00"> </text>
<polyline fill="none" stroke="#bfbfbf" points="68,-179.5 170,-179.5 "/>
<text text-anchor="middle" x="119" y="-167.5" font-family="Helvetica,sans-Serif" font-size="10.00"> </text>
</a>
</g>
</g>
<!-- Node3&#45;&gt;Node1 -->
<g id="edge2" class="edge">
<title>Node3&#45;&gt;Node1</title>
<path fill="none" stroke="#404040" d="M119,-160.48C119,-147.06 119,-130.33 119,-114.06"/>
<polygon fill="none" stroke="#404040" points="119,-113.76 115,-107.76 119,-101.76 123,-107.76 119,-113.76"/>
<text text-anchor="middle" x="140.5" y="-128.5" font-family="Helvetica,sans-Serif" font-size="10.00"> &#45;queue_</text>
</g>
<!-- Node4 -->
<g id="node4" class="node">
<title>Node4</title>
<g id="a_node4"><a xlink:title=" ">
<polygon fill="none" stroke="#bfbfbf" points="188.5,-160.5 188.5,-217.5 217.5,-217.5 217.5,-160.5 188.5,-160.5"/>
<text text-anchor="middle" x="203" y="-205.5" font-family="Helvetica,sans-Serif" font-size="10.00">int</text>
<polyline fill="none" stroke="#bfbfbf" points="188.5,-198.5 217.5,-198.5 "/>
<text text-anchor="middle" x="203" y="-186.5" font-family="Helvetica,sans-Serif" font-size="10.00"> </text>
<polyline fill="none" stroke="#bfbfbf" points="188.5,-179.5 217.5,-179.5 "/>
<text text-anchor="middle" x="203" y="-167.5" font-family="Helvetica,sans-Serif" font-size="10.00"> </text>
</a>
</g>
</g>
<!-- Node4&#45;&gt;Node1 -->
<g id="edge3" class="edge">
<title>Node4&#45;&gt;Node1</title>
<path fill="none" stroke="#404040" d="M188.89,-160.49C182.24,-147.96 174.03,-133.05 166,-120 164.39,-117.38 162.72,-114.72 161.01,-112.05"/>
<polygon fill="none" stroke="#404040" points="160.83,-111.78 154.2,-108.94 154.27,-101.73 160.9,-104.57 160.83,-111.78"/>
<text text-anchor="middle" x="214.5" y="-128.5" font-family="Helvetica,sans-Serif" font-size="10.00"> &#45;window_size_</text>
</g>
</g>
</svg>
