<?xml version="1.0" encoding="UTF-8" standalone="no"?>
<!DOCTYPE svg PUBLIC "-//W3C//DTD SVG 1.1//EN"
 "http://www.w3.org/Graphics/SVG/1.1/DTD/svg11.dtd">
<!-- Generated by graphviz version 2.43.0 (0)
 -->
<!-- Title: bst::Stopwatch::stop Pages: 1 -->
<svg width="361pt" height="104pt"
 viewBox="0.00 0.00 361.00 104.00" xmlns="http://www.w3.org/2000/svg" xmlns:xlink="http://www.w3.org/1999/xlink">
<g id="graph0" class="graph" transform="scale(1 1) rotate(0) translate(4 100)">
<title>bst::Stopwatch::stop</title>
<!-- Node1 -->
<g id="node1" class="node">
<title>Node1</title>
<g id="a_node1"><a xlink:title="Stops/Pauses the stopwatch. Does not reset the elapsed time.">
<polygon fill="#bfbfbf" stroke="black" points="237,-38.5 237,-57.5 353,-57.5 353,-38.5 237,-38.5"/>
<text text-anchor="middle" x="295" y="-45.5" font-family="Helvetica,sans-Serif" font-size="10.00">bst::Stopwatch::stop</text>
</a>
</g>
</g>
<!-- Node2 -->
<g id="node2" class="node">
<title>Node2</title>
<g id="a_node2"><a xlink:href="classbst_1_1Stopwatch.html#aeb6e75e372019bd8efd5aa2dc0ba5d72" target="_top" xlink:title="alias for stop() as it does what you want it to do.">
<polygon fill="none" stroke="black" points="77,-76.5 77,-95.5 201,-95.5 201,-76.5 77,-76.5"/>
<text text-anchor="middle" x="139" y="-83.5" font-family="Helvetica,sans-Serif" font-size="10.00">bst::Stopwatch::pause</text>
</a>
</g>
</g>
<!-- Node1&#45;&gt;Node2 -->
<g id="edge1" class="edge">
<title>Node1&#45;&gt;Node2</title>
<path fill="none" stroke="midnightblue" d="M245.21,-60.04C223.69,-65.35 198.77,-71.5 178.58,-76.48"/>
<polygon fill="midnightblue" stroke="midnightblue" points="246.27,-63.38 255.14,-57.59 244.59,-56.59 246.27,-63.38"/>
</g>
<!-- Node3 -->
<g id="node3" class="node">
<title>Node3</title>
<g id="a_node3"><a xlink:href="classbst_1_1Stopwatch.html#a3c7e3b115ecb2fa2aba4e2edd7402f85" target="_top" xlink:title="Resets the elapsed time. The stopwatch will keep running by default.">
<polygon fill="none" stroke="black" points="79.5,-38.5 79.5,-57.5 198.5,-57.5 198.5,-38.5 79.5,-38.5"/>
<text text-anchor="middle" x="139" y="-45.5" font-family="Helvetica,sans-Serif" font-size="10.00">bst::Stopwatch::reset</text>
</a>
</g>
</g>
<!-- Node1&#45;&gt;Node3 -->
<g id="edge2" class="edge">
<title>Node1&#45;&gt;Node3</title>
<path fill="none" stroke="midnightblue" d="M226.65,-48C217.33,-48 207.82,-48 198.68,-48"/>
<polygon fill="midnightblue" stroke="midnightblue" points="226.66,-51.5 236.66,-48 226.66,-44.5 226.66,-51.5"/>
</g>
<!-- Node5 -->
<g id="node5" class="node">
<title>Node5</title>
<g id="a_node5"><a xlink:href="stopwatch__test_8cpp.html#a418b5dce05baceae9562e6b91de651b4" target="_top" xlink:title=" ">
<polygon fill="none" stroke="black" points="118.5,-0.5 118.5,-19.5 159.5,-19.5 159.5,-0.5 118.5,-0.5"/>
<text text-anchor="middle" x="139" y="-7.5" font-family="Helvetica,sans-Serif" font-size="10.00">TEST</text>
</a>
</g>
</g>
<!-- Node1&#45;&gt;Node5 -->
<g id="edge4" class="edge">
<title>Node1&#45;&gt;Node5</title>
<path fill="none" stroke="midnightblue" d="M245.17,-35.95C216.18,-28.8 181,-20.12 159.57,-14.83"/>
<polygon fill="midnightblue" stroke="midnightblue" points="244.59,-39.41 255.14,-38.41 246.27,-32.62 244.59,-39.41"/>
</g>
<!-- Node4 -->
<g id="node4" class="node">
<title>Node4</title>
<g id="a_node4"><a xlink:href="stopwatch__test_8cpp.html#a0e52c268c6f41c238624573ccac9d677" target="_top" xlink:title=" ">
<polygon fill="none" stroke="black" points="0,-38.5 0,-57.5 41,-57.5 41,-38.5 0,-38.5"/>
<text text-anchor="middle" x="20.5" y="-45.5" font-family="Helvetica,sans-Serif" font-size="10.00">TEST</text>
</a>
</g>
</g>
<!-- Node3&#45;&gt;Node4 -->
<g id="edge3" class="edge">
<title>Node3&#45;&gt;Node4</title>
<path fill="none" stroke="midnightblue" d="M69.09,-48C58.88,-48 49.12,-48 41.12,-48"/>
<polygon fill="midnightblue" stroke="midnightblue" points="69.41,-51.5 79.41,-48 69.41,-44.5 69.41,-51.5"/>
</g>
</g>
</svg>
