<?xml version="1.0" encoding="UTF-8" standalone="no"?>
<!DOCTYPE svg PUBLIC "-//W3C//DTD SVG 1.1//EN"
 "http://www.w3.org/Graphics/SVG/1.1/DTD/svg11.dtd">
<!-- Generated by graphviz version 2.43.0 (0)
 -->
<!-- Title: bst::geo::Point Pages: 1 -->
<svg width="101pt" height="226pt"
 viewBox="0.00 0.00 101.00 226.00" xmlns="http://www.w3.org/2000/svg" xmlns:xlink="http://www.w3.org/1999/xlink">
<g id="graph0" class="graph" transform="scale(1 1) rotate(0) translate(4 222)">
<title>bst::geo::Point</title>
<!-- Node1 -->
<g id="node1" class="node">
<title>Node1</title>
<g id="a_node1"><a xlink:title="A geographical point.">
<polygon fill="#bfbfbf" stroke="black" points="0,-0.5 0,-101.5 93,-101.5 93,-0.5 0,-0.5"/>
<text text-anchor="middle" x="46.5" y="-89.5" font-family="Helvetica,sans-Serif" font-size="10.00">bst::geo::Point</text>
<polyline fill="none" stroke="black" points="0,-82.5 93,-82.5 "/>
<text text-anchor="middle" x="46.5" y="-70.5" font-family="Helvetica,sans-Serif" font-size="10.00"> </text>
<polyline fill="none" stroke="black" points="0,-63.5 93,-63.5 "/>
<text text-anchor="start" x="8" y="-51.5" font-family="Helvetica,sans-Serif" font-size="10.00">+ Point()</text>
<text text-anchor="start" x="8" y="-40.5" font-family="Helvetica,sans-Serif" font-size="10.00">+ Point()</text>
<text text-anchor="start" x="8" y="-29.5" font-family="Helvetica,sans-Serif" font-size="10.00">+ latitude()</text>
<text text-anchor="start" x="8" y="-18.5" font-family="Helvetica,sans-Serif" font-size="10.00">+ longitude()</text>
<text text-anchor="start" x="8" y="-7.5" font-family="Helvetica,sans-Serif" font-size="10.00">+ shootVector()</text>
</a>
</g>
</g>
<!-- Node2 -->
<g id="node2" class="node">
<title>Node2</title>
<g id="a_node2"><a xlink:title=" ">
<polygon fill="none" stroke="#bfbfbf" points="21.5,-160.5 21.5,-217.5 71.5,-217.5 71.5,-160.5 21.5,-160.5"/>
<text text-anchor="middle" x="46.5" y="-205.5" font-family="Helvetica,sans-Serif" font-size="10.00">double</text>
<polyline fill="none" stroke="#bfbfbf" points="21.5,-198.5 71.5,-198.5 "/>
<text text-anchor="middle" x="46.5" y="-186.5" font-family="Helvetica,sans-Serif" font-size="10.00"> </text>
<polyline fill="none" stroke="#bfbfbf" points="21.5,-179.5 71.5,-179.5 "/>
<text text-anchor="middle" x="46.5" y="-167.5" font-family="Helvetica,sans-Serif" font-size="10.00"> </text>
</a>
</g>
</g>
<!-- Node2&#45;&gt;Node1 -->
<g id="edge1" class="edge">
<title>Node2&#45;&gt;Node1</title>
<path fill="none" stroke="#404040" d="M46.5,-160.48C46.5,-147.06 46.5,-130.33 46.5,-114.06"/>
<polygon fill="none" stroke="#404040" points="46.5,-113.76 42.5,-107.76 46.5,-101.76 50.5,-107.76 46.5,-113.76"/>
<text text-anchor="middle" x="59" y="-134" font-family="Helvetica,sans-Serif" font-size="10.00"> &#45;lat_</text>
<text text-anchor="middle" x="59" y="-123" font-family="Helvetica,sans-Serif" font-size="10.00">&#45;lon_</text>
</g>
</g>
</svg>
