<?xml version="1.0" encoding="UTF-8" standalone="no"?>
<!DOCTYPE svg PUBLIC "-//W3C//DTD SVG 1.1//EN"
 "http://www.w3.org/Graphics/SVG/1.1/DTD/svg11.dtd">
<!-- Generated by graphviz version 2.43.0 (0)
 -->
<!-- Title: bst::ITimer Pages: 1 -->
<svg width="226pt" height="270pt"
 viewBox="0.00 0.00 226.00 270.00" xmlns="http://www.w3.org/2000/svg" xmlns:xlink="http://www.w3.org/1999/xlink">
<g id="graph0" class="graph" transform="scale(1 1) rotate(0) translate(4 266)">
<title>bst::ITimer</title>
<!-- Node1 -->
<g id="node1" class="node">
<title>Node1</title>
<g id="a_node1"><a xlink:title="Interface for a timer class.">
<polygon fill="#bfbfbf" stroke="black" points="68,-160.5 68,-261.5 159,-261.5 159,-160.5 68,-160.5"/>
<text text-anchor="middle" x="113.5" y="-249.5" font-family="Helvetica,sans-Serif" font-size="10.00">bst::ITimer</text>
<polyline fill="none" stroke="black" points="68,-242.5 159,-242.5 "/>
<text text-anchor="middle" x="113.5" y="-230.5" font-family="Helvetica,sans-Serif" font-size="10.00"> </text>
<polyline fill="none" stroke="black" points="68,-223.5 159,-223.5 "/>
<text text-anchor="start" x="76" y="-211.5" font-family="Helvetica,sans-Serif" font-size="10.00">+ ~ITimer()</text>
<text text-anchor="start" x="76" y="-200.5" font-family="Helvetica,sans-Serif" font-size="10.00">+ isDone()</text>
<text text-anchor="start" x="76" y="-189.5" font-family="Helvetica,sans-Serif" font-size="10.00">+ reset()</text>
<text text-anchor="start" x="76" y="-178.5" font-family="Helvetica,sans-Serif" font-size="10.00">+ setDone()</text>
<text text-anchor="start" x="76" y="-167.5" font-family="Helvetica,sans-Serif" font-size="10.00">+ setTimeout()</text>
</a>
</g>
</g>
<!-- Node2 -->
<g id="node2" class="node">
<title>Node2</title>
<g id="a_node2"><a xlink:href="classbst_1_1SoftwareTimer.html" target="_top" xlink:title="A software timer class for manual control.">
<polygon fill="none" stroke="black" points="0,-6 0,-118 109,-118 109,-6 0,-6"/>
<text text-anchor="middle" x="54.5" y="-106" font-family="Helvetica,sans-Serif" font-size="10.00">bst::SoftwareTimer</text>
<polyline fill="none" stroke="black" points="0,-99 109,-99 "/>
<text text-anchor="start" x="8" y="-87" font-family="Helvetica,sans-Serif" font-size="10.00">&#45; is_done_</text>
<polyline fill="none" stroke="black" points="0,-80 109,-80 "/>
<text text-anchor="start" x="8" y="-68" font-family="Helvetica,sans-Serif" font-size="10.00">+ SoftwareTimer()</text>
<text text-anchor="start" x="8" y="-57" font-family="Helvetica,sans-Serif" font-size="10.00">+ isDone()</text>
<text text-anchor="start" x="8" y="-46" font-family="Helvetica,sans-Serif" font-size="10.00">+ reset()</text>
<text text-anchor="start" x="8" y="-35" font-family="Helvetica,sans-Serif" font-size="10.00">+ setDone()</text>
<text text-anchor="start" x="8" y="-24" font-family="Helvetica,sans-Serif" font-size="10.00">+ setNotDone()</text>
<text text-anchor="start" x="8" y="-13" font-family="Helvetica,sans-Serif" font-size="10.00">+ setTimeout()</text>
</a>
</g>
</g>
<!-- Node1&#45;&gt;Node2 -->
<g id="edge1" class="edge">
<title>Node1&#45;&gt;Node2</title>
<path fill="none" stroke="midnightblue" d="M89.76,-150.84C85.41,-140 80.88,-128.73 76.58,-118.02"/>
<polygon fill="none" stroke="midnightblue" points="86.55,-152.26 93.53,-160.23 93.05,-149.65 86.55,-152.26"/>
</g>
<!-- Node3 -->
<g id="node3" class="node">
<title>Node3</title>
<g id="a_node3"><a xlink:href="classbst_1_1Timer.html" target="_top" xlink:title="A simple timer class for timing events.">
<polygon fill="none" stroke="black" points="127,-0.5 127,-123.5 218,-123.5 218,-0.5 127,-0.5"/>
<text text-anchor="middle" x="172.5" y="-111.5" font-family="Helvetica,sans-Serif" font-size="10.00">bst::Timer</text>
<polyline fill="none" stroke="black" points="127,-104.5 218,-104.5 "/>
<text text-anchor="start" x="135" y="-92.5" font-family="Helvetica,sans-Serif" font-size="10.00">&#45; start_</text>
<text text-anchor="start" x="135" y="-81.5" font-family="Helvetica,sans-Serif" font-size="10.00">&#45; timeout_ms_</text>
<polyline fill="none" stroke="black" points="127,-74.5 218,-74.5 "/>
<text text-anchor="start" x="135" y="-62.5" font-family="Helvetica,sans-Serif" font-size="10.00">+ Timer()</text>
<text text-anchor="start" x="135" y="-51.5" font-family="Helvetica,sans-Serif" font-size="10.00">+ Timer()</text>
<text text-anchor="start" x="135" y="-40.5" font-family="Helvetica,sans-Serif" font-size="10.00">+ isDone()</text>
<text text-anchor="start" x="135" y="-29.5" font-family="Helvetica,sans-Serif" font-size="10.00">+ reset()</text>
<text text-anchor="start" x="135" y="-18.5" font-family="Helvetica,sans-Serif" font-size="10.00">+ setDone()</text>
<text text-anchor="start" x="135" y="-7.5" font-family="Helvetica,sans-Serif" font-size="10.00">+ setTimeout()</text>
</a>
</g>
</g>
<!-- Node1&#45;&gt;Node3 -->
<g id="edge2" class="edge">
<title>Node1&#45;&gt;Node3</title>
<path fill="none" stroke="midnightblue" d="M137.3,-150.71C140.87,-141.8 144.56,-132.61 148.15,-123.67"/>
<polygon fill="none" stroke="midnightblue" points="133.95,-149.65 133.47,-160.23 140.45,-152.26 133.95,-149.65"/>
</g>
</g>
</svg>
