<?xml version="1.0" encoding="UTF-8" standalone="no"?>
<!DOCTYPE svg PUBLIC "-//W3C//DTD SVG 1.1//EN"
 "http://www.w3.org/Graphics/SVG/1.1/DTD/svg11.dtd">
<!-- Generated by graphviz version 2.43.0 (0)
 -->
<!-- Title: bst::SoftwareStopwatch Pages: 1 -->
<svg width="283pt" height="551pt"
 viewBox="0.00 0.00 283.42 551.00" xmlns="http://www.w3.org/2000/svg" xmlns:xlink="http://www.w3.org/1999/xlink">
<g id="graph0" class="graph" transform="scale(1 1) rotate(0) translate(4 547)">
<title>bst::SoftwareStopwatch</title>
<!-- Node1 -->
<g id="node1" class="node">
<title>Node1</title>
<g id="a_node1"><a xlink:title="A manually controlled stopwatch that does not use the system clock.">
<polygon fill="#bfbfbf" stroke="black" points="61.42,-0.5 61.42,-178.5 207.42,-178.5 207.42,-0.5 61.42,-0.5"/>
<text text-anchor="middle" x="134.42" y="-166.5" font-family="Helvetica,sans-Serif" font-size="10.00">bst::SoftwareStopwatch</text>
<polyline fill="none" stroke="black" points="61.42,-159.5 207.42,-159.5 "/>
<text text-anchor="middle" x="134.42" y="-147.5" font-family="Helvetica,sans-Serif" font-size="10.00"> </text>
<polyline fill="none" stroke="black" points="61.42,-140.5 207.42,-140.5 "/>
<text text-anchor="start" x="69.42" y="-128.5" font-family="Helvetica,sans-Serif" font-size="10.00">+ SoftwareStopwatch()</text>
<text text-anchor="start" x="69.42" y="-117.5" font-family="Helvetica,sans-Serif" font-size="10.00">+ ~SoftwareStopwatch()</text>
<text text-anchor="start" x="69.42" y="-106.5" font-family="Helvetica,sans-Serif" font-size="10.00">+ elapsedMicroseconds()</text>
<text text-anchor="start" x="69.42" y="-95.5" font-family="Helvetica,sans-Serif" font-size="10.00">+ elapsedMicrosecondsF()</text>
<text text-anchor="start" x="69.42" y="-84.5" font-family="Helvetica,sans-Serif" font-size="10.00">+ elapsedMilliseconds()</text>
<text text-anchor="start" x="69.42" y="-73.5" font-family="Helvetica,sans-Serif" font-size="10.00">+ elapsedMillisecondsF()</text>
<text text-anchor="start" x="69.42" y="-62.5" font-family="Helvetica,sans-Serif" font-size="10.00">+ elapsedSeconds()</text>
<text text-anchor="start" x="69.42" y="-51.5" font-family="Helvetica,sans-Serif" font-size="10.00">+ elapsedSecondsF()</text>
<text text-anchor="start" x="69.42" y="-40.5" font-family="Helvetica,sans-Serif" font-size="10.00">+ isRunning()</text>
<text text-anchor="start" x="69.42" y="-29.5" font-family="Helvetica,sans-Serif" font-size="10.00">+ pause()</text>
<text text-anchor="start" x="69.42" y="-18.5" font-family="Helvetica,sans-Serif" font-size="10.00">and 6 more...</text>
<text text-anchor="start" x="69.42" y="-7.5" font-family="Helvetica,sans-Serif" font-size="10.00"># getElapsed()</text>
</a>
</g>
</g>
<!-- Node2 -->
<g id="node2" class="node">
<title>Node2</title>
<g id="a_node2"><a xlink:href="classbst_1_1IStopwatch.html" target="_top" xlink:title=" ">
<polygon fill="none" stroke="black" points="61.42,-248.5 61.42,-437.5 207.42,-437.5 207.42,-248.5 61.42,-248.5"/>
<text text-anchor="middle" x="134.42" y="-425.5" font-family="Helvetica,sans-Serif" font-size="10.00">bst::IStopwatch</text>
<polyline fill="none" stroke="black" points="61.42,-418.5 207.42,-418.5 "/>
<text text-anchor="middle" x="134.42" y="-406.5" font-family="Helvetica,sans-Serif" font-size="10.00"> </text>
<polyline fill="none" stroke="black" points="61.42,-399.5 207.42,-399.5 "/>
<text text-anchor="start" x="69.42" y="-387.5" font-family="Helvetica,sans-Serif" font-size="10.00">+ ~IStopwatch()</text>
<text text-anchor="start" x="69.42" y="-376.5" font-family="Helvetica,sans-Serif" font-size="10.00">+ elapsedMicroseconds()</text>
<text text-anchor="start" x="69.42" y="-365.5" font-family="Helvetica,sans-Serif" font-size="10.00">+ elapsedMicrosecondsF()</text>
<text text-anchor="start" x="69.42" y="-354.5" font-family="Helvetica,sans-Serif" font-size="10.00">+ elapsedMilliseconds()</text>
<text text-anchor="start" x="69.42" y="-343.5" font-family="Helvetica,sans-Serif" font-size="10.00">+ elapsedMillisecondsF()</text>
<text text-anchor="start" x="69.42" y="-332.5" font-family="Helvetica,sans-Serif" font-size="10.00">+ elapsedSeconds()</text>
<text text-anchor="start" x="69.42" y="-321.5" font-family="Helvetica,sans-Serif" font-size="10.00">+ elapsedSecondsF()</text>
<text text-anchor="start" x="69.42" y="-310.5" font-family="Helvetica,sans-Serif" font-size="10.00">+ isRunning()</text>
<text text-anchor="start" x="69.42" y="-299.5" font-family="Helvetica,sans-Serif" font-size="10.00">+ pause()</text>
<text text-anchor="start" x="69.42" y="-288.5" font-family="Helvetica,sans-Serif" font-size="10.00">+ reset()</text>
<text text-anchor="start" x="69.42" y="-277.5" font-family="Helvetica,sans-Serif" font-size="10.00">+ resume()</text>
<text text-anchor="start" x="69.42" y="-266.5" font-family="Helvetica,sans-Serif" font-size="10.00">+ start()</text>
<text text-anchor="start" x="69.42" y="-255.5" font-family="Helvetica,sans-Serif" font-size="10.00">+ stop()</text>
</a>
</g>
</g>
<!-- Node2&#45;&gt;Node1 -->
<g id="edge1" class="edge">
<title>Node2&#45;&gt;Node1</title>
<path fill="none" stroke="midnightblue" d="M134.42,-238.12C134.42,-218.42 134.42,-197.98 134.42,-178.81"/>
<polygon fill="none" stroke="midnightblue" points="130.92,-238.35 134.42,-248.35 137.92,-238.35 130.92,-238.35"/>
</g>
<!-- Node3 -->
<g id="node3" class="node">
<title>Node3</title>
<g id="a_node3"><a xlink:title=" ">
<polygon fill="none" stroke="#bfbfbf" points="1.42,-485.5 1.42,-542.5 43.42,-542.5 43.42,-485.5 1.42,-485.5"/>
<text text-anchor="middle" x="22.42" y="-530.5" font-family="Helvetica,sans-Serif" font-size="10.00">State</text>
<polyline fill="none" stroke="#bfbfbf" points="1.42,-523.5 43.42,-523.5 "/>
<text text-anchor="middle" x="22.42" y="-511.5" font-family="Helvetica,sans-Serif" font-size="10.00"> </text>
<polyline fill="none" stroke="#bfbfbf" points="1.42,-504.5 43.42,-504.5 "/>
<text text-anchor="middle" x="22.42" y="-492.5" font-family="Helvetica,sans-Serif" font-size="10.00"> </text>
</a>
</g>
</g>
<!-- Node3&#45;&gt;Node1 -->
<g id="edge4" class="edge">
<title>Node3&#45;&gt;Node1</title>
<path fill="none" stroke="#404040" d="M15.64,-485.38C4.85,-436.17 -12.31,-330.69 15.42,-248 23.88,-222.78 38.14,-198.38 53.92,-176.61"/>
<polygon fill="none" stroke="#404040" points="54.07,-176.41 54.46,-169.21 61.26,-166.8 60.87,-174 54.07,-176.41"/>
<text text-anchor="middle" x="33.92" y="-340.5" font-family="Helvetica,sans-Serif" font-size="10.00"> &#45;state_</text>
</g>
<!-- Node3&#45;&gt;Node2 -->
<g id="edge2" class="edge">
<title>Node3&#45;&gt;Node2</title>
<path fill="none" stroke="#404040" d="M40.66,-485.47C47.8,-474.71 56.46,-461.64 65.6,-447.84"/>
<polygon fill="none" stroke="#404040" points="65.7,-447.69 65.68,-440.48 72.33,-437.69 72.35,-444.9 65.7,-447.69"/>
<text text-anchor="middle" x="80.42" y="-459" font-family="Helvetica,sans-Serif" font-size="10.00"> #state_</text>
</g>
<!-- Node4 -->
<g id="node4" class="node">
<title>Node4</title>
<g id="a_node4"><a xlink:title=" ">
<polygon fill="none" stroke="#bfbfbf" points="225.42,-314.5 225.42,-371.5 275.42,-371.5 275.42,-314.5 225.42,-314.5"/>
<text text-anchor="middle" x="250.42" y="-359.5" font-family="Helvetica,sans-Serif" font-size="10.00">int64_t</text>
<polyline fill="none" stroke="#bfbfbf" points="225.42,-352.5 275.42,-352.5 "/>
<text text-anchor="middle" x="250.42" y="-340.5" font-family="Helvetica,sans-Serif" font-size="10.00"> </text>
<polyline fill="none" stroke="#bfbfbf" points="225.42,-333.5 275.42,-333.5 "/>
<text text-anchor="middle" x="250.42" y="-321.5" font-family="Helvetica,sans-Serif" font-size="10.00"> </text>
</a>
</g>
</g>
<!-- Node4&#45;&gt;Node1 -->
<g id="edge3" class="edge">
<title>Node4&#45;&gt;Node1</title>
<path fill="none" stroke="#404040" d="M241.54,-314.47C235.17,-295.53 226.04,-269.93 216.42,-248 207.99,-228.8 198.25,-208.68 188.5,-189.49"/>
<polygon fill="none" stroke="#404040" points="188.4,-189.3 182.1,-185.78 182.92,-178.62 189.22,-182.13 188.4,-189.3"/>
<text text-anchor="middle" x="234.42" y="-222" font-family="Helvetica,sans-Serif" font-size="10.00"> &#45;elapsed_</text>
<text text-anchor="middle" x="234.42" y="-211" font-family="Helvetica,sans-Serif" font-size="10.00">&#45;start_</text>
<text text-anchor="middle" x="234.42" y="-200" font-family="Helvetica,sans-Serif" font-size="10.00">&#45;stop_time_</text>
</g>
</g>
</svg>
