<?xml version="1.0" encoding="UTF-8" standalone="no"?>
<!DOCTYPE svg PUBLIC "-//W3C//DTD SVG 1.1//EN"
 "http://www.w3.org/Graphics/SVG/1.1/DTD/svg11.dtd">
<!-- Generated by graphviz version 2.43.0 (0)
 -->
<!-- Title: bst::Stopwatch::getElapsed Pages: 1 -->
<svg width="476pt" height="218pt"
 viewBox="0.00 0.00 476.00 218.00" xmlns="http://www.w3.org/2000/svg" xmlns:xlink="http://www.w3.org/1999/xlink">
<g id="graph0" class="graph" transform="scale(1 1) rotate(0) translate(4 214)">
<title>bst::Stopwatch::getElapsed</title>
<!-- Node1 -->
<g id="node1" class="node">
<title>Node1</title>
<g id="a_node1"><a xlink:title="Handles the timekeeping.">
<polygon fill="#bfbfbf" stroke="black" points="319,-95.5 319,-114.5 468,-114.5 468,-95.5 319,-95.5"/>
<text text-anchor="middle" x="393.5" y="-102.5" font-family="Helvetica,sans-Serif" font-size="10.00">bst::Stopwatch::getElapsed</text>
</a>
</g>
</g>
<!-- Node2 -->
<g id="node2" class="node">
<title>Node2</title>
<g id="a_node2"><a xlink:href="classbst_1_1Stopwatch.html#a0285c49d8e6b1dea16f091ae74d94a65" target="_top" xlink:title="Get the elapsed time in microseconds.">
<polygon fill="none" stroke="black" points="80,-190.5 80,-209.5 280,-209.5 280,-190.5 80,-190.5"/>
<text text-anchor="middle" x="180" y="-197.5" font-family="Helvetica,sans-Serif" font-size="10.00">bst::Stopwatch::elapsedMicroseconds</text>
</a>
</g>
</g>
<!-- Node1&#45;&gt;Node2 -->
<g id="edge1" class="edge">
<title>Node1&#45;&gt;Node2</title>
<path fill="none" stroke="midnightblue" d="M374.27,-121.33C353.64,-138.89 318.29,-166.27 283,-181 273.69,-184.89 263.57,-187.98 253.45,-190.44"/>
<polygon fill="midnightblue" stroke="midnightblue" points="376.67,-123.89 381.92,-114.69 372.08,-118.6 376.67,-123.89"/>
</g>
<!-- Node4 -->
<g id="node4" class="node">
<title>Node4</title>
<g id="a_node4"><a xlink:href="classbst_1_1Stopwatch.html#aeda61723333ee15005f6b631fe20106e" target="_top" xlink:title="Get the elapsed time in microseconds in a floating point format.">
<polygon fill="none" stroke="black" points="77,-152.5 77,-171.5 283,-171.5 283,-152.5 77,-152.5"/>
<text text-anchor="middle" x="180" y="-159.5" font-family="Helvetica,sans-Serif" font-size="10.00">bst::Stopwatch::elapsedMicrosecondsF</text>
</a>
</g>
</g>
<!-- Node1&#45;&gt;Node4 -->
<g id="edge3" class="edge">
<title>Node1&#45;&gt;Node4</title>
<path fill="none" stroke="midnightblue" d="M358.85,-118.15C337.39,-126.16 308.86,-136.15 283,-143 269.33,-146.62 254.46,-149.81 240.4,-152.49"/>
<polygon fill="midnightblue" stroke="midnightblue" points="360.35,-121.32 368.47,-114.51 357.88,-114.77 360.35,-121.32"/>
</g>
<!-- Node6 -->
<g id="node6" class="node">
<title>Node6</title>
<g id="a_node6"><a xlink:href="classbst_1_1Stopwatch.html#ae721512a13d35bb2557f8388d34f9df5" target="_top" xlink:title="Get the elapsed time in milliseconds.">
<polygon fill="none" stroke="black" points="83,-114.5 83,-133.5 277,-133.5 277,-114.5 83,-114.5"/>
<text text-anchor="middle" x="180" y="-121.5" font-family="Helvetica,sans-Serif" font-size="10.00">bst::Stopwatch::elapsedMilliseconds</text>
</a>
</g>
</g>
<!-- Node1&#45;&gt;Node6 -->
<g id="edge5" class="edge">
<title>Node1&#45;&gt;Node6</title>
<path fill="none" stroke="midnightblue" d="M308.59,-112.54C298.25,-113.47 287.61,-114.42 277.1,-115.37"/>
<polygon fill="midnightblue" stroke="midnightblue" points="309.18,-116 318.82,-111.62 308.55,-109.03 309.18,-116"/>
</g>
<!-- Node7 -->
<g id="node7" class="node">
<title>Node7</title>
<g id="a_node7"><a xlink:href="classbst_1_1Stopwatch.html#a5952e7f881d3a051ec64edd4bc8cfd0a" target="_top" xlink:title="Get the elapsed time in milliseconds in a floating point format.">
<polygon fill="none" stroke="black" points="80,-76.5 80,-95.5 280,-95.5 280,-76.5 80,-76.5"/>
<text text-anchor="middle" x="180" y="-83.5" font-family="Helvetica,sans-Serif" font-size="10.00">bst::Stopwatch::elapsedMillisecondsF</text>
</a>
</g>
</g>
<!-- Node1&#45;&gt;Node7 -->
<g id="edge6" class="edge">
<title>Node1&#45;&gt;Node7</title>
<path fill="none" stroke="midnightblue" d="M308.72,-97.47C299.31,-96.63 289.66,-95.76 280.08,-94.9"/>
<polygon fill="midnightblue" stroke="midnightblue" points="308.55,-100.97 318.82,-98.38 309.18,-94 308.55,-100.97"/>
</g>
<!-- Node8 -->
<g id="node8" class="node">
<title>Node8</title>
<g id="a_node8"><a xlink:href="classbst_1_1Stopwatch.html#af82da5313ad8fe4e74275cae1ae8b23e" target="_top" xlink:title="Get the elapsed time in seconds.">
<polygon fill="none" stroke="black" points="93.5,-38.5 93.5,-57.5 266.5,-57.5 266.5,-38.5 93.5,-38.5"/>
<text text-anchor="middle" x="180" y="-45.5" font-family="Helvetica,sans-Serif" font-size="10.00">bst::Stopwatch::elapsedSeconds</text>
</a>
</g>
</g>
<!-- Node1&#45;&gt;Node8 -->
<g id="edge8" class="edge">
<title>Node1&#45;&gt;Node8</title>
<path fill="none" stroke="midnightblue" d="M358.85,-91.85C337.39,-83.84 308.86,-73.85 283,-67 269.33,-63.38 254.46,-60.19 240.4,-57.51"/>
<polygon fill="midnightblue" stroke="midnightblue" points="357.88,-95.23 368.47,-95.49 360.35,-88.68 357.88,-95.23"/>
</g>
<!-- Node9 -->
<g id="node9" class="node">
<title>Node9</title>
<g id="a_node9"><a xlink:href="classbst_1_1Stopwatch.html#a051a05564c88ca4c0988af317c6b5511" target="_top" xlink:title="Get the elapsed time in seconds in a floating point format.">
<polygon fill="none" stroke="black" points="90.5,-0.5 90.5,-19.5 269.5,-19.5 269.5,-0.5 90.5,-0.5"/>
<text text-anchor="middle" x="180" y="-7.5" font-family="Helvetica,sans-Serif" font-size="10.00">bst::Stopwatch::elapsedSecondsF</text>
</a>
</g>
</g>
<!-- Node1&#45;&gt;Node9 -->
<g id="edge9" class="edge">
<title>Node1&#45;&gt;Node9</title>
<path fill="none" stroke="midnightblue" d="M374.27,-88.67C353.64,-71.11 318.29,-43.73 283,-29 273.69,-25.11 263.57,-22.02 253.45,-19.56"/>
<polygon fill="midnightblue" stroke="midnightblue" points="372.08,-91.4 381.92,-95.31 376.67,-86.11 372.08,-91.4"/>
</g>
<!-- Node3 -->
<g id="node3" class="node">
<title>Node3</title>
<g id="a_node3"><a xlink:href="stopwatch__test_8cpp.html#a610c4b724a0642d98c020fb84b29d1cb" target="_top" xlink:title=" ">
<polygon fill="none" stroke="black" points="0,-190.5 0,-209.5 41,-209.5 41,-190.5 0,-190.5"/>
<text text-anchor="middle" x="20.5" y="-197.5" font-family="Helvetica,sans-Serif" font-size="10.00">TEST</text>
</a>
</g>
</g>
<!-- Node2&#45;&gt;Node3 -->
<g id="edge2" class="edge">
<title>Node2&#45;&gt;Node3</title>
<path fill="none" stroke="midnightblue" d="M69.62,-200C58.88,-200 49.05,-200 41.1,-200"/>
<polygon fill="midnightblue" stroke="midnightblue" points="69.7,-203.5 79.7,-200 69.7,-196.5 69.7,-203.5"/>
</g>
<!-- Node5 -->
<g id="node5" class="node">
<title>Node5</title>
<g id="a_node5"><a xlink:href="stopwatch__test_8cpp.html#a9be7c13549ce809b4413aa8092bc79d6" target="_top" xlink:title=" ">
<polygon fill="none" stroke="black" points="0,-76.5 0,-95.5 41,-95.5 41,-76.5 0,-76.5"/>
<text text-anchor="middle" x="20.5" y="-83.5" font-family="Helvetica,sans-Serif" font-size="10.00">TEST</text>
</a>
</g>
</g>
<!-- Node4&#45;&gt;Node5 -->
<g id="edge4" class="edge">
<title>Node4&#45;&gt;Node5</title>
<path fill="none" stroke="midnightblue" d="M90.47,-149.1C85.81,-147.32 81.29,-145.3 77,-143 55.57,-131.53 37.37,-108.89 28.09,-95.86"/>
<polygon fill="midnightblue" stroke="midnightblue" points="89.58,-152.5 100.18,-152.43 91.85,-145.88 89.58,-152.5"/>
</g>
<!-- Node7&#45;&gt;Node5 -->
<g id="edge7" class="edge">
<title>Node7&#45;&gt;Node5</title>
<path fill="none" stroke="midnightblue" d="M69.62,-86C58.88,-86 49.05,-86 41.1,-86"/>
<polygon fill="midnightblue" stroke="midnightblue" points="69.7,-89.5 79.7,-86 69.7,-82.5 69.7,-89.5"/>
</g>
<!-- Node9&#45;&gt;Node5 -->
<g id="edge10" class="edge">
<title>Node9&#45;&gt;Node5</title>
<path fill="none" stroke="midnightblue" d="M90.47,-22.9C85.81,-24.68 81.29,-26.7 77,-29 55.57,-40.47 37.37,-63.11 28.09,-76.14"/>
<polygon fill="midnightblue" stroke="midnightblue" points="91.85,-26.12 100.18,-19.57 89.58,-19.5 91.85,-26.12"/>
</g>
</g>
</svg>
