<?xml version="1.0" encoding="UTF-8" standalone="no"?>
<!DOCTYPE svg PUBLIC "-//W3C//DTD SVG 1.1//EN"
 "http://www.w3.org/Graphics/SVG/1.1/DTD/svg11.dtd">
<!-- Generated by graphviz version 2.43.0 (0)
 -->
<!-- Title: BoosterSeat::BoosterSeatException Pages: 1 -->
<svg width="392pt" height="226pt"
 viewBox="0.00 0.00 392.00 226.00" xmlns="http://www.w3.org/2000/svg" xmlns:xlink="http://www.w3.org/1999/xlink">
<g id="graph0" class="graph" transform="scale(1 1) rotate(0) translate(4 222)">
<title>BoosterSeat::BoosterSeatException</title>
<!-- Node1 -->
<g id="node1" class="node">
<title>Node1</title>
<g id="a_node1"><a xlink:title=" ">
<polygon fill="#bfbfbf" stroke="black" points="94.5,-0.5 94.5,-112.5 245.5,-112.5 245.5,-0.5 94.5,-0.5"/>
<text text-anchor="start" x="102.5" y="-100.5" font-family="Helvetica,sans-Serif" font-size="10.00">BoosterSeat::BoosterSeat</text>
<text text-anchor="middle" x="170" y="-89.5" font-family="Helvetica,sans-Serif" font-size="10.00">Exception</text>
<polyline fill="none" stroke="black" points="94.5,-82.5 245.5,-82.5 "/>
<text text-anchor="middle" x="170" y="-70.5" font-family="Helvetica,sans-Serif" font-size="10.00"> </text>
<polyline fill="none" stroke="black" points="94.5,-63.5 245.5,-63.5 "/>
<text text-anchor="start" x="102.5" y="-51.5" font-family="Helvetica,sans-Serif" font-size="10.00">+ BoosterSeatException()</text>
<text text-anchor="start" x="102.5" y="-40.5" font-family="Helvetica,sans-Serif" font-size="10.00">+ ~BoosterSeatException()</text>
<text text-anchor="start" x="102.5" y="-29.5" font-family="Helvetica,sans-Serif" font-size="10.00">+ errorNumber()</text>
<text text-anchor="start" x="102.5" y="-18.5" font-family="Helvetica,sans-Serif" font-size="10.00">+ errorNumberEnum()</text>
<text text-anchor="start" x="102.5" y="-7.5" font-family="Helvetica,sans-Serif" font-size="10.00">+ what()</text>
</a>
</g>
</g>
<!-- Node2 -->
<g id="node2" class="node">
<title>Node2</title>
<g id="a_node2"><a xlink:title=" ">
<polygon fill="none" stroke="#bfbfbf" points="0,-160.5 0,-217.5 86,-217.5 86,-160.5 0,-160.5"/>
<text text-anchor="middle" x="43" y="-205.5" font-family="Helvetica,sans-Serif" font-size="10.00">std::exception</text>
<polyline fill="none" stroke="#bfbfbf" points="0,-198.5 86,-198.5 "/>
<text text-anchor="middle" x="43" y="-186.5" font-family="Helvetica,sans-Serif" font-size="10.00"> </text>
<polyline fill="none" stroke="#bfbfbf" points="0,-179.5 86,-179.5 "/>
<text text-anchor="middle" x="43" y="-167.5" font-family="Helvetica,sans-Serif" font-size="10.00"> </text>
</a>
</g>
</g>
<!-- Node2&#45;&gt;Node1 -->
<g id="edge1" class="edge">
<title>Node2&#45;&gt;Node1</title>
<path fill="none" stroke="midnightblue" d="M77.19,-152.86C89.26,-140.46 103.14,-126.2 116.43,-112.55"/>
<polygon fill="none" stroke="midnightblue" points="74.4,-150.72 69.93,-160.32 79.42,-155.6 74.4,-150.72"/>
</g>
<!-- Node3 -->
<g id="node3" class="node">
<title>Node3</title>
<g id="a_node3"><a xlink:title=" ">
<polygon fill="none" stroke="#bfbfbf" points="104.5,-160.5 104.5,-217.5 133.5,-217.5 133.5,-160.5 104.5,-160.5"/>
<text text-anchor="middle" x="119" y="-205.5" font-family="Helvetica,sans-Serif" font-size="10.00">int</text>
<polyline fill="none" stroke="#bfbfbf" points="104.5,-198.5 133.5,-198.5 "/>
<text text-anchor="middle" x="119" y="-186.5" font-family="Helvetica,sans-Serif" font-size="10.00"> </text>
<polyline fill="none" stroke="#bfbfbf" points="104.5,-179.5 133.5,-179.5 "/>
<text text-anchor="middle" x="119" y="-167.5" font-family="Helvetica,sans-Serif" font-size="10.00"> </text>
</a>
</g>
</g>
<!-- Node3&#45;&gt;Node1 -->
<g id="edge2" class="edge">
<title>Node3&#45;&gt;Node1</title>
<path fill="none" stroke="#404040" d="M116.32,-160.23C116.23,-150.76 117.06,-140.24 120,-131 120.77,-128.59 121.64,-126.18 122.6,-123.79"/>
<polygon fill="none" stroke="#404040" points="122.67,-123.65 121.56,-116.53 127.71,-112.76 128.82,-119.89 122.67,-123.65"/>
<text text-anchor="middle" x="159.5" y="-134" font-family="Helvetica,sans-Serif" font-size="10.00"> &#45;error_number_</text>
</g>
<!-- Node4 -->
<g id="node4" class="node">
<title>Node4</title>
<g id="a_node4"><a xlink:title=" ">
<polygon fill="none" stroke="#bfbfbf" points="199,-160.5 199,-217.5 243,-217.5 243,-160.5 199,-160.5"/>
<text text-anchor="middle" x="221" y="-205.5" font-family="Helvetica,sans-Serif" font-size="10.00">string</text>
<polyline fill="none" stroke="#bfbfbf" points="199,-198.5 243,-198.5 "/>
<text text-anchor="middle" x="221" y="-186.5" font-family="Helvetica,sans-Serif" font-size="10.00"> </text>
<polyline fill="none" stroke="#bfbfbf" points="199,-179.5 243,-179.5 "/>
<text text-anchor="middle" x="221" y="-167.5" font-family="Helvetica,sans-Serif" font-size="10.00"> </text>
</a>
</g>
</g>
<!-- Node4&#45;&gt;Node1 -->
<g id="edge3" class="edge">
<title>Node4&#45;&gt;Node1</title>
<path fill="none" stroke="#404040" d="M210.41,-160.44C206.81,-151.09 202.74,-140.59 199,-131 198.14,-128.8 197.26,-126.55 196.38,-124.29"/>
<polygon fill="none" stroke="#404040" points="196.28,-124.04 190.36,-119.91 191.9,-112.87 197.81,-116.99 196.28,-124.04"/>
<text text-anchor="middle" x="231.5" y="-134" font-family="Helvetica,sans-Serif" font-size="10.00"> &#45;message_</text>
</g>
<!-- Node5 -->
<g id="node5" class="node">
<title>Node5</title>
<g id="a_node5"><a xlink:title=" ">
<polygon fill="none" stroke="#bfbfbf" points="261.5,-160.5 261.5,-217.5 340.5,-217.5 340.5,-160.5 261.5,-160.5"/>
<text text-anchor="middle" x="301" y="-205.5" font-family="Helvetica,sans-Serif" font-size="10.00">ErrorNumber</text>
<polyline fill="none" stroke="#bfbfbf" points="261.5,-198.5 340.5,-198.5 "/>
<text text-anchor="middle" x="301" y="-186.5" font-family="Helvetica,sans-Serif" font-size="10.00"> </text>
<polyline fill="none" stroke="#bfbfbf" points="261.5,-179.5 340.5,-179.5 "/>
<text text-anchor="middle" x="301" y="-167.5" font-family="Helvetica,sans-Serif" font-size="10.00"> </text>
</a>
</g>
</g>
<!-- Node5&#45;&gt;Node1 -->
<g id="edge4" class="edge">
<title>Node5&#45;&gt;Node1</title>
<path fill="none" stroke="#404040" d="M285.58,-160.28C279.5,-150.51 272.05,-139.79 264,-131 260.95,-127.67 257.74,-124.38 254.42,-121.14"/>
<polygon fill="none" stroke="#404040" points="254.16,-120.89 247.05,-119.71 245.4,-112.69 252.51,-113.87 254.16,-120.89"/>
<text text-anchor="middle" x="328" y="-134" font-family="Helvetica,sans-Serif" font-size="10.00"> &#45;error_number_enum_</text>
</g>
</g>
</svg>
