<?xml version="1.0" encoding="UTF-8" standalone="no"?>
<!DOCTYPE svg PUBLIC "-//W3C//DTD SVG 1.1//EN"
 "http://www.w3.org/Graphics/SVG/1.1/DTD/svg11.dtd">
<!-- Generated by graphviz version 2.43.0 (0)
 -->
<!-- Title: bst::Process Pages: 1 -->
<svg width="652pt" height="314pt"
 viewBox="0.00 0.00 652.00 314.00" xmlns="http://www.w3.org/2000/svg" xmlns:xlink="http://www.w3.org/1999/xlink">
<g id="graph0" class="graph" transform="scale(1 1) rotate(0) translate(4 310)">
<title>bst::Process</title>
<!-- Node1 -->
<g id="node1" class="node">
<title>Node1</title>
<g id="a_node1"><a xlink:title="A class to handle linux process calls.">
<polygon fill="#bfbfbf" stroke="black" points="275.5,-0.5 275.5,-167.5 390.5,-167.5 390.5,-0.5 275.5,-0.5"/>
<text text-anchor="middle" x="333" y="-155.5" font-family="Helvetica,sans-Serif" font-size="10.00">bst::Process</text>
<polyline fill="none" stroke="black" points="275.5,-148.5 390.5,-148.5 "/>
<text text-anchor="middle" x="333" y="-136.5" font-family="Helvetica,sans-Serif" font-size="10.00"> </text>
<polyline fill="none" stroke="black" points="275.5,-129.5 390.5,-129.5 "/>
<text text-anchor="start" x="283.5" y="-117.5" font-family="Helvetica,sans-Serif" font-size="10.00">+ Process()</text>
<text text-anchor="start" x="283.5" y="-106.5" font-family="Helvetica,sans-Serif" font-size="10.00">+ ~Process()</text>
<text text-anchor="start" x="283.5" y="-95.5" font-family="Helvetica,sans-Serif" font-size="10.00">+ closeInStream()</text>
<text text-anchor="start" x="283.5" y="-84.5" font-family="Helvetica,sans-Serif" font-size="10.00">+ getExitCode()</text>
<text text-anchor="start" x="283.5" y="-73.5" font-family="Helvetica,sans-Serif" font-size="10.00">+ getStderr()</text>
<text text-anchor="start" x="283.5" y="-62.5" font-family="Helvetica,sans-Serif" font-size="10.00">+ getStdout()</text>
<text text-anchor="start" x="283.5" y="-51.5" font-family="Helvetica,sans-Serif" font-size="10.00">+ waitToComplete()</text>
<text text-anchor="start" x="283.5" y="-40.5" font-family="Helvetica,sans-Serif" font-size="10.00">+ writeToInStream()</text>
<text text-anchor="start" x="283.5" y="-29.5" font-family="Helvetica,sans-Serif" font-size="10.00">&#45; assertComplete()</text>
<text text-anchor="start" x="283.5" y="-18.5" font-family="Helvetica,sans-Serif" font-size="10.00">&#45; child()</text>
<text text-anchor="start" x="283.5" y="-7.5" font-family="Helvetica,sans-Serif" font-size="10.00">&#45; run()</text>
</a>
</g>
</g>
<!-- Node2 -->
<g id="node2" class="node">
<title>Node2</title>
<g id="a_node2"><a xlink:title=" ">
<polygon fill="none" stroke="#bfbfbf" points="0,-248.5 0,-305.5 62,-305.5 62,-248.5 0,-248.5"/>
<text text-anchor="middle" x="31" y="-293.5" font-family="Helvetica,sans-Serif" font-size="10.00">istream *</text>
<polyline fill="none" stroke="#bfbfbf" points="0,-286.5 62,-286.5 "/>
<text text-anchor="middle" x="31" y="-274.5" font-family="Helvetica,sans-Serif" font-size="10.00"> </text>
<polyline fill="none" stroke="#bfbfbf" points="0,-267.5 62,-267.5 "/>
<text text-anchor="middle" x="31" y="-255.5" font-family="Helvetica,sans-Serif" font-size="10.00"> </text>
</a>
</g>
</g>
<!-- Node2&#45;&gt;Node1 -->
<g id="edge1" class="edge">
<title>Node2&#45;&gt;Node1</title>
<path fill="none" stroke="#404040" d="M42.55,-248.39C52,-228.72 67.05,-202.87 87,-186 138.29,-142.63 210.74,-115.93 263.73,-100.97"/>
<polygon fill="none" stroke="#404040" points="263.83,-100.94 268.56,-95.5 275.41,-97.77 270.68,-103.21 263.83,-100.94"/>
<text text-anchor="middle" x="120" y="-211" font-family="Helvetica,sans-Serif" font-size="10.00"> &#45;err_stream_</text>
<text text-anchor="middle" x="120" y="-200" font-family="Helvetica,sans-Serif" font-size="10.00">&#45;out_stream_</text>
</g>
<!-- Node3 -->
<g id="node3" class="node">
<title>Node3</title>
<g id="a_node3"><a xlink:title=" ">
<polygon fill="none" stroke="#bfbfbf" points="80,-248.5 80,-305.5 208,-305.5 208,-248.5 80,-248.5"/>
<text text-anchor="middle" x="144" y="-293.5" font-family="Helvetica,sans-Serif" font-size="10.00">stdio_filebuf&lt; char &gt; *</text>
<polyline fill="none" stroke="#bfbfbf" points="80,-286.5 208,-286.5 "/>
<text text-anchor="middle" x="144" y="-274.5" font-family="Helvetica,sans-Serif" font-size="10.00"> </text>
<polyline fill="none" stroke="#bfbfbf" points="80,-267.5 208,-267.5 "/>
<text text-anchor="middle" x="144" y="-255.5" font-family="Helvetica,sans-Serif" font-size="10.00"> </text>
</a>
</g>
</g>
<!-- Node3&#45;&gt;Node1 -->
<g id="edge2" class="edge">
<title>Node3&#45;&gt;Node1</title>
<path fill="none" stroke="#404040" d="M151.15,-248.18C157.07,-229.15 166.99,-204.18 182,-186 204.44,-158.83 236.05,-136.14 264.56,-119.19"/>
<polygon fill="none" stroke="#404040" points="264.92,-118.99 268.11,-112.52 275.31,-112.98 272.12,-119.45 264.92,-118.99"/>
<text text-anchor="middle" x="218.5" y="-216.5" font-family="Helvetica,sans-Serif" font-size="10.00"> &#45;p_err_filebuf_</text>
<text text-anchor="middle" x="218.5" y="-205.5" font-family="Helvetica,sans-Serif" font-size="10.00">&#45;p_in_filebuf_</text>
<text text-anchor="middle" x="218.5" y="-194.5" font-family="Helvetica,sans-Serif" font-size="10.00">&#45;p_out_filebuf_</text>
</g>
<!-- Node4 -->
<g id="node4" class="node">
<title>Node4</title>
<g id="a_node4"><a xlink:title=" ">
<polygon fill="none" stroke="#bfbfbf" points="226.5,-248.5 226.5,-305.5 291.5,-305.5 291.5,-248.5 226.5,-248.5"/>
<text text-anchor="middle" x="259" y="-293.5" font-family="Helvetica,sans-Serif" font-size="10.00">ostream *</text>
<polyline fill="none" stroke="#bfbfbf" points="226.5,-286.5 291.5,-286.5 "/>
<text text-anchor="middle" x="259" y="-274.5" font-family="Helvetica,sans-Serif" font-size="10.00"> </text>
<polyline fill="none" stroke="#bfbfbf" points="226.5,-267.5 291.5,-267.5 "/>
<text text-anchor="middle" x="259" y="-255.5" font-family="Helvetica,sans-Serif" font-size="10.00"> </text>
</a>
</g>
</g>
<!-- Node4&#45;&gt;Node1 -->
<g id="edge3" class="edge">
<title>Node4&#45;&gt;Node1</title>
<path fill="none" stroke="#404040" d="M258.45,-248.1C258.89,-229.95 261.02,-206.02 268,-186 268.83,-183.62 269.73,-181.23 270.69,-178.85"/>
<polygon fill="none" stroke="#404040" points="270.73,-178.76 269.49,-171.65 275.56,-167.77 276.81,-174.87 270.73,-178.76"/>
<text text-anchor="middle" x="298.5" y="-205.5" font-family="Helvetica,sans-Serif" font-size="10.00"> &#45;in_stream_</text>
</g>
<!-- Node5 -->
<g id="node5" class="node">
<title>Node5</title>
<g id="a_node5"><a xlink:title=" ">
<polygon fill="none" stroke="#bfbfbf" points="318.5,-248.5 318.5,-305.5 347.5,-305.5 347.5,-248.5 318.5,-248.5"/>
<text text-anchor="middle" x="333" y="-293.5" font-family="Helvetica,sans-Serif" font-size="10.00">int</text>
<polyline fill="none" stroke="#bfbfbf" points="318.5,-286.5 347.5,-286.5 "/>
<text text-anchor="middle" x="333" y="-274.5" font-family="Helvetica,sans-Serif" font-size="10.00"> </text>
<polyline fill="none" stroke="#bfbfbf" points="318.5,-267.5 347.5,-267.5 "/>
<text text-anchor="middle" x="333" y="-255.5" font-family="Helvetica,sans-Serif" font-size="10.00"> </text>
</a>
</g>
</g>
<!-- Node5&#45;&gt;Node1 -->
<g id="edge4" class="edge">
<title>Node5&#45;&gt;Node1</title>
<path fill="none" stroke="#404040" d="M333,-248.23C333,-230 333,-204.99 333,-180.02"/>
<polygon fill="none" stroke="#404040" points="333,-179.8 329,-173.8 333,-167.8 337,-173.8 333,-179.8"/>
<text text-anchor="middle" x="361.5" y="-222" font-family="Helvetica,sans-Serif" font-size="10.00"> &#45;err_pipe_</text>
<text text-anchor="middle" x="361.5" y="-211" font-family="Helvetica,sans-Serif" font-size="10.00">&#45;exit_code_</text>
<text text-anchor="middle" x="361.5" y="-200" font-family="Helvetica,sans-Serif" font-size="10.00">&#45;in_pipe_</text>
<text text-anchor="middle" x="361.5" y="-189" font-family="Helvetica,sans-Serif" font-size="10.00">&#45;out_pipe_</text>
</g>
<!-- Node6 -->
<g id="node6" class="node">
<title>Node6</title>
<g id="a_node6"><a xlink:title=" ">
<polygon fill="none" stroke="#bfbfbf" points="389.5,-248.5 389.5,-305.5 430.5,-305.5 430.5,-248.5 389.5,-248.5"/>
<text text-anchor="middle" x="410" y="-293.5" font-family="Helvetica,sans-Serif" font-size="10.00">pid_t</text>
<polyline fill="none" stroke="#bfbfbf" points="389.5,-286.5 430.5,-286.5 "/>
<text text-anchor="middle" x="410" y="-274.5" font-family="Helvetica,sans-Serif" font-size="10.00"> </text>
<polyline fill="none" stroke="#bfbfbf" points="389.5,-267.5 430.5,-267.5 "/>
<text text-anchor="middle" x="410" y="-255.5" font-family="Helvetica,sans-Serif" font-size="10.00"> </text>
</a>
</g>
</g>
<!-- Node6&#45;&gt;Node1 -->
<g id="edge5" class="edge">
<title>Node6&#45;&gt;Node1</title>
<path fill="none" stroke="#404040" d="M406.43,-248.19C403.55,-230.07 398.69,-206.14 391,-186 390.1,-183.64 389.15,-181.27 388.15,-178.89"/>
<polygon fill="none" stroke="#404040" points="388.08,-178.74 381.99,-174.88 383.21,-167.78 389.3,-171.63 388.08,-178.74"/>
<text text-anchor="middle" x="417" y="-205.5" font-family="Helvetica,sans-Serif" font-size="10.00"> &#45;pid_</text>
</g>
<!-- Node7 -->
<g id="node7" class="node">
<title>Node7</title>
<g id="a_node7"><a xlink:title=" ">
<polygon fill="none" stroke="#bfbfbf" points="449,-248.5 449,-305.5 493,-305.5 493,-248.5 449,-248.5"/>
<text text-anchor="middle" x="471" y="-293.5" font-family="Helvetica,sans-Serif" font-size="10.00">string</text>
<polyline fill="none" stroke="#bfbfbf" points="449,-286.5 493,-286.5 "/>
<text text-anchor="middle" x="471" y="-274.5" font-family="Helvetica,sans-Serif" font-size="10.00"> </text>
<polyline fill="none" stroke="#bfbfbf" points="449,-267.5 493,-267.5 "/>
<text text-anchor="middle" x="471" y="-255.5" font-family="Helvetica,sans-Serif" font-size="10.00"> </text>
</a>
</g>
</g>
<!-- Node7&#45;&gt;Node1 -->
<g id="edge6" class="edge">
<title>Node7&#45;&gt;Node1</title>
<path fill="none" stroke="#404040" d="M463.15,-248.19C457.15,-229.64 447.74,-205.22 435,-186 424.89,-170.75 412.19,-155.94 399.22,-142.57"/>
<polygon fill="none" stroke="#404040" points="399.15,-142.5 392.08,-141.08 390.68,-134.01 397.75,-135.43 399.15,-142.5"/>
<text text-anchor="middle" x="493" y="-211" font-family="Helvetica,sans-Serif" font-size="10.00"> &#45;stderr_string_</text>
<text text-anchor="middle" x="493" y="-200" font-family="Helvetica,sans-Serif" font-size="10.00">&#45;stdout_string_</text>
</g>
<!-- Node8 -->
<g id="node8" class="node">
<title>Node8</title>
<g id="a_node8"><a xlink:title=" ">
<polygon fill="none" stroke="#bfbfbf" points="544,-248.5 544,-305.5 582,-305.5 582,-248.5 544,-248.5"/>
<text text-anchor="middle" x="563" y="-293.5" font-family="Helvetica,sans-Serif" font-size="10.00">bool</text>
<polyline fill="none" stroke="#bfbfbf" points="544,-286.5 582,-286.5 "/>
<text text-anchor="middle" x="563" y="-274.5" font-family="Helvetica,sans-Serif" font-size="10.00"> </text>
<polyline fill="none" stroke="#bfbfbf" points="544,-267.5 582,-267.5 "/>
<text text-anchor="middle" x="563" y="-255.5" font-family="Helvetica,sans-Serif" font-size="10.00"> </text>
</a>
</g>
</g>
<!-- Node8&#45;&gt;Node1 -->
<g id="edge7" class="edge">
<title>Node8&#45;&gt;Node1</title>
<path fill="none" stroke="#404040" d="M559.82,-248.47C556.33,-229.09 549.06,-203.58 534,-186 499.59,-145.85 445.36,-119.91 401.89,-104.39"/>
<polygon fill="none" stroke="#404040" points="401.86,-104.38 394.89,-106.21 390.51,-100.48 397.49,-98.65 401.86,-104.38"/>
<text text-anchor="middle" x="599.5" y="-205.5" font-family="Helvetica,sans-Serif" font-size="10.00"> &#45;have_exit_code_</text>
</g>
</g>
</svg>
