<?xml version="1.0" encoding="UTF-8" standalone="no"?>
<!DOCTYPE svg PUBLIC "-//W3C//DTD SVG 1.1//EN"
 "http://www.w3.org/Graphics/SVG/1.1/DTD/svg11.dtd">
<!-- Generated by graphviz version 2.43.0 (0)
 -->
<!-- Title: bst::geo::Path Pages: 1 -->
<svg width="148pt" height="248pt"
 viewBox="0.00 0.00 148.00 248.00" xmlns="http://www.w3.org/2000/svg" xmlns:xlink="http://www.w3.org/1999/xlink">
<g id="graph0" class="graph" transform="scale(1 1) rotate(0) translate(4 244)">
<title>bst::geo::Path</title>
<!-- Node1 -->
<g id="node1" class="node">
<title>Node1</title>
<g id="a_node1"><a xlink:title="A path of geographical points.">
<polygon fill="#bfbfbf" stroke="black" points="18,-0.5 18,-134.5 122,-134.5 122,-0.5 18,-0.5"/>
<text text-anchor="middle" x="70" y="-122.5" font-family="Helvetica,sans-Serif" font-size="10.00">bst::geo::Path</text>
<polyline fill="none" stroke="black" points="18,-115.5 122,-115.5 "/>
<text text-anchor="middle" x="70" y="-103.5" font-family="Helvetica,sans-Serif" font-size="10.00"> </text>
<polyline fill="none" stroke="black" points="18,-96.5 122,-96.5 "/>
<text text-anchor="start" x="26" y="-84.5" font-family="Helvetica,sans-Serif" font-size="10.00">+ Path()</text>
<text text-anchor="start" x="26" y="-73.5" font-family="Helvetica,sans-Serif" font-size="10.00">+ Path()</text>
<text text-anchor="start" x="26" y="-62.5" font-family="Helvetica,sans-Serif" font-size="10.00">+ addPoint()</text>
<text text-anchor="start" x="26" y="-51.5" font-family="Helvetica,sans-Serif" font-size="10.00">+ distance()</text>
<text text-anchor="start" x="26" y="-40.5" font-family="Helvetica,sans-Serif" font-size="10.00">+ getFirstPoint()</text>
<text text-anchor="start" x="26" y="-29.5" font-family="Helvetica,sans-Serif" font-size="10.00">+ getLastPoint()</text>
<text text-anchor="start" x="26" y="-18.5" font-family="Helvetica,sans-Serif" font-size="10.00">+ getNumPoints()</text>
<text text-anchor="start" x="26" y="-7.5" font-family="Helvetica,sans-Serif" font-size="10.00">+ points()</text>
</a>
</g>
</g>
<!-- Node2 -->
<g id="node2" class="node">
<title>Node2</title>
<g id="a_node2"><a xlink:title=" ">
<polygon fill="none" stroke="#bfbfbf" points="0,-182.5 0,-239.5 140,-239.5 140,-182.5 0,-182.5"/>
<text text-anchor="middle" x="70" y="-227.5" font-family="Helvetica,sans-Serif" font-size="10.00">vector&lt; bst::geo::Point &gt;</text>
<polyline fill="none" stroke="#bfbfbf" points="0,-220.5 140,-220.5 "/>
<text text-anchor="middle" x="70" y="-208.5" font-family="Helvetica,sans-Serif" font-size="10.00"> </text>
<polyline fill="none" stroke="#bfbfbf" points="0,-201.5 140,-201.5 "/>
<text text-anchor="middle" x="70" y="-189.5" font-family="Helvetica,sans-Serif" font-size="10.00"> </text>
</a>
</g>
</g>
<!-- Node2&#45;&gt;Node1 -->
<g id="edge1" class="edge">
<title>Node2&#45;&gt;Node1</title>
<path fill="none" stroke="#404040" d="M70,-182.38C70,-172.02 70,-159.66 70,-146.97"/>
<polygon fill="none" stroke="#404040" points="70,-146.75 66,-140.75 70,-134.75 74,-140.75 70,-146.75"/>
<text text-anchor="middle" x="91.5" y="-156" font-family="Helvetica,sans-Serif" font-size="10.00"> &#45;points_</text>
</g>
</g>
</svg>
