<?xml version="1.0" encoding="UTF-8" standalone="no"?>
<!DOCTYPE svg PUBLIC "-//W3C//DTD SVG 1.1//EN"
 "http://www.w3.org/Graphics/SVG/1.1/DTD/svg11.dtd">
<!-- Generated by graphviz version 2.43.0 (0)
 -->
<!-- Title: bst::RollingAverage Pages: 1 -->
<svg width="256pt" height="204pt"
 viewBox="0.00 0.00 256.00 204.00" xmlns="http://www.w3.org/2000/svg" xmlns:xlink="http://www.w3.org/1999/xlink">
<g id="graph0" class="graph" transform="scale(1 1) rotate(0) translate(4 200)">
<title>bst::RollingAverage</title>
<!-- Node1 -->
<g id="node1" class="node">
<title>Node1</title>
<g id="a_node1"><a xlink:title="Moving average calculator.">
<polygon fill="#bfbfbf" stroke="black" points="60.5,-0.5 60.5,-90.5 177.5,-90.5 177.5,-0.5 60.5,-0.5"/>
<text text-anchor="middle" x="119" y="-78.5" font-family="Helvetica,sans-Serif" font-size="10.00">bst::RollingAverage</text>
<polyline fill="none" stroke="black" points="60.5,-71.5 177.5,-71.5 "/>
<text text-anchor="middle" x="119" y="-59.5" font-family="Helvetica,sans-Serif" font-size="10.00"> </text>
<polyline fill="none" stroke="black" points="60.5,-52.5 177.5,-52.5 "/>
<text text-anchor="start" x="68.5" y="-40.5" font-family="Helvetica,sans-Serif" font-size="10.00">+ RollingAverage()</text>
<text text-anchor="start" x="68.5" y="-29.5" font-family="Helvetica,sans-Serif" font-size="10.00">+ ~RollingAverage()</text>
<text text-anchor="start" x="68.5" y="-18.5" font-family="Helvetica,sans-Serif" font-size="10.00">+ addValue()</text>
<text text-anchor="start" x="68.5" y="-7.5" font-family="Helvetica,sans-Serif" font-size="10.00">+ getAverage()</text>
</a>
</g>
</g>
<!-- Node2 -->
<g id="node2" class="node">
<title>Node2</title>
<g id="a_node2"><a xlink:title=" ">
<polygon fill="none" stroke="#bfbfbf" points="0,-138.5 0,-195.5 50,-195.5 50,-138.5 0,-138.5"/>
<text text-anchor="middle" x="25" y="-183.5" font-family="Helvetica,sans-Serif" font-size="10.00">double</text>
<polyline fill="none" stroke="#bfbfbf" points="0,-176.5 50,-176.5 "/>
<text text-anchor="middle" x="25" y="-164.5" font-family="Helvetica,sans-Serif" font-size="10.00"> </text>
<polyline fill="none" stroke="#bfbfbf" points="0,-157.5 50,-157.5 "/>
<text text-anchor="middle" x="25" y="-145.5" font-family="Helvetica,sans-Serif" font-size="10.00"> </text>
</a>
</g>
</g>
<!-- Node2&#45;&gt;Node1 -->
<g id="edge1" class="edge">
<title>Node2&#45;&gt;Node1</title>
<path fill="none" stroke="#404040" d="M46.8,-138.28C55.7,-126.97 66.32,-113.47 76.64,-100.36"/>
<polygon fill="none" stroke="#404040" points="76.65,-100.34 77.21,-93.16 84.06,-90.91 83.5,-98.1 76.65,-100.34"/>
<text text-anchor="middle" x="87" y="-112" font-family="Helvetica,sans-Serif" font-size="10.00"> &#45;sum_</text>
</g>
<!-- Node3 -->
<g id="node3" class="node">
<title>Node3</title>
<g id="a_node3"><a xlink:title=" ">
<polygon fill="none" stroke="#bfbfbf" points="68,-138.5 68,-195.5 170,-195.5 170,-138.5 68,-138.5"/>
<text text-anchor="middle" x="119" y="-183.5" font-family="Helvetica,sans-Serif" font-size="10.00">queue&lt; double &gt;</text>
<polyline fill="none" stroke="#bfbfbf" points="68,-176.5 170,-176.5 "/>
<text text-anchor="middle" x="119" y="-164.5" font-family="Helvetica,sans-Serif" font-size="10.00"> </text>
<polyline fill="none" stroke="#bfbfbf" points="68,-157.5 170,-157.5 "/>
<text text-anchor="middle" x="119" y="-145.5" font-family="Helvetica,sans-Serif" font-size="10.00"> </text>
</a>
</g>
</g>
<!-- Node3&#45;&gt;Node1 -->
<g id="edge2" class="edge">
<title>Node3&#45;&gt;Node1</title>
<path fill="none" stroke="#404040" d="M119,-138.28C119,-127.73 119,-115.29 119,-103.03"/>
<polygon fill="none" stroke="#404040" points="119,-102.91 115,-96.91 119,-90.91 123,-96.91 119,-102.91"/>
<text text-anchor="middle" x="140.5" y="-112" font-family="Helvetica,sans-Serif" font-size="10.00"> &#45;queue_</text>
</g>
<!-- Node4 -->
<g id="node4" class="node">
<title>Node4</title>
<g id="a_node4"><a xlink:title=" ">
<polygon fill="none" stroke="#bfbfbf" points="188.5,-138.5 188.5,-195.5 217.5,-195.5 217.5,-138.5 188.5,-138.5"/>
<text text-anchor="middle" x="203" y="-183.5" font-family="Helvetica,sans-Serif" font-size="10.00">int</text>
<polyline fill="none" stroke="#bfbfbf" points="188.5,-176.5 217.5,-176.5 "/>
<text text-anchor="middle" x="203" y="-164.5" font-family="Helvetica,sans-Serif" font-size="10.00"> </text>
<polyline fill="none" stroke="#bfbfbf" points="188.5,-157.5 217.5,-157.5 "/>
<text text-anchor="middle" x="203" y="-145.5" font-family="Helvetica,sans-Serif" font-size="10.00"> </text>
</a>
</g>
</g>
<!-- Node4&#45;&gt;Node1 -->
<g id="edge3" class="edge">
<title>Node4&#45;&gt;Node1</title>
<path fill="none" stroke="#404040" d="M188.41,-142.74C181.74,-132.31 173.64,-119.93 166,-109 164.03,-106.18 161.99,-103.31 159.91,-100.43"/>
<polygon fill="none" stroke="#404040" points="159.83,-100.31 153.06,-97.81 152.76,-90.61 159.53,-93.1 159.83,-100.31"/>
<text text-anchor="middle" x="210.5" y="-112" font-family="Helvetica,sans-Serif" font-size="10.00"> &#45;window_size_</text>
</g>
</g>
</svg>
