<?xml version="1.0" encoding="UTF-8" standalone="no"?>
<!DOCTYPE svg PUBLIC "-//W3C//DTD SVG 1.1//EN"
 "http://www.w3.org/Graphics/SVG/1.1/DTD/svg11.dtd">
<!-- Generated by graphviz version 2.43.0 (0)
 -->
<!-- Title: bst::RollingAverage Pages: 1 -->
<svg width="248pt" height="215pt"
 viewBox="0.00 0.00 248.00 215.00" xmlns="http://www.w3.org/2000/svg" xmlns:xlink="http://www.w3.org/1999/xlink">
<g id="graph0" class="graph" transform="scale(1 1) rotate(0) translate(4 211)">
<title>bst::RollingAverage</title>
<!-- Node1 -->
<g id="node1" class="node">
<title>Node1</title>
<g id="a_node1"><a xlink:title="Moving average calculator.">
<polygon fill="#bfbfbf" stroke="black" points="32.5,-0.5 32.5,-101.5 149.5,-101.5 149.5,-0.5 32.5,-0.5"/>
<text text-anchor="middle" x="91" y="-89.5" font-family="Helvetica,sans-Serif" font-size="10.00">bst::RollingAverage</text>
<polyline fill="none" stroke="black" points="32.5,-82.5 149.5,-82.5 "/>
<text text-anchor="middle" x="91" y="-70.5" font-family="Helvetica,sans-Serif" font-size="10.00"> </text>
<polyline fill="none" stroke="black" points="32.5,-63.5 149.5,-63.5 "/>
<text text-anchor="start" x="40.5" y="-51.5" font-family="Helvetica,sans-Serif" font-size="10.00">+ RollingAverage()</text>
<text text-anchor="start" x="40.5" y="-40.5" font-family="Helvetica,sans-Serif" font-size="10.00">+ ~RollingAverage()</text>
<text text-anchor="start" x="40.5" y="-29.5" font-family="Helvetica,sans-Serif" font-size="10.00">+ addValue()</text>
<text text-anchor="start" x="40.5" y="-18.5" font-family="Helvetica,sans-Serif" font-size="10.00">+ getAverage()</text>
<text text-anchor="start" x="40.5" y="-7.5" font-family="Helvetica,sans-Serif" font-size="10.00">+ setWindowSize()</text>
</a>
</g>
</g>
<!-- Node2 -->
<g id="node2" class="node">
<title>Node2</title>
<g id="a_node2"><a xlink:title=" ">
<polygon fill="none" stroke="#bfbfbf" points="0,-149.5 0,-206.5 50,-206.5 50,-149.5 0,-149.5"/>
<text text-anchor="middle" x="25" y="-194.5" font-family="Helvetica,sans-Serif" font-size="10.00">double</text>
<polyline fill="none" stroke="#bfbfbf" points="0,-187.5 50,-187.5 "/>
<text text-anchor="middle" x="25" y="-175.5" font-family="Helvetica,sans-Serif" font-size="10.00"> </text>
<polyline fill="none" stroke="#bfbfbf" points="0,-168.5 50,-168.5 "/>
<text text-anchor="middle" x="25" y="-156.5" font-family="Helvetica,sans-Serif" font-size="10.00"> </text>
</a>
</g>
</g>
<!-- Node2&#45;&gt;Node1 -->
<g id="edge1" class="edge">
<title>Node2&#45;&gt;Node1</title>
<path fill="none" stroke="#404040" d="M38.24,-149.31C42.81,-139.95 48.03,-129.47 53,-120 54.33,-117.47 55.69,-114.9 57.08,-112.31"/>
<polygon fill="none" stroke="#404040" points="57.17,-112.15 56.51,-104.97 62.88,-101.6 63.54,-108.78 57.17,-112.15"/>
<text text-anchor="middle" x="70" y="-123" font-family="Helvetica,sans-Serif" font-size="10.00"> &#45;sum_</text>
</g>
<!-- Node3 -->
<g id="node3" class="node">
<title>Node3</title>
<g id="a_node3"><a xlink:title=" ">
<polygon fill="none" stroke="#bfbfbf" points="68.5,-149.5 68.5,-206.5 113.5,-206.5 113.5,-149.5 68.5,-149.5"/>
<text text-anchor="middle" x="91" y="-194.5" font-family="Helvetica,sans-Serif" font-size="10.00">size_t</text>
<polyline fill="none" stroke="#bfbfbf" points="68.5,-187.5 113.5,-187.5 "/>
<text text-anchor="middle" x="91" y="-175.5" font-family="Helvetica,sans-Serif" font-size="10.00"> </text>
<polyline fill="none" stroke="#bfbfbf" points="68.5,-168.5 113.5,-168.5 "/>
<text text-anchor="middle" x="91" y="-156.5" font-family="Helvetica,sans-Serif" font-size="10.00"> </text>
</a>
</g>
</g>
<!-- Node3&#45;&gt;Node1 -->
<g id="edge2" class="edge">
<title>Node3&#45;&gt;Node1</title>
<path fill="none" stroke="#404040" d="M91,-149.26C91,-138.79 91,-126.42 91,-114.07"/>
<polygon fill="none" stroke="#404040" points="91,-113.8 87,-107.8 91,-101.8 95,-107.8 91,-113.8"/>
<text text-anchor="middle" x="128.5" y="-123" font-family="Helvetica,sans-Serif" font-size="10.00"> &#45;window_size_</text>
</g>
<!-- Node4 -->
<g id="node4" class="node">
<title>Node4</title>
<g id="a_node4"><a xlink:title=" ">
<polygon fill="none" stroke="#bfbfbf" points="138,-149.5 138,-206.5 240,-206.5 240,-149.5 138,-149.5"/>
<text text-anchor="middle" x="189" y="-194.5" font-family="Helvetica,sans-Serif" font-size="10.00">queue&lt; double &gt;</text>
<polyline fill="none" stroke="#bfbfbf" points="138,-187.5 240,-187.5 "/>
<text text-anchor="middle" x="189" y="-175.5" font-family="Helvetica,sans-Serif" font-size="10.00"> </text>
<polyline fill="none" stroke="#bfbfbf" points="138,-168.5 240,-168.5 "/>
<text text-anchor="middle" x="189" y="-156.5" font-family="Helvetica,sans-Serif" font-size="10.00"> </text>
</a>
</g>
</g>
<!-- Node4&#45;&gt;Node1 -->
<g id="edge3" class="edge">
<title>Node4&#45;&gt;Node1</title>
<path fill="none" stroke="#404040" d="M181.27,-149.31C177.8,-139.55 173.09,-128.81 167,-120 164.17,-115.9 161.04,-111.89 157.72,-107.98"/>
<polygon fill="none" stroke="#404040" points="157.72,-107.98 150.72,-106.22 149.66,-99.08 156.65,-100.84 157.72,-107.98"/>
<text text-anchor="middle" x="193.5" y="-123" font-family="Helvetica,sans-Serif" font-size="10.00"> &#45;queue_</text>
</g>
</g>
</svg>
