<?xml version="1.0" encoding="UTF-8" standalone="no"?>
<!DOCTYPE svg PUBLIC "-//W3C//DTD SVG 1.1//EN"
 "http://www.w3.org/Graphics/SVG/1.1/DTD/svg11.dtd">
<!-- Generated by graphviz version 2.43.0 (0)
 -->
<!-- Title: bst::Stopwatch::start Pages: 1 -->
<svg width="292pt" height="66pt"
 viewBox="0.00 0.00 292.00 66.00" xmlns="http://www.w3.org/2000/svg" xmlns:xlink="http://www.w3.org/1999/xlink">
<g id="graph0" class="graph" transform="scale(1 1) rotate(0) translate(4 62)">
<title>bst::Stopwatch::start</title>
<!-- Node1 -->
<g id="node1" class="node">
<title>Node1</title>
<g id="a_node1"><a xlink:title="Start the stopwatch.">
<polygon fill="#bfbfbf" stroke="black" points="167,-19.5 167,-38.5 284,-38.5 284,-19.5 167,-19.5"/>
<text text-anchor="middle" x="225.5" y="-26.5" font-family="Helvetica,sans-Serif" font-size="10.00">bst::Stopwatch::start</text>
</a>
</g>
</g>
<!-- Node2 -->
<g id="node2" class="node">
<title>Node2</title>
<g id="a_node2"><a xlink:href="classbst_1_1Stopwatch.html#a73e65ca8df4e5f44695a1c8d005a783b" target="_top" xlink:title="alias for start() as it does what you want it to do.">
<polygon fill="none" stroke="black" points="0,-38.5 0,-57.5 131,-57.5 131,-38.5 0,-38.5"/>
<text text-anchor="middle" x="65.5" y="-45.5" font-family="Helvetica,sans-Serif" font-size="10.00">bst::Stopwatch::resume</text>
</a>
</g>
</g>
<!-- Node1&#45;&gt;Node2 -->
<g id="edge1" class="edge">
<title>Node1&#45;&gt;Node2</title>
<path fill="none" stroke="midnightblue" d="M156.42,-37.19C148.02,-38.2 139.45,-39.23 131.1,-40.23"/>
<polygon fill="midnightblue" stroke="midnightblue" points="157.05,-40.64 166.56,-35.97 156.22,-33.69 157.05,-40.64"/>
</g>
<!-- Node3 -->
<g id="node3" class="node">
<title>Node3</title>
<g id="a_node3"><a xlink:href="stopwatch__test_8cpp.html#abe26ca12b32a7ef07ad8458eb53b494f" target="_top" xlink:title=" ">
<polygon fill="none" stroke="black" points="45,-0.5 45,-19.5 86,-19.5 86,-0.5 45,-0.5"/>
<text text-anchor="middle" x="65.5" y="-7.5" font-family="Helvetica,sans-Serif" font-size="10.00">TEST</text>
</a>
</g>
</g>
<!-- Node1&#45;&gt;Node3 -->
<g id="edge2" class="edge">
<title>Node1&#45;&gt;Node3</title>
<path fill="none" stroke="midnightblue" d="M156.52,-20.83C131.04,-17.76 103.99,-14.51 86.27,-12.38"/>
<polygon fill="midnightblue" stroke="midnightblue" points="156.22,-24.31 166.56,-22.03 157.05,-17.36 156.22,-24.31"/>
</g>
</g>
</svg>
