<?xml version="1.0" encoding="UTF-8" standalone="no"?>
<!DOCTYPE svg PUBLIC "-//W3C//DTD SVG 1.1//EN"
 "http://www.w3.org/Graphics/SVG/1.1/DTD/svg11.dtd">
<!-- Generated by graphviz version 2.43.0 (0)
 -->
<!-- Title: bst::geo::Point Pages: 1 -->
<svg width="94pt" height="215pt"
 viewBox="0.00 0.00 94.00 215.00" xmlns="http://www.w3.org/2000/svg" xmlns:xlink="http://www.w3.org/1999/xlink">
<g id="graph0" class="graph" transform="scale(1 1) rotate(0) translate(4 211)">
<title>bst::geo::Point</title>
<!-- Node1 -->
<g id="node1" class="node">
<title>Node1</title>
<g id="a_node1"><a xlink:title="A geographical point.">
<polygon fill="#bfbfbf" stroke="black" points="0,-0.5 0,-90.5 86,-90.5 86,-0.5 0,-0.5"/>
<text text-anchor="middle" x="43" y="-78.5" font-family="Helvetica,sans-Serif" font-size="10.00">bst::geo::Point</text>
<polyline fill="none" stroke="black" points="0,-71.5 86,-71.5 "/>
<text text-anchor="middle" x="43" y="-59.5" font-family="Helvetica,sans-Serif" font-size="10.00"> </text>
<polyline fill="none" stroke="black" points="0,-52.5 86,-52.5 "/>
<text text-anchor="start" x="8" y="-40.5" font-family="Helvetica,sans-Serif" font-size="10.00">+ Point()</text>
<text text-anchor="start" x="8" y="-29.5" font-family="Helvetica,sans-Serif" font-size="10.00">+ Point()</text>
<text text-anchor="start" x="8" y="-18.5" font-family="Helvetica,sans-Serif" font-size="10.00">+ latitude()</text>
<text text-anchor="start" x="8" y="-7.5" font-family="Helvetica,sans-Serif" font-size="10.00">+ longitude()</text>
</a>
</g>
</g>
<!-- Node2 -->
<g id="node2" class="node">
<title>Node2</title>
<g id="a_node2"><a xlink:title=" ">
<polygon fill="none" stroke="#bfbfbf" points="18,-149.5 18,-206.5 68,-206.5 68,-149.5 18,-149.5"/>
<text text-anchor="middle" x="43" y="-194.5" font-family="Helvetica,sans-Serif" font-size="10.00">double</text>
<polyline fill="none" stroke="#bfbfbf" points="18,-187.5 68,-187.5 "/>
<text text-anchor="middle" x="43" y="-175.5" font-family="Helvetica,sans-Serif" font-size="10.00"> </text>
<polyline fill="none" stroke="#bfbfbf" points="18,-168.5 68,-168.5 "/>
<text text-anchor="middle" x="43" y="-156.5" font-family="Helvetica,sans-Serif" font-size="10.00"> </text>
</a>
</g>
</g>
<!-- Node2&#45;&gt;Node1 -->
<g id="edge1" class="edge">
<title>Node2&#45;&gt;Node1</title>
<path fill="none" stroke="#404040" d="M43,-149.32C43,-135.73 43,-118.84 43,-102.7"/>
<polygon fill="none" stroke="#404040" points="43,-102.57 39,-96.57 43,-90.57 47,-96.57 43,-102.57"/>
<text text-anchor="middle" x="55.5" y="-123" font-family="Helvetica,sans-Serif" font-size="10.00"> &#45;lat_</text>
<text text-anchor="middle" x="55.5" y="-112" font-family="Helvetica,sans-Serif" font-size="10.00">&#45;lon_</text>
</g>
</g>
</svg>
