<?xml version="1.0" encoding="UTF-8" standalone="no"?>
<!DOCTYPE svg PUBLIC "-//W3C//DTD SVG 1.1//EN"
 "http://www.w3.org/Graphics/SVG/1.1/DTD/svg11.dtd">
<!-- Generated by graphviz version 2.43.0 (0)
 -->
<!-- Title: bst::geo::Point::longitude Pages: 1 -->
<svg width="451pt" height="85pt"
 viewBox="0.00 0.00 451.00 85.00" xmlns="http://www.w3.org/2000/svg" xmlns:xlink="http://www.w3.org/1999/xlink">
<g id="graph0" class="graph" transform="scale(1 1) rotate(0) translate(4 81)">
<title>bst::geo::Point::longitude</title>
<!-- Node1 -->
<g id="node1" class="node">
<title>Node1</title>
<g id="a_node1"><a xlink:title=" ">
<polygon fill="#bfbfbf" stroke="black" points="305,-19.5 305,-38.5 443,-38.5 443,-19.5 305,-19.5"/>
<text text-anchor="middle" x="374" y="-26.5" font-family="Helvetica,sans-Serif" font-size="10.00">bst::geo::Point::longitude</text>
</a>
</g>
</g>
<!-- Node2 -->
<g id="node2" class="node">
<title>Node2</title>
<g id="a_node2"><a xlink:href="namespacebst_1_1geo.html#a1397b9fa084d6f595d9d20a24a37b5be" target="_top" xlink:title="Get the distance between two points in kilometers.">
<polygon fill="none" stroke="black" points="166,-38.5 166,-57.5 269,-57.5 269,-38.5 166,-38.5"/>
<text text-anchor="middle" x="217.5" y="-45.5" font-family="Helvetica,sans-Serif" font-size="10.00">bst::geo::distance</text>
</a>
</g>
</g>
<!-- Node1&#45;&gt;Node2 -->
<g id="edge1" class="edge">
<title>Node1&#45;&gt;Node2</title>
<path fill="none" stroke="midnightblue" d="M294.65,-38.64C286,-39.7 277.36,-40.76 269.18,-41.77"/>
<polygon fill="midnightblue" stroke="midnightblue" points="295.29,-42.08 304.78,-37.39 294.43,-35.14 295.29,-42.08"/>
</g>
<!-- Node5 -->
<g id="node5" class="node">
<title>Node5</title>
<g id="a_node5"><a xlink:href="geo__test_8cpp.html#a8ff0280b5e3f2470fe9593c74ca55cd6" target="_top" xlink:title=" ">
<polygon fill="none" stroke="black" points="197,-0.5 197,-19.5 238,-19.5 238,-0.5 197,-0.5"/>
<text text-anchor="middle" x="217.5" y="-7.5" font-family="Helvetica,sans-Serif" font-size="10.00">TEST</text>
</a>
</g>
</g>
<!-- Node1&#45;&gt;Node5 -->
<g id="edge4" class="edge">
<title>Node1&#45;&gt;Node5</title>
<path fill="none" stroke="midnightblue" d="M294.79,-19.38C273.73,-16.79 252.76,-14.21 238.16,-12.42"/>
<polygon fill="midnightblue" stroke="midnightblue" points="294.43,-22.86 304.78,-20.61 295.29,-15.92 294.43,-22.86"/>
</g>
<!-- Node3 -->
<g id="node3" class="node">
<title>Node3</title>
<g id="a_node3"><a xlink:href="classbst_1_1geo_1_1Path.html#ad2ba4954d64d1719549aa4d3f828ae9e" target="_top" xlink:title=" ">
<polygon fill="none" stroke="black" points="0,-57.5 0,-76.5 130,-76.5 130,-57.5 0,-57.5"/>
<text text-anchor="middle" x="65" y="-64.5" font-family="Helvetica,sans-Serif" font-size="10.00">bst::geo::Path::distance</text>
</a>
</g>
</g>
<!-- Node2&#45;&gt;Node3 -->
<g id="edge2" class="edge">
<title>Node2&#45;&gt;Node3</title>
<path fill="none" stroke="midnightblue" d="M155.78,-55.67C147.3,-56.74 138.57,-57.84 130.03,-58.92"/>
<polygon fill="midnightblue" stroke="midnightblue" points="156.48,-59.1 165.97,-54.38 155.61,-52.16 156.48,-59.1"/>
</g>
<!-- Node4 -->
<g id="node4" class="node">
<title>Node4</title>
<g id="a_node4"><a xlink:href="geo__test_8cpp.html#a3d37b2947008b72dce1758fa4bd432df" target="_top" xlink:title=" ">
<polygon fill="none" stroke="black" points="44.5,-19.5 44.5,-38.5 85.5,-38.5 85.5,-19.5 44.5,-19.5"/>
<text text-anchor="middle" x="65" y="-26.5" font-family="Helvetica,sans-Serif" font-size="10.00">TEST</text>
</a>
</g>
</g>
<!-- Node2&#45;&gt;Node4 -->
<g id="edge3" class="edge">
<title>Node2&#45;&gt;Node4</title>
<path fill="none" stroke="midnightblue" d="M155.79,-40.34C130.79,-37.18 103.56,-33.74 85.72,-31.49"/>
<polygon fill="midnightblue" stroke="midnightblue" points="155.61,-43.84 165.97,-41.62 156.48,-36.9 155.61,-43.84"/>
</g>
</g>
</svg>
