<?xml version="1.0" encoding="UTF-8" standalone="no"?>
<!DOCTYPE svg PUBLIC "-//W3C//DTD SVG 1.1//EN"
 "http://www.w3.org/Graphics/SVG/1.1/DTD/svg11.dtd">
<!-- Generated by graphviz version 2.43.0 (0)
 -->
<!-- Title: bst::Pressure::pascals Pages: 1 -->
<svg width="404pt" height="47pt"
 viewBox="0.00 0.00 404.00 47.00" xmlns="http://www.w3.org/2000/svg" xmlns:xlink="http://www.w3.org/1999/xlink">
<g id="graph0" class="graph" transform="scale(1 1) rotate(0) translate(4 43)">
<title>bst::Pressure::pascals</title>
<!-- Node1 -->
<g id="node1" class="node">
<title>Node1</title>
<g id="a_node1"><a xlink:title=" ">
<polygon fill="#bfbfbf" stroke="black" points="274,-0.5 274,-19.5 396,-19.5 396,-0.5 274,-0.5"/>
<text text-anchor="middle" x="335" y="-7.5" font-family="Helvetica,sans-Serif" font-size="10.00">bst::Pressure::pascals</text>
</a>
</g>
</g>
<!-- Node2 -->
<g id="node2" class="node">
<title>Node2</title>
<g id="a_node2"><a xlink:href="classbst_1_1Pressure.html#a8ef97697a4f2b1c9336480e1699ba96b" target="_top" xlink:title=" ">
<polygon fill="none" stroke="black" points="77,-19.5 77,-38.5 238,-38.5 238,-19.5 77,-19.5"/>
<text text-anchor="middle" x="157.5" y="-26.5" font-family="Helvetica,sans-Serif" font-size="10.00">bst::Pressure::setFromPascals</text>
</a>
</g>
</g>
<!-- Node1&#45;&gt;Node2 -->
<g id="edge1" class="edge">
<title>Node1&#45;&gt;Node2</title>
<path fill="none" stroke="midnightblue" d="M263.56,-17.63C255.23,-18.53 246.68,-19.45 238.22,-20.37"/>
<polygon fill="midnightblue" stroke="midnightblue" points="264.04,-21.09 273.6,-16.54 263.28,-14.14 264.04,-21.09"/>
</g>
<!-- Node3 -->
<g id="node3" class="node">
<title>Node3</title>
<g id="a_node3"><a xlink:href="science__test_8cpp.html#ac052ebacfde7f84981dea28dc0d72d21" target="_top" xlink:title=" ">
<polygon fill="none" stroke="black" points="0,-0.5 0,-19.5 41,-19.5 41,-0.5 0,-0.5"/>
<text text-anchor="middle" x="20.5" y="-7.5" font-family="Helvetica,sans-Serif" font-size="10.00">TEST</text>
</a>
</g>
</g>
<!-- Node1&#45;&gt;Node3 -->
<g id="edge3" class="edge">
<title>Node1&#45;&gt;Node3</title>
<path fill="none" stroke="midnightblue" d="M263.42,-10C191.62,-10 84.89,-10 41.21,-10"/>
<polygon fill="midnightblue" stroke="midnightblue" points="263.75,-13.5 273.75,-10 263.75,-6.5 263.75,-13.5"/>
</g>
<!-- Node2&#45;&gt;Node3 -->
<g id="edge2" class="edge">
<title>Node2&#45;&gt;Node3</title>
<path fill="none" stroke="midnightblue" d="M78.49,-18.02C64.69,-16.08 51.49,-14.22 41.28,-12.78"/>
<polygon fill="midnightblue" stroke="midnightblue" points="78.21,-21.52 88.6,-19.44 79.19,-14.58 78.21,-21.52"/>
</g>
</g>
</svg>
