<?xml version="1.0" encoding="UTF-8" standalone="no"?>
<!DOCTYPE svg PUBLIC "-//W3C//DTD SVG 1.1//EN"
 "http://www.w3.org/Graphics/SVG/1.1/DTD/svg11.dtd">
<!-- Generated by graphviz version 2.43.0 (0)
 -->
<!-- Title: bst::Timer Pages: 1 -->
<svg width="176pt" height="226pt"
 viewBox="0.00 0.00 176.00 226.00" xmlns="http://www.w3.org/2000/svg" xmlns:xlink="http://www.w3.org/1999/xlink">
<g id="graph0" class="graph" transform="scale(1 1) rotate(0) translate(4 222)">
<title>bst::Timer</title>
<!-- Node1 -->
<g id="node1" class="node">
<title>Node1</title>
<g id="a_node1"><a xlink:title="A simple timer class for timing events.">
<polygon fill="#bfbfbf" stroke="black" points="16,-0.5 16,-112.5 107,-112.5 107,-0.5 16,-0.5"/>
<text text-anchor="middle" x="61.5" y="-100.5" font-family="Helvetica,sans-Serif" font-size="10.00">bst::Timer</text>
<polyline fill="none" stroke="black" points="16,-93.5 107,-93.5 "/>
<text text-anchor="middle" x="61.5" y="-81.5" font-family="Helvetica,sans-Serif" font-size="10.00"> </text>
<polyline fill="none" stroke="black" points="16,-74.5 107,-74.5 "/>
<text text-anchor="start" x="24" y="-62.5" font-family="Helvetica,sans-Serif" font-size="10.00">+ Timer()</text>
<text text-anchor="start" x="24" y="-51.5" font-family="Helvetica,sans-Serif" font-size="10.00">+ Timer()</text>
<text text-anchor="start" x="24" y="-40.5" font-family="Helvetica,sans-Serif" font-size="10.00">+ isDone()</text>
<text text-anchor="start" x="24" y="-29.5" font-family="Helvetica,sans-Serif" font-size="10.00">+ reset()</text>
<text text-anchor="start" x="24" y="-18.5" font-family="Helvetica,sans-Serif" font-size="10.00">+ setDone()</text>
<text text-anchor="start" x="24" y="-7.5" font-family="Helvetica,sans-Serif" font-size="10.00">+ setTimeout()</text>
</a>
</g>
</g>
<!-- Node2 -->
<g id="node2" class="node">
<title>Node2</title>
<g id="a_node2"><a xlink:title=" ">
<polygon fill="none" stroke="#bfbfbf" points="0,-160.5 0,-217.5 29,-217.5 29,-160.5 0,-160.5"/>
<text text-anchor="middle" x="14.5" y="-205.5" font-family="Helvetica,sans-Serif" font-size="10.00">int</text>
<polyline fill="none" stroke="#bfbfbf" points="0,-198.5 29,-198.5 "/>
<text text-anchor="middle" x="14.5" y="-186.5" font-family="Helvetica,sans-Serif" font-size="10.00"> </text>
<polyline fill="none" stroke="#bfbfbf" points="0,-179.5 29,-179.5 "/>
<text text-anchor="middle" x="14.5" y="-167.5" font-family="Helvetica,sans-Serif" font-size="10.00"> </text>
</a>
</g>
</g>
<!-- Node2&#45;&gt;Node1 -->
<g id="edge1" class="edge">
<title>Node2&#45;&gt;Node1</title>
<path fill="none" stroke="#404040" d="M12.02,-160.29C11.95,-150.83 12.74,-140.3 15.5,-131 16.22,-128.58 17.04,-126.15 17.95,-123.74"/>
<polygon fill="none" stroke="#404040" points="18.01,-123.6 16.73,-116.5 22.78,-112.59 24.07,-119.68 18.01,-123.6"/>
<text text-anchor="middle" x="51" y="-134" font-family="Helvetica,sans-Serif" font-size="10.00"> &#45;timeout_ms_</text>
</g>
<!-- Node3 -->
<g id="node3" class="node">
<title>Node3</title>
<g id="a_node3"><a xlink:title=" ">
<polygon fill="none" stroke="#bfbfbf" points="49,-160.5 49,-217.5 168,-217.5 168,-160.5 49,-160.5"/>
<text text-anchor="middle" x="108.5" y="-205.5" font-family="Helvetica,sans-Serif" font-size="10.00">time_point&lt; Clock &gt;</text>
<polyline fill="none" stroke="#bfbfbf" points="49,-198.5 168,-198.5 "/>
<text text-anchor="middle" x="108.5" y="-186.5" font-family="Helvetica,sans-Serif" font-size="10.00"> </text>
<polyline fill="none" stroke="#bfbfbf" points="49,-179.5 168,-179.5 "/>
<text text-anchor="middle" x="108.5" y="-167.5" font-family="Helvetica,sans-Serif" font-size="10.00"> </text>
</a>
</g>
</g>
<!-- Node3&#45;&gt;Node1 -->
<g id="edge2" class="edge">
<title>Node3&#45;&gt;Node1</title>
<path fill="none" stroke="#404040" d="M98.53,-160.32C94.66,-149.56 90.03,-136.73 85.39,-123.84"/>
<polygon fill="none" stroke="#404040" points="85.39,-123.84 79.6,-119.55 81.33,-112.55 87.12,-116.84 85.39,-123.84"/>
<text text-anchor="middle" x="108" y="-134" font-family="Helvetica,sans-Serif" font-size="10.00"> &#45;start_</text>
</g>
</g>
</svg>
