<?xml version="1.0" encoding="UTF-8" standalone="no"?>
<!DOCTYPE svg PUBLIC "-//W3C//DTD SVG 1.1//EN"
 "http://www.w3.org/Graphics/SVG/1.1/DTD/svg11.dtd">
<!-- Generated by graphviz version 2.43.0 (0)
 -->
<!-- Title: bst::Timer Pages: 1 -->
<svg width="285pt" height="270pt"
 viewBox="0.00 0.00 285.00 270.00" xmlns="http://www.w3.org/2000/svg" xmlns:xlink="http://www.w3.org/1999/xlink">
<g id="graph0" class="graph" transform="scale(1 1) rotate(0) translate(4 266)">
<title>bst::Timer</title>
<!-- Node1 -->
<g id="node1" class="node">
<title>Node1</title>
<g id="a_node1"><a xlink:title="A simple timer class for timing events.">
<polygon fill="#bfbfbf" stroke="black" points="78,-0.5 78,-112.5 169,-112.5 169,-0.5 78,-0.5"/>
<text text-anchor="middle" x="123.5" y="-100.5" font-family="Helvetica,sans-Serif" font-size="10.00">bst::Timer</text>
<polyline fill="none" stroke="black" points="78,-93.5 169,-93.5 "/>
<text text-anchor="middle" x="123.5" y="-81.5" font-family="Helvetica,sans-Serif" font-size="10.00"> </text>
<polyline fill="none" stroke="black" points="78,-74.5 169,-74.5 "/>
<text text-anchor="start" x="86" y="-62.5" font-family="Helvetica,sans-Serif" font-size="10.00">+ Timer()</text>
<text text-anchor="start" x="86" y="-51.5" font-family="Helvetica,sans-Serif" font-size="10.00">+ Timer()</text>
<text text-anchor="start" x="86" y="-40.5" font-family="Helvetica,sans-Serif" font-size="10.00">+ isDone()</text>
<text text-anchor="start" x="86" y="-29.5" font-family="Helvetica,sans-Serif" font-size="10.00">+ reset()</text>
<text text-anchor="start" x="86" y="-18.5" font-family="Helvetica,sans-Serif" font-size="10.00">+ setDone()</text>
<text text-anchor="start" x="86" y="-7.5" font-family="Helvetica,sans-Serif" font-size="10.00">+ setTimeout()</text>
</a>
</g>
</g>
<!-- Node2 -->
<g id="node2" class="node">
<title>Node2</title>
<g id="a_node2"><a xlink:href="classbst_1_1ITimer.html" target="_top" xlink:title="Interface for a timer class.">
<polygon fill="none" stroke="black" points="0,-160.5 0,-261.5 91,-261.5 91,-160.5 0,-160.5"/>
<text text-anchor="middle" x="45.5" y="-249.5" font-family="Helvetica,sans-Serif" font-size="10.00">bst::ITimer</text>
<polyline fill="none" stroke="black" points="0,-242.5 91,-242.5 "/>
<text text-anchor="middle" x="45.5" y="-230.5" font-family="Helvetica,sans-Serif" font-size="10.00"> </text>
<polyline fill="none" stroke="black" points="0,-223.5 91,-223.5 "/>
<text text-anchor="start" x="8" y="-211.5" font-family="Helvetica,sans-Serif" font-size="10.00">+ ~ITimer()</text>
<text text-anchor="start" x="8" y="-200.5" font-family="Helvetica,sans-Serif" font-size="10.00">+ isDone()</text>
<text text-anchor="start" x="8" y="-189.5" font-family="Helvetica,sans-Serif" font-size="10.00">+ reset()</text>
<text text-anchor="start" x="8" y="-178.5" font-family="Helvetica,sans-Serif" font-size="10.00">+ setDone()</text>
<text text-anchor="start" x="8" y="-167.5" font-family="Helvetica,sans-Serif" font-size="10.00">+ setTimeout()</text>
</a>
</g>
</g>
<!-- Node2&#45;&gt;Node1 -->
<g id="edge1" class="edge">
<title>Node2&#45;&gt;Node1</title>
<path fill="none" stroke="midnightblue" d="M75.5,-151.35C82.02,-138.61 88.89,-125.17 95.33,-112.57"/>
<polygon fill="none" stroke="midnightblue" points="72.26,-149.99 70.82,-160.49 78.49,-153.18 72.26,-149.99"/>
</g>
<!-- Node3 -->
<g id="node3" class="node">
<title>Node3</title>
<g id="a_node3"><a xlink:title=" ">
<polygon fill="none" stroke="#bfbfbf" points="109,-182.5 109,-239.5 138,-239.5 138,-182.5 109,-182.5"/>
<text text-anchor="middle" x="123.5" y="-227.5" font-family="Helvetica,sans-Serif" font-size="10.00">int</text>
<polyline fill="none" stroke="#bfbfbf" points="109,-220.5 138,-220.5 "/>
<text text-anchor="middle" x="123.5" y="-208.5" font-family="Helvetica,sans-Serif" font-size="10.00"> </text>
<polyline fill="none" stroke="#bfbfbf" points="109,-201.5 138,-201.5 "/>
<text text-anchor="middle" x="123.5" y="-189.5" font-family="Helvetica,sans-Serif" font-size="10.00"> </text>
</a>
</g>
</g>
<!-- Node3&#45;&gt;Node1 -->
<g id="edge2" class="edge">
<title>Node3&#45;&gt;Node1</title>
<path fill="none" stroke="#404040" d="M123.5,-182.38C123.5,-166.24 123.5,-145.11 123.5,-124.84"/>
<polygon fill="none" stroke="#404040" points="123.5,-124.71 119.5,-118.71 123.5,-112.71 127.5,-118.71 123.5,-124.71"/>
<text text-anchor="middle" x="159" y="-134" font-family="Helvetica,sans-Serif" font-size="10.00"> &#45;timeout_ms_</text>
</g>
<!-- Node4 -->
<g id="node4" class="node">
<title>Node4</title>
<g id="a_node4"><a xlink:title=" ">
<polygon fill="none" stroke="#bfbfbf" points="158,-182.5 158,-239.5 277,-239.5 277,-182.5 158,-182.5"/>
<text text-anchor="middle" x="217.5" y="-227.5" font-family="Helvetica,sans-Serif" font-size="10.00">time_point&lt; Clock &gt;</text>
<polyline fill="none" stroke="#bfbfbf" points="158,-220.5 277,-220.5 "/>
<text text-anchor="middle" x="217.5" y="-208.5" font-family="Helvetica,sans-Serif" font-size="10.00"> </text>
<polyline fill="none" stroke="#bfbfbf" points="158,-201.5 277,-201.5 "/>
<text text-anchor="middle" x="217.5" y="-189.5" font-family="Helvetica,sans-Serif" font-size="10.00"> </text>
</a>
</g>
</g>
<!-- Node4&#45;&gt;Node1 -->
<g id="edge3" class="edge">
<title>Node4&#45;&gt;Node1</title>
<path fill="none" stroke="#404040" d="M213.33,-182.34C210.11,-166.53 204.61,-146.78 195.5,-131 190.43,-122.21 184.07,-113.71 177.24,-105.8"/>
<polygon fill="none" stroke="#404040" points="177.12,-105.67 170.13,-103.92 169.05,-96.79 176.04,-98.54 177.12,-105.67"/>
<text text-anchor="middle" x="218" y="-134" font-family="Helvetica,sans-Serif" font-size="10.00"> &#45;start_</text>
</g>
</g>
</svg>
