<?xml version="1.0" encoding="UTF-8" standalone="no"?>
<!DOCTYPE svg PUBLIC "-//W3C//DTD SVG 1.1//EN"
 "http://www.w3.org/Graphics/SVG/1.1/DTD/svg11.dtd">
<!-- Generated by graphviz version 2.43.0 (0)
 -->
<!-- Title: clock.hpp Pages: 1 -->
<svg width="521pt" height="140pt"
 viewBox="0.00 0.00 520.50 140.00" xmlns="http://www.w3.org/2000/svg" xmlns:xlink="http://www.w3.org/1999/xlink">
<g id="graph0" class="graph" transform="scale(1 1) rotate(0) translate(4 136)">
<title>clock.hpp</title>
<!-- Node1 -->
<g id="node1" class="node">
<title>Node1</title>
<g id="a_node1"><a xlink:title=" ">
<polygon fill="#bfbfbf" stroke="black" points="231,-112.5 231,-131.5 294,-131.5 294,-112.5 231,-112.5"/>
<text text-anchor="middle" x="262.5" y="-119.5" font-family="Helvetica,sans-Serif" font-size="10.00">clock.hpp</text>
</a>
</g>
</g>
<!-- Node2 -->
<g id="node2" class="node">
<title>Node2</title>
<g id="a_node2"><a xlink:href="stopwatch_8hpp.html" target="_top" xlink:title="BoosterSeat Stopwatch class declaration.">
<polygon fill="none" stroke="black" points="69.5,-56.5 69.5,-75.5 157.5,-75.5 157.5,-56.5 69.5,-56.5"/>
<text text-anchor="middle" x="113.5" y="-63.5" font-family="Helvetica,sans-Serif" font-size="10.00">stopwatch.hpp</text>
</a>
</g>
</g>
<!-- Node1&#45;&gt;Node2 -->
<g id="edge1" class="edge">
<title>Node1&#45;&gt;Node2</title>
<path fill="none" stroke="midnightblue" d="M229.13,-108.91C201.12,-98.75 161.8,-84.51 137,-75.52"/>
<polygon fill="midnightblue" stroke="midnightblue" points="228.3,-112.33 238.89,-112.44 230.68,-105.75 228.3,-112.33"/>
</g>
<!-- Node4 -->
<g id="node4" class="node">
<title>Node4</title>
<g id="a_node4"><a xlink:href="time_8hpp.html" target="_top" xlink:title=" ">
<polygon fill="none" stroke="black" points="232.5,-56.5 232.5,-75.5 292.5,-75.5 292.5,-56.5 232.5,-56.5"/>
<text text-anchor="middle" x="262.5" y="-63.5" font-family="Helvetica,sans-Serif" font-size="10.00">time.hpp</text>
</a>
</g>
</g>
<!-- Node1&#45;&gt;Node4 -->
<g id="edge3" class="edge">
<title>Node1&#45;&gt;Node4</title>
<path fill="none" stroke="midnightblue" d="M262.5,-101.8C262.5,-92.91 262.5,-82.78 262.5,-75.75"/>
<polygon fill="midnightblue" stroke="midnightblue" points="259,-102.08 262.5,-112.08 266,-102.08 259,-102.08"/>
</g>
<!-- Node8 -->
<g id="node8" class="node">
<title>Node8</title>
<g id="a_node8"><a xlink:href="timer_8hpp.html" target="_top" xlink:title=" ">
<polygon fill="none" stroke="black" points="353,-56.5 353,-75.5 416,-75.5 416,-56.5 353,-56.5"/>
<text text-anchor="middle" x="384.5" y="-63.5" font-family="Helvetica,sans-Serif" font-size="10.00">timer.hpp</text>
</a>
</g>
</g>
<!-- Node1&#45;&gt;Node8 -->
<g id="edge7" class="edge">
<title>Node1&#45;&gt;Node8</title>
<path fill="none" stroke="midnightblue" d="M291.04,-108.37C313.89,-98.26 345.31,-84.35 365.26,-75.52"/>
<polygon fill="midnightblue" stroke="midnightblue" points="289.56,-105.2 281.83,-112.44 292.39,-111.6 289.56,-105.2"/>
</g>
<!-- Node3 -->
<g id="node3" class="node">
<title>Node3</title>
<g id="a_node3"><a xlink:href="stopwatch__test_8cpp.html" target="_top" xlink:title=" ">
<polygon fill="none" stroke="black" points="0,-0.5 0,-19.5 111,-19.5 111,-0.5 0,-0.5"/>
<text text-anchor="middle" x="55.5" y="-7.5" font-family="Helvetica,sans-Serif" font-size="10.00">stopwatch_test.cpp</text>
</a>
</g>
</g>
<!-- Node2&#45;&gt;Node3 -->
<g id="edge2" class="edge">
<title>Node2&#45;&gt;Node3</title>
<path fill="none" stroke="midnightblue" d="M96.59,-49.25C86.3,-39.67 73.53,-27.79 64.99,-19.83"/>
<polygon fill="midnightblue" stroke="midnightblue" points="94.48,-52.07 104.18,-56.32 99.25,-46.95 94.48,-52.07"/>
</g>
<!-- Node5 -->
<g id="node5" class="node">
<title>Node5</title>
<g id="a_node5"><a xlink:href="time_8cpp.html" target="_top" xlink:title=" ">
<polygon fill="none" stroke="black" points="129,-0.5 129,-19.5 188,-19.5 188,-0.5 129,-0.5"/>
<text text-anchor="middle" x="158.5" y="-7.5" font-family="Helvetica,sans-Serif" font-size="10.00">time.cpp</text>
</a>
</g>
</g>
<!-- Node4&#45;&gt;Node5 -->
<g id="edge4" class="edge">
<title>Node4&#45;&gt;Node5</title>
<path fill="none" stroke="midnightblue" d="M236.67,-51.59C217.44,-41.61 191.76,-28.27 175.17,-19.65"/>
<polygon fill="midnightblue" stroke="midnightblue" points="235.3,-54.82 245.79,-56.32 238.53,-48.61 235.3,-54.82"/>
</g>
<!-- Node6 -->
<g id="node6" class="node">
<title>Node6</title>
<g id="a_node6"><a xlink:href="time__class__test_8cpp.html" target="_top" xlink:title=" ">
<polygon fill="none" stroke="black" points="206,-0.5 206,-19.5 319,-19.5 319,-0.5 206,-0.5"/>
<text text-anchor="middle" x="262.5" y="-7.5" font-family="Helvetica,sans-Serif" font-size="10.00">time_class_test.cpp</text>
</a>
</g>
</g>
<!-- Node4&#45;&gt;Node6 -->
<g id="edge5" class="edge">
<title>Node4&#45;&gt;Node6</title>
<path fill="none" stroke="midnightblue" d="M262.5,-45.8C262.5,-36.91 262.5,-26.78 262.5,-19.75"/>
<polygon fill="midnightblue" stroke="midnightblue" points="259,-46.08 262.5,-56.08 266,-46.08 259,-46.08"/>
</g>
<!-- Node7 -->
<g id="node7" class="node">
<title>Node7</title>
<g id="a_node7"><a xlink:href="visual__tests_8cpp.html" target="_top" xlink:title=" ">
<polygon fill="none" stroke="black" points="337,-0.5 337,-19.5 432,-19.5 432,-0.5 337,-0.5"/>
<text text-anchor="middle" x="384.5" y="-7.5" font-family="Helvetica,sans-Serif" font-size="10.00">visual_tests.cpp</text>
</a>
</g>
</g>
<!-- Node4&#45;&gt;Node7 -->
<g id="edge6" class="edge">
<title>Node4&#45;&gt;Node7</title>
<path fill="none" stroke="midnightblue" d="M291.04,-52.37C313.89,-42.26 345.31,-28.35 365.26,-19.52"/>
<polygon fill="midnightblue" stroke="midnightblue" points="289.56,-49.2 281.83,-56.44 292.39,-55.6 289.56,-49.2"/>
</g>
<!-- Node8&#45;&gt;Node7 -->
<g id="edge9" class="edge">
<title>Node8&#45;&gt;Node7</title>
<path fill="none" stroke="midnightblue" d="M384.5,-45.8C384.5,-36.91 384.5,-26.78 384.5,-19.75"/>
<polygon fill="midnightblue" stroke="midnightblue" points="381,-46.08 384.5,-56.08 388,-46.08 381,-46.08"/>
</g>
<!-- Node9 -->
<g id="node9" class="node">
<title>Node9</title>
<g id="a_node9"><a xlink:href="timer_8cpp.html" target="_top" xlink:title=" ">
<polygon fill="none" stroke="black" points="450.5,-0.5 450.5,-19.5 512.5,-19.5 512.5,-0.5 450.5,-0.5"/>
<text text-anchor="middle" x="481.5" y="-7.5" font-family="Helvetica,sans-Serif" font-size="10.00">timer.cpp</text>
</a>
</g>
</g>
<!-- Node8&#45;&gt;Node9 -->
<g id="edge8" class="edge">
<title>Node8&#45;&gt;Node9</title>
<path fill="none" stroke="midnightblue" d="M408.84,-51.45C426.74,-41.48 450.55,-28.23 465.95,-19.65"/>
<polygon fill="midnightblue" stroke="midnightblue" points="407.12,-48.4 400.08,-56.32 410.52,-54.52 407.12,-48.4"/>
</g>
</g>
</svg>
