<?xml version="1.0" encoding="UTF-8" standalone="no"?>
<!DOCTYPE svg PUBLIC "-//W3C//DTD SVG 1.1//EN"
 "http://www.w3.org/Graphics/SVG/1.1/DTD/svg11.dtd">
<!-- Generated by graphviz version 2.43.0 (0)
 -->
<!-- Title: exception.hpp Pages: 1 -->
<svg width="907pt" height="140pt"
 viewBox="0.00 0.00 906.50 140.00" xmlns="http://www.w3.org/2000/svg" xmlns:xlink="http://www.w3.org/1999/xlink">
<g id="graph0" class="graph" transform="scale(1 1) rotate(0) translate(4 136)">
<title>exception.hpp</title>
<!-- Node1 -->
<g id="node1" class="node">
<title>Node1</title>
<g id="a_node1"><a xlink:title=" ">
<polygon fill="#bfbfbf" stroke="black" points="359,-112.5 359,-131.5 445,-131.5 445,-112.5 359,-112.5"/>
<text text-anchor="middle" x="402" y="-119.5" font-family="Helvetica,sans-Serif" font-size="10.00">exception.hpp</text>
</a>
</g>
</g>
<!-- Node2 -->
<g id="node2" class="node">
<title>Node2</title>
<g id="a_node2"><a xlink:href="filesystem_8cpp.html" target="_top" xlink:title="Boost_erSeat&#39;s filesystem module.">
<polygon fill="none" stroke="black" points="0,-56.5 0,-75.5 88,-75.5 88,-56.5 0,-56.5"/>
<text text-anchor="middle" x="44" y="-63.5" font-family="Helvetica,sans-Serif" font-size="10.00">filesystem.cpp</text>
</a>
</g>
</g>
<!-- Node1&#45;&gt;Node2 -->
<g id="edge1" class="edge">
<title>Node1&#45;&gt;Node2</title>
<path fill="none" stroke="midnightblue" d="M348.63,-113.48C287.7,-104.82 185.08,-89.97 97,-76 94.14,-75.55 91.2,-75.07 88.23,-74.59"/>
<polygon fill="midnightblue" stroke="midnightblue" points="348.38,-116.98 358.77,-114.92 349.36,-110.05 348.38,-116.98"/>
</g>
<!-- Node3 -->
<g id="node3" class="node">
<title>Node3</title>
<g id="a_node3"><a xlink:href="geo__point_8cpp.html" target="_top" xlink:title=" ">
<polygon fill="none" stroke="black" points="106.5,-56.5 106.5,-75.5 191.5,-75.5 191.5,-56.5 106.5,-56.5"/>
<text text-anchor="middle" x="149" y="-63.5" font-family="Helvetica,sans-Serif" font-size="10.00">geo_point.cpp</text>
</a>
</g>
</g>
<!-- Node1&#45;&gt;Node3 -->
<g id="edge2" class="edge">
<title>Node1&#45;&gt;Node3</title>
<path fill="none" stroke="midnightblue" d="M352.08,-110.35C304.27,-100.14 233.05,-84.94 188.9,-75.52"/>
<polygon fill="midnightblue" stroke="midnightblue" points="351.4,-113.78 361.91,-112.44 352.86,-106.93 351.4,-113.78"/>
</g>
<!-- Node4 -->
<g id="node4" class="node">
<title>Node4</title>
<g id="a_node4"><a xlink:href="string__format_8cpp.html" target="_top" xlink:title=" ">
<polygon fill="none" stroke="black" points="209.5,-56.5 209.5,-75.5 312.5,-75.5 312.5,-56.5 209.5,-56.5"/>
<text text-anchor="middle" x="261" y="-63.5" font-family="Helvetica,sans-Serif" font-size="10.00">string_format.cpp</text>
</a>
</g>
</g>
<!-- Node1&#45;&gt;Node4 -->
<g id="edge3" class="edge">
<title>Node1&#45;&gt;Node4</title>
<path fill="none" stroke="midnightblue" d="M370.07,-108.77C343.59,-98.63 306.61,-84.47 283.24,-75.52"/>
<polygon fill="midnightblue" stroke="midnightblue" points="369.07,-112.14 379.66,-112.44 371.57,-105.6 369.07,-112.14"/>
</g>
<!-- Node5 -->
<g id="node5" class="node">
<title>Node5</title>
<g id="a_node5"><a xlink:href="time_8cpp.html" target="_top" xlink:title=" ">
<polygon fill="none" stroke="black" points="330.5,-56.5 330.5,-75.5 389.5,-75.5 389.5,-56.5 330.5,-56.5"/>
<text text-anchor="middle" x="360" y="-63.5" font-family="Helvetica,sans-Serif" font-size="10.00">time.cpp</text>
</a>
</g>
</g>
<!-- Node1&#45;&gt;Node5 -->
<g id="edge4" class="edge">
<title>Node1&#45;&gt;Node5</title>
<path fill="none" stroke="midnightblue" d="M388.89,-104.14C381.57,-94.74 372.76,-83.4 366.81,-75.75"/>
<polygon fill="midnightblue" stroke="midnightblue" points="386.16,-106.34 395.06,-112.08 391.69,-102.04 386.16,-106.34"/>
</g>
<!-- Node6 -->
<g id="node6" class="node">
<title>Node6</title>
<g id="a_node6"><a xlink:href="process_8hpp.html" target="_top" xlink:title="A class to handle linux process calls.">
<polygon fill="none" stroke="black" points="407.5,-56.5 407.5,-75.5 482.5,-75.5 482.5,-56.5 407.5,-56.5"/>
<text text-anchor="middle" x="445" y="-63.5" font-family="Helvetica,sans-Serif" font-size="10.00">process.hpp</text>
</a>
</g>
</g>
<!-- Node1&#45;&gt;Node6 -->
<g id="edge5" class="edge">
<title>Node1&#45;&gt;Node6</title>
<path fill="none" stroke="midnightblue" d="M415.42,-104.14C422.91,-94.74 431.94,-83.4 438.03,-75.75"/>
<polygon fill="midnightblue" stroke="midnightblue" points="412.59,-102.08 409.1,-112.08 418.07,-106.44 412.59,-102.08"/>
</g>
<!-- Node9 -->
<g id="node9" class="node">
<title>Node9</title>
<g id="a_node9"><a xlink:href="stopwatch_8hpp.html" target="_top" xlink:title="BoosterSeat Stopwatch class declaration.">
<polygon fill="none" stroke="black" points="500,-56.5 500,-75.5 588,-75.5 588,-56.5 500,-56.5"/>
<text text-anchor="middle" x="544" y="-63.5" font-family="Helvetica,sans-Serif" font-size="10.00">stopwatch.hpp</text>
</a>
</g>
</g>
<!-- Node1&#45;&gt;Node9 -->
<g id="edge8" class="edge">
<title>Node1&#45;&gt;Node9</title>
<path fill="none" stroke="midnightblue" d="M434.16,-108.77C460.83,-98.63 498.07,-84.47 521.6,-75.52"/>
<polygon fill="midnightblue" stroke="midnightblue" points="432.6,-105.62 424.5,-112.44 435.09,-112.16 432.6,-105.62"/>
</g>
<!-- Node11 -->
<g id="node11" class="node">
<title>Node11</title>
<g id="a_node11"><a xlink:href="timer_8hpp.html" target="_top" xlink:title=" ">
<polygon fill="none" stroke="black" points="617.5,-56.5 617.5,-75.5 680.5,-75.5 680.5,-56.5 617.5,-56.5"/>
<text text-anchor="middle" x="649" y="-63.5" font-family="Helvetica,sans-Serif" font-size="10.00">timer.hpp</text>
</a>
</g>
</g>
<!-- Node1&#45;&gt;Node11 -->
<g id="edge10" class="edge">
<title>Node1&#45;&gt;Node11</title>
<path fill="none" stroke="midnightblue" d="M450.98,-110.29C500.46,-99.47 575.42,-83.09 617.49,-73.89"/>
<polygon fill="midnightblue" stroke="midnightblue" points="450.16,-106.89 441.14,-112.44 451.65,-113.73 450.16,-106.89"/>
</g>
<!-- Node15 -->
<g id="node15" class="node">
<title>Node15</title>
<g id="a_node15"><a xlink:href="filesystem__test_8cpp.html" target="_top" xlink:title=" ">
<polygon fill="none" stroke="black" points="699,-56.5 699,-75.5 811,-75.5 811,-56.5 699,-56.5"/>
<text text-anchor="middle" x="755" y="-63.5" font-family="Helvetica,sans-Serif" font-size="10.00">filesystem_test.cpp</text>
</a>
</g>
</g>
<!-- Node1&#45;&gt;Node15 -->
<g id="edge14" class="edge">
<title>Node1&#45;&gt;Node15</title>
<path fill="none" stroke="midnightblue" d="M455.43,-112.83C521.18,-102.77 632.3,-85.77 699.14,-75.55"/>
<polygon fill="midnightblue" stroke="midnightblue" points="454.64,-109.41 445.28,-114.38 455.7,-116.33 454.64,-109.41"/>
</g>
<!-- Node7 -->
<g id="node7" class="node">
<title>Node7</title>
<g id="a_node7"><a xlink:href="process_8cpp.html" target="_top" xlink:title="Process class implementation.">
<polygon fill="none" stroke="black" points="280,-0.5 280,-19.5 354,-19.5 354,-0.5 280,-0.5"/>
<text text-anchor="middle" x="317" y="-7.5" font-family="Helvetica,sans-Serif" font-size="10.00">process.cpp</text>
</a>
</g>
</g>
<!-- Node6&#45;&gt;Node7 -->
<g id="edge6" class="edge">
<title>Node6&#45;&gt;Node7</title>
<path fill="none" stroke="midnightblue" d="M415.38,-52.5C391.38,-42.38 358.22,-28.39 337.19,-19.52"/>
<polygon fill="midnightblue" stroke="midnightblue" points="414.14,-55.78 424.72,-56.44 416.86,-49.33 414.14,-55.78"/>
</g>
<!-- Node8 -->
<g id="node8" class="node">
<title>Node8</title>
<g id="a_node8"><a xlink:href="process__test_8cpp.html" target="_top" xlink:title=" ">
<polygon fill="none" stroke="black" points="372,-0.5 372,-19.5 470,-19.5 470,-0.5 372,-0.5"/>
<text text-anchor="middle" x="421" y="-7.5" font-family="Helvetica,sans-Serif" font-size="10.00">process_test.cpp</text>
</a>
</g>
</g>
<!-- Node6&#45;&gt;Node8 -->
<g id="edge7" class="edge">
<title>Node6&#45;&gt;Node8</title>
<path fill="none" stroke="midnightblue" d="M436.86,-46.69C432.82,-37.59 428.12,-27.01 424.89,-19.75"/>
<polygon fill="midnightblue" stroke="midnightblue" points="433.78,-48.37 441.04,-56.08 440.17,-45.52 433.78,-48.37"/>
</g>
<!-- Node10 -->
<g id="node10" class="node">
<title>Node10</title>
<g id="a_node10"><a xlink:href="stopwatch__test_8cpp.html" target="_top" xlink:title=" ">
<polygon fill="none" stroke="black" points="488.5,-0.5 488.5,-19.5 599.5,-19.5 599.5,-0.5 488.5,-0.5"/>
<text text-anchor="middle" x="544" y="-7.5" font-family="Helvetica,sans-Serif" font-size="10.00">stopwatch_test.cpp</text>
</a>
</g>
</g>
<!-- Node9&#45;&gt;Node10 -->
<g id="edge9" class="edge">
<title>Node9&#45;&gt;Node10</title>
<path fill="none" stroke="midnightblue" d="M544,-45.8C544,-36.91 544,-26.78 544,-19.75"/>
<polygon fill="midnightblue" stroke="midnightblue" points="540.5,-46.08 544,-56.08 547.5,-46.08 540.5,-46.08"/>
</g>
<!-- Node12 -->
<g id="node12" class="node">
<title>Node12</title>
<g id="a_node12"><a xlink:href="timer_8cpp.html" target="_top" xlink:title=" ">
<polygon fill="none" stroke="black" points="618,-0.5 618,-19.5 680,-19.5 680,-0.5 618,-0.5"/>
<text text-anchor="middle" x="649" y="-7.5" font-family="Helvetica,sans-Serif" font-size="10.00">timer.cpp</text>
</a>
</g>
</g>
<!-- Node11&#45;&gt;Node12 -->
<g id="edge11" class="edge">
<title>Node11&#45;&gt;Node12</title>
<path fill="none" stroke="midnightblue" d="M649,-45.8C649,-36.91 649,-26.78 649,-19.75"/>
<polygon fill="midnightblue" stroke="midnightblue" points="645.5,-46.08 649,-56.08 652.5,-46.08 645.5,-46.08"/>
</g>
<!-- Node13 -->
<g id="node13" class="node">
<title>Node13</title>
<g id="a_node13"><a xlink:href="timer__test_8cpp.html" target="_top" xlink:title=" ">
<polygon fill="none" stroke="black" points="698.5,-0.5 698.5,-19.5 785.5,-19.5 785.5,-0.5 698.5,-0.5"/>
<text text-anchor="middle" x="742" y="-7.5" font-family="Helvetica,sans-Serif" font-size="10.00">timer_test.cpp</text>
</a>
</g>
</g>
<!-- Node11&#45;&gt;Node13 -->
<g id="edge12" class="edge">
<title>Node11&#45;&gt;Node13</title>
<path fill="none" stroke="midnightblue" d="M672.81,-51.18C689.92,-41.24 712.47,-28.15 727.1,-19.65"/>
<polygon fill="midnightblue" stroke="midnightblue" points="670.83,-48.28 663.94,-56.32 674.35,-54.33 670.83,-48.28"/>
</g>
<!-- Node14 -->
<g id="node14" class="node">
<title>Node14</title>
<g id="a_node14"><a xlink:href="visual__tests_8cpp.html" target="_top" xlink:title=" ">
<polygon fill="none" stroke="black" points="803.5,-0.5 803.5,-19.5 898.5,-19.5 898.5,-0.5 803.5,-0.5"/>
<text text-anchor="middle" x="851" y="-7.5" font-family="Helvetica,sans-Serif" font-size="10.00">visual_tests.cpp</text>
</a>
</g>
</g>
<!-- Node11&#45;&gt;Node14 -->
<g id="edge13" class="edge">
<title>Node11&#45;&gt;Node14</title>
<path fill="none" stroke="midnightblue" d="M690.33,-53.95C728.42,-43.77 784.18,-28.86 818.99,-19.56"/>
<polygon fill="midnightblue" stroke="midnightblue" points="689.32,-50.6 680.56,-56.56 691.13,-57.36 689.32,-50.6"/>
</g>
</g>
</svg>
