<?xml version="1.0" encoding="UTF-8" standalone="no"?>
<!DOCTYPE svg PUBLIC "-//W3C//DTD SVG 1.1//EN"
 "http://www.w3.org/Graphics/SVG/1.1/DTD/svg11.dtd">
<!-- Generated by graphviz version 2.43.0 (0)
 -->
<!-- Title: filesystem.cpp Pages: 1 -->
<svg width="614pt" height="207pt"
 viewBox="0.00 0.00 614.00 207.00" xmlns="http://www.w3.org/2000/svg" xmlns:xlink="http://www.w3.org/1999/xlink">
<g id="graph0" class="graph" transform="scale(1 1) rotate(0) translate(4 203)">
<title>filesystem.cpp</title>
<!-- Node1 -->
<g id="node1" class="node">
<title>Node1</title>
<g id="a_node1"><a xlink:title="Boost_erSeat&#39;s filesystem module.">
<polygon fill="#bfbfbf" stroke="black" points="350.5,-179.5 350.5,-198.5 438.5,-198.5 438.5,-179.5 350.5,-179.5"/>
<text text-anchor="middle" x="394.5" y="-186.5" font-family="Helvetica,sans-Serif" font-size="10.00">filesystem.cpp</text>
</a>
</g>
</g>
<!-- Node2 -->
<g id="node2" class="node">
<title>Node2</title>
<g id="a_node2"><a xlink:href="filesystem_8hpp.html" target="_top" xlink:title=" ">
<polygon fill="none" stroke="black" points="18,-123.5 18,-142.5 169,-142.5 169,-123.5 18,-123.5"/>
<text text-anchor="middle" x="93.5" y="-130.5" font-family="Helvetica,sans-Serif" font-size="10.00">BoosterSeat/filesystem.hpp</text>
</a>
</g>
</g>
<!-- Node1&#45;&gt;Node2 -->
<g id="edge1" class="edge">
<title>Node1&#45;&gt;Node2</title>
<path fill="none" stroke="midnightblue" d="M350.41,-180.09C297.65,-170.62 209.17,-154.75 151.06,-144.33"/>
<polygon fill="midnightblue" stroke="midnightblue" points="151.4,-140.83 140.94,-142.51 150.16,-147.72 151.4,-140.83"/>
</g>
<!-- Node5 -->
<g id="node5" class="node">
<title>Node5</title>
<g id="a_node5"><a xlink:href="exception_8hpp.html" target="_top" xlink:title=" ">
<polygon fill="none" stroke="black" points="190.5,-123.5 190.5,-142.5 338.5,-142.5 338.5,-123.5 190.5,-123.5"/>
<text text-anchor="middle" x="264.5" y="-130.5" font-family="Helvetica,sans-Serif" font-size="10.00">BoosterSeat/exception.hpp</text>
</a>
</g>
</g>
<!-- Node1&#45;&gt;Node5 -->
<g id="edge4" class="edge">
<title>Node1&#45;&gt;Node5</title>
<path fill="none" stroke="midnightblue" d="M373.9,-179.44C352.51,-170.56 318.82,-156.56 294.48,-146.45"/>
<polygon fill="midnightblue" stroke="midnightblue" points="295.58,-143.12 285,-142.52 292.89,-149.58 295.58,-143.12"/>
</g>
<!-- Node7 -->
<g id="node7" class="node">
<title>Node7</title>
<g id="a_node7"><a xlink:title=" ">
<polygon fill="none" stroke="#bfbfbf" points="247,-0.5 247,-19.5 316,-19.5 316,-0.5 247,-0.5"/>
<text text-anchor="middle" x="281.5" y="-7.5" font-family="Helvetica,sans-Serif" font-size="10.00">type_traits</text>
</a>
</g>
</g>
<!-- Node1&#45;&gt;Node7 -->
<g id="edge12" class="edge">
<title>Node1&#45;&gt;Node7</title>
<path fill="none" stroke="midnightblue" d="M393.51,-179.38C390.54,-156.9 379.98,-95.48 349.5,-56 339.17,-42.62 323.68,-31.92 310.09,-24.33"/>
<polygon fill="midnightblue" stroke="midnightblue" points="311.55,-21.14 301.07,-19.57 308.28,-27.33 311.55,-21.14"/>
</g>
<!-- Node9 -->
<g id="node9" class="node">
<title>Node9</title>
<g id="a_node9"><a xlink:title=" ">
<polygon fill="none" stroke="#bfbfbf" points="396.5,-123.5 396.5,-142.5 446.5,-142.5 446.5,-123.5 396.5,-123.5"/>
<text text-anchor="middle" x="421.5" y="-130.5" font-family="Helvetica,sans-Serif" font-size="10.00">cstdint</text>
</a>
</g>
</g>
<!-- Node1&#45;&gt;Node9 -->
<g id="edge9" class="edge">
<title>Node1&#45;&gt;Node9</title>
<path fill="none" stroke="midnightblue" d="M398.96,-179.08C402.65,-171.69 408.02,-160.95 412.59,-151.81"/>
<polygon fill="midnightblue" stroke="midnightblue" points="415.78,-153.26 417.12,-142.75 409.52,-150.13 415.78,-153.26"/>
</g>
<!-- Node10 -->
<g id="node10" class="node">
<title>Node10</title>
<g id="a_node10"><a xlink:title=" ">
<polygon fill="none" stroke="#bfbfbf" points="464.5,-123.5 464.5,-142.5 532.5,-142.5 532.5,-123.5 464.5,-123.5"/>
<text text-anchor="middle" x="498.5" y="-130.5" font-family="Helvetica,sans-Serif" font-size="10.00">filesystem</text>
</a>
</g>
</g>
<!-- Node1&#45;&gt;Node10 -->
<g id="edge10" class="edge">
<title>Node1&#45;&gt;Node10</title>
<path fill="none" stroke="midnightblue" d="M411.21,-179.32C427.81,-170.7 453.5,-157.36 472.72,-147.39"/>
<polygon fill="midnightblue" stroke="midnightblue" points="474.57,-150.37 481.83,-142.65 471.34,-144.16 474.57,-150.37"/>
</g>
<!-- Node11 -->
<g id="node11" class="node">
<title>Node11</title>
<g id="a_node11"><a xlink:title=" ">
<polygon fill="none" stroke="#bfbfbf" points="551,-123.5 551,-142.5 606,-142.5 606,-123.5 551,-123.5"/>
<text text-anchor="middle" x="578.5" y="-130.5" font-family="Helvetica,sans-Serif" font-size="10.00">fstream</text>
</a>
</g>
</g>
<!-- Node1&#45;&gt;Node11 -->
<g id="edge11" class="edge">
<title>Node1&#45;&gt;Node11</title>
<path fill="none" stroke="midnightblue" d="M423.66,-179.44C455.47,-170.11 506.51,-155.13 541.22,-144.94"/>
<polygon fill="midnightblue" stroke="midnightblue" points="542.37,-148.25 550.98,-142.08 540.4,-141.53 542.37,-148.25"/>
</g>
<!-- Node3 -->
<g id="node3" class="node">
<title>Node3</title>
<g id="a_node3"><a xlink:title=" ">
<polygon fill="none" stroke="#bfbfbf" points="0,-62 0,-81 53,-81 53,-62 0,-62"/>
<text text-anchor="middle" x="26.5" y="-69" font-family="Helvetica,sans-Serif" font-size="10.00">stdint.h</text>
</a>
</g>
</g>
<!-- Node2&#45;&gt;Node3 -->
<g id="edge2" class="edge">
<title>Node2&#45;&gt;Node3</title>
<path fill="none" stroke="midnightblue" d="M83.9,-123.48C73.45,-114.2 56.53,-99.17 43.76,-87.83"/>
<polygon fill="midnightblue" stroke="midnightblue" points="45.88,-85.03 36.08,-81.01 41.23,-90.27 45.88,-85.03"/>
</g>
<!-- Node4 -->
<g id="node4" class="node">
<title>Node4</title>
<g id="a_node4"><a xlink:title=" ">
<polygon fill="none" stroke="#bfbfbf" points="71.5,-62 71.5,-81 115.5,-81 115.5,-62 71.5,-62"/>
<text text-anchor="middle" x="93.5" y="-69" font-family="Helvetica,sans-Serif" font-size="10.00">string</text>
</a>
</g>
</g>
<!-- Node2&#45;&gt;Node4 -->
<g id="edge3" class="edge">
<title>Node2&#45;&gt;Node4</title>
<path fill="none" stroke="midnightblue" d="M93.5,-123.48C93.5,-115.08 93.5,-101.98 93.5,-91.16"/>
<polygon fill="midnightblue" stroke="midnightblue" points="97,-91.01 93.5,-81.01 90,-91.01 97,-91.01"/>
</g>
<!-- Node5&#45;&gt;Node4 -->
<g id="edge8" class="edge">
<title>Node5&#45;&gt;Node4</title>
<path fill="none" stroke="midnightblue" d="M234.07,-123.43C205.45,-115.09 161.57,-101.56 124.5,-87 123.08,-86.44 121.64,-85.85 120.19,-85.24"/>
<polygon fill="midnightblue" stroke="midnightblue" points="121.27,-81.89 110.71,-81.02 118.42,-88.29 121.27,-81.89"/>
</g>
<!-- Node6 -->
<g id="node6" class="node">
<title>Node6</title>
<g id="a_node6"><a xlink:href="template__tools_8hpp.html" target="_top" xlink:title=" ">
<polygon fill="none" stroke="black" points="134,-56.5 134,-86.5 257,-86.5 257,-56.5 134,-56.5"/>
<text text-anchor="start" x="142" y="-74.5" font-family="Helvetica,sans-Serif" font-size="10.00">BoosterSeat/template</text>
<text text-anchor="middle" x="195.5" y="-63.5" font-family="Helvetica,sans-Serif" font-size="10.00">_tools.hpp</text>
</a>
</g>
</g>
<!-- Node5&#45;&gt;Node6 -->
<g id="edge5" class="edge">
<title>Node5&#45;&gt;Node6</title>
<path fill="none" stroke="midnightblue" d="M254.61,-123.48C245.44,-115.57 231.43,-103.48 219.35,-93.07"/>
<polygon fill="midnightblue" stroke="midnightblue" points="221.62,-90.4 211.76,-86.52 217.05,-95.7 221.62,-90.4"/>
</g>
<!-- Node8 -->
<g id="node8" class="node">
<title>Node8</title>
<g id="a_node8"><a xlink:title=" ">
<polygon fill="none" stroke="#bfbfbf" points="275,-62 275,-81 340,-81 340,-62 275,-62"/>
<text text-anchor="middle" x="307.5" y="-69" font-family="Helvetica,sans-Serif" font-size="10.00">stdexcept</text>
</a>
</g>
</g>
<!-- Node5&#45;&gt;Node8 -->
<g id="edge7" class="edge">
<title>Node5&#45;&gt;Node8</title>
<path fill="none" stroke="midnightblue" d="M270.66,-123.48C277.11,-114.55 287.4,-100.31 295.47,-89.14"/>
<polygon fill="midnightblue" stroke="midnightblue" points="298.33,-91.16 301.35,-81.01 292.66,-87.06 298.33,-91.16"/>
</g>
<!-- Node6&#45;&gt;Node7 -->
<g id="edge6" class="edge">
<title>Node6&#45;&gt;Node7</title>
<path fill="none" stroke="midnightblue" d="M215.88,-56.4C229.41,-47.04 247.11,-34.79 260.72,-25.38"/>
<polygon fill="midnightblue" stroke="midnightblue" points="262.75,-28.23 268.99,-19.66 258.77,-22.47 262.75,-28.23"/>
</g>
</g>
</svg>
