<?xml version="1.0" encoding="UTF-8" standalone="no"?>
<!DOCTYPE svg PUBLIC "-//W3C//DTD SVG 1.1//EN"
 "http://www.w3.org/Graphics/SVG/1.1/DTD/svg11.dtd">
<!-- Generated by graphviz version 2.43.0 (0)
 -->
<!-- Title: filesystem.cpp Pages: 1 -->
<svg width="594pt" height="207pt"
 viewBox="0.00 0.00 594.00 207.00" xmlns="http://www.w3.org/2000/svg" xmlns:xlink="http://www.w3.org/1999/xlink">
<g id="graph0" class="graph" transform="scale(1 1) rotate(0) translate(4 203)">
<title>filesystem.cpp</title>
<!-- Node1 -->
<g id="node1" class="node">
<title>Node1</title>
<g id="a_node1"><a xlink:title="Boost_erSeat&#39;s filesystem module.">
<polygon fill="#bfbfbf" stroke="black" points="330.5,-179.5 330.5,-198.5 418.5,-198.5 418.5,-179.5 330.5,-179.5"/>
<text text-anchor="middle" x="374.5" y="-186.5" font-family="Helvetica,sans-Serif" font-size="10.00">filesystem.cpp</text>
</a>
</g>
</g>
<!-- Node2 -->
<g id="node2" class="node">
<title>Node2</title>
<g id="a_node2"><a xlink:href="filesystem_8hpp.html" target="_top" xlink:title=" ">
<polygon fill="none" stroke="black" points="0,-123.5 0,-142.5 151,-142.5 151,-123.5 0,-123.5"/>
<text text-anchor="middle" x="75.5" y="-130.5" font-family="Helvetica,sans-Serif" font-size="10.00">BoosterSeat/filesystem.hpp</text>
</a>
</g>
</g>
<!-- Node1&#45;&gt;Node2 -->
<g id="edge1" class="edge">
<title>Node1&#45;&gt;Node2</title>
<path fill="none" stroke="midnightblue" d="M330.38,-180.03C277.97,-170.57 190.41,-154.75 132.8,-144.35"/>
<polygon fill="midnightblue" stroke="midnightblue" points="133.23,-140.87 122.76,-142.54 131.98,-147.76 133.23,-140.87"/>
</g>
<!-- Node4 -->
<g id="node4" class="node">
<title>Node4</title>
<g id="a_node4"><a xlink:href="exception_8hpp.html" target="_top" xlink:title=" ">
<polygon fill="none" stroke="black" points="171.5,-123.5 171.5,-142.5 319.5,-142.5 319.5,-123.5 171.5,-123.5"/>
<text text-anchor="middle" x="245.5" y="-130.5" font-family="Helvetica,sans-Serif" font-size="10.00">BoosterSeat/exception.hpp</text>
</a>
</g>
</g>
<!-- Node1&#45;&gt;Node4 -->
<g id="edge3" class="edge">
<title>Node1&#45;&gt;Node4</title>
<path fill="none" stroke="midnightblue" d="M354.06,-179.44C332.83,-170.56 299.4,-156.56 275.25,-146.45"/>
<polygon fill="midnightblue" stroke="midnightblue" points="276.42,-143.15 265.84,-142.52 273.72,-149.61 276.42,-143.15"/>
</g>
<!-- Node6 -->
<g id="node6" class="node">
<title>Node6</title>
<g id="a_node6"><a xlink:title=" ">
<polygon fill="none" stroke="#bfbfbf" points="227,-0.5 227,-19.5 296,-19.5 296,-0.5 227,-0.5"/>
<text text-anchor="middle" x="261.5" y="-7.5" font-family="Helvetica,sans-Serif" font-size="10.00">type_traits</text>
</a>
</g>
</g>
<!-- Node1&#45;&gt;Node6 -->
<g id="edge11" class="edge">
<title>Node1&#45;&gt;Node6</title>
<path fill="none" stroke="midnightblue" d="M373.51,-179.38C370.54,-156.9 359.98,-95.48 329.5,-56 319.17,-42.62 303.68,-31.92 290.09,-24.33"/>
<polygon fill="midnightblue" stroke="midnightblue" points="291.55,-21.14 281.07,-19.57 288.28,-27.33 291.55,-21.14"/>
</g>
<!-- Node8 -->
<g id="node8" class="node">
<title>Node8</title>
<g id="a_node8"><a xlink:title=" ">
<polygon fill="none" stroke="#bfbfbf" points="376.5,-123.5 376.5,-142.5 426.5,-142.5 426.5,-123.5 376.5,-123.5"/>
<text text-anchor="middle" x="401.5" y="-130.5" font-family="Helvetica,sans-Serif" font-size="10.00">cstdint</text>
</a>
</g>
</g>
<!-- Node1&#45;&gt;Node8 -->
<g id="edge8" class="edge">
<title>Node1&#45;&gt;Node8</title>
<path fill="none" stroke="midnightblue" d="M378.96,-179.08C382.65,-171.69 388.02,-160.95 392.59,-151.81"/>
<polygon fill="midnightblue" stroke="midnightblue" points="395.78,-153.26 397.12,-142.75 389.52,-150.13 395.78,-153.26"/>
</g>
<!-- Node9 -->
<g id="node9" class="node">
<title>Node9</title>
<g id="a_node9"><a xlink:title=" ">
<polygon fill="none" stroke="#bfbfbf" points="444.5,-123.5 444.5,-142.5 512.5,-142.5 512.5,-123.5 444.5,-123.5"/>
<text text-anchor="middle" x="478.5" y="-130.5" font-family="Helvetica,sans-Serif" font-size="10.00">filesystem</text>
</a>
</g>
</g>
<!-- Node1&#45;&gt;Node9 -->
<g id="edge9" class="edge">
<title>Node1&#45;&gt;Node9</title>
<path fill="none" stroke="midnightblue" d="M391.21,-179.32C407.81,-170.7 433.5,-157.36 452.72,-147.39"/>
<polygon fill="midnightblue" stroke="midnightblue" points="454.57,-150.37 461.83,-142.65 451.34,-144.16 454.57,-150.37"/>
</g>
<!-- Node10 -->
<g id="node10" class="node">
<title>Node10</title>
<g id="a_node10"><a xlink:title=" ">
<polygon fill="none" stroke="#bfbfbf" points="531,-123.5 531,-142.5 586,-142.5 586,-123.5 531,-123.5"/>
<text text-anchor="middle" x="558.5" y="-130.5" font-family="Helvetica,sans-Serif" font-size="10.00">fstream</text>
</a>
</g>
</g>
<!-- Node1&#45;&gt;Node10 -->
<g id="edge10" class="edge">
<title>Node1&#45;&gt;Node10</title>
<path fill="none" stroke="midnightblue" d="M403.66,-179.44C435.47,-170.11 486.51,-155.13 521.22,-144.94"/>
<polygon fill="midnightblue" stroke="midnightblue" points="522.37,-148.25 530.98,-142.08 520.4,-141.53 522.37,-148.25"/>
</g>
<!-- Node3 -->
<g id="node3" class="node">
<title>Node3</title>
<g id="a_node3"><a xlink:title=" ">
<polygon fill="none" stroke="#bfbfbf" points="51.5,-62 51.5,-81 95.5,-81 95.5,-62 51.5,-62"/>
<text text-anchor="middle" x="73.5" y="-69" font-family="Helvetica,sans-Serif" font-size="10.00">string</text>
</a>
</g>
</g>
<!-- Node2&#45;&gt;Node3 -->
<g id="edge2" class="edge">
<title>Node2&#45;&gt;Node3</title>
<path fill="none" stroke="midnightblue" d="M75.21,-123.48C74.93,-115.08 74.49,-101.98 74.13,-91.16"/>
<polygon fill="midnightblue" stroke="midnightblue" points="77.62,-90.89 73.79,-81.01 70.62,-91.12 77.62,-90.89"/>
</g>
<!-- Node4&#45;&gt;Node3 -->
<g id="edge7" class="edge">
<title>Node4&#45;&gt;Node3</title>
<path fill="none" stroke="midnightblue" d="M214.85,-123.46C186.02,-115.13 141.83,-101.62 104.5,-87 103.08,-86.44 101.64,-85.86 100.19,-85.24"/>
<polygon fill="midnightblue" stroke="midnightblue" points="101.27,-81.89 90.71,-81.03 98.42,-88.29 101.27,-81.89"/>
</g>
<!-- Node5 -->
<g id="node5" class="node">
<title>Node5</title>
<g id="a_node5"><a xlink:href="template__tools_8hpp.html" target="_top" xlink:title=" ">
<polygon fill="none" stroke="black" points="114,-56.5 114,-86.5 237,-86.5 237,-56.5 114,-56.5"/>
<text text-anchor="start" x="122" y="-74.5" font-family="Helvetica,sans-Serif" font-size="10.00">BoosterSeat/template</text>
<text text-anchor="middle" x="175.5" y="-63.5" font-family="Helvetica,sans-Serif" font-size="10.00">_tools.hpp</text>
</a>
</g>
</g>
<!-- Node4&#45;&gt;Node5 -->
<g id="edge4" class="edge">
<title>Node4&#45;&gt;Node5</title>
<path fill="none" stroke="midnightblue" d="M235.47,-123.48C226.17,-115.57 211.95,-103.48 199.7,-93.07"/>
<polygon fill="midnightblue" stroke="midnightblue" points="201.88,-90.33 192,-86.52 197.35,-95.67 201.88,-90.33"/>
</g>
<!-- Node7 -->
<g id="node7" class="node">
<title>Node7</title>
<g id="a_node7"><a xlink:title=" ">
<polygon fill="none" stroke="#bfbfbf" points="255,-62 255,-81 320,-81 320,-62 255,-62"/>
<text text-anchor="middle" x="287.5" y="-69" font-family="Helvetica,sans-Serif" font-size="10.00">stdexcept</text>
</a>
</g>
</g>
<!-- Node4&#45;&gt;Node7 -->
<g id="edge6" class="edge">
<title>Node4&#45;&gt;Node7</title>
<path fill="none" stroke="midnightblue" d="M251.52,-123.48C257.76,-114.64 267.67,-100.59 275.52,-89.48"/>
<polygon fill="midnightblue" stroke="midnightblue" points="278.59,-91.2 281.49,-81.01 272.87,-87.16 278.59,-91.2"/>
</g>
<!-- Node5&#45;&gt;Node6 -->
<g id="edge5" class="edge">
<title>Node5&#45;&gt;Node6</title>
<path fill="none" stroke="midnightblue" d="M195.88,-56.4C209.41,-47.04 227.11,-34.79 240.72,-25.38"/>
<polygon fill="midnightblue" stroke="midnightblue" points="242.75,-28.23 248.99,-19.66 238.77,-22.47 242.75,-28.23"/>
</g>
</g>
</svg>
