<?xml version="1.0" encoding="UTF-8" standalone="no"?>
<!DOCTYPE svg PUBLIC "-//W3C//DTD SVG 1.1//EN"
 "http://www.w3.org/Graphics/SVG/1.1/DTD/svg11.dtd">
<!-- Generated by graphviz version 2.43.0 (0)
 -->
<!-- Title: geo_point.cpp Pages: 1 -->
<svg width="535pt" height="207pt"
 viewBox="0.00 0.00 535.00 207.00" xmlns="http://www.w3.org/2000/svg" xmlns:xlink="http://www.w3.org/1999/xlink">
<g id="graph0" class="graph" transform="scale(1 1) rotate(0) translate(4 203)">
<title>geo_point.cpp</title>
<!-- Node1 -->
<g id="node1" class="node">
<title>Node1</title>
<g id="a_node1"><a xlink:title=" ">
<polygon fill="#bfbfbf" stroke="black" points="206,-179.5 206,-198.5 291,-198.5 291,-179.5 206,-179.5"/>
<text text-anchor="middle" x="248.5" y="-186.5" font-family="Helvetica,sans-Serif" font-size="10.00">geo_point.cpp</text>
</a>
</g>
</g>
<!-- Node2 -->
<g id="node2" class="node">
<title>Node2</title>
<g id="a_node2"><a xlink:title=" ">
<polygon fill="none" stroke="#bfbfbf" points="34,-123.5 34,-142.5 81,-142.5 81,-123.5 34,-123.5"/>
<text text-anchor="middle" x="57.5" y="-130.5" font-family="Helvetica,sans-Serif" font-size="10.00">cmath</text>
</a>
</g>
</g>
<!-- Node1&#45;&gt;Node2 -->
<g id="edge1" class="edge">
<title>Node1&#45;&gt;Node2</title>
<path fill="none" stroke="midnightblue" d="M218.24,-179.44C183.67,-169.67 127.28,-153.73 91.3,-143.56"/>
<polygon fill="midnightblue" stroke="midnightblue" points="91.86,-140.08 81.29,-140.73 89.96,-146.81 91.86,-140.08"/>
</g>
<!-- Node3 -->
<g id="node3" class="node">
<title>Node3</title>
<g id="a_node3"><a xlink:href="exception_8hpp.html" target="_top" xlink:title=" ">
<polygon fill="none" stroke="black" points="99.5,-123.5 99.5,-142.5 247.5,-142.5 247.5,-123.5 99.5,-123.5"/>
<text text-anchor="middle" x="173.5" y="-130.5" font-family="Helvetica,sans-Serif" font-size="10.00">BoosterSeat/exception.hpp</text>
</a>
</g>
</g>
<!-- Node1&#45;&gt;Node3 -->
<g id="edge2" class="edge">
<title>Node1&#45;&gt;Node3</title>
<path fill="none" stroke="midnightblue" d="M236.45,-179.32C225.04,-171.11 207.67,-158.6 194.07,-148.81"/>
<polygon fill="midnightblue" stroke="midnightblue" points="195.93,-145.84 185.77,-142.83 191.84,-151.52 195.93,-145.84"/>
</g>
<!-- Node8 -->
<g id="node8" class="node">
<title>Node8</title>
<g id="a_node8"><a xlink:href="geo_8hpp.html" target="_top" xlink:title="A collection of structures for representing geographic data.">
<polygon fill="none" stroke="black" points="265.5,-123.5 265.5,-142.5 383.5,-142.5 383.5,-123.5 265.5,-123.5"/>
<text text-anchor="middle" x="324.5" y="-130.5" font-family="Helvetica,sans-Serif" font-size="10.00">BoosterSeat/geo.hpp</text>
</a>
</g>
</g>
<!-- Node1&#45;&gt;Node8 -->
<g id="edge7" class="edge">
<title>Node1&#45;&gt;Node8</title>
<path fill="none" stroke="midnightblue" d="M260.71,-179.32C272.28,-171.11 289.88,-158.6 303.66,-148.81"/>
<polygon fill="midnightblue" stroke="midnightblue" points="305.94,-151.48 312.07,-142.83 301.89,-145.77 305.94,-151.48"/>
</g>
<!-- Node10 -->
<g id="node10" class="node">
<title>Node10</title>
<g id="a_node10"><a xlink:href="math_8hpp.html" target="_top" xlink:title="Contains general math functions/constants.">
<polygon fill="none" stroke="black" points="402,-123.5 402,-142.5 527,-142.5 527,-123.5 402,-123.5"/>
<text text-anchor="middle" x="464.5" y="-130.5" font-family="Helvetica,sans-Serif" font-size="10.00">BoosterSeat/math.hpp</text>
</a>
</g>
</g>
<!-- Node1&#45;&gt;Node10 -->
<g id="edge9" class="edge">
<title>Node1&#45;&gt;Node10</title>
<path fill="none" stroke="midnightblue" d="M282.73,-179.44C320.01,-170.12 379.77,-155.18 420.51,-145"/>
<polygon fill="midnightblue" stroke="midnightblue" points="421.58,-148.34 430.43,-142.52 419.88,-141.55 421.58,-148.34"/>
</g>
<!-- Node4 -->
<g id="node4" class="node">
<title>Node4</title>
<g id="a_node4"><a xlink:href="template__tools_8hpp.html" target="_top" xlink:title=" ">
<polygon fill="none" stroke="black" points="0,-56.5 0,-86.5 123,-86.5 123,-56.5 0,-56.5"/>
<text text-anchor="start" x="8" y="-74.5" font-family="Helvetica,sans-Serif" font-size="10.00">BoosterSeat/template</text>
<text text-anchor="middle" x="61.5" y="-63.5" font-family="Helvetica,sans-Serif" font-size="10.00">_tools.hpp</text>
</a>
</g>
</g>
<!-- Node3&#45;&gt;Node4 -->
<g id="edge3" class="edge">
<title>Node3&#45;&gt;Node4</title>
<path fill="none" stroke="midnightblue" d="M157.45,-123.48C141.72,-115.12 117.2,-102.09 96.89,-91.3"/>
<polygon fill="midnightblue" stroke="midnightblue" points="98.37,-88.12 87.9,-86.52 95.09,-94.31 98.37,-88.12"/>
</g>
<!-- Node6 -->
<g id="node6" class="node">
<title>Node6</title>
<g id="a_node6"><a xlink:title=" ">
<polygon fill="none" stroke="#bfbfbf" points="141,-62 141,-81 206,-81 206,-62 141,-62"/>
<text text-anchor="middle" x="173.5" y="-69" font-family="Helvetica,sans-Serif" font-size="10.00">stdexcept</text>
</a>
</g>
</g>
<!-- Node3&#45;&gt;Node6 -->
<g id="edge5" class="edge">
<title>Node3&#45;&gt;Node6</title>
<path fill="none" stroke="midnightblue" d="M173.5,-123.48C173.5,-115.08 173.5,-101.98 173.5,-91.16"/>
<polygon fill="midnightblue" stroke="midnightblue" points="177,-91.01 173.5,-81.01 170,-91.01 177,-91.01"/>
</g>
<!-- Node7 -->
<g id="node7" class="node">
<title>Node7</title>
<g id="a_node7"><a xlink:title=" ">
<polygon fill="none" stroke="#bfbfbf" points="224.5,-62 224.5,-81 268.5,-81 268.5,-62 224.5,-62"/>
<text text-anchor="middle" x="246.5" y="-69" font-family="Helvetica,sans-Serif" font-size="10.00">string</text>
</a>
</g>
</g>
<!-- Node3&#45;&gt;Node7 -->
<g id="edge6" class="edge">
<title>Node3&#45;&gt;Node7</title>
<path fill="none" stroke="midnightblue" d="M183.96,-123.48C195.45,-114.11 214.13,-98.88 228.09,-87.51"/>
<polygon fill="midnightblue" stroke="midnightblue" points="230.52,-90.04 236.06,-81.01 226.1,-84.61 230.52,-90.04"/>
</g>
<!-- Node5 -->
<g id="node5" class="node">
<title>Node5</title>
<g id="a_node5"><a xlink:title=" ">
<polygon fill="none" stroke="#bfbfbf" points="27,-0.5 27,-19.5 96,-19.5 96,-0.5 27,-0.5"/>
<text text-anchor="middle" x="61.5" y="-7.5" font-family="Helvetica,sans-Serif" font-size="10.00">type_traits</text>
</a>
</g>
</g>
<!-- Node4&#45;&gt;Node5 -->
<g id="edge4" class="edge">
<title>Node4&#45;&gt;Node5</title>
<path fill="none" stroke="midnightblue" d="M61.5,-56.4C61.5,-48.47 61.5,-38.46 61.5,-29.86"/>
<polygon fill="midnightblue" stroke="midnightblue" points="65,-29.66 61.5,-19.66 58,-29.66 65,-29.66"/>
</g>
<!-- Node9 -->
<g id="node9" class="node">
<title>Node9</title>
<g id="a_node9"><a xlink:title=" ">
<polygon fill="none" stroke="#bfbfbf" points="301,-62 301,-81 348,-81 348,-62 301,-62"/>
<text text-anchor="middle" x="324.5" y="-69" font-family="Helvetica,sans-Serif" font-size="10.00">vector</text>
</a>
</g>
</g>
<!-- Node8&#45;&gt;Node9 -->
<g id="edge8" class="edge">
<title>Node8&#45;&gt;Node9</title>
<path fill="none" stroke="midnightblue" d="M324.5,-123.48C324.5,-115.08 324.5,-101.98 324.5,-91.16"/>
<polygon fill="midnightblue" stroke="midnightblue" points="328,-91.01 324.5,-81.01 321,-91.01 328,-91.01"/>
</g>
</g>
</svg>
