<?xml version="1.0" encoding="UTF-8" standalone="no"?>
<!DOCTYPE svg PUBLIC "-//W3C//DTD SVG 1.1//EN"
 "http://www.w3.org/Graphics/SVG/1.1/DTD/svg11.dtd">
<!-- Generated by graphviz version 2.43.0 (0)
 -->
<!-- Title: geo.hpp Pages: 1 -->
<svg width="341pt" height="140pt"
 viewBox="0.00 0.00 341.00 140.00" xmlns="http://www.w3.org/2000/svg" xmlns:xlink="http://www.w3.org/1999/xlink">
<g id="graph0" class="graph" transform="scale(1 1) rotate(0) translate(4 136)">
<title>geo.hpp</title>
<!-- Node1 -->
<g id="node1" class="node">
<title>Node1</title>
<g id="a_node1"><a xlink:title="A collection of structures for representing geographic data.">
<polygon fill="#bfbfbf" stroke="black" points="122.5,-112.5 122.5,-131.5 178.5,-131.5 178.5,-112.5 122.5,-112.5"/>
<text text-anchor="middle" x="150.5" y="-119.5" font-family="Helvetica,sans-Serif" font-size="10.00">geo.hpp</text>
</a>
</g>
</g>
<!-- Node2 -->
<g id="node2" class="node">
<title>Node2</title>
<g id="a_node2"><a xlink:href="geo__point_8cpp.html" target="_top" xlink:title=" ">
<polygon fill="none" stroke="black" points="0,-56.5 0,-75.5 85,-75.5 85,-56.5 0,-56.5"/>
<text text-anchor="middle" x="42.5" y="-63.5" font-family="Helvetica,sans-Serif" font-size="10.00">geo_point.cpp</text>
</a>
</g>
</g>
<!-- Node1&#45;&gt;Node2 -->
<g id="edge1" class="edge">
<title>Node1&#45;&gt;Node2</title>
<path fill="none" stroke="midnightblue" d="M123.95,-107.73C103.95,-97.73 77.11,-84.31 59.81,-75.65"/>
<polygon fill="midnightblue" stroke="midnightblue" points="122.64,-110.98 133.15,-112.32 125.77,-104.72 122.64,-110.98"/>
</g>
<!-- Node3 -->
<g id="node3" class="node">
<title>Node3</title>
<g id="a_node3"><a xlink:href="geo__strings_8cpp.html" target="_top" xlink:title=" ">
<polygon fill="none" stroke="black" points="104,-0.5 104,-19.5 197,-19.5 197,-0.5 104,-0.5"/>
<text text-anchor="middle" x="150.5" y="-7.5" font-family="Helvetica,sans-Serif" font-size="10.00">geo_strings.cpp</text>
</a>
</g>
</g>
<!-- Node1&#45;&gt;Node3 -->
<g id="edge2" class="edge">
<title>Node1&#45;&gt;Node3</title>
<path fill="none" stroke="midnightblue" d="M141.56,-103.2C137.98,-95.11 134.29,-85.3 132.5,-76 128.56,-55.53 138.8,-32.1 145.41,-19.73"/>
<polygon fill="midnightblue" stroke="midnightblue" points="138.44,-104.79 145.88,-112.34 144.77,-101.8 138.44,-104.79"/>
</g>
<!-- Node4 -->
<g id="node4" class="node">
<title>Node4</title>
<g id="a_node4"><a xlink:href="geo__strings_8hpp.html" target="_top" xlink:title="For use with geo.hpp, gives ya strings.">
<polygon fill="none" stroke="black" points="141.5,-56.5 141.5,-75.5 235.5,-75.5 235.5,-56.5 141.5,-56.5"/>
<text text-anchor="middle" x="188.5" y="-63.5" font-family="Helvetica,sans-Serif" font-size="10.00">geo_strings.hpp</text>
</a>
</g>
</g>
<!-- Node1&#45;&gt;Node4 -->
<g id="edge3" class="edge">
<title>Node1&#45;&gt;Node4</title>
<path fill="none" stroke="midnightblue" d="M162.56,-103.86C169.14,-94.5 177.01,-83.33 182.34,-75.75"/>
<polygon fill="midnightblue" stroke="midnightblue" points="159.67,-101.89 156.77,-112.08 165.39,-105.92 159.67,-101.89"/>
</g>
<!-- Node5 -->
<g id="node5" class="node">
<title>Node5</title>
<g id="a_node5"><a xlink:href="geo__test_8cpp.html" target="_top" xlink:title=" ">
<polygon fill="none" stroke="black" points="254,-56.5 254,-75.5 333,-75.5 333,-56.5 254,-56.5"/>
<text text-anchor="middle" x="293.5" y="-63.5" font-family="Helvetica,sans-Serif" font-size="10.00">geo_test.cpp</text>
</a>
</g>
</g>
<!-- Node1&#45;&gt;Node5 -->
<g id="edge5" class="edge">
<title>Node1&#45;&gt;Node5</title>
<path fill="none" stroke="midnightblue" d="M182.53,-108.91C209.41,-98.75 247.14,-84.51 270.95,-75.52"/>
<polygon fill="midnightblue" stroke="midnightblue" points="181.28,-105.64 173.16,-112.44 183.75,-112.19 181.28,-105.64"/>
</g>
<!-- Node4&#45;&gt;Node3 -->
<g id="edge4" class="edge">
<title>Node4&#45;&gt;Node3</title>
<path fill="none" stroke="midnightblue" d="M176.44,-47.86C169.86,-38.5 161.99,-27.33 156.66,-19.75"/>
<polygon fill="midnightblue" stroke="midnightblue" points="173.61,-49.92 182.23,-56.08 179.33,-45.89 173.61,-49.92"/>
</g>
</g>
</svg>
