<?xml version="1.0" encoding="UTF-8" standalone="no"?>
<!DOCTYPE svg PUBLIC "-//W3C//DTD SVG 1.1//EN"
 "http://www.w3.org/Graphics/SVG/1.1/DTD/svg11.dtd">
<!-- Generated by graphviz version 2.43.0 (0)
 -->
<!-- Title: geo.hpp Pages: 1 -->
<svg width="244pt" height="140pt"
 viewBox="0.00 0.00 243.50 140.00" xmlns="http://www.w3.org/2000/svg" xmlns:xlink="http://www.w3.org/1999/xlink">
<g id="graph0" class="graph" transform="scale(1 1) rotate(0) translate(4 136)">
<title>geo.hpp</title>
<!-- Node1 -->
<g id="node1" class="node">
<title>Node1</title>
<g id="a_node1"><a xlink:title="A collection of structures for representing geographic data.">
<polygon fill="#bfbfbf" stroke="black" points="85.5,-112.5 85.5,-131.5 141.5,-131.5 141.5,-112.5 85.5,-112.5"/>
<text text-anchor="middle" x="113.5" y="-119.5" font-family="Helvetica,sans-Serif" font-size="10.00">geo.hpp</text>
</a>
</g>
</g>
<!-- Node2 -->
<g id="node2" class="node">
<title>Node2</title>
<g id="a_node2"><a xlink:href="geo__point_8cpp.html" target="_top" xlink:title=" ">
<polygon fill="none" stroke="black" points="0,-56.5 0,-75.5 85,-75.5 85,-56.5 0,-56.5"/>
<text text-anchor="middle" x="42.5" y="-63.5" font-family="Helvetica,sans-Serif" font-size="10.00">geo_point.cpp</text>
</a>
</g>
</g>
<!-- Node1&#45;&gt;Node2 -->
<g id="edge1" class="edge">
<title>Node1&#45;&gt;Node2</title>
<path fill="none" stroke="midnightblue" d="M93.91,-106.1C81.13,-96.38 64.89,-84.03 54.11,-75.83"/>
<polygon fill="midnightblue" stroke="midnightblue" points="92.01,-109.06 102.09,-112.32 96.25,-103.48 92.01,-109.06"/>
</g>
<!-- Node3 -->
<g id="node3" class="node">
<title>Node3</title>
<g id="a_node3"><a xlink:href="geo__strings_8cpp.html" target="_top" xlink:title=" ">
<polygon fill="none" stroke="black" points="104,-0.5 104,-19.5 197,-19.5 197,-0.5 104,-0.5"/>
<text text-anchor="middle" x="150.5" y="-7.5" font-family="Helvetica,sans-Serif" font-size="10.00">geo_strings.cpp</text>
</a>
</g>
</g>
<!-- Node1&#45;&gt;Node3 -->
<g id="edge2" class="edge">
<title>Node1&#45;&gt;Node3</title>
<path fill="none" stroke="midnightblue" d="M118.43,-102.38C122.02,-89.3 127.16,-71.45 132.5,-56 136.95,-43.12 142.98,-28.52 146.8,-19.53"/>
<polygon fill="midnightblue" stroke="midnightblue" points="115.04,-101.52 115.81,-112.08 121.8,-103.34 115.04,-101.52"/>
</g>
<!-- Node4 -->
<g id="node4" class="node">
<title>Node4</title>
<g id="a_node4"><a xlink:href="geo__strings_8hpp.html" target="_top" xlink:title="For use with geo.hpp, gives ya strings.">
<polygon fill="none" stroke="black" points="141.5,-56.5 141.5,-75.5 235.5,-75.5 235.5,-56.5 141.5,-56.5"/>
<text text-anchor="middle" x="188.5" y="-63.5" font-family="Helvetica,sans-Serif" font-size="10.00">geo_strings.hpp</text>
</a>
</g>
</g>
<!-- Node1&#45;&gt;Node4 -->
<g id="edge3" class="edge">
<title>Node1&#45;&gt;Node4</title>
<path fill="none" stroke="midnightblue" d="M133.81,-106.38C147.36,-96.62 164.74,-84.11 176.23,-75.83"/>
<polygon fill="midnightblue" stroke="midnightblue" points="131.62,-103.64 125.55,-112.32 135.71,-109.32 131.62,-103.64"/>
</g>
<!-- Node4&#45;&gt;Node3 -->
<g id="edge4" class="edge">
<title>Node4&#45;&gt;Node3</title>
<path fill="none" stroke="midnightblue" d="M176.44,-47.86C169.86,-38.5 161.99,-27.33 156.66,-19.75"/>
<polygon fill="midnightblue" stroke="midnightblue" points="173.61,-49.92 182.23,-56.08 179.33,-45.89 173.61,-49.92"/>
</g>
</g>
</svg>
