<?xml version="1.0" encoding="UTF-8" standalone="no"?>
<!DOCTYPE svg PUBLIC "-//W3C//DTD SVG 1.1//EN"
 "http://www.w3.org/Graphics/SVG/1.1/DTD/svg11.dtd">
<!-- Generated by graphviz version 2.43.0 (0)
 -->
<!-- Title: Graphical Class Hierarchy Pages: 1 -->
<svg width="287pt" height="78pt"
 viewBox="0.00 0.00 287.00 77.50" xmlns="http://www.w3.org/2000/svg" xmlns:xlink="http://www.w3.org/1999/xlink">
<g id="graph0" class="graph" transform="scale(1 1) rotate(0) translate(4 73.5)">
<title>Graphical Class Hierarchy</title>
<!-- Node0 -->
<g id="node1" class="node">
<title>Node0</title>
<g id="a_node1"><a xlink:href="classbst_1_1IStopwatch.html" target="_top" xlink:title=" ">
<polygon fill="none" stroke="black" points="0,-28 0,-47 92,-47 92,-28 0,-28"/>
<text text-anchor="middle" x="46" y="-35" font-family="Helvetica,sans-Serif" font-size="10.00">bst::IStopwatch</text>
</a>
</g>
</g>
<!-- Node1 -->
<g id="node2" class="node">
<title>Node1</title>
<g id="a_node2"><a xlink:href="classbst_1_1SoftwareStopwatch.html" target="_top" xlink:title="A manually controlled stopwatch that does not use the system clock.">
<polygon fill="none" stroke="black" points="138,-50 138,-69 269,-69 269,-50 138,-50"/>
<text text-anchor="middle" x="203.5" y="-57" font-family="Helvetica,sans-Serif" font-size="10.00">bst::SoftwareStopwatch</text>
</a>
</g>
</g>
<!-- Node0&#45;&gt;Node1 -->
<g id="edge1" class="edge">
<title>Node0&#45;&gt;Node1</title>
<path fill="none" stroke="midnightblue" d="M102.33,-45.33C113.87,-46.96 126.14,-48.7 137.98,-50.37"/>
<polygon fill="midnightblue" stroke="midnightblue" points="102.79,-41.86 92.4,-43.92 101.81,-48.79 102.79,-41.86"/>
</g>
<!-- Node2 -->
<g id="node3" class="node">
<title>Node2</title>
<g id="a_node3"><a xlink:href="classbst_1_1Stopwatch.html" target="_top" xlink:title="A simple stopwatch class. Basic start (resume), stop (pause), and reset functionality.">
<polygon fill="none" stroke="black" points="128,-0.5 128,-30.5 279,-30.5 279,-0.5 128,-0.5"/>
<text text-anchor="start" x="136" y="-18.5" font-family="Helvetica,sans-Serif" font-size="10.00">bst::Stopwatch&lt; Stopwatch</text>
<text text-anchor="middle" x="203.5" y="-7.5" font-family="Helvetica,sans-Serif" font-size="10.00">Clock &gt;</text>
</a>
</g>
</g>
<!-- Node0&#45;&gt;Node2 -->
<g id="edge2" class="edge">
<title>Node0&#45;&gt;Node2</title>
<path fill="none" stroke="midnightblue" d="M102.55,-29.64C110.74,-28.48 119.29,-27.27 127.79,-26.07"/>
<polygon fill="midnightblue" stroke="midnightblue" points="101.81,-26.21 92.4,-31.08 102.79,-33.14 101.81,-26.21"/>
</g>
</g>
</svg>
