<?xml version="1.0" encoding="UTF-8" standalone="no"?>
<!DOCTYPE svg PUBLIC "-//W3C//DTD SVG 1.1//EN"
 "http://www.w3.org/Graphics/SVG/1.1/DTD/svg11.dtd">
<!-- Generated by graphviz version 2.43.0 (0)
 -->
<!-- Title: Graphical Class Hierarchy Pages: 1 -->
<svg width="222pt" height="66pt"
 viewBox="0.00 0.00 222.00 66.00" xmlns="http://www.w3.org/2000/svg" xmlns:xlink="http://www.w3.org/1999/xlink">
<g id="graph0" class="graph" transform="scale(1 1) rotate(0) translate(4 62)">
<title>Graphical Class Hierarchy</title>
<!-- Node0 -->
<g id="node1" class="node">
<title>Node0</title>
<g id="a_node1"><a xlink:href="classbst_1_1ITimer.html" target="_top" xlink:title="Interface for a timer class.">
<polygon fill="none" stroke="black" points="0,-19.5 0,-38.5 69,-38.5 69,-19.5 0,-19.5"/>
<text text-anchor="middle" x="34.5" y="-26.5" font-family="Helvetica,sans-Serif" font-size="10.00">bst::ITimer</text>
</a>
</g>
</g>
<!-- Node1 -->
<g id="node2" class="node">
<title>Node1</title>
<g id="a_node2"><a xlink:href="classbst_1_1SoftwareTimer.html" target="_top" xlink:title="A software timer class for manual control.">
<polygon fill="none" stroke="black" points="105,-38.5 105,-57.5 214,-57.5 214,-38.5 105,-38.5"/>
<text text-anchor="middle" x="159.5" y="-45.5" font-family="Helvetica,sans-Serif" font-size="10.00">bst::SoftwareTimer</text>
</a>
</g>
</g>
<!-- Node0&#45;&gt;Node1 -->
<g id="edge1" class="edge">
<title>Node0&#45;&gt;Node1</title>
<path fill="none" stroke="midnightblue" d="M79.21,-35.75C87.42,-37.02 96.1,-38.36 104.57,-39.67"/>
<polygon fill="midnightblue" stroke="midnightblue" points="79.53,-32.26 69.11,-34.19 78.46,-39.18 79.53,-32.26"/>
</g>
<!-- Node2 -->
<g id="node3" class="node">
<title>Node2</title>
<g id="a_node3"><a xlink:href="classbst_1_1Timer.html" target="_top" xlink:title="A simple timer class for timing events.">
<polygon fill="none" stroke="black" points="126.5,-0.5 126.5,-19.5 192.5,-19.5 192.5,-0.5 126.5,-0.5"/>
<text text-anchor="middle" x="159.5" y="-7.5" font-family="Helvetica,sans-Serif" font-size="10.00">bst::Timer</text>
</a>
</g>
</g>
<!-- Node0&#45;&gt;Node2 -->
<g id="edge2" class="edge">
<title>Node0&#45;&gt;Node2</title>
<path fill="none" stroke="midnightblue" d="M79.03,-22.28C94.57,-19.88 111.78,-17.22 126.2,-14.99"/>
<polygon fill="midnightblue" stroke="midnightblue" points="78.46,-18.82 69.11,-23.81 79.53,-25.74 78.46,-18.82"/>
</g>
</g>
</svg>
