<?xml version="1.0" encoding="UTF-8" standalone="no"?>
<!DOCTYPE svg PUBLIC "-//W3C//DTD SVG 1.1//EN"
 "http://www.w3.org/Graphics/SVG/1.1/DTD/svg11.dtd">
<!-- Generated by graphviz version 2.43.0 (0)
 -->
<!-- Title: Graphical Class Hierarchy Pages: 1 -->
<svg width="267pt" height="66pt"
 viewBox="0.00 0.00 267.00 66.00" xmlns="http://www.w3.org/2000/svg" xmlns:xlink="http://www.w3.org/1999/xlink">
<g id="graph0" class="graph" transform="scale(1 1) rotate(0) translate(4 62)">
<title>Graphical Class Hierarchy</title>
<!-- Node0 -->
<g id="node1" class="node">
<title>Node0</title>
<g id="a_node1"><a xlink:href="classbst_1_1IStopwatch.html" target="_top" xlink:title=" ">
<polygon fill="none" stroke="black" points="0,-19.5 0,-38.5 92,-38.5 92,-19.5 0,-19.5"/>
<text text-anchor="middle" x="46" y="-26.5" font-family="Helvetica,sans-Serif" font-size="10.00">bst::IStopwatch</text>
</a>
</g>
</g>
<!-- Node1 -->
<g id="node2" class="node">
<title>Node1</title>
<g id="a_node2"><a xlink:href="classbst_1_1SoftwareStopwatch.html" target="_top" xlink:title="A manually controlled stopwatch that does not use the system clock.">
<polygon fill="none" stroke="black" points="128,-38.5 128,-57.5 259,-57.5 259,-38.5 128,-38.5"/>
<text text-anchor="middle" x="193.5" y="-45.5" font-family="Helvetica,sans-Serif" font-size="10.00">bst::SoftwareStopwatch</text>
</a>
</g>
</g>
<!-- Node0&#45;&gt;Node1 -->
<g id="edge1" class="edge">
<title>Node0&#45;&gt;Node1</title>
<path fill="none" stroke="midnightblue" d="M102.23,-36.21C110.58,-37.3 119.26,-38.44 127.79,-39.55"/>
<polygon fill="midnightblue" stroke="midnightblue" points="102.61,-32.73 92.24,-34.91 101.7,-39.67 102.61,-32.73"/>
</g>
<!-- Node2 -->
<g id="node3" class="node">
<title>Node2</title>
<g id="a_node3"><a xlink:href="classbst_1_1Stopwatch.html" target="_top" xlink:title="A simple stopwatch class. Basic start (resume), stop (pause), and reset functionality.">
<polygon fill="none" stroke="black" points="149,-0.5 149,-19.5 238,-19.5 238,-0.5 149,-0.5"/>
<text text-anchor="middle" x="193.5" y="-7.5" font-family="Helvetica,sans-Serif" font-size="10.00">bst::Stopwatch</text>
</a>
</g>
</g>
<!-- Node0&#45;&gt;Node2 -->
<g id="edge2" class="edge">
<title>Node0&#45;&gt;Node2</title>
<path fill="none" stroke="midnightblue" d="M102.18,-21.79C117.59,-19.78 134.13,-17.62 148.78,-15.71"/>
<polygon fill="midnightblue" stroke="midnightblue" points="101.7,-18.33 92.24,-23.09 102.61,-25.27 101.7,-18.33"/>
</g>
</g>
</svg>
