<?xml version="1.0" encoding="UTF-8" standalone="no"?>
<!DOCTYPE svg PUBLIC "-//W3C//DTD SVG 1.1//EN"
 "http://www.w3.org/Graphics/SVG/1.1/DTD/svg11.dtd">
<!-- Generated by graphviz version 2.43.0 (0)
 -->
<!-- Title: BoosterSeat::clck::now Pages: 1 -->
<svg width="511pt" height="215pt"
 viewBox="0.00 0.00 511.00 215.00" xmlns="http://www.w3.org/2000/svg" xmlns:xlink="http://www.w3.org/1999/xlink">
<g id="graph0" class="graph" transform="scale(1 1) rotate(0) translate(4 211)">
<title>BoosterSeat::clck::now</title>
<!-- Node1 -->
<g id="node1" class="node">
<title>Node1</title>
<g id="a_node1"><a xlink:title=" ">
<polygon fill="#bfbfbf" stroke="black" points="375,-94 375,-113 503,-113 503,-94 375,-94"/>
<text text-anchor="middle" x="439" y="-101" font-family="Helvetica,sans-Serif" font-size="10.00">BoosterSeat::clck::now</text>
</a>
</g>
</g>
<!-- Node2 -->
<g id="node2" class="node">
<title>Node2</title>
<g id="a_node2"><a xlink:href="classBoosterSeat_1_1Timer.html#ad3cc262ba2f09da2ff9fdaa94d359c32" target="_top" xlink:title=" ">
<polygon fill="none" stroke="black" points="77,-176.5 77,-206.5 187,-206.5 187,-176.5 77,-176.5"/>
<text text-anchor="start" x="85" y="-194.5" font-family="Helvetica,sans-Serif" font-size="10.00">BoosterSeat::Timer</text>
<text text-anchor="middle" x="132" y="-183.5" font-family="Helvetica,sans-Serif" font-size="10.00">::isDone</text>
</a>
</g>
</g>
<!-- Node1&#45;&gt;Node2 -->
<g id="edge1" class="edge">
<title>Node1&#45;&gt;Node2</title>
<path fill="none" stroke="midnightblue" d="M417.04,-119.04C397.76,-132.5 367.89,-151.37 339,-161.5 289.38,-178.9 229.62,-186.21 187.27,-189.28"/>
<polygon fill="midnightblue" stroke="midnightblue" points="419.24,-121.76 425.35,-113.1 415.18,-116.07 419.24,-121.76"/>
</g>
<!-- Node3 -->
<g id="node3" class="node">
<title>Node3</title>
<g id="a_node3"><a xlink:href="visual__tests_8cpp.html#ae66f6b31b5ad750f1fe042a706a4e3d4" target="_top" xlink:title=" ">
<polygon fill="none" stroke="black" points="0,-106 0,-125 41,-125 41,-106 0,-106"/>
<text text-anchor="middle" x="20.5" y="-113" font-family="Helvetica,sans-Serif" font-size="10.00">main</text>
</a>
</g>
</g>
<!-- Node1&#45;&gt;Node3 -->
<g id="edge3" class="edge">
<title>Node1&#45;&gt;Node3</title>
<path fill="none" stroke="midnightblue" d="M398.23,-115.94C380.32,-120.91 358.8,-126.04 339,-128.5 227.04,-142.42 91.35,-125.8 41.29,-118.56"/>
<polygon fill="midnightblue" stroke="midnightblue" points="399.39,-119.24 408.04,-113.13 397.46,-112.51 399.39,-119.24"/>
</g>
<!-- Node4 -->
<g id="node4" class="node">
<title>Node4</title>
<g id="a_node4"><a xlink:href="namespaceBoosterSeat_1_1clck.html#a88b28985cce1667988a66e876fc507e1" target="_top" xlink:title=" ">
<polygon fill="none" stroke="black" points="223,-88.5 223,-118.5 339,-118.5 339,-88.5 223,-88.5"/>
<text text-anchor="start" x="231" y="-106.5" font-family="Helvetica,sans-Serif" font-size="10.00">BoosterSeat::clck::</text>
<text text-anchor="middle" x="281" y="-95.5" font-family="Helvetica,sans-Serif" font-size="10.00">millisecondsElapsed</text>
</a>
</g>
</g>
<!-- Node1&#45;&gt;Node4 -->
<g id="edge4" class="edge">
<title>Node1&#45;&gt;Node4</title>
<path fill="none" stroke="midnightblue" d="M364.92,-103.5C356.28,-103.5 347.57,-103.5 339.19,-103.5"/>
<polygon fill="midnightblue" stroke="midnightblue" points="365,-107 375,-103.5 365,-100 365,-107"/>
</g>
<!-- Node5 -->
<g id="node5" class="node">
<title>Node5</title>
<g id="a_node5"><a xlink:href="classBoosterSeat_1_1Timer.html#a9020542d73357a4eef512eefaf57524b" target="_top" xlink:title=" ">
<polygon fill="none" stroke="black" points="77,-78.5 77,-108.5 187,-108.5 187,-78.5 77,-78.5"/>
<text text-anchor="start" x="85" y="-96.5" font-family="Helvetica,sans-Serif" font-size="10.00">BoosterSeat::Timer</text>
<text text-anchor="middle" x="132" y="-85.5" font-family="Helvetica,sans-Serif" font-size="10.00">::reset</text>
</a>
</g>
</g>
<!-- Node1&#45;&gt;Node5 -->
<g id="edge5" class="edge">
<title>Node1&#45;&gt;Node5</title>
<path fill="none" stroke="midnightblue" d="M396.74,-91.17C379.12,-86.52 358.23,-81.8 339,-79.5 287.81,-73.38 274.4,-75.53 223,-79.5 211.33,-80.4 198.89,-81.95 187.1,-83.7"/>
<polygon fill="midnightblue" stroke="midnightblue" points="396.13,-94.64 406.69,-93.89 397.97,-87.88 396.13,-94.64"/>
</g>
<!-- Node6 -->
<g id="node6" class="node">
<title>Node6</title>
<g id="a_node6"><a xlink:href="namespaceBoosterSeat_1_1clck.html#afafe6029a205acad80604de5eaac62d7" target="_top" xlink:title=" ">
<polygon fill="none" stroke="black" points="227.5,-0.5 227.5,-30.5 334.5,-30.5 334.5,-0.5 227.5,-0.5"/>
<text text-anchor="start" x="235.5" y="-18.5" font-family="Helvetica,sans-Serif" font-size="10.00">BoosterSeat::clck::</text>
<text text-anchor="middle" x="281" y="-7.5" font-family="Helvetica,sans-Serif" font-size="10.00">secondsElapsed</text>
</a>
</g>
</g>
<!-- Node1&#45;&gt;Node6 -->
<g id="edge7" class="edge">
<title>Node1&#45;&gt;Node6</title>
<path fill="none" stroke="midnightblue" d="M413.26,-88.59C393.34,-76.68 364.55,-59.7 339,-45.5 330.01,-40.5 320.12,-35.22 311.13,-30.51"/>
<polygon fill="midnightblue" stroke="midnightblue" points="411.63,-91.69 422.01,-93.83 415.23,-85.69 411.63,-91.69"/>
</g>
<!-- Node2&#45;&gt;Node3 -->
<g id="edge2" class="edge">
<title>Node2&#45;&gt;Node3</title>
<path fill="none" stroke="midnightblue" d="M92.62,-171.34C87.28,-168.2 81.93,-164.87 77,-161.5 60.47,-150.2 42.92,-135.06 32.09,-125.29"/>
<polygon fill="midnightblue" stroke="midnightblue" points="91.12,-174.51 101.54,-176.42 94.59,-168.43 91.12,-174.51"/>
</g>
<!-- Node5&#45;&gt;Node3 -->
<g id="edge6" class="edge">
<title>Node5&#45;&gt;Node3</title>
<path fill="none" stroke="midnightblue" d="M67.01,-106.36C57.62,-108.24 48.59,-110.06 41.09,-111.56"/>
<polygon fill="midnightblue" stroke="midnightblue" points="67.78,-109.77 76.89,-104.37 66.4,-102.91 67.78,-109.77"/>
</g>
<!-- Node7 -->
<g id="node7" class="node">
<title>Node7</title>
<g id="a_node7"><a xlink:href="namespaceBoosterSeat_1_1time.html#a96da139824ad355ab258c4c0af6c9650" target="_top" xlink:title=" ">
<polygon fill="none" stroke="black" points="77,-10.5 77,-40.5 187,-40.5 187,-10.5 77,-10.5"/>
<text text-anchor="start" x="85" y="-28.5" font-family="Helvetica,sans-Serif" font-size="10.00">BoosterSeat::time::</text>
<text text-anchor="middle" x="132" y="-17.5" font-family="Helvetica,sans-Serif" font-size="10.00">elapsedAsciiClock</text>
</a>
</g>
</g>
<!-- Node6&#45;&gt;Node7 -->
<g id="edge8" class="edge">
<title>Node6&#45;&gt;Node7</title>
<path fill="none" stroke="midnightblue" d="M217.12,-19.78C207.18,-20.45 196.99,-21.15 187.27,-21.81"/>
<polygon fill="midnightblue" stroke="midnightblue" points="217.61,-23.25 227.34,-19.08 217.13,-16.27 217.61,-23.25"/>
</g>
<!-- Node7&#45;&gt;Node3 -->
<g id="edge9" class="edge">
<title>Node7&#45;&gt;Node3</title>
<path fill="none" stroke="midnightblue" d="M104.46,-47.06C95.7,-54.19 85.92,-62.17 77,-69.5 61.72,-82.05 44.16,-96.63 32.96,-105.96"/>
<polygon fill="midnightblue" stroke="midnightblue" points="106.93,-49.56 112.47,-40.53 102.51,-44.13 106.93,-49.56"/>
</g>
</g>
</svg>
