<?xml version="1.0" encoding="UTF-8" standalone="no"?>
<!DOCTYPE svg PUBLIC "-//W3C//DTD SVG 1.1//EN"
 "http://www.w3.org/Graphics/SVG/1.1/DTD/svg11.dtd">
<!-- Generated by graphviz version 2.43.0 (0)
 -->
<!-- Title: internal::exists Pages: 1 -->
<svg width="444pt" height="104pt"
 viewBox="0.00 0.00 444.00 104.00" xmlns="http://www.w3.org/2000/svg" xmlns:xlink="http://www.w3.org/1999/xlink">
<g id="graph0" class="graph" transform="scale(1 1) rotate(0) translate(4 100)">
<title>internal::exists</title>
<!-- Node1 -->
<g id="node1" class="node">
<title>Node1</title>
<g id="a_node1"><a xlink:title=" ">
<polygon fill="#bfbfbf" stroke="black" points="347,-38.5 347,-57.5 436,-57.5 436,-38.5 347,-38.5"/>
<text text-anchor="middle" x="391.5" y="-45.5" font-family="Helvetica,sans-Serif" font-size="10.00">internal::exists</text>
</a>
</g>
</g>
<!-- Node2 -->
<g id="node2" class="node">
<title>Node2</title>
<g id="a_node2"><a xlink:href="namespaceassertions.html#a3996fb04f725f28b7c88895a80118336" target="_top" xlink:title="Checks if a path exists, otherwise it will throw an exception.">
<polygon fill="none" stroke="black" points="172,-76.5 172,-95.5 311,-95.5 311,-76.5 172,-76.5"/>
<text text-anchor="middle" x="241.5" y="-83.5" font-family="Helvetica,sans-Serif" font-size="10.00">assertions::DoesNotExist</text>
</a>
</g>
</g>
<!-- Node1&#45;&gt;Node2 -->
<g id="edge1" class="edge">
<title>Node1&#45;&gt;Node2</title>
<path fill="none" stroke="midnightblue" d="M343.33,-60.11C322.71,-65.4 298.89,-71.52 279.58,-76.48"/>
<polygon fill="midnightblue" stroke="midnightblue" points="344.34,-63.47 353.15,-57.59 342.6,-56.69 344.34,-63.47"/>
</g>
<!-- Node3 -->
<g id="node3" class="node">
<title>Node3</title>
<g id="a_node3"><a xlink:href="namespaceassertions.html#a2f953f5375dfaa98583a4d43475caf25" target="_top" xlink:title="Checks if a path exists, otherwise it will throw an exception.">
<polygon fill="none" stroke="black" points="190.5,-38.5 190.5,-57.5 292.5,-57.5 292.5,-38.5 190.5,-38.5"/>
<text text-anchor="middle" x="241.5" y="-45.5" font-family="Helvetica,sans-Serif" font-size="10.00">assertions::Exists</text>
</a>
</g>
</g>
<!-- Node1&#45;&gt;Node3 -->
<g id="edge2" class="edge">
<title>Node1&#45;&gt;Node3</title>
<path fill="none" stroke="midnightblue" d="M336.64,-48C322.24,-48 306.74,-48 292.55,-48"/>
<polygon fill="midnightblue" stroke="midnightblue" points="336.9,-51.5 346.9,-48 336.9,-44.5 336.9,-51.5"/>
</g>
<!-- Node6 -->
<g id="node6" class="node">
<title>Node6</title>
<g id="a_node6"><a xlink:href="filesystem__test_8cpp.html#aa1156273a796d2aeef73e3463eb11016" target="_top" xlink:title=" ">
<polygon fill="none" stroke="black" points="221,-0.5 221,-19.5 262,-19.5 262,-0.5 221,-0.5"/>
<text text-anchor="middle" x="241.5" y="-7.5" font-family="Helvetica,sans-Serif" font-size="10.00">TEST</text>
</a>
</g>
</g>
<!-- Node1&#45;&gt;Node6 -->
<g id="edge5" class="edge">
<title>Node1&#45;&gt;Node6</title>
<path fill="none" stroke="midnightblue" d="M343.33,-35.89C315.88,-28.84 282.73,-20.33 262.12,-15.04"/>
<polygon fill="midnightblue" stroke="midnightblue" points="342.6,-39.31 353.15,-38.41 344.34,-32.53 342.6,-39.31"/>
</g>
<!-- Node4 -->
<g id="node4" class="node">
<title>Node4</title>
<g id="a_node4"><a xlink:href="namespaceassertions.html#ae836775a6257e8270026456d314b5f12" target="_top" xlink:title="Checks if the path exists and is a directory, otherwise it will throw an exception.">
<polygon fill="none" stroke="black" points="5,-57.5 5,-76.5 131,-76.5 131,-57.5 5,-57.5"/>
<text text-anchor="middle" x="68" y="-64.5" font-family="Helvetica,sans-Serif" font-size="10.00">assertions::IsDirectory</text>
</a>
</g>
</g>
<!-- Node3&#45;&gt;Node4 -->
<g id="edge3" class="edge">
<title>Node3&#45;&gt;Node4</title>
<path fill="none" stroke="midnightblue" d="M180.18,-54.68C164.25,-56.45 147.03,-58.36 131.01,-60.13"/>
<polygon fill="midnightblue" stroke="midnightblue" points="180.88,-58.13 190.43,-53.55 180.11,-51.17 180.88,-58.13"/>
</g>
<!-- Node5 -->
<g id="node5" class="node">
<title>Node5</title>
<g id="a_node5"><a xlink:href="namespaceassertions.html#afc3f9b61119c84db617cc0cd88840883" target="_top" xlink:title="Checks if the path exists and is a regular file, otherwise it will throw an exception.">
<polygon fill="none" stroke="black" points="0,-19.5 0,-38.5 136,-38.5 136,-19.5 0,-19.5"/>
<text text-anchor="middle" x="68" y="-26.5" font-family="Helvetica,sans-Serif" font-size="10.00">assertions::IsRegularFile</text>
</a>
</g>
</g>
<!-- Node3&#45;&gt;Node5 -->
<g id="edge4" class="edge">
<title>Node3&#45;&gt;Node5</title>
<path fill="none" stroke="midnightblue" d="M180.23,-41.32C165.94,-39.74 150.61,-38.04 136.03,-36.43"/>
<polygon fill="midnightblue" stroke="midnightblue" points="180.11,-44.83 190.43,-42.45 180.88,-37.87 180.11,-44.83"/>
</g>
</g>
</svg>
