<?xml version="1.0" encoding="UTF-8" standalone="no"?>
<!DOCTYPE svg PUBLIC "-//W3C//DTD SVG 1.1//EN"
 "http://www.w3.org/Graphics/SVG/1.1/DTD/svg11.dtd">
<!-- Generated by graphviz version 2.43.0 (0)
 -->
<!-- Title: bst::time::elapsedAsciiClock Pages: 1 -->
<svg width="459pt" height="28pt"
 viewBox="0.00 0.00 459.00 28.00" xmlns="http://www.w3.org/2000/svg" xmlns:xlink="http://www.w3.org/1999/xlink">
<g id="graph0" class="graph" transform="scale(1 1) rotate(0) translate(4 24)">
<title>bst::time::elapsedAsciiClock</title>
<!-- Node1 -->
<g id="node1" class="node">
<title>Node1</title>
<g id="a_node1"><a xlink:title=" ">
<polygon fill="#bfbfbf" stroke="black" points="0,-0.5 0,-19.5 155,-19.5 155,-0.5 0,-0.5"/>
<text text-anchor="middle" x="77.5" y="-7.5" font-family="Helvetica,sans-Serif" font-size="10.00">bst::time::elapsedAsciiClock</text>
</a>
</g>
</g>
<!-- Node2 -->
<g id="node2" class="node">
<title>Node2</title>
<g id="a_node2"><a xlink:href="namespacebst_1_1clck.html#a02d33e7c359f0ee2a30e6dfb7e9a1d92" target="_top" xlink:title=" ">
<polygon fill="none" stroke="black" points="191,-0.5 191,-19.5 332,-19.5 332,-0.5 191,-0.5"/>
<text text-anchor="middle" x="261.5" y="-7.5" font-family="Helvetica,sans-Serif" font-size="10.00">bst::clck::secondsElapsed</text>
</a>
</g>
</g>
<!-- Node1&#45;&gt;Node2 -->
<g id="edge1" class="edge">
<title>Node1&#45;&gt;Node2</title>
<path fill="none" stroke="midnightblue" d="M155.16,-10C163.58,-10 172.18,-10 180.64,-10"/>
<polygon fill="midnightblue" stroke="midnightblue" points="180.88,-13.5 190.88,-10 180.88,-6.5 180.88,-13.5"/>
</g>
<!-- Node3 -->
<g id="node3" class="node">
<title>Node3</title>
<g id="a_node3"><a xlink:href="namespacebst_1_1clck.html#ad44954960a85385ac81684b67de215b6" target="_top" xlink:title=" ">
<polygon fill="none" stroke="black" points="368,-0.5 368,-19.5 451,-19.5 451,-0.5 368,-0.5"/>
<text text-anchor="middle" x="409.5" y="-7.5" font-family="Helvetica,sans-Serif" font-size="10.00">bst::clck::now</text>
</a>
</g>
</g>
<!-- Node2&#45;&gt;Node3 -->
<g id="edge2" class="edge">
<title>Node2&#45;&gt;Node3</title>
<path fill="none" stroke="midnightblue" d="M332.08,-10C340.65,-10 349.29,-10 357.51,-10"/>
<polygon fill="midnightblue" stroke="midnightblue" points="357.67,-13.5 367.67,-10 357.67,-6.5 357.67,-13.5"/>
</g>
</g>
</svg>
