<?xml version="1.0" encoding="UTF-8" standalone="no"?>
<!DOCTYPE svg PUBLIC "-//W3C//DTD SVG 1.1//EN"
 "http://www.w3.org/Graphics/SVG/1.1/DTD/svg11.dtd">
<!-- Generated by graphviz version 2.43.0 (0)
 -->
<!-- Title: bst::sleep Pages: 1 -->
<svg width="345pt" height="104pt"
 viewBox="0.00 0.00 345.00 104.00" xmlns="http://www.w3.org/2000/svg" xmlns:xlink="http://www.w3.org/1999/xlink">
<g id="graph0" class="graph" transform="scale(1 1) rotate(0) translate(4 100)">
<title>bst::sleep</title>
<!-- Node1 -->
<g id="node1" class="node">
<title>Node1</title>
<g id="a_node1"><a xlink:title=" ">
<polygon fill="#bfbfbf" stroke="black" points="273,-38.5 273,-57.5 337,-57.5 337,-38.5 273,-38.5"/>
<text text-anchor="middle" x="305" y="-45.5" font-family="Helvetica,sans-Serif" font-size="10.00">bst::sleep</text>
</a>
</g>
</g>
<!-- Node2 -->
<g id="node2" class="node">
<title>Node2</title>
<g id="a_node2"><a xlink:href="visual__tests_8cpp.html#ae66f6b31b5ad750f1fe042a706a4e3d4" target="_top" xlink:title=" ">
<polygon fill="none" stroke="black" points="136.5,-76.5 136.5,-95.5 177.5,-95.5 177.5,-76.5 136.5,-76.5"/>
<text text-anchor="middle" x="157" y="-83.5" font-family="Helvetica,sans-Serif" font-size="10.00">main</text>
</a>
</g>
</g>
<!-- Node1&#45;&gt;Node2 -->
<g id="edge1" class="edge">
<title>Node1&#45;&gt;Node2</title>
<path fill="none" stroke="midnightblue" d="M262.92,-59.93C254.37,-62.33 245.41,-64.8 237,-67 216.8,-72.29 193.56,-77.81 177.53,-81.53"/>
<polygon fill="midnightblue" stroke="midnightblue" points="264.05,-63.25 272.71,-57.15 262.14,-56.52 264.05,-63.25"/>
</g>
<!-- Node3 -->
<g id="node3" class="node">
<title>Node3</title>
<g id="a_node3"><a xlink:href="stopwatch__test_8cpp.html#a9be7c13549ce809b4413aa8092bc79d6" target="_top" xlink:title=" ">
<polygon fill="none" stroke="black" points="136.5,-38.5 136.5,-57.5 177.5,-57.5 177.5,-38.5 136.5,-38.5"/>
<text text-anchor="middle" x="157" y="-45.5" font-family="Helvetica,sans-Serif" font-size="10.00">TEST</text>
</a>
</g>
</g>
<!-- Node1&#45;&gt;Node3 -->
<g id="edge2" class="edge">
<title>Node1&#45;&gt;Node3</title>
<path fill="none" stroke="midnightblue" d="M262.43,-48C234.6,-48 199.24,-48 177.63,-48"/>
<polygon fill="midnightblue" stroke="midnightblue" points="262.68,-51.5 272.68,-48 262.68,-44.5 262.68,-51.5"/>
</g>
<!-- Node4 -->
<g id="node4" class="node">
<title>Node4</title>
<g id="a_node4"><a xlink:href="classbst_1_1Process.html#a6b840ce798c1a766de0812a7761397dc" target="_top" xlink:title="Waits for the process to complete. If the process does not complete within the timeout,...">
<polygon fill="none" stroke="black" points="77,-0.5 77,-19.5 237,-19.5 237,-0.5 77,-0.5"/>
<text text-anchor="middle" x="157" y="-7.5" font-family="Helvetica,sans-Serif" font-size="10.00">bst::Process::waitToComplete</text>
</a>
</g>
</g>
<!-- Node1&#45;&gt;Node4 -->
<g id="edge3" class="edge">
<title>Node1&#45;&gt;Node4</title>
<path fill="none" stroke="midnightblue" d="M262.92,-36.07C254.37,-33.67 245.41,-31.2 237,-29 224.72,-25.78 211.31,-22.48 199.08,-19.55"/>
<polygon fill="midnightblue" stroke="midnightblue" points="262.14,-39.48 272.71,-38.85 264.05,-32.75 262.14,-39.48"/>
</g>
<!-- Node5 -->
<g id="node5" class="node">
<title>Node5</title>
<g id="a_node5"><a xlink:href="process__test_8cpp.html#a2a3fb820745965d747a37acb3d034893" target="_top" xlink:title=" ">
<polygon fill="none" stroke="black" points="0,-0.5 0,-19.5 41,-19.5 41,-0.5 0,-0.5"/>
<text text-anchor="middle" x="20.5" y="-7.5" font-family="Helvetica,sans-Serif" font-size="10.00">TEST</text>
</a>
</g>
</g>
<!-- Node4&#45;&gt;Node5 -->
<g id="edge4" class="edge">
<title>Node4&#45;&gt;Node5</title>
<path fill="none" stroke="midnightblue" d="M66.88,-10C57.39,-10 48.54,-10 41.23,-10"/>
<polygon fill="midnightblue" stroke="midnightblue" points="66.98,-13.5 76.98,-10 66.98,-6.5 66.98,-13.5"/>
</g>
</g>
</svg>
