<?xml version="1.0" encoding="UTF-8" standalone="no"?>
<!DOCTYPE svg PUBLIC "-//W3C//DTD SVG 1.1//EN"
 "http://www.w3.org/Graphics/SVG/1.1/DTD/svg11.dtd">
<!-- Generated by graphviz version 2.43.0 (0)
 -->
<!-- Title: BoosterSeat::clck::now Pages: 1 -->
<svg width="511pt" height="242pt"
 viewBox="0.00 0.00 511.00 242.00" xmlns="http://www.w3.org/2000/svg" xmlns:xlink="http://www.w3.org/1999/xlink">
<g id="graph0" class="graph" transform="scale(1 1) rotate(0) translate(4 238)">
<title>BoosterSeat::clck::now</title>
<!-- Node1 -->
<g id="node1" class="node">
<title>Node1</title>
<g id="a_node1"><a xlink:title=" ">
<polygon fill="#bfbfbf" stroke="black" points="375,-110.5 375,-129.5 503,-129.5 503,-110.5 375,-110.5"/>
<text text-anchor="middle" x="439" y="-117.5" font-family="Helvetica,sans-Serif" font-size="10.00">BoosterSeat::clck::now</text>
</a>
</g>
</g>
<!-- Node2 -->
<g id="node2" class="node">
<title>Node2</title>
<g id="a_node2"><a xlink:href="classbst_1_1Timer.html#ad3cc262ba2f09da2ff9fdaa94d359c32" target="_top" xlink:title="Check if the timer has expired.">
<polygon fill="none" stroke="black" points="228,-214.5 228,-233.5 334,-233.5 334,-214.5 228,-214.5"/>
<text text-anchor="middle" x="281" y="-221.5" font-family="Helvetica,sans-Serif" font-size="10.00">bst::Timer::isDone</text>
</a>
</g>
</g>
<!-- Node1&#45;&gt;Node2 -->
<g id="edge1" class="edge">
<title>Node1&#45;&gt;Node2</title>
<path fill="none" stroke="midnightblue" d="M420.5,-136.72C401.55,-154.17 369.89,-181.52 339,-200 329.6,-205.62 318.64,-210.57 308.86,-214.5"/>
<polygon fill="midnightblue" stroke="midnightblue" points="423.11,-139.06 428.03,-129.68 418.33,-133.95 423.11,-139.06"/>
</g>
<!-- Node3 -->
<g id="node3" class="node">
<title>Node3</title>
<g id="a_node3"><a xlink:href="visual__tests_8cpp.html#ae66f6b31b5ad750f1fe042a706a4e3d4" target="_top" xlink:title=" ">
<polygon fill="none" stroke="black" points="0,-110.5 0,-129.5 41,-129.5 41,-110.5 0,-110.5"/>
<text text-anchor="middle" x="20.5" y="-117.5" font-family="Helvetica,sans-Serif" font-size="10.00">main</text>
</a>
</g>
</g>
<!-- Node1&#45;&gt;Node3 -->
<g id="edge2" class="edge">
<title>Node1&#45;&gt;Node3</title>
<path fill="none" stroke="midnightblue" d="M414.6,-134.78C395.19,-146.11 366.44,-160.82 339,-167 227.56,-192.11 91,-146.87 41.01,-127.84"/>
<polygon fill="midnightblue" stroke="midnightblue" points="416.56,-137.68 423.33,-129.54 412.95,-131.68 416.56,-137.68"/>
</g>
<!-- Node4 -->
<g id="node4" class="node">
<title>Node4</title>
<g id="a_node4"><a xlink:href="namespaceBoosterSeat_1_1clck.html#a88b28985cce1667988a66e876fc507e1" target="_top" xlink:title=" ">
<polygon fill="none" stroke="black" points="223,-127 223,-157 339,-157 339,-127 223,-127"/>
<text text-anchor="start" x="231" y="-145" font-family="Helvetica,sans-Serif" font-size="10.00">BoosterSeat::clck::</text>
<text text-anchor="middle" x="281" y="-134" font-family="Helvetica,sans-Serif" font-size="10.00">millisecondsElapsed</text>
</a>
</g>
</g>
<!-- Node1&#45;&gt;Node4 -->
<g id="edge3" class="edge">
<title>Node1&#45;&gt;Node4</title>
<path fill="none" stroke="midnightblue" d="M364.92,-130.31C356.28,-131.52 347.57,-132.75 339.19,-133.93"/>
<polygon fill="midnightblue" stroke="midnightblue" points="365.59,-133.75 375,-128.88 364.61,-126.82 365.59,-133.75"/>
</g>
<!-- Node5 -->
<g id="node5" class="node">
<title>Node5</title>
<g id="a_node5"><a xlink:href="classbst_1_1Timer.html#a9020542d73357a4eef512eefaf57524b" target="_top" xlink:title="Reset the timer to the current time.">
<polygon fill="none" stroke="black" points="232.5,-88.5 232.5,-107.5 329.5,-107.5 329.5,-88.5 232.5,-88.5"/>
<text text-anchor="middle" x="281" y="-95.5" font-family="Helvetica,sans-Serif" font-size="10.00">bst::Timer::reset</text>
</a>
</g>
</g>
<!-- Node1&#45;&gt;Node5 -->
<g id="edge4" class="edge">
<title>Node1&#45;&gt;Node5</title>
<path fill="none" stroke="midnightblue" d="M365.03,-109.71C353.1,-108.03 341,-106.32 329.88,-104.75"/>
<polygon fill="midnightblue" stroke="midnightblue" points="364.61,-113.18 375,-111.12 365.59,-106.25 364.61,-113.18"/>
</g>
<!-- Node6 -->
<g id="node6" class="node">
<title>Node6</title>
<g id="a_node6"><a xlink:href="namespaceBoosterSeat_1_1clck.html#afafe6029a205acad80604de5eaac62d7" target="_top" xlink:title=" ">
<polygon fill="none" stroke="black" points="227.5,-39 227.5,-69 334.5,-69 334.5,-39 227.5,-39"/>
<text text-anchor="start" x="235.5" y="-57" font-family="Helvetica,sans-Serif" font-size="10.00">BoosterSeat::clck::</text>
<text text-anchor="middle" x="281" y="-46" font-family="Helvetica,sans-Serif" font-size="10.00">secondsElapsed</text>
</a>
</g>
</g>
<!-- Node1&#45;&gt;Node6 -->
<g id="edge5" class="edge">
<title>Node1&#45;&gt;Node6</title>
<path fill="none" stroke="midnightblue" d="M406.03,-106.47C380.35,-95.61 344.32,-80.37 317.71,-69.11"/>
<polygon fill="midnightblue" stroke="midnightblue" points="404.74,-109.73 415.32,-110.4 407.47,-103.28 404.74,-109.73"/>
</g>
<!-- Node8 -->
<g id="node8" class="node">
<title>Node8</title>
<g id="a_node8"><a xlink:href="classbst_1_1Timer.html#a1a1d4e10ebb20bd4db7884b569524809" target="_top" xlink:title="Set the timer to be done. Changes the start time.">
<polygon fill="none" stroke="black" points="224.5,-0.5 224.5,-19.5 337.5,-19.5 337.5,-0.5 224.5,-0.5"/>
<text text-anchor="middle" x="281" y="-7.5" font-family="Helvetica,sans-Serif" font-size="10.00">bst::Timer::setDone</text>
</a>
</g>
</g>
<!-- Node1&#45;&gt;Node8 -->
<g id="edge8" class="edge">
<title>Node1&#45;&gt;Node8</title>
<path fill="none" stroke="midnightblue" d="M423.45,-102.78C405.49,-82.52 373.12,-49.11 339,-29 332.62,-25.24 325.39,-22.1 318.28,-19.54"/>
<polygon fill="midnightblue" stroke="midnightblue" points="420.81,-105.09 430.02,-110.34 426.1,-100.49 420.81,-105.09"/>
</g>
<!-- Node7 -->
<g id="node7" class="node">
<title>Node7</title>
<g id="a_node7"><a xlink:href="namespaceBoosterSeat_1_1time.html#a96da139824ad355ab258c4c0af6c9650" target="_top" xlink:title=" ">
<polygon fill="none" stroke="black" points="77,-83 77,-113 187,-113 187,-83 77,-83"/>
<text text-anchor="start" x="85" y="-101" font-family="Helvetica,sans-Serif" font-size="10.00">BoosterSeat::time::</text>
<text text-anchor="middle" x="132" y="-90" font-family="Helvetica,sans-Serif" font-size="10.00">elapsedAsciiClock</text>
</a>
</g>
</g>
<!-- Node6&#45;&gt;Node7 -->
<g id="edge6" class="edge">
<title>Node6&#45;&gt;Node7</title>
<path fill="none" stroke="midnightblue" d="M220.18,-71.9C207.99,-75.55 195.28,-79.36 183.45,-82.9"/>
<polygon fill="midnightblue" stroke="midnightblue" points="221.25,-75.24 229.82,-69.02 219.24,-68.53 221.25,-75.24"/>
</g>
<!-- Node7&#45;&gt;Node3 -->
<g id="edge7" class="edge">
<title>Node7&#45;&gt;Node3</title>
<path fill="none" stroke="midnightblue" d="M67.01,-110.86C57.62,-112.74 48.59,-114.56 41.09,-116.06"/>
<polygon fill="midnightblue" stroke="midnightblue" points="67.78,-114.27 76.89,-108.87 66.4,-107.41 67.78,-114.27"/>
</g>
</g>
</svg>
