<?xml version="1.0" encoding="UTF-8" standalone="no"?>
<!DOCTYPE svg PUBLIC "-//W3C//DTD SVG 1.1//EN"
 "http://www.w3.org/Graphics/SVG/1.1/DTD/svg11.dtd">
<!-- Generated by graphviz version 2.43.0 (0)
 -->
<!-- Title: assertions::Exists Pages: 1 -->
<svg width="282pt" height="66pt"
 viewBox="0.00 0.00 282.00 66.00" xmlns="http://www.w3.org/2000/svg" xmlns:xlink="http://www.w3.org/1999/xlink">
<g id="graph0" class="graph" transform="scale(1 1) rotate(0) translate(4 62)">
<title>assertions::Exists</title>
<!-- Node1 -->
<g id="node1" class="node">
<title>Node1</title>
<g id="a_node1"><a xlink:title="Checks if a path exists, otherwise it will throw an exception.">
<polygon fill="#bfbfbf" stroke="black" points="172,-19.5 172,-38.5 274,-38.5 274,-19.5 172,-19.5"/>
<text text-anchor="middle" x="223" y="-26.5" font-family="Helvetica,sans-Serif" font-size="10.00">assertions::Exists</text>
</a>
</g>
</g>
<!-- Node2 -->
<g id="node2" class="node">
<title>Node2</title>
<g id="a_node2"><a xlink:href="namespaceassertions.html#ae836775a6257e8270026456d314b5f12" target="_top" xlink:title="Checks if the path exists and is a directory, otherwise it will throw an exception.">
<polygon fill="none" stroke="black" points="5,-38.5 5,-57.5 131,-57.5 131,-38.5 5,-38.5"/>
<text text-anchor="middle" x="68" y="-45.5" font-family="Helvetica,sans-Serif" font-size="10.00">assertions::IsDirectory</text>
</a>
</g>
</g>
<!-- Node1&#45;&gt;Node2 -->
<g id="edge1" class="edge">
<title>Node1&#45;&gt;Node2</title>
<path fill="none" stroke="midnightblue" d="M161.97,-36.45C151.88,-37.71 141.39,-39.01 131.25,-40.27"/>
<polygon fill="midnightblue" stroke="midnightblue" points="162.41,-39.93 171.9,-35.22 161.55,-32.98 162.41,-39.93"/>
</g>
<!-- Node3 -->
<g id="node3" class="node">
<title>Node3</title>
<g id="a_node3"><a xlink:href="namespaceassertions.html#afc3f9b61119c84db617cc0cd88840883" target="_top" xlink:title="Checks if the path exists and is a regular file, otherwise it will throw an exception.">
<polygon fill="none" stroke="black" points="0,-0.5 0,-19.5 136,-19.5 136,-0.5 0,-0.5"/>
<text text-anchor="middle" x="68" y="-7.5" font-family="Helvetica,sans-Serif" font-size="10.00">assertions::IsRegularFile</text>
</a>
</g>
</g>
<!-- Node1&#45;&gt;Node3 -->
<g id="edge2" class="edge">
<title>Node1&#45;&gt;Node3</title>
<path fill="none" stroke="midnightblue" d="M161.81,-21.52C153.39,-20.48 144.71,-19.4 136.17,-18.34"/>
<polygon fill="midnightblue" stroke="midnightblue" points="161.55,-25.02 171.9,-22.78 162.41,-18.07 161.55,-25.02"/>
</g>
</g>
</svg>
