<?xml version="1.0" encoding="UTF-8" standalone="no"?>
<!DOCTYPE svg PUBLIC "-//W3C//DTD SVG 1.1//EN"
 "http://www.w3.org/Graphics/SVG/1.1/DTD/svg11.dtd">
<!-- Generated by graphviz version 2.43.0 (0)
 -->
<!-- Title: BoosterSeat::time::dateString Pages: 1 -->
<svg width="255pt" height="66pt"
 viewBox="0.00 0.00 255.00 66.00" xmlns="http://www.w3.org/2000/svg" xmlns:xlink="http://www.w3.org/1999/xlink">
<g id="graph0" class="graph" transform="scale(1 1) rotate(0) translate(4 62)">
<title>BoosterSeat::time::dateString</title>
<!-- Node1 -->
<g id="node1" class="node">
<title>Node1</title>
<g id="a_node1"><a xlink:title=" ">
<polygon fill="#bfbfbf" stroke="black" points="0,-14 0,-44 110,-44 110,-14 0,-14"/>
<text text-anchor="start" x="8" y="-32" font-family="Helvetica,sans-Serif" font-size="10.00">BoosterSeat::time::</text>
<text text-anchor="middle" x="55" y="-21" font-family="Helvetica,sans-Serif" font-size="10.00">dateString</text>
</a>
</g>
</g>
<!-- Node2 -->
<g id="node2" class="node">
<title>Node2</title>
<g id="a_node2"><a xlink:href="time_8cpp.html#a39587916c21a4902744b75d2106681f0" target="_top" xlink:title=" ">
<polygon fill="none" stroke="black" points="146,-38.5 146,-57.5 247,-57.5 247,-38.5 146,-38.5"/>
<text text-anchor="middle" x="196.5" y="-45.5" font-family="Helvetica,sans-Serif" font-size="10.00">dateFormatString</text>
</a>
</g>
</g>
<!-- Node1&#45;&gt;Node2 -->
<g id="edge1" class="edge">
<title>Node1&#45;&gt;Node2</title>
<path fill="none" stroke="midnightblue" d="M110.33,-36.4C118.6,-37.53 127.17,-38.69 135.55,-39.83"/>
<polygon fill="midnightblue" stroke="midnightblue" points="135.26,-43.33 145.64,-41.21 136.21,-36.39 135.26,-43.33"/>
</g>
<!-- Node3 -->
<g id="node3" class="node">
<title>Node3</title>
<g id="a_node3"><a xlink:href="time_8cpp.html#a30782dcad2bc9846a7a9c2d56864d0c2" target="_top" xlink:title=" ">
<polygon fill="none" stroke="black" points="172.5,-0.5 172.5,-19.5 220.5,-19.5 220.5,-0.5 172.5,-0.5"/>
<text text-anchor="middle" x="196.5" y="-7.5" font-family="Helvetica,sans-Serif" font-size="10.00">getTm</text>
</a>
</g>
</g>
<!-- Node1&#45;&gt;Node3 -->
<g id="edge2" class="edge">
<title>Node1&#45;&gt;Node3</title>
<path fill="none" stroke="midnightblue" d="M110.33,-21.6C127.86,-19.21 146.76,-16.64 162.29,-14.52"/>
<polygon fill="midnightblue" stroke="midnightblue" points="163.01,-17.96 172.44,-13.14 162.06,-11.02 163.01,-17.96"/>
</g>
</g>
</svg>
