<?xml version="1.0" encoding="UTF-8" standalone="no"?>
<!DOCTYPE svg PUBLIC "-//W3C//DTD SVG 1.1//EN"
 "http://www.w3.org/Graphics/SVG/1.1/DTD/svg11.dtd">
<!-- Generated by graphviz version 2.43.0 (0)
 -->
<!-- Title: bst::fs_int::assertExists Pages: 1 -->
<svg width="338pt" height="66pt"
 viewBox="0.00 0.00 338.00 66.00" xmlns="http://www.w3.org/2000/svg" xmlns:xlink="http://www.w3.org/1999/xlink">
<g id="graph0" class="graph" transform="scale(1 1) rotate(0) translate(4 62)">
<title>bst::fs_int::assertExists</title>
<!-- Node1 -->
<g id="node1" class="node">
<title>Node1</title>
<g id="a_node1"><a xlink:title="Checks if a path exists, otherwise it will throw an exception.">
<polygon fill="#bfbfbf" stroke="black" points="200,-19.5 200,-38.5 330,-38.5 330,-19.5 200,-19.5"/>
<text text-anchor="middle" x="265" y="-26.5" font-family="Helvetica,sans-Serif" font-size="10.00">bst::fs_int::assertExists</text>
</a>
</g>
</g>
<!-- Node2 -->
<g id="node2" class="node">
<title>Node2</title>
<g id="a_node2"><a xlink:href="namespacebst_1_1fs__int.html#a34dfcea60930f4903818bc3210cdd069" target="_top" xlink:title="Checks if the path exists and is a directory, otherwise it will throw an exception.">
<polygon fill="none" stroke="black" points="5,-38.5 5,-57.5 159,-57.5 159,-38.5 5,-38.5"/>
<text text-anchor="middle" x="82" y="-45.5" font-family="Helvetica,sans-Serif" font-size="10.00">bst::fs_int::assertIsDirectory</text>
</a>
</g>
</g>
<!-- Node1&#45;&gt;Node2 -->
<g id="edge1" class="edge">
<title>Node1&#45;&gt;Node2</title>
<path fill="none" stroke="midnightblue" d="M189.88,-36.78C179.72,-37.85 169.27,-38.94 159.07,-40.02"/>
<polygon fill="midnightblue" stroke="midnightblue" points="190.35,-40.25 199.93,-35.73 189.62,-33.29 190.35,-40.25"/>
</g>
<!-- Node3 -->
<g id="node3" class="node">
<title>Node3</title>
<g id="a_node3"><a xlink:href="namespacebst_1_1fs__int.html#a8b64ea4dbdd9db510f0f70372678d375" target="_top" xlink:title="Checks if the path exists and is a regular file, otherwise it will throw an exception.">
<polygon fill="none" stroke="black" points="0,-0.5 0,-19.5 164,-19.5 164,-0.5 0,-0.5"/>
<text text-anchor="middle" x="82" y="-7.5" font-family="Helvetica,sans-Serif" font-size="10.00">bst::fs_int::assertIsRegularFile</text>
</a>
</g>
</g>
<!-- Node1&#45;&gt;Node3 -->
<g id="edge2" class="edge">
<title>Node1&#45;&gt;Node3</title>
<path fill="none" stroke="midnightblue" d="M189.74,-21.2C181.29,-20.32 172.64,-19.41 164.11,-18.51"/>
<polygon fill="midnightblue" stroke="midnightblue" points="189.62,-24.71 199.93,-22.27 190.35,-17.75 189.62,-24.71"/>
</g>
</g>
</svg>
