<?xml version="1.0" encoding="UTF-8" standalone="no"?>
<!DOCTYPE svg PUBLIC "-//W3C//DTD SVG 1.1//EN"
 "http://www.w3.org/Graphics/SVG/1.1/DTD/svg11.dtd">
<!-- Generated by graphviz version 2.43.0 (0)
 -->
<!-- Title: bst::fs_int::assertIsRegularFile Pages: 1 -->
<svg width="474pt" height="28pt"
 viewBox="0.00 0.00 474.00 28.00" xmlns="http://www.w3.org/2000/svg" xmlns:xlink="http://www.w3.org/1999/xlink">
<g id="graph0" class="graph" transform="scale(1 1) rotate(0) translate(4 24)">
<title>bst::fs_int::assertIsRegularFile</title>
<!-- Node1 -->
<g id="node1" class="node">
<title>Node1</title>
<g id="a_node1"><a xlink:title="Checks if the path exists and is a regular file, otherwise it will throw an exception.">
<polygon fill="#bfbfbf" stroke="black" points="0,-0.5 0,-19.5 164,-19.5 164,-0.5 0,-0.5"/>
<text text-anchor="middle" x="82" y="-7.5" font-family="Helvetica,sans-Serif" font-size="10.00">bst::fs_int::assertIsRegularFile</text>
</a>
</g>
</g>
<!-- Node2 -->
<g id="node2" class="node">
<title>Node2</title>
<g id="a_node2"><a xlink:href="namespacebst_1_1fs__int.html#ad867e78422ad1303e5e0cad82c45b105" target="_top" xlink:title="Checks if a path exists, otherwise it will throw an exception.">
<polygon fill="none" stroke="black" points="200,-0.5 200,-19.5 330,-19.5 330,-0.5 200,-0.5"/>
<text text-anchor="middle" x="265" y="-7.5" font-family="Helvetica,sans-Serif" font-size="10.00">bst::fs_int::assertExists</text>
</a>
</g>
</g>
<!-- Node1&#45;&gt;Node2 -->
<g id="edge1" class="edge">
<title>Node1&#45;&gt;Node2</title>
<path fill="none" stroke="midnightblue" d="M164.23,-10C172.72,-10 181.32,-10 189.72,-10"/>
<polygon fill="midnightblue" stroke="midnightblue" points="189.85,-13.5 199.85,-10 189.85,-6.5 189.85,-13.5"/>
</g>
<!-- Node3 -->
<g id="node3" class="node">
<title>Node3</title>
<g id="a_node3"><a xlink:href="namespacebst_1_1fs__int.html#a73c724132cca72a972621d63cfae78e0" target="_top" xlink:title=" ">
<polygon fill="none" stroke="black" points="366,-0.5 366,-19.5 466,-19.5 466,-0.5 366,-0.5"/>
<text text-anchor="middle" x="416" y="-7.5" font-family="Helvetica,sans-Serif" font-size="10.00">bst::fs_int::exists</text>
</a>
</g>
</g>
<!-- Node2&#45;&gt;Node3 -->
<g id="edge2" class="edge">
<title>Node2&#45;&gt;Node3</title>
<path fill="none" stroke="midnightblue" d="M330.05,-10C338.58,-10 347.29,-10 355.72,-10"/>
<polygon fill="midnightblue" stroke="midnightblue" points="355.85,-13.5 365.85,-10 355.85,-6.5 355.85,-13.5"/>
</g>
</g>
</svg>
