<?xml version="1.0" encoding="UTF-8" standalone="no"?>
<!DOCTYPE svg PUBLIC "-//W3C//DTD SVG 1.1//EN"
 "http://www.w3.org/Graphics/SVG/1.1/DTD/svg11.dtd">
<!-- Generated by graphviz version 2.43.0 (0)
 -->
<!-- Title: bst::clck::now Pages: 1 -->
<svg width="558pt" height="294pt"
 viewBox="0.00 0.00 558.00 294.00" xmlns="http://www.w3.org/2000/svg" xmlns:xlink="http://www.w3.org/1999/xlink">
<g id="graph0" class="graph" transform="scale(1 1) rotate(0) translate(4 290)">
<title>bst::clck::now</title>
<!-- Node1 -->
<g id="node1" class="node">
<title>Node1</title>
<g id="a_node1"><a xlink:title=" ">
<polygon fill="#bfbfbf" stroke="black" points="467,-133.5 467,-152.5 550,-152.5 550,-133.5 467,-133.5"/>
<text text-anchor="middle" x="508.5" y="-140.5" font-family="Helvetica,sans-Serif" font-size="10.00">bst::clck::now</text>
</a>
</g>
</g>
<!-- Node2 -->
<g id="node2" class="node">
<title>Node2</title>
<g id="a_node2"><a xlink:href="namespacebst.html#a7435f6cb4263e155d8f3faf0d9e5b5d6" target="_top" xlink:title="Get the current Unix time.">
<polygon fill="none" stroke="black" points="299,-266.5 299,-285.5 400,-285.5 400,-266.5 299,-266.5"/>
<text text-anchor="middle" x="349.5" y="-273.5" font-family="Helvetica,sans-Serif" font-size="10.00">bst::getUnixTime</text>
</a>
</g>
</g>
<!-- Node1&#45;&gt;Node2 -->
<g id="edge1" class="edge">
<title>Node1&#45;&gt;Node2</title>
<path fill="none" stroke="midnightblue" d="M499.99,-162.15C488.89,-187.85 465.61,-233.02 431,-257 421.91,-263.3 411.01,-267.52 400.2,-270.36"/>
<polygon fill="midnightblue" stroke="midnightblue" points="503.29,-163.33 503.88,-152.75 496.82,-160.65 503.29,-163.33"/>
</g>
<!-- Node3 -->
<g id="node3" class="node">
<title>Node3</title>
<g id="a_node3"><a xlink:href="classbst_1_1Timer.html#a337d20ac27f96978aa4aae772f5d3a85" target="_top" xlink:title="Check if the timer has expired.">
<polygon fill="none" stroke="black" points="296.5,-190.5 296.5,-209.5 402.5,-209.5 402.5,-190.5 296.5,-190.5"/>
<text text-anchor="middle" x="349.5" y="-197.5" font-family="Helvetica,sans-Serif" font-size="10.00">bst::Timer::isDone</text>
</a>
</g>
</g>
<!-- Node1&#45;&gt;Node3 -->
<g id="edge2" class="edge">
<title>Node1&#45;&gt;Node3</title>
<path fill="none" stroke="midnightblue" d="M482.06,-157.48C467.48,-165.3 448.62,-174.64 431,-181 420.87,-184.66 409.77,-187.8 399.13,-190.42"/>
<polygon fill="midnightblue" stroke="midnightblue" points="483.88,-160.47 490.97,-152.6 480.52,-154.33 483.88,-160.47"/>
</g>
<!-- Node4 -->
<g id="node4" class="node">
<title>Node4</title>
<g id="a_node4"><a xlink:href="visual__tests_8cpp.html#ae66f6b31b5ad750f1fe042a706a4e3d4" target="_top" xlink:title=" ">
<polygon fill="none" stroke="black" points="0,-152.5 0,-171.5 41,-171.5 41,-152.5 0,-152.5"/>
<text text-anchor="middle" x="20.5" y="-159.5" font-family="Helvetica,sans-Serif" font-size="10.00">main</text>
</a>
</g>
</g>
<!-- Node1&#45;&gt;Node4 -->
<g id="edge5" class="edge">
<title>Node1&#45;&gt;Node4</title>
<path fill="none" stroke="midnightblue" d="M484.48,-128.05C469.82,-119.45 450.07,-109.47 431,-105 277.67,-69.02 224.4,-65.53 77,-121 58.84,-127.83 41.44,-142.44 31.11,-152.24"/>
<polygon fill="midnightblue" stroke="midnightblue" points="482.96,-131.22 493.32,-133.44 486.6,-125.25 482.96,-131.22"/>
</g>
<!-- Node6 -->
<g id="node6" class="node">
<title>Node6</title>
<g id="a_node6"><a xlink:href="namespacebst_1_1clck.html#adac67fedcb6e7b40053af8ee76600a21" target="_top" xlink:title=" ">
<polygon fill="none" stroke="black" points="268,-152.5 268,-171.5 431,-171.5 431,-152.5 268,-152.5"/>
<text text-anchor="middle" x="349.5" y="-159.5" font-family="Helvetica,sans-Serif" font-size="10.00">bst::clck::millisecondsElapsed</text>
</a>
</g>
</g>
<!-- Node1&#45;&gt;Node6 -->
<g id="edge6" class="edge">
<title>Node1&#45;&gt;Node6</title>
<path fill="none" stroke="midnightblue" d="M456.62,-149.16C447.83,-150.22 438.51,-151.35 429.19,-152.48"/>
<polygon fill="midnightblue" stroke="midnightblue" points="457.15,-152.62 466.66,-147.94 456.31,-145.67 457.15,-152.62"/>
</g>
<!-- Node7 -->
<g id="node7" class="node">
<title>Node7</title>
<g id="a_node7"><a xlink:href="classbst_1_1Timer.html#aa9aad519d22e30f35d879d0f92deb8f7" target="_top" xlink:title="Reset the timer to the current time.">
<polygon fill="none" stroke="black" points="301,-114.5 301,-133.5 398,-133.5 398,-114.5 301,-114.5"/>
<text text-anchor="middle" x="349.5" y="-121.5" font-family="Helvetica,sans-Serif" font-size="10.00">bst::Timer::reset</text>
</a>
</g>
</g>
<!-- Node1&#45;&gt;Node7 -->
<g id="edge7" class="edge">
<title>Node1&#45;&gt;Node7</title>
<path fill="none" stroke="midnightblue" d="M456.51,-136.83C437.74,-134.56 416.56,-131.99 398.1,-129.76"/>
<polygon fill="midnightblue" stroke="midnightblue" points="456.31,-140.33 466.66,-138.06 457.15,-133.38 456.31,-140.33"/>
</g>
<!-- Node8 -->
<g id="node8" class="node">
<title>Node8</title>
<g id="a_node8"><a xlink:href="namespacebst_1_1clck.html#a02d33e7c359f0ee2a30e6dfb7e9a1d92" target="_top" xlink:title=" ">
<polygon fill="none" stroke="black" points="279,-228.5 279,-247.5 420,-247.5 420,-228.5 279,-228.5"/>
<text text-anchor="middle" x="349.5" y="-235.5" font-family="Helvetica,sans-Serif" font-size="10.00">bst::clck::secondsElapsed</text>
</a>
</g>
</g>
<!-- Node1&#45;&gt;Node8 -->
<g id="edge10" class="edge">
<title>Node1&#45;&gt;Node8</title>
<path fill="none" stroke="midnightblue" d="M494.37,-160.88C480.55,-178.37 457.2,-204.45 431,-219 423.97,-222.9 416.16,-226.01 408.26,-228.48"/>
<polygon fill="midnightblue" stroke="midnightblue" points="497.39,-162.69 500.69,-152.62 491.83,-158.44 497.39,-162.69"/>
</g>
<!-- Node10 -->
<g id="node10" class="node">
<title>Node10</title>
<g id="a_node10"><a xlink:href="classbst_1_1Timer.html#a3f992c1e8c7a1bcf2bed13d5dcd866a3" target="_top" xlink:title="Set the timer to be done. Changes the start time.">
<polygon fill="none" stroke="black" points="293,-38.5 293,-57.5 406,-57.5 406,-38.5 293,-38.5"/>
<text text-anchor="middle" x="349.5" y="-45.5" font-family="Helvetica,sans-Serif" font-size="10.00">bst::Timer::setDone</text>
</a>
</g>
</g>
<!-- Node1&#45;&gt;Node10 -->
<g id="edge13" class="edge">
<title>Node1&#45;&gt;Node10</title>
<path fill="none" stroke="midnightblue" d="M493.02,-125.59C478.79,-109.52 455.65,-86.08 431,-72 420.24,-65.85 407.75,-61.14 395.86,-57.59"/>
<polygon fill="midnightblue" stroke="midnightblue" points="490.44,-127.95 499.62,-133.23 495.74,-123.38 490.44,-127.95"/>
</g>
<!-- Node11 -->
<g id="node11" class="node">
<title>Node11</title>
<g id="a_node11"><a xlink:href="time__class__test_8cpp.html#aea98697cafdc08f56f225ac6730b0154" target="_top" xlink:title=" ">
<polygon fill="none" stroke="black" points="329,-0.5 329,-19.5 370,-19.5 370,-0.5 329,-0.5"/>
<text text-anchor="middle" x="349.5" y="-7.5" font-family="Helvetica,sans-Serif" font-size="10.00">TEST</text>
</a>
</g>
</g>
<!-- Node1&#45;&gt;Node11 -->
<g id="edge14" class="edge">
<title>Node1&#45;&gt;Node11</title>
<path fill="none" stroke="midnightblue" d="M499.99,-123.85C488.89,-98.15 465.61,-52.98 431,-29 412.94,-16.49 387.71,-12.15 370.34,-10.68"/>
<polygon fill="midnightblue" stroke="midnightblue" points="496.82,-125.35 503.88,-133.25 503.29,-122.67 496.82,-125.35"/>
</g>
<!-- Node3&#45;&gt;Node4 -->
<g id="edge3" class="edge">
<title>Node3&#45;&gt;Node4</title>
<path fill="none" stroke="midnightblue" d="M286.4,-200.22C230.97,-199.33 147.84,-195.35 77,-181 64.82,-178.53 51.65,-174.1 41.19,-170.14"/>
<polygon fill="midnightblue" stroke="midnightblue" points="286.38,-203.72 296.42,-200.35 286.47,-196.72 286.38,-203.72"/>
</g>
<!-- Node5 -->
<g id="node5" class="node">
<title>Node5</title>
<g id="a_node5"><a xlink:href="timer__test_8cpp.html#aed41ad09585ee8b32eae99a34dd230f0" target="_top" xlink:title=" ">
<polygon fill="none" stroke="black" points="134,-152.5 134,-171.5 175,-171.5 175,-152.5 134,-152.5"/>
<text text-anchor="middle" x="154.5" y="-159.5" font-family="Helvetica,sans-Serif" font-size="10.00">TEST</text>
</a>
</g>
</g>
<!-- Node3&#45;&gt;Node5 -->
<g id="edge4" class="edge">
<title>Node3&#45;&gt;Node5</title>
<path fill="none" stroke="midnightblue" d="M289.63,-188.41C250.75,-180.75 202.2,-171.2 175.47,-165.93"/>
<polygon fill="midnightblue" stroke="midnightblue" points="289.31,-191.91 299.8,-190.41 290.66,-185.05 289.31,-191.91"/>
</g>
<!-- Node7&#45;&gt;Node4 -->
<g id="edge8" class="edge">
<title>Node7&#45;&gt;Node4</title>
<path fill="none" stroke="midnightblue" d="M290.6,-123.72C235.23,-124.47 149.66,-128.28 77,-143 64.82,-145.47 51.65,-149.9 41.19,-153.86"/>
<polygon fill="midnightblue" stroke="midnightblue" points="290.95,-127.22 300.91,-123.61 290.88,-120.22 290.95,-127.22"/>
</g>
<!-- Node7&#45;&gt;Node5 -->
<g id="edge9" class="edge">
<title>Node7&#45;&gt;Node5</title>
<path fill="none" stroke="midnightblue" d="M290.81,-135.36C251.6,-143.08 202.14,-152.82 175.2,-158.12"/>
<polygon fill="midnightblue" stroke="midnightblue" points="291.66,-138.76 300.79,-133.39 290.3,-131.89 291.66,-138.76"/>
</g>
<!-- Node9 -->
<g id="node9" class="node">
<title>Node9</title>
<g id="a_node9"><a xlink:href="namespacebst_1_1time.html#a9a4c8a6a0d59b9303d2ce006cf580c21" target="_top" xlink:title=" ">
<polygon fill="none" stroke="black" points="77,-228.5 77,-247.5 232,-247.5 232,-228.5 77,-228.5"/>
<text text-anchor="middle" x="154.5" y="-235.5" font-family="Helvetica,sans-Serif" font-size="10.00">bst::time::elapsedAsciiClock</text>
</a>
</g>
</g>
<!-- Node8&#45;&gt;Node9 -->
<g id="edge11" class="edge">
<title>Node8&#45;&gt;Node9</title>
<path fill="none" stroke="midnightblue" d="M268.78,-238C256.71,-238 244.27,-238 232.26,-238"/>
<polygon fill="midnightblue" stroke="midnightblue" points="268.82,-241.5 278.82,-238 268.82,-234.5 268.82,-241.5"/>
</g>
<!-- Node9&#45;&gt;Node4 -->
<g id="edge12" class="edge">
<title>Node9&#45;&gt;Node4</title>
<path fill="none" stroke="midnightblue" d="M101.62,-225.21C93.11,-222.14 84.6,-218.44 77,-214 57.62,-202.68 39.5,-183.47 29.52,-171.83"/>
<polygon fill="midnightblue" stroke="midnightblue" points="100.58,-228.56 111.17,-228.41 102.8,-221.92 100.58,-228.56"/>
</g>
</g>
</svg>
