<?xml version="1.0" encoding="UTF-8" standalone="no"?>
<!DOCTYPE svg PUBLIC "-//W3C//DTD SVG 1.1//EN"
 "http://www.w3.org/Graphics/SVG/1.1/DTD/svg11.dtd">
<!-- Generated by graphviz version 2.43.0 (0)
 -->
<!-- Title: bst::geo::distance Pages: 1 -->
<svg width="277pt" height="66pt"
 viewBox="0.00 0.00 277.00 66.00" xmlns="http://www.w3.org/2000/svg" xmlns:xlink="http://www.w3.org/1999/xlink">
<g id="graph0" class="graph" transform="scale(1 1) rotate(0) translate(4 62)">
<title>bst::geo::distance</title>
<!-- Node1 -->
<g id="node1" class="node">
<title>Node1</title>
<g id="a_node1"><a xlink:title="Get the distance between two points in kilometers.">
<polygon fill="#bfbfbf" stroke="black" points="166,-19.5 166,-38.5 269,-38.5 269,-19.5 166,-19.5"/>
<text text-anchor="middle" x="217.5" y="-26.5" font-family="Helvetica,sans-Serif" font-size="10.00">bst::geo::distance</text>
</a>
</g>
</g>
<!-- Node2 -->
<g id="node2" class="node">
<title>Node2</title>
<g id="a_node2"><a xlink:href="classbst_1_1geo_1_1Path.html#ad2ba4954d64d1719549aa4d3f828ae9e" target="_top" xlink:title=" ">
<polygon fill="none" stroke="black" points="0,-38.5 0,-57.5 130,-57.5 130,-38.5 0,-38.5"/>
<text text-anchor="middle" x="65" y="-45.5" font-family="Helvetica,sans-Serif" font-size="10.00">bst::geo::Path::distance</text>
</a>
</g>
</g>
<!-- Node1&#45;&gt;Node2 -->
<g id="edge1" class="edge">
<title>Node1&#45;&gt;Node2</title>
<path fill="none" stroke="midnightblue" d="M155.78,-36.67C147.3,-37.74 138.57,-38.84 130.03,-39.92"/>
<polygon fill="midnightblue" stroke="midnightblue" points="156.48,-40.1 165.97,-35.38 155.61,-33.16 156.48,-40.1"/>
</g>
<!-- Node3 -->
<g id="node3" class="node">
<title>Node3</title>
<g id="a_node3"><a xlink:href="geo__test_8cpp.html#a564b971a487e06ed5a1fd9b173685054" target="_top" xlink:title=" ">
<polygon fill="none" stroke="black" points="44.5,-0.5 44.5,-19.5 85.5,-19.5 85.5,-0.5 44.5,-0.5"/>
<text text-anchor="middle" x="65" y="-7.5" font-family="Helvetica,sans-Serif" font-size="10.00">TEST</text>
</a>
</g>
</g>
<!-- Node1&#45;&gt;Node3 -->
<g id="edge2" class="edge">
<title>Node1&#45;&gt;Node3</title>
<path fill="none" stroke="midnightblue" d="M155.79,-21.34C130.79,-18.18 103.56,-14.74 85.72,-12.49"/>
<polygon fill="midnightblue" stroke="midnightblue" points="155.61,-24.84 165.97,-22.62 156.48,-17.9 155.61,-24.84"/>
</g>
</g>
</svg>
