<?xml version="1.0" encoding="UTF-8" standalone="no"?>
<!DOCTYPE svg PUBLIC "-//W3C//DTD SVG 1.1//EN"
 "http://www.w3.org/Graphics/SVG/1.1/DTD/svg11.dtd">
<!-- Generated by graphviz version 2.43.0 (0)
 -->
<!-- Title: BoosterSeat::time::dateAndTimeString Pages: 1 -->
<svg width="261pt" height="154pt"
 viewBox="0.00 0.00 261.00 153.50" xmlns="http://www.w3.org/2000/svg" xmlns:xlink="http://www.w3.org/1999/xlink">
<g id="graph0" class="graph" transform="scale(1 1) rotate(0) translate(4 149.5)">
<title>BoosterSeat::time::dateAndTimeString</title>
<!-- Node1 -->
<g id="node1" class="node">
<title>Node1</title>
<g id="a_node1"><a xlink:title="Get the date and time in the format: YYYY&#45;MM&#45;DD HH:MM:SS.">
<polygon fill="#bfbfbf" stroke="black" points="0,-63.5 0,-93.5 110,-93.5 110,-63.5 0,-63.5"/>
<text text-anchor="start" x="8" y="-81.5" font-family="Helvetica,sans-Serif" font-size="10.00">BoosterSeat::time::</text>
<text text-anchor="middle" x="55" y="-70.5" font-family="Helvetica,sans-Serif" font-size="10.00">dateAndTimeString</text>
</a>
</g>
</g>
<!-- Node2 -->
<g id="node2" class="node">
<title>Node2</title>
<g id="a_node2"><a xlink:href="time_8cpp.html#a39587916c21a4902744b75d2106681f0" target="_top" xlink:title=" ">
<polygon fill="none" stroke="black" points="149,-126 149,-145 250,-145 250,-126 149,-126"/>
<text text-anchor="middle" x="199.5" y="-133" font-family="Helvetica,sans-Serif" font-size="10.00">dateFormatString</text>
</a>
</g>
</g>
<!-- Node1&#45;&gt;Node2 -->
<g id="edge1" class="edge">
<title>Node1&#45;&gt;Node2</title>
<path fill="none" stroke="midnightblue" d="M90.44,-93.54C107.14,-100.7 127.52,-109.26 146,-116.5 150.95,-118.44 156.19,-120.42 161.36,-122.33"/>
<polygon fill="midnightblue" stroke="midnightblue" points="160.56,-125.77 171.15,-125.91 162.96,-119.19 160.56,-125.77"/>
</g>
<!-- Node3 -->
<g id="node3" class="node">
<title>Node3</title>
<g id="a_node3"><a xlink:href="time_8cpp.html#a30782dcad2bc9846a7a9c2d56864d0c2" target="_top" xlink:title=" ">
<polygon fill="none" stroke="black" points="175.5,-88 175.5,-107 223.5,-107 223.5,-88 175.5,-88"/>
<text text-anchor="middle" x="199.5" y="-95" font-family="Helvetica,sans-Serif" font-size="10.00">getTm</text>
</a>
</g>
</g>
<!-- Node1&#45;&gt;Node3 -->
<g id="edge2" class="edge">
<title>Node1&#45;&gt;Node3</title>
<path fill="none" stroke="midnightblue" d="M110.28,-85.74C128.73,-88.2 148.8,-90.87 165.12,-93.05"/>
<polygon fill="midnightblue" stroke="midnightblue" points="164.88,-96.55 175.26,-94.4 165.81,-89.61 164.88,-96.55"/>
</g>
<!-- Node4 -->
<g id="node4" class="node">
<title>Node4</title>
<g id="a_node4"><a xlink:href="time_8cpp.html#a4b8e93c1388150eb65a480d3edadf0f4" target="_top" xlink:title=" ">
<polygon fill="none" stroke="black" points="148.5,-50 148.5,-69 250.5,-69 250.5,-50 148.5,-50"/>
<text text-anchor="middle" x="199.5" y="-57" font-family="Helvetica,sans-Serif" font-size="10.00">timeFormatString</text>
</a>
</g>
</g>
<!-- Node1&#45;&gt;Node4 -->
<g id="edge3" class="edge">
<title>Node1&#45;&gt;Node4</title>
<path fill="none" stroke="midnightblue" d="M110.28,-71.26C119.41,-70.05 128.93,-68.78 138.19,-67.54"/>
<polygon fill="midnightblue" stroke="midnightblue" points="138.67,-71.01 148.12,-66.22 137.75,-64.07 138.67,-71.01"/>
</g>
<!-- Node5 -->
<g id="node5" class="node">
<title>Node5</title>
<g id="a_node5"><a xlink:href="namespaceBoosterSeat_1_1clck.html#a32556c6b55e2960703e0db64be6115bb" target="_top" xlink:title=" ">
<polygon fill="none" stroke="black" points="146,-0.5 146,-30.5 253,-30.5 253,-0.5 146,-0.5"/>
<text text-anchor="start" x="154" y="-18.5" font-family="Helvetica,sans-Serif" font-size="10.00">BoosterSeat::clck::</text>
<text text-anchor="middle" x="199.5" y="-7.5" font-family="Helvetica,sans-Serif" font-size="10.00">toTimeT</text>
</a>
</g>
</g>
<!-- Node1&#45;&gt;Node5 -->
<g id="edge4" class="edge">
<title>Node1&#45;&gt;Node5</title>
<path fill="none" stroke="midnightblue" d="M90.13,-63.41C109.55,-54.82 134.08,-43.98 154.89,-34.78"/>
<polygon fill="midnightblue" stroke="midnightblue" points="156.42,-37.93 164.15,-30.69 153.59,-31.53 156.42,-37.93"/>
</g>
</g>
</svg>
