<?xml version="1.0" encoding="UTF-8" standalone="no"?>
<!DOCTYPE svg PUBLIC "-//W3C//DTD SVG 1.1//EN"
 "http://www.w3.org/Graphics/SVG/1.1/DTD/svg11.dtd">
<!-- Generated by graphviz version 2.43.0 (0)
 -->
<!-- Title: bst::fs_int::exists Pages: 1 -->
<svg width="487pt" height="116pt"
 viewBox="0.00 0.00 487.00 115.50" xmlns="http://www.w3.org/2000/svg" xmlns:xlink="http://www.w3.org/1999/xlink">
<g id="graph0" class="graph" transform="scale(1 1) rotate(0) translate(4 111.5)">
<title>bst::fs_int::exists</title>
<!-- Node1 -->
<g id="node1" class="node">
<title>Node1</title>
<g id="a_node1"><a xlink:title=" ">
<polygon fill="#bfbfbf" stroke="black" points="379,-38.5 379,-57.5 479,-57.5 479,-38.5 379,-38.5"/>
<text text-anchor="middle" x="429" y="-45.5" font-family="Helvetica,sans-Serif" font-size="10.00">bst::fs_int::exists</text>
</a>
</g>
</g>
<!-- Node2 -->
<g id="node2" class="node">
<title>Node2</title>
<g id="a_node2"><a xlink:href="namespacebst_1_1fs__int.html#ab4da7244e4bf5527f89fd37314d073a4" target="_top" xlink:title="Checks if a path exists, otherwise it will throw an exception.">
<polygon fill="none" stroke="black" points="200,-77 200,-107 343,-107 343,-77 200,-77"/>
<text text-anchor="start" x="208" y="-95" font-family="Helvetica,sans-Serif" font-size="10.00">bst::fs_int::assertDoesNot</text>
<text text-anchor="middle" x="271.5" y="-84" font-family="Helvetica,sans-Serif" font-size="10.00">Exist</text>
</a>
</g>
</g>
<!-- Node1&#45;&gt;Node2 -->
<g id="edge1" class="edge">
<title>Node1&#45;&gt;Node2</title>
<path fill="none" stroke="midnightblue" d="M384.49,-60.31C366.26,-65.47 344.9,-71.51 325.74,-76.93"/>
<polygon fill="midnightblue" stroke="midnightblue" points="385.59,-63.64 394.26,-57.55 383.68,-56.9 385.59,-63.64"/>
</g>
<!-- Node3 -->
<g id="node3" class="node">
<title>Node3</title>
<g id="a_node3"><a xlink:href="namespacebst_1_1fs__int.html#ad867e78422ad1303e5e0cad82c45b105" target="_top" xlink:title="Checks if a path exists, otherwise it will throw an exception.">
<polygon fill="none" stroke="black" points="206.5,-38.5 206.5,-57.5 336.5,-57.5 336.5,-38.5 206.5,-38.5"/>
<text text-anchor="middle" x="271.5" y="-45.5" font-family="Helvetica,sans-Serif" font-size="10.00">bst::fs_int::assertExists</text>
</a>
</g>
</g>
<!-- Node1&#45;&gt;Node3 -->
<g id="edge2" class="edge">
<title>Node1&#45;&gt;Node3</title>
<path fill="none" stroke="midnightblue" d="M368.57,-48C358.16,-48 347.29,-48 336.76,-48"/>
<polygon fill="midnightblue" stroke="midnightblue" points="368.8,-51.5 378.8,-48 368.8,-44.5 368.8,-51.5"/>
</g>
<!-- Node6 -->
<g id="node6" class="node">
<title>Node6</title>
<g id="a_node6"><a xlink:href="filesystem__test_8cpp.html#aa1156273a796d2aeef73e3463eb11016" target="_top" xlink:title=" ">
<polygon fill="none" stroke="black" points="251,-0.5 251,-19.5 292,-19.5 292,-0.5 251,-0.5"/>
<text text-anchor="middle" x="271.5" y="-7.5" font-family="Helvetica,sans-Serif" font-size="10.00">TEST</text>
</a>
</g>
</g>
<!-- Node1&#45;&gt;Node6 -->
<g id="edge5" class="edge">
<title>Node1&#45;&gt;Node6</title>
<path fill="none" stroke="midnightblue" d="M378.7,-35.95C349.42,-28.8 313.9,-20.12 292.26,-14.83"/>
<polygon fill="midnightblue" stroke="midnightblue" points="378.22,-39.44 388.76,-38.41 379.88,-32.64 378.22,-39.44"/>
</g>
<!-- Node4 -->
<g id="node4" class="node">
<title>Node4</title>
<g id="a_node4"><a xlink:href="namespacebst_1_1fs__int.html#a34dfcea60930f4903818bc3210cdd069" target="_top" xlink:title="Checks if the path exists and is a directory, otherwise it will throw an exception.">
<polygon fill="none" stroke="black" points="5,-57.5 5,-76.5 159,-76.5 159,-57.5 5,-57.5"/>
<text text-anchor="middle" x="82" y="-64.5" font-family="Helvetica,sans-Serif" font-size="10.00">bst::fs_int::assertIsDirectory</text>
</a>
</g>
</g>
<!-- Node3&#45;&gt;Node4 -->
<g id="edge3" class="edge">
<title>Node3&#45;&gt;Node4</title>
<path fill="none" stroke="midnightblue" d="M196.32,-55.52C184.06,-56.76 171.32,-58.05 159.01,-59.3"/>
<polygon fill="midnightblue" stroke="midnightblue" points="196.9,-58.98 206.5,-54.49 196.2,-52.01 196.9,-58.98"/>
</g>
<!-- Node5 -->
<g id="node5" class="node">
<title>Node5</title>
<g id="a_node5"><a xlink:href="namespacebst_1_1fs__int.html#a8b64ea4dbdd9db510f0f70372678d375" target="_top" xlink:title="Checks if the path exists and is a regular file, otherwise it will throw an exception.">
<polygon fill="none" stroke="black" points="0,-19.5 0,-38.5 164,-38.5 164,-19.5 0,-19.5"/>
<text text-anchor="middle" x="82" y="-26.5" font-family="Helvetica,sans-Serif" font-size="10.00">bst::fs_int::assertIsRegularFile</text>
</a>
</g>
</g>
<!-- Node3&#45;&gt;Node5 -->
<g id="edge4" class="edge">
<title>Node3&#45;&gt;Node5</title>
<path fill="none" stroke="midnightblue" d="M196.49,-40.5C185.91,-39.43 174.99,-38.32 164.29,-37.24"/>
<polygon fill="midnightblue" stroke="midnightblue" points="196.2,-43.99 206.5,-41.51 196.9,-37.02 196.2,-43.99"/>
</g>
</g>
</svg>
