<?xml version="1.0" encoding="UTF-8" standalone="no"?>
<!DOCTYPE svg PUBLIC "-//W3C//DTD SVG 1.1//EN"
 "http://www.w3.org/Graphics/SVG/1.1/DTD/svg11.dtd">
<!-- Generated by graphviz version 2.43.0 (0)
 -->
<!-- Title: bst::randomHexString Pages: 1 -->
<svg width="208pt" height="66pt"
 viewBox="0.00 0.00 208.00 66.00" xmlns="http://www.w3.org/2000/svg" xmlns:xlink="http://www.w3.org/1999/xlink">
<g id="graph0" class="graph" transform="scale(1 1) rotate(0) translate(4 62)">
<title>bst::randomHexString</title>
<!-- Node1 -->
<g id="node1" class="node">
<title>Node1</title>
<g id="a_node1"><a xlink:title="Generates a random hex string of the given length.">
<polygon fill="#bfbfbf" stroke="black" points="77,-19.5 77,-38.5 200,-38.5 200,-19.5 77,-19.5"/>
<text text-anchor="middle" x="138.5" y="-26.5" font-family="Helvetica,sans-Serif" font-size="10.00">bst::randomHexString</text>
</a>
</g>
</g>
<!-- Node2 -->
<g id="node2" class="node">
<title>Node2</title>
<g id="a_node2"><a xlink:href="visual__tests_8cpp.html#ae66f6b31b5ad750f1fe042a706a4e3d4" target="_top" xlink:title=" ">
<polygon fill="none" stroke="black" points="0,-38.5 0,-57.5 41,-57.5 41,-38.5 0,-38.5"/>
<text text-anchor="middle" x="20.5" y="-45.5" font-family="Helvetica,sans-Serif" font-size="10.00">main</text>
</a>
</g>
</g>
<!-- Node1&#45;&gt;Node2 -->
<g id="edge1" class="edge">
<title>Node1&#45;&gt;Node2</title>
<path fill="none" stroke="midnightblue" d="M69.21,-40.19C58.92,-41.87 49.08,-43.48 41.04,-44.8"/>
<polygon fill="midnightblue" stroke="midnightblue" points="69.86,-43.63 79.16,-38.56 68.73,-36.72 69.86,-43.63"/>
</g>
<!-- Node3 -->
<g id="node3" class="node">
<title>Node3</title>
<g id="a_node3"><a xlink:href="random__test_8cpp.html#afdd824a758d938269b2e797a0eb5128b" target="_top" xlink:title=" ">
<polygon fill="none" stroke="black" points="0,-0.5 0,-19.5 41,-19.5 41,-0.5 0,-0.5"/>
<text text-anchor="middle" x="20.5" y="-7.5" font-family="Helvetica,sans-Serif" font-size="10.00">TEST</text>
</a>
</g>
</g>
<!-- Node1&#45;&gt;Node3 -->
<g id="edge2" class="edge">
<title>Node1&#45;&gt;Node3</title>
<path fill="none" stroke="midnightblue" d="M69.21,-17.81C58.92,-16.13 49.08,-14.52 41.04,-13.2"/>
<polygon fill="midnightblue" stroke="midnightblue" points="68.73,-21.28 79.16,-19.44 69.86,-14.37 68.73,-21.28"/>
</g>
</g>
</svg>
