<?xml version="1.0" encoding="UTF-8" standalone="no"?>
<!DOCTYPE svg PUBLIC "-//W3C//DTD SVG 1.1//EN"
 "http://www.w3.org/Graphics/SVG/1.1/DTD/svg11.dtd">
<!-- Generated by graphviz version 2.43.0 (0)
 -->
<!-- Title: bst::time::dateAndTimeString Pages: 1 -->
<svg width="364pt" height="66pt"
 viewBox="0.00 0.00 364.00 66.00" xmlns="http://www.w3.org/2000/svg" xmlns:xlink="http://www.w3.org/1999/xlink">
<g id="graph0" class="graph" transform="scale(1 1) rotate(0) translate(4 62)">
<title>bst::time::dateAndTimeString</title>
<!-- Node1 -->
<g id="node1" class="node">
<title>Node1</title>
<g id="a_node1"><a xlink:title="Get the date and time in the format: YYYY&#45;MM&#45;DD HH:MM:SS.">
<polygon fill="#bfbfbf" stroke="black" points="196,-19.5 196,-38.5 356,-38.5 356,-19.5 196,-19.5"/>
<text text-anchor="middle" x="276" y="-26.5" font-family="Helvetica,sans-Serif" font-size="10.00">bst::time::dateAndTimeString</text>
</a>
</g>
</g>
<!-- Node2 -->
<g id="node2" class="node">
<title>Node2</title>
<g id="a_node2"><a xlink:href="namespacebst_1_1time.html#a787a2d545752d701707526e58807cc08" target="_top" xlink:title=" ">
<polygon fill="none" stroke="black" points="0,-38.5 0,-57.5 160,-57.5 160,-38.5 0,-38.5"/>
<text text-anchor="middle" x="80" y="-45.5" font-family="Helvetica,sans-Serif" font-size="10.00">bst::time::dateAndTimeString</text>
</a>
</g>
</g>
<!-- Node1&#45;&gt;Node2 -->
<g id="edge1" class="edge">
<title>Node1&#45;&gt;Node2</title>
<path fill="none" stroke="midnightblue" d="M185.84,-37.73C177.3,-38.57 168.68,-39.41 160.25,-40.24"/>
<polygon fill="midnightblue" stroke="midnightblue" points="186.2,-41.21 195.81,-36.76 185.52,-34.25 186.2,-41.21"/>
</g>
<!-- Node3 -->
<g id="node3" class="node">
<title>Node3</title>
<g id="a_node3"><a xlink:href="visual__tests_8cpp.html#ae66f6b31b5ad750f1fe042a706a4e3d4" target="_top" xlink:title=" ">
<polygon fill="none" stroke="black" points="59.5,-0.5 59.5,-19.5 100.5,-19.5 100.5,-0.5 59.5,-0.5"/>
<text text-anchor="middle" x="80" y="-7.5" font-family="Helvetica,sans-Serif" font-size="10.00">main</text>
</a>
</g>
</g>
<!-- Node1&#45;&gt;Node3 -->
<g id="edge2" class="edge">
<title>Node1&#45;&gt;Node3</title>
<path fill="none" stroke="midnightblue" d="M185.55,-20.24C153.77,-17.13 120.89,-13.91 100.7,-11.93"/>
<polygon fill="midnightblue" stroke="midnightblue" points="185.52,-23.75 195.81,-21.24 186.2,-16.79 185.52,-23.75"/>
</g>
</g>
</svg>
