<?xml version="1.0" encoding="UTF-8" standalone="no"?>
<!DOCTYPE svg PUBLIC "-//W3C//DTD SVG 1.1//EN"
 "http://www.w3.org/Graphics/SVG/1.1/DTD/svg11.dtd">
<!-- Generated by graphviz version 2.43.0 (0)
 -->
<!-- Title: bst::fs_int::assertIsDirectory Pages: 1 -->
<svg width="464pt" height="66pt"
 viewBox="0.00 0.00 464.00 66.00" xmlns="http://www.w3.org/2000/svg" xmlns:xlink="http://www.w3.org/1999/xlink">
<g id="graph0" class="graph" transform="scale(1 1) rotate(0) translate(4 62)">
<title>bst::fs_int::assertIsDirectory</title>
<!-- Node1 -->
<g id="node1" class="node">
<title>Node1</title>
<g id="a_node1"><a xlink:title="Checks if the path exists and is a directory, otherwise it will throw an exception.">
<polygon fill="#bfbfbf" stroke="black" points="0,-19.5 0,-38.5 154,-38.5 154,-19.5 0,-19.5"/>
<text text-anchor="middle" x="77" y="-26.5" font-family="Helvetica,sans-Serif" font-size="10.00">bst::fs_int::assertIsDirectory</text>
</a>
</g>
</g>
<!-- Node2 -->
<g id="node2" class="node">
<title>Node2</title>
<g id="a_node2"><a xlink:href="namespacebst_1_1fs__int.html#ad867e78422ad1303e5e0cad82c45b105" target="_top" xlink:title="Checks if a path exists, otherwise it will throw an exception.">
<polygon fill="none" stroke="black" points="190,-38.5 190,-57.5 320,-57.5 320,-38.5 190,-38.5"/>
<text text-anchor="middle" x="255" y="-45.5" font-family="Helvetica,sans-Serif" font-size="10.00">bst::fs_int::assertExists</text>
</a>
</g>
</g>
<!-- Node1&#45;&gt;Node2 -->
<g id="edge1" class="edge">
<title>Node1&#45;&gt;Node2</title>
<path fill="none" stroke="midnightblue" d="M154.17,-37.22C162.63,-38.14 171.23,-39.06 179.66,-39.97"/>
<polygon fill="midnightblue" stroke="midnightblue" points="179.52,-43.48 189.84,-41.07 180.27,-36.52 179.52,-43.48"/>
</g>
<!-- Node4 -->
<g id="node4" class="node">
<title>Node4</title>
<g id="a_node4"><a xlink:href="namespacebst_1_1fs__int.html#a5f6c967767efd1b7d7578e94825e07fa" target="_top" xlink:title="Returns true if the path is a directory.">
<polygon fill="none" stroke="black" points="191,-0.5 191,-19.5 319,-19.5 319,-0.5 191,-0.5"/>
<text text-anchor="middle" x="255" y="-7.5" font-family="Helvetica,sans-Serif" font-size="10.00">bst::fs_int::is_directory</text>
</a>
</g>
</g>
<!-- Node1&#45;&gt;Node4 -->
<g id="edge3" class="edge">
<title>Node1&#45;&gt;Node4</title>
<path fill="none" stroke="midnightblue" d="M154.17,-20.78C162.99,-19.83 171.96,-18.86 180.74,-17.91"/>
<polygon fill="midnightblue" stroke="midnightblue" points="181.36,-21.36 190.92,-16.81 180.6,-14.4 181.36,-21.36"/>
</g>
<!-- Node3 -->
<g id="node3" class="node">
<title>Node3</title>
<g id="a_node3"><a xlink:href="namespacebst_1_1fs__int.html#a73c724132cca72a972621d63cfae78e0" target="_top" xlink:title=" ">
<polygon fill="none" stroke="black" points="356,-38.5 356,-57.5 456,-57.5 456,-38.5 356,-38.5"/>
<text text-anchor="middle" x="406" y="-45.5" font-family="Helvetica,sans-Serif" font-size="10.00">bst::fs_int::exists</text>
</a>
</g>
</g>
<!-- Node2&#45;&gt;Node3 -->
<g id="edge2" class="edge">
<title>Node2&#45;&gt;Node3</title>
<path fill="none" stroke="midnightblue" d="M320.05,-48C328.58,-48 337.29,-48 345.72,-48"/>
<polygon fill="midnightblue" stroke="midnightblue" points="345.85,-51.5 355.85,-48 345.85,-44.5 345.85,-51.5"/>
</g>
</g>
</svg>
