<?xml version="1.0" encoding="UTF-8" standalone="no"?>
<!DOCTYPE svg PUBLIC "-//W3C//DTD SVG 1.1//EN"
 "http://www.w3.org/Graphics/SVG/1.1/DTD/svg11.dtd">
<!-- Generated by graphviz version 2.43.0 (0)
 -->
<!-- Title: bst::clck::now Pages: 1 -->
<svg width="558pt" height="256pt"
 viewBox="0.00 0.00 558.00 256.00" xmlns="http://www.w3.org/2000/svg" xmlns:xlink="http://www.w3.org/1999/xlink">
<g id="graph0" class="graph" transform="scale(1 1) rotate(0) translate(4 252)">
<title>bst::clck::now</title>
<!-- Node1 -->
<g id="node1" class="node">
<title>Node1</title>
<g id="a_node1"><a xlink:title=" ">
<polygon fill="#bfbfbf" stroke="black" points="467,-114.5 467,-133.5 550,-133.5 550,-114.5 467,-114.5"/>
<text text-anchor="middle" x="508.5" y="-121.5" font-family="Helvetica,sans-Serif" font-size="10.00">bst::clck::now</text>
</a>
</g>
</g>
<!-- Node2 -->
<g id="node2" class="node">
<title>Node2</title>
<g id="a_node2"><a xlink:href="classbst_1_1Timer.html#a74f8508e28ab052b25fdf3072e16bae7" target="_top" xlink:title="Check if the timer has expired.">
<polygon fill="none" stroke="black" points="101.5,-228.5 101.5,-247.5 207.5,-247.5 207.5,-228.5 101.5,-228.5"/>
<text text-anchor="middle" x="154.5" y="-235.5" font-family="Helvetica,sans-Serif" font-size="10.00">bst::Timer::isDone</text>
</a>
</g>
</g>
<!-- Node1&#45;&gt;Node2 -->
<g id="edge1" class="edge">
<title>Node1&#45;&gt;Node2</title>
<path fill="none" stroke="midnightblue" d="M497.69,-142.57C485.3,-163.93 461.81,-198.09 431,-214 360.29,-250.51 265.65,-249.8 207.71,-244.77"/>
<polygon fill="midnightblue" stroke="midnightblue" points="500.79,-144.21 502.59,-133.77 494.67,-140.8 500.79,-144.21"/>
</g>
<!-- Node3 -->
<g id="node3" class="node">
<title>Node3</title>
<g id="a_node3"><a xlink:href="visual__tests_8cpp.html#ae66f6b31b5ad750f1fe042a706a4e3d4" target="_top" xlink:title=" ">
<polygon fill="none" stroke="black" points="0,-162.5 0,-181.5 41,-181.5 41,-162.5 0,-162.5"/>
<text text-anchor="middle" x="20.5" y="-169.5" font-family="Helvetica,sans-Serif" font-size="10.00">main</text>
</a>
</g>
</g>
<!-- Node1&#45;&gt;Node3 -->
<g id="edge3" class="edge">
<title>Node1&#45;&gt;Node3</title>
<path fill="none" stroke="midnightblue" d="M491.68,-140.69C477.35,-154.5 454.88,-173.08 431,-181 288.24,-228.34 101.86,-191.31 41.38,-177.01"/>
<polygon fill="midnightblue" stroke="midnightblue" points="494.16,-143.15 498.76,-133.61 489.21,-138.2 494.16,-143.15"/>
</g>
<!-- Node4 -->
<g id="node4" class="node">
<title>Node4</title>
<g id="a_node4"><a xlink:href="namespacebst_1_1clck.html#adac67fedcb6e7b40053af8ee76600a21" target="_top" xlink:title=" ">
<polygon fill="none" stroke="black" points="268,-152.5 268,-171.5 431,-171.5 431,-152.5 268,-152.5"/>
<text text-anchor="middle" x="349.5" y="-159.5" font-family="Helvetica,sans-Serif" font-size="10.00">bst::clck::millisecondsElapsed</text>
</a>
</g>
</g>
<!-- Node1&#45;&gt;Node4 -->
<g id="edge4" class="edge">
<title>Node1&#45;&gt;Node4</title>
<path fill="none" stroke="midnightblue" d="M458.05,-135.97C436.05,-141.29 410.51,-147.48 389.83,-152.48"/>
<polygon fill="midnightblue" stroke="midnightblue" points="458.99,-139.34 467.88,-133.59 457.34,-132.54 458.99,-139.34"/>
</g>
<!-- Node5 -->
<g id="node5" class="node">
<title>Node5</title>
<g id="a_node5"><a xlink:href="classbst_1_1Timer.html#a0243fe3bc2c926e919d7b09706aa28c5" target="_top" xlink:title="Reset the timer to the current time.">
<polygon fill="none" stroke="black" points="106,-143.5 106,-162.5 203,-162.5 203,-143.5 106,-143.5"/>
<text text-anchor="middle" x="154.5" y="-150.5" font-family="Helvetica,sans-Serif" font-size="10.00">bst::Timer::reset</text>
</a>
</g>
</g>
<!-- Node1&#45;&gt;Node5 -->
<g id="edge5" class="edge">
<title>Node1&#45;&gt;Node5</title>
<path fill="none" stroke="midnightblue" d="M456.58,-127.9C408.09,-131.65 333.05,-137.53 268,-143 246.7,-144.79 223.15,-146.87 203.12,-148.67"/>
<polygon fill="midnightblue" stroke="midnightblue" points="457.11,-131.37 466.81,-127.11 456.57,-124.39 457.11,-131.37"/>
</g>
<!-- Node6 -->
<g id="node6" class="node">
<title>Node6</title>
<g id="a_node6"><a xlink:href="namespacebst_1_1clck.html#a02d33e7c359f0ee2a30e6dfb7e9a1d92" target="_top" xlink:title=" ">
<polygon fill="none" stroke="black" points="279,-76.5 279,-95.5 420,-95.5 420,-76.5 279,-76.5"/>
<text text-anchor="middle" x="349.5" y="-83.5" font-family="Helvetica,sans-Serif" font-size="10.00">bst::clck::secondsElapsed</text>
</a>
</g>
</g>
<!-- Node1&#45;&gt;Node6 -->
<g id="edge7" class="edge">
<title>Node1&#45;&gt;Node6</title>
<path fill="none" stroke="midnightblue" d="M458.05,-112.03C436.05,-106.71 410.51,-100.52 389.83,-95.52"/>
<polygon fill="midnightblue" stroke="midnightblue" points="457.34,-115.46 467.88,-114.41 458.99,-108.66 457.34,-115.46"/>
</g>
<!-- Node8 -->
<g id="node8" class="node">
<title>Node8</title>
<g id="a_node8"><a xlink:href="classbst_1_1Timer.html#a2e0a9c87f0ed3a6e89166d2ab4318038" target="_top" xlink:title="Set the timer to be done. Changes the start time.">
<polygon fill="none" stroke="black" points="293,-38.5 293,-57.5 406,-57.5 406,-38.5 293,-38.5"/>
<text text-anchor="middle" x="349.5" y="-45.5" font-family="Helvetica,sans-Serif" font-size="10.00">bst::Timer::setDone</text>
</a>
</g>
</g>
<!-- Node1&#45;&gt;Node8 -->
<g id="edge10" class="edge">
<title>Node1&#45;&gt;Node8</title>
<path fill="none" stroke="midnightblue" d="M489.74,-107.42C475.05,-94.58 453.09,-77.29 431,-67 422.8,-63.18 413.76,-60.09 404.79,-57.6"/>
<polygon fill="midnightblue" stroke="midnightblue" points="487.72,-110.31 497.5,-114.39 492.4,-105.1 487.72,-110.31"/>
</g>
<!-- Node9 -->
<g id="node9" class="node">
<title>Node9</title>
<g id="a_node9"><a xlink:href="time__class__test_8cpp.html#acbb5e0da7add56ddef1f30ef592c3d5f" target="_top" xlink:title=" ">
<polygon fill="none" stroke="black" points="329,-0.5 329,-19.5 370,-19.5 370,-0.5 329,-0.5"/>
<text text-anchor="middle" x="349.5" y="-7.5" font-family="Helvetica,sans-Serif" font-size="10.00">TEST</text>
</a>
</g>
</g>
<!-- Node1&#45;&gt;Node9 -->
<g id="edge11" class="edge">
<title>Node1&#45;&gt;Node9</title>
<path fill="none" stroke="midnightblue" d="M497.7,-105.53C485.19,-83.78 461.45,-48.19 431,-29 412.41,-17.29 387.29,-12.79 370.08,-11.06"/>
<polygon fill="midnightblue" stroke="midnightblue" points="494.74,-107.39 502.65,-114.44 500.86,-103.99 494.74,-107.39"/>
</g>
<!-- Node2&#45;&gt;Node3 -->
<g id="edge2" class="edge">
<title>Node2&#45;&gt;Node3</title>
<path fill="none" stroke="midnightblue" d="M104.35,-225.34C95.04,-222.17 85.54,-218.4 77,-214 59.81,-205.14 42.43,-190.95 31.81,-181.55"/>
<polygon fill="midnightblue" stroke="midnightblue" points="103.36,-228.69 113.95,-228.41 105.49,-222.03 103.36,-228.69"/>
</g>
<!-- Node5&#45;&gt;Node3 -->
<g id="edge6" class="edge">
<title>Node5&#45;&gt;Node3</title>
<path fill="none" stroke="midnightblue" d="M95.75,-161.31C76.2,-164.13 55.68,-167.08 41.17,-169.17"/>
<polygon fill="midnightblue" stroke="midnightblue" points="96.45,-164.75 105.84,-159.86 95.45,-157.82 96.45,-164.75"/>
</g>
<!-- Node7 -->
<g id="node7" class="node">
<title>Node7</title>
<g id="a_node7"><a xlink:href="namespacebst_1_1time.html#a9a4c8a6a0d59b9303d2ce006cf580c21" target="_top" xlink:title=" ">
<polygon fill="none" stroke="black" points="77,-86.5 77,-105.5 232,-105.5 232,-86.5 77,-86.5"/>
<text text-anchor="middle" x="154.5" y="-93.5" font-family="Helvetica,sans-Serif" font-size="10.00">bst::time::elapsedAsciiClock</text>
</a>
</g>
</g>
<!-- Node6&#45;&gt;Node7 -->
<g id="edge8" class="edge">
<title>Node6&#45;&gt;Node7</title>
<path fill="none" stroke="midnightblue" d="M268.78,-90.13C256.71,-90.76 244.27,-91.4 232.26,-92.02"/>
<polygon fill="midnightblue" stroke="midnightblue" points="269.02,-93.62 278.82,-89.61 268.65,-86.63 269.02,-93.62"/>
</g>
<!-- Node7&#45;&gt;Node3 -->
<g id="edge9" class="edge">
<title>Node7&#45;&gt;Node3</title>
<path fill="none" stroke="midnightblue" d="M122.97,-109.96C108.75,-116.77 91.76,-125.34 77,-134 61.89,-142.87 45.44,-154.39 34.4,-162.41"/>
<polygon fill="midnightblue" stroke="midnightblue" points="124.76,-112.99 132.3,-105.55 121.77,-106.66 124.76,-112.99"/>
</g>
</g>
</svg>
