<?xml version="1.0" encoding="UTF-8" standalone="no"?>
<!DOCTYPE svg PUBLIC "-//W3C//DTD SVG 1.1//EN"
 "http://www.w3.org/Graphics/SVG/1.1/DTD/svg11.dtd">
<!-- Generated by graphviz version 2.43.0 (0)
 -->
<!-- Title: BoosterSeat::clck::now Pages: 1 -->
<svg width="434pt" height="186pt"
 viewBox="0.00 0.00 434.00 186.00" xmlns="http://www.w3.org/2000/svg" xmlns:xlink="http://www.w3.org/1999/xlink">
<g id="graph0" class="graph" transform="scale(1 1) rotate(0) translate(4 182)">
<title>BoosterSeat::clck::now</title>
<!-- Node1 -->
<g id="node1" class="node">
<title>Node1</title>
<g id="a_node1"><a xlink:title=" ">
<polygon fill="#bfbfbf" stroke="black" points="298,-79 298,-98 426,-98 426,-79 298,-79"/>
<text text-anchor="middle" x="362" y="-86" font-family="Helvetica,sans-Serif" font-size="10.00">BoosterSeat::clck::now</text>
</a>
</g>
</g>
<!-- Node2 -->
<g id="node2" class="node">
<title>Node2</title>
<g id="a_node2"><a xlink:href="classBoosterSeat_1_1Timer.html#ad3cc262ba2f09da2ff9fdaa94d359c32" target="_top" xlink:title=" ">
<polygon fill="none" stroke="black" points="149,-147.5 149,-177.5 259,-177.5 259,-147.5 149,-147.5"/>
<text text-anchor="start" x="157" y="-165.5" font-family="Helvetica,sans-Serif" font-size="10.00">BoosterSeat::Timer</text>
<text text-anchor="middle" x="204" y="-154.5" font-family="Helvetica,sans-Serif" font-size="10.00">::isDone</text>
</a>
</g>
</g>
<!-- Node1&#45;&gt;Node2 -->
<g id="edge1" class="edge">
<title>Node1&#45;&gt;Node2</title>
<path fill="none" stroke="midnightblue" d="M333.91,-102.82C314.15,-113.11 286.63,-127.11 262,-138.5 255.57,-141.47 248.66,-144.51 241.96,-147.38"/>
<polygon fill="midnightblue" stroke="midnightblue" points="335.7,-105.83 342.94,-98.1 332.45,-99.63 335.7,-105.83"/>
</g>
<!-- Node3 -->
<g id="node3" class="node">
<title>Node3</title>
<g id="a_node3"><a xlink:href="namespaceBoosterSeat_1_1clck.html#a88b28985cce1667988a66e876fc507e1" target="_top" xlink:title=" ">
<polygon fill="none" stroke="black" points="146,-98.5 146,-128.5 262,-128.5 262,-98.5 146,-98.5"/>
<text text-anchor="start" x="154" y="-116.5" font-family="Helvetica,sans-Serif" font-size="10.00">BoosterSeat::clck::</text>
<text text-anchor="middle" x="204" y="-105.5" font-family="Helvetica,sans-Serif" font-size="10.00">millisecondsElapsed</text>
</a>
</g>
</g>
<!-- Node1&#45;&gt;Node3 -->
<g id="edge2" class="edge">
<title>Node1&#45;&gt;Node3</title>
<path fill="none" stroke="midnightblue" d="M291.47,-99.64C281.68,-101.21 271.72,-102.81 262.2,-104.33"/>
<polygon fill="midnightblue" stroke="midnightblue" points="292.26,-103.06 301.58,-98.02 291.15,-96.15 292.26,-103.06"/>
</g>
<!-- Node4 -->
<g id="node4" class="node">
<title>Node4</title>
<g id="a_node4"><a xlink:href="classBoosterSeat_1_1Timer.html#a9020542d73357a4eef512eefaf57524b" target="_top" xlink:title=" ">
<polygon fill="none" stroke="black" points="149,-49.5 149,-79.5 259,-79.5 259,-49.5 149,-49.5"/>
<text text-anchor="start" x="157" y="-67.5" font-family="Helvetica,sans-Serif" font-size="10.00">BoosterSeat::Timer</text>
<text text-anchor="middle" x="204" y="-56.5" font-family="Helvetica,sans-Serif" font-size="10.00">::reset</text>
</a>
</g>
</g>
<!-- Node1&#45;&gt;Node4 -->
<g id="edge3" class="edge">
<title>Node1&#45;&gt;Node4</title>
<path fill="none" stroke="midnightblue" d="M288.99,-77.42C279.02,-75.89 268.91,-74.33 259.33,-72.86"/>
<polygon fill="midnightblue" stroke="midnightblue" points="288.48,-80.88 298.9,-78.95 289.54,-73.97 288.48,-80.88"/>
</g>
<!-- Node5 -->
<g id="node5" class="node">
<title>Node5</title>
<g id="a_node5"><a xlink:href="namespaceBoosterSeat_1_1clck.html#afafe6029a205acad80604de5eaac62d7" target="_top" xlink:title=" ">
<polygon fill="none" stroke="black" points="150.5,-0.5 150.5,-30.5 257.5,-30.5 257.5,-0.5 150.5,-0.5"/>
<text text-anchor="start" x="158.5" y="-18.5" font-family="Helvetica,sans-Serif" font-size="10.00">BoosterSeat::clck::</text>
<text text-anchor="middle" x="204" y="-7.5" font-family="Helvetica,sans-Serif" font-size="10.00">secondsElapsed</text>
</a>
</g>
</g>
<!-- Node1&#45;&gt;Node5 -->
<g id="edge4" class="edge">
<title>Node1&#45;&gt;Node5</title>
<path fill="none" stroke="midnightblue" d="M332.7,-74.42C312.97,-64.7 286,-51.57 262,-40.5 254.94,-37.24 247.34,-33.84 240.06,-30.63"/>
<polygon fill="midnightblue" stroke="midnightblue" points="331.24,-77.61 341.75,-78.9 334.34,-71.33 331.24,-77.61"/>
</g>
<!-- Node6 -->
<g id="node6" class="node">
<title>Node6</title>
<g id="a_node6"><a xlink:href="namespaceBoosterSeat_1_1time.html#a96da139824ad355ab258c4c0af6c9650" target="_top" xlink:title=" ">
<polygon fill="none" stroke="black" points="0,-0.5 0,-30.5 110,-30.5 110,-0.5 0,-0.5"/>
<text text-anchor="start" x="8" y="-18.5" font-family="Helvetica,sans-Serif" font-size="10.00">BoosterSeat::time::</text>
<text text-anchor="middle" x="55" y="-7.5" font-family="Helvetica,sans-Serif" font-size="10.00">elapsedAsciiClock</text>
</a>
</g>
</g>
<!-- Node5&#45;&gt;Node6 -->
<g id="edge5" class="edge">
<title>Node5&#45;&gt;Node6</title>
<path fill="none" stroke="midnightblue" d="M140.12,-15.5C130.18,-15.5 119.99,-15.5 110.27,-15.5"/>
<polygon fill="midnightblue" stroke="midnightblue" points="140.34,-19 150.34,-15.5 140.34,-12 140.34,-19"/>
</g>
</g>
</svg>
