<?xml version="1.0" encoding="UTF-8" standalone="no"?>
<!DOCTYPE svg PUBLIC "-//W3C//DTD SVG 1.1//EN"
 "http://www.w3.org/Graphics/SVG/1.1/DTD/svg11.dtd">
<!-- Generated by graphviz version 2.43.0 (0)
 -->
<!-- Title: BoosterSeat::time::timeString Pages: 1 -->
<svg width="261pt" height="116pt"
 viewBox="0.00 0.00 261.00 115.50" xmlns="http://www.w3.org/2000/svg" xmlns:xlink="http://www.w3.org/1999/xlink">
<g id="graph0" class="graph" transform="scale(1 1) rotate(0) translate(4 111.5)">
<title>BoosterSeat::time::timeString</title>
<!-- Node1 -->
<g id="node1" class="node">
<title>Node1</title>
<g id="a_node1"><a xlink:title="Get the time in format: HH:MM:SS (24 hour clock) for a given time zone.">
<polygon fill="#bfbfbf" stroke="black" points="0,-44.5 0,-74.5 110,-74.5 110,-44.5 0,-44.5"/>
<text text-anchor="start" x="8" y="-62.5" font-family="Helvetica,sans-Serif" font-size="10.00">BoosterSeat::time::</text>
<text text-anchor="middle" x="55" y="-51.5" font-family="Helvetica,sans-Serif" font-size="10.00">timeString</text>
</a>
</g>
</g>
<!-- Node2 -->
<g id="node2" class="node">
<title>Node2</title>
<g id="a_node2"><a xlink:href="time_8cpp.html#a30782dcad2bc9846a7a9c2d56864d0c2" target="_top" xlink:title=" ">
<polygon fill="none" stroke="black" points="175.5,-88 175.5,-107 223.5,-107 223.5,-88 175.5,-88"/>
<text text-anchor="middle" x="199.5" y="-95" font-family="Helvetica,sans-Serif" font-size="10.00">getTm</text>
</a>
</g>
</g>
<!-- Node1&#45;&gt;Node2 -->
<g id="edge1" class="edge">
<title>Node1&#45;&gt;Node2</title>
<path fill="none" stroke="midnightblue" d="M110.28,-73.97C128.91,-78.94 149.18,-84.35 165.59,-88.72"/>
<polygon fill="midnightblue" stroke="midnightblue" points="164.69,-92.11 175.26,-91.3 166.5,-85.34 164.69,-92.11"/>
</g>
<!-- Node3 -->
<g id="node3" class="node">
<title>Node3</title>
<g id="a_node3"><a xlink:href="time_8cpp.html#a4b8e93c1388150eb65a480d3edadf0f4" target="_top" xlink:title=" ">
<polygon fill="none" stroke="black" points="148.5,-50 148.5,-69 250.5,-69 250.5,-50 148.5,-50"/>
<text text-anchor="middle" x="199.5" y="-57" font-family="Helvetica,sans-Serif" font-size="10.00">timeFormatString</text>
</a>
</g>
</g>
<!-- Node1&#45;&gt;Node3 -->
<g id="edge2" class="edge">
<title>Node1&#45;&gt;Node3</title>
<path fill="none" stroke="midnightblue" d="M110.28,-59.5C119.31,-59.5 128.72,-59.5 137.9,-59.5"/>
<polygon fill="midnightblue" stroke="midnightblue" points="138.12,-63 148.12,-59.5 138.12,-56 138.12,-63"/>
</g>
<!-- Node4 -->
<g id="node4" class="node">
<title>Node4</title>
<g id="a_node4"><a xlink:href="namespaceBoosterSeat_1_1clck.html#a32556c6b55e2960703e0db64be6115bb" target="_top" xlink:title=" ">
<polygon fill="none" stroke="black" points="146,-0.5 146,-30.5 253,-30.5 253,-0.5 146,-0.5"/>
<text text-anchor="start" x="154" y="-18.5" font-family="Helvetica,sans-Serif" font-size="10.00">BoosterSeat::clck::</text>
<text text-anchor="middle" x="199.5" y="-7.5" font-family="Helvetica,sans-Serif" font-size="10.00">toTimeT</text>
</a>
</g>
</g>
<!-- Node1&#45;&gt;Node4 -->
<g id="edge3" class="edge">
<title>Node1&#45;&gt;Node4</title>
<path fill="none" stroke="midnightblue" d="M104.64,-44.48C115.98,-40.98 128.17,-37.22 139.89,-33.6"/>
<polygon fill="midnightblue" stroke="midnightblue" points="141.07,-36.9 149.59,-30.6 139.01,-30.21 141.07,-36.9"/>
</g>
</g>
</svg>
