<?xml version="1.0" encoding="UTF-8" standalone="no"?>
<!DOCTYPE svg PUBLIC "-//W3C//DTD SVG 1.1//EN"
 "http://www.w3.org/Graphics/SVG/1.1/DTD/svg11.dtd">
<!-- Generated by graphviz version 2.43.0 (0)
 -->
<!-- Title: internal::exists Pages: 1 -->
<svg width="444pt" height="85pt"
 viewBox="0.00 0.00 444.00 85.00" xmlns="http://www.w3.org/2000/svg" xmlns:xlink="http://www.w3.org/1999/xlink">
<g id="graph0" class="graph" transform="scale(1 1) rotate(0) translate(4 81)">
<title>internal::exists</title>
<!-- Node1 -->
<g id="node1" class="node">
<title>Node1</title>
<g id="a_node1"><a xlink:title=" ">
<polygon fill="#bfbfbf" stroke="black" points="347,-38.5 347,-57.5 436,-57.5 436,-38.5 347,-38.5"/>
<text text-anchor="middle" x="391.5" y="-45.5" font-family="Helvetica,sans-Serif" font-size="10.00">internal::exists</text>
</a>
</g>
</g>
<!-- Node2 -->
<g id="node2" class="node">
<title>Node2</title>
<g id="a_node2"><a xlink:href="namespaceassertions.html#a3996fb04f725f28b7c88895a80118336" target="_top" xlink:title="Checks if a path exists, otherwise it will throw an exception.">
<polygon fill="none" stroke="black" points="172,-57.5 172,-76.5 311,-76.5 311,-57.5 172,-57.5"/>
<text text-anchor="middle" x="241.5" y="-64.5" font-family="Helvetica,sans-Serif" font-size="10.00">assertions::DoesNotExist</text>
</a>
</g>
</g>
<!-- Node1&#45;&gt;Node2 -->
<g id="edge1" class="edge">
<title>Node1&#45;&gt;Node2</title>
<path fill="none" stroke="midnightblue" d="M336.88,-54.88C328.49,-55.96 319.73,-57.09 311.06,-58.2"/>
<polygon fill="midnightblue" stroke="midnightblue" points="337.42,-58.34 346.9,-53.6 336.53,-51.4 337.42,-58.34"/>
</g>
<!-- Node3 -->
<g id="node3" class="node">
<title>Node3</title>
<g id="a_node3"><a xlink:href="namespaceassertions.html#a2f953f5375dfaa98583a4d43475caf25" target="_top" xlink:title="Checks if a path exists, otherwise it will throw an exception.">
<polygon fill="none" stroke="black" points="190.5,-19.5 190.5,-38.5 292.5,-38.5 292.5,-19.5 190.5,-19.5"/>
<text text-anchor="middle" x="241.5" y="-26.5" font-family="Helvetica,sans-Serif" font-size="10.00">assertions::Exists</text>
</a>
</g>
</g>
<!-- Node1&#45;&gt;Node3 -->
<g id="edge2" class="edge">
<title>Node1&#45;&gt;Node3</title>
<path fill="none" stroke="midnightblue" d="M336.64,-41.09C322.24,-39.24 306.74,-37.25 292.55,-35.43"/>
<polygon fill="midnightblue" stroke="midnightblue" points="336.53,-44.6 346.9,-42.4 337.42,-37.66 336.53,-44.6"/>
</g>
<!-- Node4 -->
<g id="node4" class="node">
<title>Node4</title>
<g id="a_node4"><a xlink:href="namespaceassertions.html#ae836775a6257e8270026456d314b5f12" target="_top" xlink:title="Checks if the path exists and is a directory, otherwise it will throw an exception.">
<polygon fill="none" stroke="black" points="5,-38.5 5,-57.5 131,-57.5 131,-38.5 5,-38.5"/>
<text text-anchor="middle" x="68" y="-45.5" font-family="Helvetica,sans-Serif" font-size="10.00">assertions::IsDirectory</text>
</a>
</g>
</g>
<!-- Node3&#45;&gt;Node4 -->
<g id="edge3" class="edge">
<title>Node3&#45;&gt;Node4</title>
<path fill="none" stroke="midnightblue" d="M180.18,-35.68C164.25,-37.45 147.03,-39.36 131.01,-41.13"/>
<polygon fill="midnightblue" stroke="midnightblue" points="180.88,-39.13 190.43,-34.55 180.11,-32.17 180.88,-39.13"/>
</g>
<!-- Node5 -->
<g id="node5" class="node">
<title>Node5</title>
<g id="a_node5"><a xlink:href="namespaceassertions.html#afc3f9b61119c84db617cc0cd88840883" target="_top" xlink:title="Checks if the path exists and is a regular file, otherwise it will throw an exception.">
<polygon fill="none" stroke="black" points="0,-0.5 0,-19.5 136,-19.5 136,-0.5 0,-0.5"/>
<text text-anchor="middle" x="68" y="-7.5" font-family="Helvetica,sans-Serif" font-size="10.00">assertions::IsRegularFile</text>
</a>
</g>
</g>
<!-- Node3&#45;&gt;Node5 -->
<g id="edge4" class="edge">
<title>Node3&#45;&gt;Node5</title>
<path fill="none" stroke="midnightblue" d="M180.23,-22.32C165.94,-20.74 150.61,-19.04 136.03,-17.43"/>
<polygon fill="midnightblue" stroke="midnightblue" points="180.11,-25.83 190.43,-23.45 180.88,-18.87 180.11,-25.83"/>
</g>
</g>
</svg>
