<?xml version="1.0" encoding="UTF-8" standalone="no"?>
<!DOCTYPE svg PUBLIC "-//W3C//DTD SVG 1.1//EN"
 "http://www.w3.org/Graphics/SVG/1.1/DTD/svg11.dtd">
<!-- Generated by graphviz version 2.43.0 (0)
 -->
<!-- Title: bst::time::timeString Pages: 1 -->
<svg width="265pt" height="104pt"
 viewBox="0.00 0.00 265.00 104.00" xmlns="http://www.w3.org/2000/svg" xmlns:xlink="http://www.w3.org/1999/xlink">
<g id="graph0" class="graph" transform="scale(1 1) rotate(0) translate(4 100)">
<title>bst::time::timeString</title>
<!-- Node1 -->
<g id="node1" class="node">
<title>Node1</title>
<g id="a_node1"><a xlink:title="Get the time in format: HH:MM:SS (24 hour clock) for a given time zone.">
<polygon fill="#bfbfbf" stroke="black" points="0,-38.5 0,-57.5 117,-57.5 117,-38.5 0,-38.5"/>
<text text-anchor="middle" x="58.5" y="-45.5" font-family="Helvetica,sans-Serif" font-size="10.00">bst::time::timeString</text>
</a>
</g>
</g>
<!-- Node2 -->
<g id="node2" class="node">
<title>Node2</title>
<g id="a_node2"><a xlink:href="time_8cpp.html#a27df73b2049d79fe180c001c41a6ef12" target="_top" xlink:title=" ">
<polygon fill="none" stroke="black" points="181,-76.5 181,-95.5 229,-95.5 229,-76.5 181,-76.5"/>
<text text-anchor="middle" x="205" y="-83.5" font-family="Helvetica,sans-Serif" font-size="10.00">getTm</text>
</a>
</g>
</g>
<!-- Node1&#45;&gt;Node2 -->
<g id="edge1" class="edge">
<title>Node1&#45;&gt;Node2</title>
<path fill="none" stroke="midnightblue" d="M95.96,-57.59C119.02,-63.65 148.58,-71.43 170.95,-77.31"/>
<polygon fill="midnightblue" stroke="midnightblue" points="170.11,-80.71 180.67,-79.87 171.89,-73.94 170.11,-80.71"/>
</g>
<!-- Node3 -->
<g id="node3" class="node">
<title>Node3</title>
<g id="a_node3"><a xlink:href="time_8cpp.html#a4b8e93c1388150eb65a480d3edadf0f4" target="_top" xlink:title=" ">
<polygon fill="none" stroke="black" points="154,-38.5 154,-57.5 256,-57.5 256,-38.5 154,-38.5"/>
<text text-anchor="middle" x="205" y="-45.5" font-family="Helvetica,sans-Serif" font-size="10.00">timeFormatString</text>
</a>
</g>
</g>
<!-- Node1&#45;&gt;Node3 -->
<g id="edge2" class="edge">
<title>Node1&#45;&gt;Node3</title>
<path fill="none" stroke="midnightblue" d="M117.03,-48C125.74,-48 134.75,-48 143.52,-48"/>
<polygon fill="midnightblue" stroke="midnightblue" points="143.67,-51.5 153.67,-48 143.67,-44.5 143.67,-51.5"/>
</g>
<!-- Node4 -->
<g id="node4" class="node">
<title>Node4</title>
<g id="a_node4"><a xlink:href="namespacebst_1_1clck.html#af6c9726ef27bb1919283a12d40b4e657" target="_top" xlink:title=" ">
<polygon fill="none" stroke="black" points="153,-0.5 153,-19.5 257,-19.5 257,-0.5 153,-0.5"/>
<text text-anchor="middle" x="205" y="-7.5" font-family="Helvetica,sans-Serif" font-size="10.00">bst::clck::toTimeT</text>
</a>
</g>
</g>
<!-- Node1&#45;&gt;Node4 -->
<g id="edge3" class="edge">
<title>Node1&#45;&gt;Node4</title>
<path fill="none" stroke="midnightblue" d="M95.96,-38.41C114.77,-33.46 137.91,-27.38 157.95,-22.11"/>
<polygon fill="midnightblue" stroke="midnightblue" points="159.02,-25.45 167.8,-19.52 157.24,-18.68 159.02,-25.45"/>
</g>
</g>
</svg>
