<?xml version="1.0" encoding="UTF-8" standalone="no"?>
<!DOCTYPE svg PUBLIC "-//W3C//DTD SVG 1.1//EN"
 "http://www.w3.org/Graphics/SVG/1.1/DTD/svg11.dtd">
<!-- Generated by graphviz version 2.43.0 (0)
 -->
<!-- Title: BoosterSeat::clck::now Pages: 1 -->
<svg width="511pt" height="280pt"
 viewBox="0.00 0.00 511.00 280.00" xmlns="http://www.w3.org/2000/svg" xmlns:xlink="http://www.w3.org/1999/xlink">
<g id="graph0" class="graph" transform="scale(1 1) rotate(0) translate(4 276)">
<title>BoosterSeat::clck::now</title>
<!-- Node1 -->
<g id="node1" class="node">
<title>Node1</title>
<g id="a_node1"><a xlink:title=" ">
<polygon fill="#bfbfbf" stroke="black" points="375,-126.5 375,-145.5 503,-145.5 503,-126.5 375,-126.5"/>
<text text-anchor="middle" x="439" y="-133.5" font-family="Helvetica,sans-Serif" font-size="10.00">BoosterSeat::clck::now</text>
</a>
</g>
</g>
<!-- Node2 -->
<g id="node2" class="node">
<title>Node2</title>
<g id="a_node2"><a xlink:href="classbst_1_1Timer.html#ad3cc262ba2f09da2ff9fdaa94d359c32" target="_top" xlink:title="Check if the timer has expired.">
<polygon fill="none" stroke="black" points="228,-252.5 228,-271.5 334,-271.5 334,-252.5 228,-252.5"/>
<text text-anchor="middle" x="281" y="-259.5" font-family="Helvetica,sans-Serif" font-size="10.00">bst::Timer::isDone</text>
</a>
</g>
</g>
<!-- Node1&#45;&gt;Node2 -->
<g id="edge1" class="edge">
<title>Node1&#45;&gt;Node2</title>
<path fill="none" stroke="midnightblue" d="M424.65,-153.61C407.08,-175.79 374.26,-213.91 339,-238 330.49,-243.82 320.35,-248.64 310.99,-252.41"/>
<polygon fill="midnightblue" stroke="midnightblue" points="427.44,-155.73 430.82,-145.69 421.91,-151.43 427.44,-155.73"/>
</g>
<!-- Node3 -->
<g id="node3" class="node">
<title>Node3</title>
<g id="a_node3"><a xlink:href="visual__tests_8cpp.html#ae66f6b31b5ad750f1fe042a706a4e3d4" target="_top" xlink:title=" ">
<polygon fill="none" stroke="black" points="0,-148.5 0,-167.5 41,-167.5 41,-148.5 0,-148.5"/>
<text text-anchor="middle" x="20.5" y="-155.5" font-family="Helvetica,sans-Serif" font-size="10.00">main</text>
</a>
</g>
</g>
<!-- Node1&#45;&gt;Node3 -->
<g id="edge2" class="edge">
<title>Node1&#45;&gt;Node3</title>
<path fill="none" stroke="midnightblue" d="M421.45,-152.41C403.1,-169.35 371.73,-194.72 339,-205 230.02,-239.23 91.98,-188.5 41.31,-166.93"/>
<polygon fill="midnightblue" stroke="midnightblue" points="423.87,-154.95 428.71,-145.52 419.05,-149.87 423.87,-154.95"/>
</g>
<!-- Node4 -->
<g id="node4" class="node">
<title>Node4</title>
<g id="a_node4"><a xlink:href="namespaceBoosterSeat_1_1clck.html#a88b28985cce1667988a66e876fc507e1" target="_top" xlink:title=" ">
<polygon fill="none" stroke="black" points="223,-165 223,-195 339,-195 339,-165 223,-165"/>
<text text-anchor="start" x="231" y="-183" font-family="Helvetica,sans-Serif" font-size="10.00">BoosterSeat::clck::</text>
<text text-anchor="middle" x="281" y="-172" font-family="Helvetica,sans-Serif" font-size="10.00">millisecondsElapsed</text>
</a>
</g>
</g>
<!-- Node1&#45;&gt;Node4 -->
<g id="edge3" class="edge">
<title>Node1&#45;&gt;Node4</title>
<path fill="none" stroke="midnightblue" d="M394.35,-148.31C376.06,-153.47 354.63,-159.51 335.41,-164.93"/>
<polygon fill="midnightblue" stroke="midnightblue" points="395.48,-151.63 404.15,-145.55 393.58,-144.89 395.48,-151.63"/>
</g>
<!-- Node5 -->
<g id="node5" class="node">
<title>Node5</title>
<g id="a_node5"><a xlink:href="classbst_1_1Timer.html#a9020542d73357a4eef512eefaf57524b" target="_top" xlink:title="Reset the timer to the current time.">
<polygon fill="none" stroke="black" points="232.5,-126.5 232.5,-145.5 329.5,-145.5 329.5,-126.5 232.5,-126.5"/>
<text text-anchor="middle" x="281" y="-133.5" font-family="Helvetica,sans-Serif" font-size="10.00">bst::Timer::reset</text>
</a>
</g>
</g>
<!-- Node1&#45;&gt;Node5 -->
<g id="edge4" class="edge">
<title>Node1&#45;&gt;Node5</title>
<path fill="none" stroke="midnightblue" d="M364.68,-136C352.86,-136 340.89,-136 329.88,-136"/>
<polygon fill="midnightblue" stroke="midnightblue" points="365,-139.5 375,-136 365,-132.5 365,-139.5"/>
</g>
<!-- Node6 -->
<g id="node6" class="node">
<title>Node6</title>
<g id="a_node6"><a xlink:href="namespaceBoosterSeat_1_1clck.html#afafe6029a205acad80604de5eaac62d7" target="_top" xlink:title=" ">
<polygon fill="none" stroke="black" points="227.5,-77 227.5,-107 334.5,-107 334.5,-77 227.5,-77"/>
<text text-anchor="start" x="235.5" y="-95" font-family="Helvetica,sans-Serif" font-size="10.00">BoosterSeat::clck::</text>
<text text-anchor="middle" x="281" y="-84" font-family="Helvetica,sans-Serif" font-size="10.00">secondsElapsed</text>
</a>
</g>
</g>
<!-- Node1&#45;&gt;Node6 -->
<g id="edge5" class="edge">
<title>Node1&#45;&gt;Node6</title>
<path fill="none" stroke="midnightblue" d="M394.47,-123.72C375.87,-118.48 353.99,-112.31 334.5,-106.81"/>
<polygon fill="midnightblue" stroke="midnightblue" points="393.58,-127.11 404.15,-126.45 395.48,-120.37 393.58,-127.11"/>
</g>
<!-- Node8 -->
<g id="node8" class="node">
<title>Node8</title>
<g id="a_node8"><a xlink:href="classbst_1_1Timer.html#a1a1d4e10ebb20bd4db7884b569524809" target="_top" xlink:title="Set the timer to be done. Changes the start time.">
<polygon fill="none" stroke="black" points="224.5,-38.5 224.5,-57.5 337.5,-57.5 337.5,-38.5 224.5,-38.5"/>
<text text-anchor="middle" x="281" y="-45.5" font-family="Helvetica,sans-Serif" font-size="10.00">bst::Timer::setDone</text>
</a>
</g>
</g>
<!-- Node1&#45;&gt;Node8 -->
<g id="edge8" class="edge">
<title>Node1&#45;&gt;Node8</title>
<path fill="none" stroke="midnightblue" d="M418.53,-119.89C399.29,-104.6 368.55,-81.83 339,-67 331.82,-63.4 323.8,-60.24 316.1,-57.59"/>
<polygon fill="midnightblue" stroke="midnightblue" points="416.53,-122.77 426.51,-126.32 420.92,-117.32 416.53,-122.77"/>
</g>
<!-- Node9 -->
<g id="node9" class="node">
<title>Node9</title>
<g id="a_node9"><a xlink:href="time__string__test_8cpp.html#acbb5e0da7add56ddef1f30ef592c3d5f" target="_top" xlink:title=" ">
<polygon fill="none" stroke="black" points="260.5,-0.5 260.5,-19.5 301.5,-19.5 301.5,-0.5 260.5,-0.5"/>
<text text-anchor="middle" x="281" y="-7.5" font-family="Helvetica,sans-Serif" font-size="10.00">TEST</text>
</a>
</g>
</g>
<!-- Node1&#45;&gt;Node9 -->
<g id="edge9" class="edge">
<title>Node1&#45;&gt;Node9</title>
<path fill="none" stroke="midnightblue" d="M425.66,-117.77C408.74,-94.1 376.17,-52.98 339,-29 327.61,-21.65 313.08,-16.86 301.55,-13.93"/>
<polygon fill="midnightblue" stroke="midnightblue" points="422.95,-120 431.54,-126.2 428.68,-115.99 422.95,-120"/>
</g>
<!-- Node7 -->
<g id="node7" class="node">
<title>Node7</title>
<g id="a_node7"><a xlink:href="namespaceBoosterSeat_1_1time.html#a96da139824ad355ab258c4c0af6c9650" target="_top" xlink:title=" ">
<polygon fill="none" stroke="black" points="77,-121 77,-151 187,-151 187,-121 77,-121"/>
<text text-anchor="start" x="85" y="-139" font-family="Helvetica,sans-Serif" font-size="10.00">BoosterSeat::time::</text>
<text text-anchor="middle" x="132" y="-128" font-family="Helvetica,sans-Serif" font-size="10.00">elapsedAsciiClock</text>
</a>
</g>
</g>
<!-- Node6&#45;&gt;Node7 -->
<g id="edge6" class="edge">
<title>Node6&#45;&gt;Node7</title>
<path fill="none" stroke="midnightblue" d="M220.18,-109.9C207.99,-113.55 195.28,-117.36 183.45,-120.9"/>
<polygon fill="midnightblue" stroke="midnightblue" points="221.25,-113.24 229.82,-107.02 219.24,-106.53 221.25,-113.24"/>
</g>
<!-- Node7&#45;&gt;Node3 -->
<g id="edge7" class="edge">
<title>Node7&#45;&gt;Node3</title>
<path fill="none" stroke="midnightblue" d="M67.01,-148.86C57.62,-150.74 48.59,-152.56 41.09,-154.06"/>
<polygon fill="midnightblue" stroke="midnightblue" points="67.78,-152.27 76.89,-146.87 66.4,-145.41 67.78,-152.27"/>
</g>
</g>
</svg>
