<?xml version="1.0" encoding="UTF-8" standalone="no"?>
<!DOCTYPE svg PUBLIC "-//W3C//DTD SVG 1.1//EN"
 "http://www.w3.org/Graphics/SVG/1.1/DTD/svg11.dtd">
<!-- Generated by graphviz version 2.43.0 (0)
 -->
<!-- Title: bst::time::dateAndTimeString Pages: 1 -->
<svg width="504pt" height="142pt"
 viewBox="0.00 0.00 504.00 142.00" xmlns="http://www.w3.org/2000/svg" xmlns:xlink="http://www.w3.org/1999/xlink">
<g id="graph0" class="graph" transform="scale(1 1) rotate(0) translate(4 138)">
<title>bst::time::dateAndTimeString</title>
<!-- Node1 -->
<g id="node1" class="node">
<title>Node1</title>
<g id="a_node1"><a xlink:title=" ">
<polygon fill="#bfbfbf" stroke="black" points="0,-57.5 0,-76.5 160,-76.5 160,-57.5 0,-57.5"/>
<text text-anchor="middle" x="80" y="-64.5" font-family="Helvetica,sans-Serif" font-size="10.00">bst::time::dateAndTimeString</text>
</a>
</g>
</g>
<!-- Node2 -->
<g id="node2" class="node">
<title>Node2</title>
<g id="a_node2"><a xlink:href="namespacebst_1_1time.html#a2f5614e38783fb2a27cbed3987e3fd4d" target="_top" xlink:title="Get the date and time in the format: YYYY&#45;MM&#45;DD HH:MM:SS.">
<polygon fill="none" stroke="black" points="196,-57.5 196,-76.5 356,-76.5 356,-57.5 196,-57.5"/>
<text text-anchor="middle" x="276" y="-64.5" font-family="Helvetica,sans-Serif" font-size="10.00">bst::time::dateAndTimeString</text>
</a>
</g>
</g>
<!-- Node1&#45;&gt;Node2 -->
<g id="edge1" class="edge">
<title>Node1&#45;&gt;Node2</title>
<path fill="none" stroke="midnightblue" d="M160.19,-67C168.53,-67 177.05,-67 185.5,-67"/>
<polygon fill="midnightblue" stroke="midnightblue" points="185.75,-70.5 195.75,-67 185.75,-63.5 185.75,-70.5"/>
</g>
<!-- Node3 -->
<g id="node3" class="node">
<title>Node3</title>
<g id="a_node3"><a xlink:href="time_8cpp.html#a39587916c21a4902744b75d2106681f0" target="_top" xlink:title=" ">
<polygon fill="none" stroke="black" points="393.5,-114.5 393.5,-133.5 494.5,-133.5 494.5,-114.5 393.5,-114.5"/>
<text text-anchor="middle" x="444" y="-121.5" font-family="Helvetica,sans-Serif" font-size="10.00">dateFormatString</text>
</a>
</g>
</g>
<!-- Node2&#45;&gt;Node3 -->
<g id="edge2" class="edge">
<title>Node2&#45;&gt;Node3</title>
<path fill="none" stroke="midnightblue" d="M304.78,-76.54C332.43,-86.03 375.05,-100.67 405.65,-111.17"/>
<polygon fill="midnightblue" stroke="midnightblue" points="404.53,-114.49 415.12,-114.43 406.8,-107.87 404.53,-114.49"/>
</g>
<!-- Node4 -->
<g id="node4" class="node">
<title>Node4</title>
<g id="a_node4"><a xlink:href="time_8cpp.html#a27df73b2049d79fe180c001c41a6ef12" target="_top" xlink:title=" ">
<polygon fill="none" stroke="black" points="420,-76.5 420,-95.5 468,-95.5 468,-76.5 420,-76.5"/>
<text text-anchor="middle" x="444" y="-83.5" font-family="Helvetica,sans-Serif" font-size="10.00">getTm</text>
</a>
</g>
</g>
<!-- Node2&#45;&gt;Node4 -->
<g id="edge3" class="edge">
<title>Node2&#45;&gt;Node4</title>
<path fill="none" stroke="midnightblue" d="M356.11,-76.05C374.97,-78.21 394.1,-80.4 409.59,-82.18"/>
<polygon fill="midnightblue" stroke="midnightblue" points="409.36,-85.67 419.69,-83.33 410.15,-78.72 409.36,-85.67"/>
</g>
<!-- Node5 -->
<g id="node5" class="node">
<title>Node5</title>
<g id="a_node5"><a xlink:href="time_8cpp.html#a4b8e93c1388150eb65a480d3edadf0f4" target="_top" xlink:title=" ">
<polygon fill="none" stroke="black" points="393,-38.5 393,-57.5 495,-57.5 495,-38.5 393,-38.5"/>
<text text-anchor="middle" x="444" y="-45.5" font-family="Helvetica,sans-Serif" font-size="10.00">timeFormatString</text>
</a>
</g>
</g>
<!-- Node2&#45;&gt;Node5 -->
<g id="edge4" class="edge">
<title>Node2&#45;&gt;Node5</title>
<path fill="none" stroke="midnightblue" d="M356.11,-57.95C365.11,-56.91 374.18,-55.88 382.88,-54.88"/>
<polygon fill="midnightblue" stroke="midnightblue" points="383.36,-58.35 392.9,-53.73 382.57,-51.39 383.36,-58.35"/>
</g>
<!-- Node6 -->
<g id="node6" class="node">
<title>Node6</title>
<g id="a_node6"><a xlink:href="namespacebst_1_1clck.html#af6c9726ef27bb1919283a12d40b4e657" target="_top" xlink:title=" ">
<polygon fill="none" stroke="black" points="392,-0.5 392,-19.5 496,-19.5 496,-0.5 392,-0.5"/>
<text text-anchor="middle" x="444" y="-7.5" font-family="Helvetica,sans-Serif" font-size="10.00">bst::clck::toTimeT</text>
</a>
</g>
</g>
<!-- Node2&#45;&gt;Node6 -->
<g id="edge5" class="edge">
<title>Node2&#45;&gt;Node6</title>
<path fill="none" stroke="midnightblue" d="M304.78,-57.46C332.43,-47.97 375.05,-33.33 405.65,-22.83"/>
<polygon fill="midnightblue" stroke="midnightblue" points="406.8,-26.13 415.12,-19.57 404.53,-19.51 406.8,-26.13"/>
</g>
</g>
</svg>
