<?xml version="1.0" encoding="UTF-8" standalone="no"?>
<!DOCTYPE svg PUBLIC "-//W3C//DTD SVG 1.1//EN"
 "http://www.w3.org/Graphics/SVG/1.1/DTD/svg11.dtd">
<!-- Generated by graphviz version 2.43.0 (0)
 -->
<!-- Title: process.hpp Pages: 1 -->
<svg width="198pt" height="84pt"
 viewBox="0.00 0.00 198.00 84.00" xmlns="http://www.w3.org/2000/svg" xmlns:xlink="http://www.w3.org/1999/xlink">
<g id="graph0" class="graph" transform="scale(1 1) rotate(0) translate(4 80)">
<title>process.hpp</title>
<!-- Node1 -->
<g id="node1" class="node">
<title>Node1</title>
<g id="a_node1"><a xlink:title="A class to handle linux process calls.">
<polygon fill="#bfbfbf" stroke="black" points="51.5,-56.5 51.5,-75.5 126.5,-75.5 126.5,-56.5 51.5,-56.5"/>
<text text-anchor="middle" x="89" y="-63.5" font-family="Helvetica,sans-Serif" font-size="10.00">process.hpp</text>
</a>
</g>
</g>
<!-- Node2 -->
<g id="node2" class="node">
<title>Node2</title>
<g id="a_node2"><a xlink:href="process_8cpp.html" target="_top" xlink:title="Process class implementation.">
<polygon fill="none" stroke="black" points="0,-0.5 0,-19.5 74,-19.5 74,-0.5 0,-0.5"/>
<text text-anchor="middle" x="37" y="-7.5" font-family="Helvetica,sans-Serif" font-size="10.00">process.cpp</text>
</a>
</g>
</g>
<!-- Node1&#45;&gt;Node2 -->
<g id="edge1" class="edge">
<title>Node1&#45;&gt;Node2</title>
<path fill="none" stroke="midnightblue" d="M73.32,-48.72C64.16,-39.2 52.95,-27.56 45.43,-19.75"/>
<polygon fill="midnightblue" stroke="midnightblue" points="70.96,-51.31 80.41,-56.08 76,-46.45 70.96,-51.31"/>
</g>
<!-- Node3 -->
<g id="node3" class="node">
<title>Node3</title>
<g id="a_node3"><a xlink:href="process__test_8cpp.html" target="_top" xlink:title=" ">
<polygon fill="none" stroke="black" points="92,-0.5 92,-19.5 190,-19.5 190,-0.5 92,-0.5"/>
<text text-anchor="middle" x="141" y="-7.5" font-family="Helvetica,sans-Serif" font-size="10.00">process_test.cpp</text>
</a>
</g>
</g>
<!-- Node1&#45;&gt;Node3 -->
<g id="edge2" class="edge">
<title>Node1&#45;&gt;Node3</title>
<path fill="none" stroke="midnightblue" d="M104.68,-48.72C113.84,-39.2 125.05,-27.56 132.57,-19.75"/>
<polygon fill="midnightblue" stroke="midnightblue" points="102,-46.45 97.59,-56.08 107.04,-51.31 102,-46.45"/>
</g>
</g>
</svg>
