<?xml version="1.0" encoding="UTF-8" standalone="no"?>
<!DOCTYPE svg PUBLIC "-//W3C//DTD SVG 1.1//EN"
 "http://www.w3.org/Graphics/SVG/1.1/DTD/svg11.dtd">
<!-- Generated by graphviz version 2.43.0 (0)
 -->
<!-- Title: process.hpp Pages: 1 -->
<svg width="926pt" height="207pt"
 viewBox="0.00 0.00 926.00 207.00" xmlns="http://www.w3.org/2000/svg" xmlns:xlink="http://www.w3.org/1999/xlink">
<g id="graph0" class="graph" transform="scale(1 1) rotate(0) translate(4 203)">
<title>process.hpp</title>
<!-- Node1 -->
<g id="node1" class="node">
<title>Node1</title>
<g id="a_node1"><a xlink:title="A class to handle linux process calls.">
<polygon fill="#bfbfbf" stroke="black" points="323.5,-179.5 323.5,-198.5 398.5,-198.5 398.5,-179.5 323.5,-179.5"/>
<text text-anchor="middle" x="361" y="-186.5" font-family="Helvetica,sans-Serif" font-size="10.00">process.hpp</text>
</a>
</g>
</g>
<!-- Node2 -->
<g id="node2" class="node">
<title>Node2</title>
<g id="a_node2"><a xlink:title=" ">
<polygon fill="none" stroke="#bfbfbf" points="0,-123.5 0,-142.5 60,-142.5 60,-123.5 0,-123.5"/>
<text text-anchor="middle" x="30" y="-130.5" font-family="Helvetica,sans-Serif" font-size="10.00">iostream</text>
</a>
</g>
</g>
<!-- Node1&#45;&gt;Node2 -->
<g id="edge1" class="edge">
<title>Node1&#45;&gt;Node2</title>
<path fill="none" stroke="midnightblue" d="M323.05,-183.06C269.05,-175.84 166.75,-161.42 70.12,-143.1"/>
<polygon fill="midnightblue" stroke="midnightblue" points="70.67,-139.64 60.19,-141.2 69.35,-146.52 70.67,-139.64"/>
</g>
<!-- Node3 -->
<g id="node3" class="node">
<title>Node3</title>
<g id="a_node3"><a xlink:title=" ">
<polygon fill="none" stroke="#bfbfbf" points="78,-123.5 78,-142.5 134,-142.5 134,-123.5 78,-123.5"/>
<text text-anchor="middle" x="106" y="-130.5" font-family="Helvetica,sans-Serif" font-size="10.00">sstream</text>
</a>
</g>
</g>
<!-- Node1&#45;&gt;Node3 -->
<g id="edge2" class="edge">
<title>Node1&#45;&gt;Node3</title>
<path fill="none" stroke="midnightblue" d="M323.29,-180.07C280.71,-171.1 209.37,-156.06 148,-143 146.73,-142.73 145.43,-142.45 144.13,-142.18"/>
<polygon fill="midnightblue" stroke="midnightblue" points="144.52,-138.68 134.01,-140.01 143.06,-145.53 144.52,-138.68"/>
</g>
<!-- Node4 -->
<g id="node4" class="node">
<title>Node4</title>
<g id="a_node4"><a xlink:title=" ">
<polygon fill="none" stroke="#bfbfbf" points="342,-62 342,-81 386,-81 386,-62 342,-62"/>
<text text-anchor="middle" x="364" y="-69" font-family="Helvetica,sans-Serif" font-size="10.00">string</text>
</a>
</g>
</g>
<!-- Node1&#45;&gt;Node4 -->
<g id="edge3" class="edge">
<title>Node1&#45;&gt;Node4</title>
<path fill="none" stroke="midnightblue" d="M323.4,-187.27C260.12,-184.67 142.81,-173.16 181,-123 199.19,-99.11 284.2,-83.64 331.69,-76.71"/>
<polygon fill="midnightblue" stroke="midnightblue" points="332.37,-80.15 341.78,-75.29 331.39,-73.22 332.37,-80.15"/>
</g>
<!-- Node5 -->
<g id="node5" class="node">
<title>Node5</title>
<g id="a_node5"><a xlink:title=" ">
<polygon fill="none" stroke="#bfbfbf" points="190.5,-123.5 190.5,-142.5 237.5,-142.5 237.5,-123.5 190.5,-123.5"/>
<text text-anchor="middle" x="214" y="-130.5" font-family="Helvetica,sans-Serif" font-size="10.00">vector</text>
</a>
</g>
</g>
<!-- Node1&#45;&gt;Node5 -->
<g id="edge4" class="edge">
<title>Node1&#45;&gt;Node5</title>
<path fill="none" stroke="midnightblue" d="M337.71,-179.44C313.19,-170.44 274.4,-156.19 246.8,-146.05"/>
<polygon fill="midnightblue" stroke="midnightblue" points="247.78,-142.68 237.18,-142.52 245.36,-149.25 247.78,-142.68"/>
</g>
<!-- Node6 -->
<g id="node6" class="node">
<title>Node6</title>
<g id="a_node6"><a xlink:title=" ">
<polygon fill="none" stroke="#bfbfbf" points="256,-123.5 256,-142.5 360,-142.5 360,-123.5 256,-123.5"/>
<text text-anchor="middle" x="308" y="-130.5" font-family="Helvetica,sans-Serif" font-size="10.00">ext/stdio_filebuf.h</text>
</a>
</g>
</g>
<!-- Node1&#45;&gt;Node6 -->
<g id="edge5" class="edge">
<title>Node1&#45;&gt;Node6</title>
<path fill="none" stroke="midnightblue" d="M352.25,-179.08C344.53,-171.22 333.1,-159.57 323.78,-150.08"/>
<polygon fill="midnightblue" stroke="midnightblue" points="326.09,-147.44 316.59,-142.75 321.1,-152.34 326.09,-147.44"/>
</g>
<!-- Node7 -->
<g id="node7" class="node">
<title>Node7</title>
<g id="a_node7"><a xlink:title=" ">
<polygon fill="none" stroke="#bfbfbf" points="378,-123.5 378,-142.5 450,-142.5 450,-123.5 378,-123.5"/>
<text text-anchor="middle" x="414" y="-130.5" font-family="Helvetica,sans-Serif" font-size="10.00">sys/types.h</text>
</a>
</g>
</g>
<!-- Node1&#45;&gt;Node7 -->
<g id="edge6" class="edge">
<title>Node1&#45;&gt;Node7</title>
<path fill="none" stroke="midnightblue" d="M369.75,-179.08C377.47,-171.22 388.9,-159.57 398.22,-150.08"/>
<polygon fill="midnightblue" stroke="midnightblue" points="400.9,-152.34 405.41,-142.75 395.91,-147.44 400.9,-152.34"/>
</g>
<!-- Node8 -->
<g id="node8" class="node">
<title>Node8</title>
<g id="a_node8"><a xlink:title=" ">
<polygon fill="none" stroke="#bfbfbf" points="468,-123.5 468,-142.5 534,-142.5 534,-123.5 468,-123.5"/>
<text text-anchor="middle" x="501" y="-130.5" font-family="Helvetica,sans-Serif" font-size="10.00">sys/wait.h</text>
</a>
</g>
</g>
<!-- Node1&#45;&gt;Node8 -->
<g id="edge7" class="edge">
<title>Node1&#45;&gt;Node8</title>
<path fill="none" stroke="midnightblue" d="M383.18,-179.44C406.43,-170.48 443.15,-156.31 469.42,-146.18"/>
<polygon fill="midnightblue" stroke="midnightblue" points="470.85,-149.38 478.92,-142.52 468.33,-142.85 470.85,-149.38"/>
</g>
<!-- Node9 -->
<g id="node9" class="node">
<title>Node9</title>
<g id="a_node9"><a xlink:title=" ">
<polygon fill="none" stroke="#bfbfbf" points="552,-123.5 552,-142.5 608,-142.5 608,-123.5 552,-123.5"/>
<text text-anchor="middle" x="580" y="-130.5" font-family="Helvetica,sans-Serif" font-size="10.00">unistd.h</text>
</a>
</g>
</g>
<!-- Node1&#45;&gt;Node9 -->
<g id="edge8" class="edge">
<title>Node1&#45;&gt;Node9</title>
<path fill="none" stroke="midnightblue" d="M395.7,-179.44C435.51,-169.63 500.57,-153.59 541.79,-143.42"/>
<polygon fill="midnightblue" stroke="midnightblue" points="542.86,-146.76 551.73,-140.97 541.18,-139.97 542.86,-146.76"/>
</g>
<!-- Node10 -->
<g id="node10" class="node">
<title>Node10</title>
<g id="a_node10"><a xlink:href="exception_8hpp.html" target="_top" xlink:title=" ">
<polygon fill="none" stroke="black" points="626,-123.5 626,-142.5 774,-142.5 774,-123.5 626,-123.5"/>
<text text-anchor="middle" x="700" y="-130.5" font-family="Helvetica,sans-Serif" font-size="10.00">BoosterSeat/exception.hpp</text>
</a>
</g>
</g>
<!-- Node1&#45;&gt;Node10 -->
<g id="edge9" class="edge">
<title>Node1&#45;&gt;Node10</title>
<path fill="none" stroke="midnightblue" d="M398.57,-182.01C456,-172.87 566.3,-155.3 636.36,-144.14"/>
<polygon fill="midnightblue" stroke="midnightblue" points="637.07,-147.57 646.39,-142.54 635.97,-140.66 637.07,-147.57"/>
</g>
<!-- Node14 -->
<g id="node14" class="node">
<title>Node14</title>
<g id="a_node14"><a xlink:href="sleep_8hpp.html" target="_top" xlink:title=" ">
<polygon fill="none" stroke="black" points="792,-123.5 792,-142.5 918,-142.5 918,-123.5 792,-123.5"/>
<text text-anchor="middle" x="855" y="-130.5" font-family="Helvetica,sans-Serif" font-size="10.00">BoosterSeat/sleep.hpp</text>
</a>
</g>
</g>
<!-- Node1&#45;&gt;Node14 -->
<g id="edge14" class="edge">
<title>Node1&#45;&gt;Node14</title>
<path fill="none" stroke="midnightblue" d="M398.57,-184.22C470.66,-176.93 633.66,-160.2 781.62,-143.14"/>
<polygon fill="midnightblue" stroke="midnightblue" points="782.26,-146.59 791.79,-141.97 781.46,-139.64 782.26,-146.59"/>
</g>
<!-- Node10&#45;&gt;Node4 -->
<g id="edge13" class="edge">
<title>Node10&#45;&gt;Node4</title>
<path fill="none" stroke="midnightblue" d="M651.86,-123.48C582.19,-111.14 455.13,-88.64 395.94,-78.16"/>
<polygon fill="midnightblue" stroke="midnightblue" points="396.49,-74.7 386.04,-76.4 395.27,-81.59 396.49,-74.7"/>
</g>
<!-- Node11 -->
<g id="node11" class="node">
<title>Node11</title>
<g id="a_node11"><a xlink:href="template__tools_8hpp.html" target="_top" xlink:title=" ">
<polygon fill="none" stroke="black" points="566.5,-56.5 566.5,-86.5 689.5,-86.5 689.5,-56.5 566.5,-56.5"/>
<text text-anchor="start" x="574.5" y="-74.5" font-family="Helvetica,sans-Serif" font-size="10.00">BoosterSeat/template</text>
<text text-anchor="middle" x="628" y="-63.5" font-family="Helvetica,sans-Serif" font-size="10.00">_tools.hpp</text>
</a>
</g>
</g>
<!-- Node10&#45;&gt;Node11 -->
<g id="edge10" class="edge">
<title>Node10&#45;&gt;Node11</title>
<path fill="none" stroke="midnightblue" d="M689.68,-123.48C680.12,-115.57 665.49,-103.48 652.89,-93.07"/>
<polygon fill="midnightblue" stroke="midnightblue" points="654.91,-90.2 644.97,-86.52 650.45,-95.59 654.91,-90.2"/>
</g>
<!-- Node13 -->
<g id="node13" class="node">
<title>Node13</title>
<g id="a_node13"><a xlink:title=" ">
<polygon fill="none" stroke="#bfbfbf" points="707.5,-62 707.5,-81 772.5,-81 772.5,-62 707.5,-62"/>
<text text-anchor="middle" x="740" y="-69" font-family="Helvetica,sans-Serif" font-size="10.00">stdexcept</text>
</a>
</g>
</g>
<!-- Node10&#45;&gt;Node13 -->
<g id="edge12" class="edge">
<title>Node10&#45;&gt;Node13</title>
<path fill="none" stroke="midnightblue" d="M705.73,-123.48C711.67,-114.64 721.12,-100.59 728.59,-89.48"/>
<polygon fill="midnightblue" stroke="midnightblue" points="731.61,-91.26 734.28,-81.01 725.8,-87.36 731.61,-91.26"/>
</g>
<!-- Node12 -->
<g id="node12" class="node">
<title>Node12</title>
<g id="a_node12"><a xlink:title=" ">
<polygon fill="none" stroke="#bfbfbf" points="593.5,-0.5 593.5,-19.5 662.5,-19.5 662.5,-0.5 593.5,-0.5"/>
<text text-anchor="middle" x="628" y="-7.5" font-family="Helvetica,sans-Serif" font-size="10.00">type_traits</text>
</a>
</g>
</g>
<!-- Node11&#45;&gt;Node12 -->
<g id="edge11" class="edge">
<title>Node11&#45;&gt;Node12</title>
<path fill="none" stroke="midnightblue" d="M628,-56.4C628,-48.47 628,-38.46 628,-29.86"/>
<polygon fill="midnightblue" stroke="midnightblue" points="631.5,-29.66 628,-19.66 624.5,-29.66 631.5,-29.66"/>
</g>
<!-- Node15 -->
<g id="node15" class="node">
<title>Node15</title>
<g id="a_node15"><a xlink:title=" ">
<polygon fill="none" stroke="#bfbfbf" points="831,-62 831,-81 879,-81 879,-62 831,-62"/>
<text text-anchor="middle" x="855" y="-69" font-family="Helvetica,sans-Serif" font-size="10.00">thread</text>
</a>
</g>
</g>
<!-- Node14&#45;&gt;Node15 -->
<g id="edge15" class="edge">
<title>Node14&#45;&gt;Node15</title>
<path fill="none" stroke="midnightblue" d="M855,-123.48C855,-115.08 855,-101.98 855,-91.16"/>
<polygon fill="midnightblue" stroke="midnightblue" points="858.5,-91.01 855,-81.01 851.5,-91.01 858.5,-91.01"/>
</g>
</g>
</svg>
