<?xml version="1.0" encoding="UTF-8" standalone="no"?>
<!DOCTYPE svg PUBLIC "-//W3C//DTD SVG 1.1//EN"
 "http://www.w3.org/Graphics/SVG/1.1/DTD/svg11.dtd">
<!-- Generated by graphviz version 2.43.0 (0)
 -->
<!-- Title: random.cpp Pages: 1 -->
<svg width="163pt" height="140pt"
 viewBox="0.00 0.00 162.50 140.00" xmlns="http://www.w3.org/2000/svg" xmlns:xlink="http://www.w3.org/1999/xlink">
<g id="graph0" class="graph" transform="scale(1 1) rotate(0) translate(4 136)">
<title>random.cpp</title>
<!-- Node1 -->
<g id="node1" class="node">
<title>Node1</title>
<g id="a_node1"><a xlink:title="Implementation of the BoosterSeat random module.">
<polygon fill="#bfbfbf" stroke="black" points="0,-112.5 0,-131.5 74,-131.5 74,-112.5 0,-112.5"/>
<text text-anchor="middle" x="37" y="-119.5" font-family="Helvetica,sans-Serif" font-size="10.00">random.cpp</text>
</a>
</g>
</g>
<!-- Node2 -->
<g id="node2" class="node">
<title>Node2</title>
<g id="a_node2"><a xlink:title=" ">
<polygon fill="none" stroke="#bfbfbf" points="10,-0.5 10,-19.5 64,-19.5 64,-0.5 10,-0.5"/>
<text text-anchor="middle" x="37" y="-7.5" font-family="Helvetica,sans-Serif" font-size="10.00">random</text>
</a>
</g>
</g>
<!-- Node1&#45;&gt;Node2 -->
<g id="edge1" class="edge">
<title>Node1&#45;&gt;Node2</title>
<path fill="none" stroke="midnightblue" d="M28.83,-112.45C18.24,-100.28 1.79,-77.1 8,-56 11.01,-45.76 17.15,-35.66 23.01,-27.63"/>
<polygon fill="midnightblue" stroke="midnightblue" points="25.93,-29.58 29.33,-19.54 20.41,-25.27 25.93,-29.58"/>
</g>
<!-- Node3 -->
<g id="node3" class="node">
<title>Node3</title>
<g id="a_node3"><a xlink:href="random_8hpp.html" target="_top" xlink:title="The BoosterSeat random module.">
<polygon fill="none" stroke="black" points="17.5,-56.5 17.5,-75.5 154.5,-75.5 154.5,-56.5 17.5,-56.5"/>
<text text-anchor="middle" x="86" y="-63.5" font-family="Helvetica,sans-Serif" font-size="10.00">BoosterSeat/random.hpp</text>
</a>
</g>
</g>
<!-- Node1&#45;&gt;Node3 -->
<g id="edge2" class="edge">
<title>Node1&#45;&gt;Node3</title>
<path fill="none" stroke="midnightblue" d="M45.09,-112.08C52.16,-104.3 62.59,-92.8 71.15,-83.37"/>
<polygon fill="midnightblue" stroke="midnightblue" points="73.93,-85.51 78.06,-75.75 68.75,-80.8 73.93,-85.51"/>
</g>
<!-- Node3&#45;&gt;Node2 -->
<g id="edge3" class="edge">
<title>Node3&#45;&gt;Node2</title>
<path fill="none" stroke="midnightblue" d="M77.91,-56.08C70.84,-48.3 60.41,-36.8 51.85,-27.37"/>
<polygon fill="midnightblue" stroke="midnightblue" points="54.25,-24.8 44.94,-19.75 49.07,-29.51 54.25,-24.8"/>
</g>
</g>
</svg>
