<?xml version="1.0" encoding="UTF-8" standalone="no"?>
<!DOCTYPE svg PUBLIC "-//W3C//DTD SVG 1.1//EN"
 "http://www.w3.org/Graphics/SVG/1.1/DTD/svg11.dtd">
<!-- Generated by graphviz version 2.43.0 (0)
 -->
<!-- Title: rolling_average.hpp Pages: 1 -->
<svg width="276pt" height="84pt"
 viewBox="0.00 0.00 276.00 84.00" xmlns="http://www.w3.org/2000/svg" xmlns:xlink="http://www.w3.org/1999/xlink">
<g id="graph0" class="graph" transform="scale(1 1) rotate(0) translate(4 80)">
<title>rolling_average.hpp</title>
<!-- Node1 -->
<g id="node1" class="node">
<title>Node1</title>
<g id="a_node1"><a xlink:title=" ">
<polygon fill="#bfbfbf" stroke="black" points="71,-56.5 71,-75.5 184,-75.5 184,-56.5 71,-56.5"/>
<text text-anchor="middle" x="127.5" y="-63.5" font-family="Helvetica,sans-Serif" font-size="10.00">rolling_average.hpp</text>
</a>
</g>
</g>
<!-- Node2 -->
<g id="node2" class="node">
<title>Node2</title>
<g id="a_node2"><a xlink:href="rolling__average_8cpp.html" target="_top" xlink:title=" ">
<polygon fill="none" stroke="black" points="0,-0.5 0,-19.5 113,-19.5 113,-0.5 0,-0.5"/>
<text text-anchor="middle" x="56.5" y="-7.5" font-family="Helvetica,sans-Serif" font-size="10.00">rolling_average.cpp</text>
</a>
</g>
</g>
<!-- Node1&#45;&gt;Node2 -->
<g id="edge1" class="edge">
<title>Node1&#45;&gt;Node2</title>
<path fill="none" stroke="midnightblue" d="M107.91,-50.1C95.13,-40.38 78.89,-28.03 68.11,-19.83"/>
<polygon fill="midnightblue" stroke="midnightblue" points="106.01,-53.06 116.09,-56.32 110.25,-47.48 106.01,-53.06"/>
</g>
<!-- Node3 -->
<g id="node3" class="node">
<title>Node3</title>
<g id="a_node3"><a xlink:href="rolling__average__test_8cpp.html" target="_top" xlink:title=" ">
<polygon fill="none" stroke="black" points="131,-0.5 131,-19.5 268,-19.5 268,-0.5 131,-0.5"/>
<text text-anchor="middle" x="199.5" y="-7.5" font-family="Helvetica,sans-Serif" font-size="10.00">rolling_average_test.cpp</text>
</a>
</g>
</g>
<!-- Node1&#45;&gt;Node3 -->
<g id="edge2" class="edge">
<title>Node1&#45;&gt;Node3</title>
<path fill="none" stroke="midnightblue" d="M147.37,-50.1C160.32,-40.38 176.8,-28.03 187.72,-19.83"/>
<polygon fill="midnightblue" stroke="midnightblue" points="144.97,-47.52 139.07,-56.32 149.17,-53.12 144.97,-47.52"/>
</g>
</g>
</svg>
