<?xml version="1.0" encoding="UTF-8" standalone="no"?>
<!DOCTYPE svg PUBLIC "-//W3C//DTD SVG 1.1//EN"
 "http://www.w3.org/Graphics/SVG/1.1/DTD/svg11.dtd">
<!-- Generated by graphviz version 2.43.0 (0)
 -->
<!-- Title: rolling_average.cpp Pages: 1 -->
<svg width="126pt" height="151pt"
 viewBox="0.00 0.00 126.00 151.00" xmlns="http://www.w3.org/2000/svg" xmlns:xlink="http://www.w3.org/1999/xlink">
<g id="graph0" class="graph" transform="scale(1 1) rotate(0) translate(4 147)">
<title>rolling_average.cpp</title>
<!-- Node1 -->
<g id="node1" class="node">
<title>Node1</title>
<g id="a_node1"><a xlink:title=" ">
<polygon fill="#bfbfbf" stroke="black" points="4,-123.5 4,-142.5 117,-142.5 117,-123.5 4,-123.5"/>
<text text-anchor="middle" x="60.5" y="-130.5" font-family="Helvetica,sans-Serif" font-size="10.00">rolling_average.cpp</text>
</a>
</g>
</g>
<!-- Node2 -->
<g id="node2" class="node">
<title>Node2</title>
<g id="a_node2"><a xlink:href="rolling__average_8hpp.html" target="_top" xlink:title=" ">
<polygon fill="none" stroke="black" points="5.5,-56.5 5.5,-86.5 115.5,-86.5 115.5,-56.5 5.5,-56.5"/>
<text text-anchor="start" x="13.5" y="-74.5" font-family="Helvetica,sans-Serif" font-size="10.00">BoosterSeat/rolling</text>
<text text-anchor="middle" x="60.5" y="-63.5" font-family="Helvetica,sans-Serif" font-size="10.00">_average.hpp</text>
</a>
</g>
</g>
<!-- Node1&#45;&gt;Node2 -->
<g id="edge1" class="edge">
<title>Node1&#45;&gt;Node2</title>
<path fill="none" stroke="midnightblue" d="M60.5,-123.48C60.5,-116.47 60.5,-106.19 60.5,-96.7"/>
<polygon fill="midnightblue" stroke="midnightblue" points="64,-96.52 60.5,-86.52 57,-96.52 64,-96.52"/>
</g>
<!-- Node3 -->
<g id="node3" class="node">
<title>Node3</title>
<g id="a_node3"><a xlink:title=" ">
<polygon fill="none" stroke="#bfbfbf" points="0,-0.5 0,-19.5 53,-19.5 53,-0.5 0,-0.5"/>
<text text-anchor="middle" x="26.5" y="-7.5" font-family="Helvetica,sans-Serif" font-size="10.00">cstddef</text>
</a>
</g>
</g>
<!-- Node2&#45;&gt;Node3 -->
<g id="edge2" class="edge">
<title>Node2&#45;&gt;Node3</title>
<path fill="none" stroke="midnightblue" d="M52.44,-56.4C47.65,-48.02 41.54,-37.33 36.46,-28.42"/>
<polygon fill="midnightblue" stroke="midnightblue" points="39.45,-26.6 31.45,-19.66 33.37,-30.08 39.45,-26.6"/>
</g>
<!-- Node4 -->
<g id="node4" class="node">
<title>Node4</title>
<g id="a_node4"><a xlink:title=" ">
<polygon fill="none" stroke="#bfbfbf" points="71,-0.5 71,-19.5 118,-19.5 118,-0.5 71,-0.5"/>
<text text-anchor="middle" x="94.5" y="-7.5" font-family="Helvetica,sans-Serif" font-size="10.00">queue</text>
</a>
</g>
</g>
<!-- Node2&#45;&gt;Node4 -->
<g id="edge3" class="edge">
<title>Node2&#45;&gt;Node4</title>
<path fill="none" stroke="midnightblue" d="M68.56,-56.4C73.35,-48.02 79.46,-37.33 84.54,-28.42"/>
<polygon fill="midnightblue" stroke="midnightblue" points="87.63,-30.08 89.55,-19.66 81.55,-26.6 87.63,-30.08"/>
</g>
</g>
</svg>
