<?xml version="1.0" encoding="UTF-8" standalone="no"?>
<!DOCTYPE svg PUBLIC "-//W3C//DTD SVG 1.1//EN"
 "http://www.w3.org/Graphics/SVG/1.1/DTD/svg11.dtd">
<!-- Generated by graphviz version 2.43.0 (0)
 -->
<!-- Title: sleep.hpp Pages: 1 -->
<svg width="508pt" height="140pt"
 viewBox="0.00 0.00 507.50 140.00" xmlns="http://www.w3.org/2000/svg" xmlns:xlink="http://www.w3.org/1999/xlink">
<g id="graph0" class="graph" transform="scale(1 1) rotate(0) translate(4 136)">
<title>sleep.hpp</title>
<!-- Node1 -->
<g id="node1" class="node">
<title>Node1</title>
<g id="a_node1"><a xlink:title=" ">
<polygon fill="#bfbfbf" stroke="black" points="233,-112.5 233,-131.5 297,-131.5 297,-112.5 233,-112.5"/>
<text text-anchor="middle" x="265" y="-119.5" font-family="Helvetica,sans-Serif" font-size="10.00">sleep.hpp</text>
</a>
</g>
</g>
<!-- Node2 -->
<g id="node2" class="node">
<title>Node2</title>
<g id="a_node2"><a xlink:href="process_8hpp.html" target="_top" xlink:title="A class to handle linux process calls.">
<polygon fill="none" stroke="black" points="51.5,-56.5 51.5,-75.5 126.5,-75.5 126.5,-56.5 51.5,-56.5"/>
<text text-anchor="middle" x="89" y="-63.5" font-family="Helvetica,sans-Serif" font-size="10.00">process.hpp</text>
</a>
</g>
</g>
<!-- Node1&#45;&gt;Node2 -->
<g id="edge1" class="edge">
<title>Node1&#45;&gt;Node2</title>
<path fill="none" stroke="midnightblue" d="M227.31,-109.44C194.13,-99.26 146.57,-84.66 116.76,-75.52"/>
<polygon fill="midnightblue" stroke="midnightblue" points="226.53,-112.86 237.11,-112.44 228.58,-106.16 226.53,-112.86"/>
</g>
<!-- Node5 -->
<g id="node5" class="node">
<title>Node5</title>
<g id="a_node5"><a xlink:href="stopwatch__test_8cpp.html" target="_top" xlink:title=" ">
<polygon fill="none" stroke="black" points="144.5,-56.5 144.5,-75.5 255.5,-75.5 255.5,-56.5 144.5,-56.5"/>
<text text-anchor="middle" x="200" y="-63.5" font-family="Helvetica,sans-Serif" font-size="10.00">stopwatch_test.cpp</text>
</a>
</g>
</g>
<!-- Node1&#45;&gt;Node5 -->
<g id="edge4" class="edge">
<title>Node1&#45;&gt;Node5</title>
<path fill="none" stroke="midnightblue" d="M246.73,-105.82C235.08,-96.15 220.4,-83.95 210.63,-75.83"/>
<polygon fill="midnightblue" stroke="midnightblue" points="244.63,-108.63 254.56,-112.32 249.1,-103.24 244.63,-108.63"/>
</g>
<!-- Node6 -->
<g id="node6" class="node">
<title>Node6</title>
<g id="a_node6"><a xlink:href="time__class__test_8cpp.html" target="_top" xlink:title=" ">
<polygon fill="none" stroke="black" points="273.5,-56.5 273.5,-75.5 386.5,-75.5 386.5,-56.5 273.5,-56.5"/>
<text text-anchor="middle" x="330" y="-63.5" font-family="Helvetica,sans-Serif" font-size="10.00">time_class_test.cpp</text>
</a>
</g>
</g>
<!-- Node1&#45;&gt;Node6 -->
<g id="edge5" class="edge">
<title>Node1&#45;&gt;Node6</title>
<path fill="none" stroke="midnightblue" d="M283.27,-105.82C294.92,-96.15 309.6,-83.95 319.37,-75.83"/>
<polygon fill="midnightblue" stroke="midnightblue" points="280.9,-103.24 275.44,-112.32 285.37,-108.63 280.9,-103.24"/>
</g>
<!-- Node7 -->
<g id="node7" class="node">
<title>Node7</title>
<g id="a_node7"><a xlink:href="visual__tests_8cpp.html" target="_top" xlink:title=" ">
<polygon fill="none" stroke="black" points="404.5,-56.5 404.5,-75.5 499.5,-75.5 499.5,-56.5 404.5,-56.5"/>
<text text-anchor="middle" x="452" y="-63.5" font-family="Helvetica,sans-Serif" font-size="10.00">visual_tests.cpp</text>
</a>
</g>
</g>
<!-- Node1&#45;&gt;Node7 -->
<g id="edge6" class="edge">
<title>Node1&#45;&gt;Node7</title>
<path fill="none" stroke="midnightblue" d="M304.59,-109.57C339.87,-99.38 390.69,-84.7 422.51,-75.52"/>
<polygon fill="midnightblue" stroke="midnightblue" points="303.27,-106.31 294.63,-112.44 305.21,-113.03 303.27,-106.31"/>
</g>
<!-- Node3 -->
<g id="node3" class="node">
<title>Node3</title>
<g id="a_node3"><a xlink:href="process_8cpp.html" target="_top" xlink:title="Process class implementation.">
<polygon fill="none" stroke="black" points="0,-0.5 0,-19.5 74,-19.5 74,-0.5 0,-0.5"/>
<text text-anchor="middle" x="37" y="-7.5" font-family="Helvetica,sans-Serif" font-size="10.00">process.cpp</text>
</a>
</g>
</g>
<!-- Node2&#45;&gt;Node3 -->
<g id="edge2" class="edge">
<title>Node2&#45;&gt;Node3</title>
<path fill="none" stroke="midnightblue" d="M73.32,-48.72C64.16,-39.2 52.95,-27.56 45.43,-19.75"/>
<polygon fill="midnightblue" stroke="midnightblue" points="70.96,-51.31 80.41,-56.08 76,-46.45 70.96,-51.31"/>
</g>
<!-- Node4 -->
<g id="node4" class="node">
<title>Node4</title>
<g id="a_node4"><a xlink:href="process__test_8cpp.html" target="_top" xlink:title=" ">
<polygon fill="none" stroke="black" points="92,-0.5 92,-19.5 190,-19.5 190,-0.5 92,-0.5"/>
<text text-anchor="middle" x="141" y="-7.5" font-family="Helvetica,sans-Serif" font-size="10.00">process_test.cpp</text>
</a>
</g>
</g>
<!-- Node2&#45;&gt;Node4 -->
<g id="edge3" class="edge">
<title>Node2&#45;&gt;Node4</title>
<path fill="none" stroke="midnightblue" d="M104.68,-48.72C113.84,-39.2 125.05,-27.56 132.57,-19.75"/>
<polygon fill="midnightblue" stroke="midnightblue" points="102,-46.45 97.59,-56.08 107.04,-51.31 102,-46.45"/>
</g>
</g>
</svg>
