<?xml version="1.0" encoding="UTF-8" standalone="no"?>
<!DOCTYPE svg PUBLIC "-//W3C//DTD SVG 1.1//EN"
 "http://www.w3.org/Graphics/SVG/1.1/DTD/svg11.dtd">
<!-- Generated by graphviz version 2.43.0 (0)
 -->
<!-- Title: sleep.hpp Pages: 1 -->
<svg width="363pt" height="84pt"
 viewBox="0.00 0.00 363.00 84.00" xmlns="http://www.w3.org/2000/svg" xmlns:xlink="http://www.w3.org/1999/xlink">
<g id="graph0" class="graph" transform="scale(1 1) rotate(0) translate(4 80)">
<title>sleep.hpp</title>
<!-- Node1 -->
<g id="node1" class="node">
<title>Node1</title>
<g id="a_node1"><a xlink:title=" ">
<polygon fill="#bfbfbf" stroke="black" points="153.5,-56.5 153.5,-75.5 217.5,-75.5 217.5,-56.5 153.5,-56.5"/>
<text text-anchor="middle" x="185.5" y="-63.5" font-family="Helvetica,sans-Serif" font-size="10.00">sleep.hpp</text>
</a>
</g>
</g>
<!-- Node2 -->
<g id="node2" class="node">
<title>Node2</title>
<g id="a_node2"><a xlink:href="stopwatch__test_8cpp.html" target="_top" xlink:title=" ">
<polygon fill="none" stroke="black" points="0,-0.5 0,-19.5 111,-19.5 111,-0.5 0,-0.5"/>
<text text-anchor="middle" x="55.5" y="-7.5" font-family="Helvetica,sans-Serif" font-size="10.00">stopwatch_test.cpp</text>
</a>
</g>
</g>
<!-- Node1&#45;&gt;Node2 -->
<g id="edge1" class="edge">
<title>Node1&#45;&gt;Node2</title>
<path fill="none" stroke="midnightblue" d="M155.41,-52.5C131.04,-42.38 97.36,-28.39 76,-19.52"/>
<polygon fill="midnightblue" stroke="midnightblue" points="154.32,-55.84 164.9,-56.44 157.01,-49.38 154.32,-55.84"/>
</g>
<!-- Node3 -->
<g id="node3" class="node">
<title>Node3</title>
<g id="a_node3"><a xlink:href="time__class__test_8cpp.html" target="_top" xlink:title=" ">
<polygon fill="none" stroke="black" points="129,-0.5 129,-19.5 242,-19.5 242,-0.5 129,-0.5"/>
<text text-anchor="middle" x="185.5" y="-7.5" font-family="Helvetica,sans-Serif" font-size="10.00">time_class_test.cpp</text>
</a>
</g>
</g>
<!-- Node1&#45;&gt;Node3 -->
<g id="edge2" class="edge">
<title>Node1&#45;&gt;Node3</title>
<path fill="none" stroke="midnightblue" d="M185.5,-45.8C185.5,-36.91 185.5,-26.78 185.5,-19.75"/>
<polygon fill="midnightblue" stroke="midnightblue" points="182,-46.08 185.5,-56.08 189,-46.08 182,-46.08"/>
</g>
<!-- Node4 -->
<g id="node4" class="node">
<title>Node4</title>
<g id="a_node4"><a xlink:href="visual__tests_8cpp.html" target="_top" xlink:title=" ">
<polygon fill="none" stroke="black" points="260,-0.5 260,-19.5 355,-19.5 355,-0.5 260,-0.5"/>
<text text-anchor="middle" x="307.5" y="-7.5" font-family="Helvetica,sans-Serif" font-size="10.00">visual_tests.cpp</text>
</a>
</g>
</g>
<!-- Node1&#45;&gt;Node4 -->
<g id="edge3" class="edge">
<title>Node1&#45;&gt;Node4</title>
<path fill="none" stroke="midnightblue" d="M214.04,-52.37C236.89,-42.26 268.31,-28.35 288.26,-19.52"/>
<polygon fill="midnightblue" stroke="midnightblue" points="212.56,-49.2 204.83,-56.44 215.39,-55.6 212.56,-49.2"/>
</g>
</g>
</svg>
