<?xml version="1.0" encoding="UTF-8" standalone="no"?>
<!DOCTYPE svg PUBLIC "-//W3C//DTD SVG 1.1//EN"
 "http://www.w3.org/Graphics/SVG/1.1/DTD/svg11.dtd">
<!-- Generated by graphviz version 2.43.0 (0)
 -->
<!-- Title: stopwatch.cpp Pages: 1 -->
<svg width="345pt" height="263pt"
 viewBox="0.00 0.00 345.00 263.00" xmlns="http://www.w3.org/2000/svg" xmlns:xlink="http://www.w3.org/1999/xlink">
<g id="graph0" class="graph" transform="scale(1 1) rotate(0) translate(4 259)">
<title>stopwatch.cpp</title>
<!-- Node1 -->
<g id="node1" class="node">
<title>Node1</title>
<g id="a_node1"><a xlink:title=" ">
<polygon fill="#bfbfbf" stroke="black" points="89.5,-235.5 89.5,-254.5 176.5,-254.5 176.5,-235.5 89.5,-235.5"/>
<text text-anchor="middle" x="133" y="-242.5" font-family="Helvetica,sans-Serif" font-size="10.00">stopwatch.cpp</text>
</a>
</g>
</g>
<!-- Node2 -->
<g id="node2" class="node">
<title>Node2</title>
<g id="a_node2"><a xlink:href="stopwatch_8hpp.html" target="_top" xlink:title=" ">
<polygon fill="none" stroke="black" points="58,-179.5 58,-198.5 208,-198.5 208,-179.5 58,-179.5"/>
<text text-anchor="middle" x="133" y="-186.5" font-family="Helvetica,sans-Serif" font-size="10.00">BoosterSeat/stopwatch.hpp</text>
</a>
</g>
</g>
<!-- Node1&#45;&gt;Node2 -->
<g id="edge1" class="edge">
<title>Node1&#45;&gt;Node2</title>
<path fill="none" stroke="midnightblue" d="M133,-235.08C133,-228.01 133,-217.86 133,-208.99"/>
<polygon fill="midnightblue" stroke="midnightblue" points="136.5,-208.75 133,-198.75 129.5,-208.75 136.5,-208.75"/>
</g>
<!-- Node3 -->
<g id="node3" class="node">
<title>Node3</title>
<g id="a_node3"><a xlink:href="clock_8hpp.html" target="_top" xlink:title=" ">
<polygon fill="none" stroke="black" points="55.5,-123.5 55.5,-142.5 118.5,-142.5 118.5,-123.5 55.5,-123.5"/>
<text text-anchor="middle" x="87" y="-130.5" font-family="Helvetica,sans-Serif" font-size="10.00">clock.hpp</text>
</a>
</g>
</g>
<!-- Node2&#45;&gt;Node3 -->
<g id="edge2" class="edge">
<title>Node2&#45;&gt;Node3</title>
<path fill="none" stroke="midnightblue" d="M125.4,-179.08C118.77,-171.3 108.98,-159.8 100.94,-150.37"/>
<polygon fill="midnightblue" stroke="midnightblue" points="103.6,-148.09 94.45,-142.75 98.27,-152.63 103.6,-148.09"/>
</g>
<!-- Node5 -->
<g id="node5" class="node">
<title>Node5</title>
<g id="a_node5"><a xlink:href="exception_8hpp.html" target="_top" xlink:title=" ">
<polygon fill="none" stroke="black" points="143,-123.5 143,-142.5 229,-142.5 229,-123.5 143,-123.5"/>
<text text-anchor="middle" x="186" y="-130.5" font-family="Helvetica,sans-Serif" font-size="10.00">exception.hpp</text>
</a>
</g>
</g>
<!-- Node2&#45;&gt;Node5 -->
<g id="edge4" class="edge">
<title>Node2&#45;&gt;Node5</title>
<path fill="none" stroke="midnightblue" d="M141.75,-179.08C149.47,-171.22 160.9,-159.57 170.22,-150.08"/>
<polygon fill="midnightblue" stroke="midnightblue" points="172.9,-152.34 177.41,-142.75 167.91,-147.44 172.9,-152.34"/>
</g>
<!-- Node4 -->
<g id="node4" class="node">
<title>Node4</title>
<g id="a_node4"><a xlink:title=" ">
<polygon fill="none" stroke="#bfbfbf" points="0,-62 0,-81 50,-81 50,-62 0,-62"/>
<text text-anchor="middle" x="25" y="-69" font-family="Helvetica,sans-Serif" font-size="10.00">chrono</text>
</a>
</g>
</g>
<!-- Node3&#45;&gt;Node4 -->
<g id="edge3" class="edge">
<title>Node3&#45;&gt;Node4</title>
<path fill="none" stroke="midnightblue" d="M78.12,-123.48C68.54,-114.28 53.09,-99.46 41.31,-88.16"/>
<polygon fill="midnightblue" stroke="midnightblue" points="43.51,-85.41 33.87,-81.01 38.66,-90.46 43.51,-85.41"/>
</g>
<!-- Node6 -->
<g id="node6" class="node">
<title>Node6</title>
<g id="a_node6"><a xlink:href="template__tools_8hpp.html" target="_top" xlink:title=" ">
<polygon fill="none" stroke="black" points="68.5,-56.5 68.5,-86.5 191.5,-86.5 191.5,-56.5 68.5,-56.5"/>
<text text-anchor="start" x="76.5" y="-74.5" font-family="Helvetica,sans-Serif" font-size="10.00">BoosterSeat/template</text>
<text text-anchor="middle" x="130" y="-63.5" font-family="Helvetica,sans-Serif" font-size="10.00">_tools.hpp</text>
</a>
</g>
</g>
<!-- Node5&#45;&gt;Node6 -->
<g id="edge5" class="edge">
<title>Node5&#45;&gt;Node6</title>
<path fill="none" stroke="midnightblue" d="M177.98,-123.48C170.75,-115.79 159.81,-104.17 150.2,-93.96"/>
<polygon fill="midnightblue" stroke="midnightblue" points="152.6,-91.41 143.2,-86.52 147.5,-96.2 152.6,-91.41"/>
</g>
<!-- Node8 -->
<g id="node8" class="node">
<title>Node8</title>
<g id="a_node8"><a xlink:title=" ">
<polygon fill="none" stroke="#bfbfbf" points="209.5,-62 209.5,-81 274.5,-81 274.5,-62 209.5,-62"/>
<text text-anchor="middle" x="242" y="-69" font-family="Helvetica,sans-Serif" font-size="10.00">stdexcept</text>
</a>
</g>
</g>
<!-- Node5&#45;&gt;Node8 -->
<g id="edge7" class="edge">
<title>Node5&#45;&gt;Node8</title>
<path fill="none" stroke="midnightblue" d="M194.02,-123.48C202.59,-114.37 216.36,-99.74 226.96,-88.48"/>
<polygon fill="midnightblue" stroke="midnightblue" points="229.69,-90.69 233.99,-81.01 224.59,-85.89 229.69,-90.69"/>
</g>
<!-- Node9 -->
<g id="node9" class="node">
<title>Node9</title>
<g id="a_node9"><a xlink:title=" ">
<polygon fill="none" stroke="#bfbfbf" points="293,-62 293,-81 337,-81 337,-62 293,-62"/>
<text text-anchor="middle" x="315" y="-69" font-family="Helvetica,sans-Serif" font-size="10.00">string</text>
</a>
</g>
</g>
<!-- Node5&#45;&gt;Node9 -->
<g id="edge8" class="edge">
<title>Node5&#45;&gt;Node9</title>
<path fill="none" stroke="midnightblue" d="M204.81,-123.41C224.55,-114.39 256.48,-99.75 284,-87 285.15,-86.47 286.33,-85.92 287.52,-85.37"/>
<polygon fill="midnightblue" stroke="midnightblue" points="289.07,-88.51 296.65,-81.11 286.11,-82.16 289.07,-88.51"/>
</g>
<!-- Node7 -->
<g id="node7" class="node">
<title>Node7</title>
<g id="a_node7"><a xlink:title=" ">
<polygon fill="none" stroke="#bfbfbf" points="95.5,-0.5 95.5,-19.5 164.5,-19.5 164.5,-0.5 95.5,-0.5"/>
<text text-anchor="middle" x="130" y="-7.5" font-family="Helvetica,sans-Serif" font-size="10.00">type_traits</text>
</a>
</g>
</g>
<!-- Node6&#45;&gt;Node7 -->
<g id="edge6" class="edge">
<title>Node6&#45;&gt;Node7</title>
<path fill="none" stroke="midnightblue" d="M130,-56.4C130,-48.47 130,-38.46 130,-29.86"/>
<polygon fill="midnightblue" stroke="midnightblue" points="133.5,-29.66 130,-19.66 126.5,-29.66 133.5,-29.66"/>
</g>
</g>
</svg>
