<?xml version="1.0" encoding="UTF-8" standalone="no"?>
<!DOCTYPE svg PUBLIC "-//W3C//DTD SVG 1.1//EN"
 "http://www.w3.org/Graphics/SVG/1.1/DTD/svg11.dtd">
<!-- Generated by graphviz version 2.43.0 (0)
 -->
<!-- Title: align_cases Pages: 1 -->
<svg width="308pt" height="137pt"
 viewBox="0.00 0.00 308.00 137.00" xmlns="http://www.w3.org/2000/svg" xmlns:xlink="http://www.w3.org/1999/xlink">
<g id="graph0" class="graph" transform="scale(1 1) rotate(0) translate(4 133)">
<title>align_cases</title>
<!-- Node1 -->
<g id="node1" class="node">
<title>Node1</title>
<g id="a_node1"><a xlink:title=" ">
<polygon fill="#bfbfbf" stroke="black" points="226,-55 226,-74 300,-74 300,-55 226,-55"/>
<text text-anchor="middle" x="263" y="-62" font-family="Helvetica,sans-Serif" font-size="10.00">align_cases</text>
</a>
</g>
</g>
<!-- Node2 -->
<g id="node2" class="node">
<title>Node2</title>
<g id="a_node2"><a xlink:href="namespaceBoosterSeat_1_1layout.html#a6535477b7d2780e6177317d2f3b136af" target="_top" xlink:title=" ">
<polygon fill="none" stroke="black" points="77,-98.5 77,-128.5 190,-128.5 190,-98.5 77,-98.5"/>
<text text-anchor="start" x="85" y="-116.5" font-family="Helvetica,sans-Serif" font-size="10.00">BoosterSeat::layout</text>
<text text-anchor="middle" x="133.5" y="-105.5" font-family="Helvetica,sans-Serif" font-size="10.00">::fixedWidthRow</text>
</a>
</g>
</g>
<!-- Node1&#45;&gt;Node2 -->
<g id="edge1" class="edge">
<title>Node1&#45;&gt;Node2</title>
<path fill="none" stroke="midnightblue" d="M227.78,-77.65C211.17,-84.04 191.12,-91.74 173.88,-98.37"/>
<polygon fill="midnightblue" stroke="midnightblue" points="229.04,-80.92 237.11,-74.06 226.52,-74.38 229.04,-80.92"/>
</g>
<!-- Node4 -->
<g id="node4" class="node">
<title>Node4</title>
<g id="a_node4"><a xlink:href="namespaceBoosterSeat_1_1layout.html#a9b40e3e52059446900312459be344c30" target="_top" xlink:title=" ">
<polygon fill="none" stroke="black" points="77,-49.5 77,-79.5 190,-79.5 190,-49.5 77,-49.5"/>
<text text-anchor="start" x="85" y="-67.5" font-family="Helvetica,sans-Serif" font-size="10.00">BoosterSeat::layout</text>
<text text-anchor="middle" x="133.5" y="-56.5" font-family="Helvetica,sans-Serif" font-size="10.00">::fixedWidthString</text>
</a>
</g>
</g>
<!-- Node1&#45;&gt;Node4 -->
<g id="edge3" class="edge">
<title>Node1&#45;&gt;Node4</title>
<path fill="none" stroke="midnightblue" d="M215.65,-64.5C207.43,-64.5 198.78,-64.5 190.32,-64.5"/>
<polygon fill="midnightblue" stroke="midnightblue" points="215.8,-68 225.8,-64.5 215.8,-61 215.8,-68"/>
</g>
<!-- Node5 -->
<g id="node5" class="node">
<title>Node5</title>
<g id="a_node5"><a xlink:href="namespaceBoosterSeat_1_1layout.html#a33e10c3c7ce953945cd88d1f94504f1c" target="_top" xlink:title=" ">
<polygon fill="none" stroke="black" points="77,-0.5 77,-30.5 190,-30.5 190,-0.5 77,-0.5"/>
<text text-anchor="start" x="85" y="-18.5" font-family="Helvetica,sans-Serif" font-size="10.00">BoosterSeat::layout</text>
<text text-anchor="middle" x="133.5" y="-7.5" font-family="Helvetica,sans-Serif" font-size="10.00">::simpleColumns</text>
</a>
</g>
</g>
<!-- Node1&#45;&gt;Node5 -->
<g id="edge5" class="edge">
<title>Node1&#45;&gt;Node5</title>
<path fill="none" stroke="midnightblue" d="M227.78,-51.35C211.17,-44.96 191.12,-37.26 173.88,-30.63"/>
<polygon fill="midnightblue" stroke="midnightblue" points="226.52,-54.62 237.11,-54.94 229.04,-48.08 226.52,-54.62"/>
</g>
<!-- Node3 -->
<g id="node3" class="node">
<title>Node3</title>
<g id="a_node3"><a xlink:href="visual__tests_8cpp.html#ae66f6b31b5ad750f1fe042a706a4e3d4" target="_top" xlink:title=" ">
<polygon fill="none" stroke="black" points="0,-55 0,-74 41,-74 41,-55 0,-55"/>
<text text-anchor="middle" x="20.5" y="-62" font-family="Helvetica,sans-Serif" font-size="10.00">main</text>
</a>
</g>
</g>
<!-- Node2&#45;&gt;Node3 -->
<g id="edge2" class="edge">
<title>Node2&#45;&gt;Node3</title>
<path fill="none" stroke="midnightblue" d="M88.16,-94.4C84.39,-92.75 80.62,-91.1 77,-89.5 65.11,-84.25 51.83,-78.27 41.25,-73.48"/>
<polygon fill="midnightblue" stroke="midnightblue" points="86.96,-97.69 97.53,-98.47 89.76,-91.27 86.96,-97.69"/>
</g>
<!-- Node4&#45;&gt;Node3 -->
<g id="edge4" class="edge">
<title>Node4&#45;&gt;Node3</title>
<path fill="none" stroke="midnightblue" d="M66.58,-64.5C57.37,-64.5 48.56,-64.5 41.21,-64.5"/>
<polygon fill="midnightblue" stroke="midnightblue" points="66.67,-68 76.67,-64.5 66.67,-61 66.67,-68"/>
</g>
<!-- Node5&#45;&gt;Node3 -->
<g id="edge6" class="edge">
<title>Node5&#45;&gt;Node3</title>
<path fill="none" stroke="midnightblue" d="M88.81,-34.79C72.35,-42.05 54.43,-49.96 41.22,-55.79"/>
<polygon fill="midnightblue" stroke="midnightblue" points="90.56,-37.84 98.29,-30.6 87.73,-31.44 90.56,-37.84"/>
</g>
</g>
</svg>
