<?xml version="1.0" encoding="UTF-8" standalone="no"?>
<!DOCTYPE svg PUBLIC "-//W3C//DTD SVG 1.1//EN"
 "http://www.w3.org/Graphics/SVG/1.1/DTD/svg11.dtd">
<!-- Generated by graphviz version 2.43.0 (0)
 -->
<!-- Title: align_cases Pages: 1 -->
<svg width="350pt" height="104pt"
 viewBox="0.00 0.00 350.00 104.00" xmlns="http://www.w3.org/2000/svg" xmlns:xlink="http://www.w3.org/1999/xlink">
<g id="graph0" class="graph" transform="scale(1 1) rotate(0) translate(4 100)">
<title>align_cases</title>
<!-- Node1 -->
<g id="node1" class="node">
<title>Node1</title>
<g id="a_node1"><a xlink:title=" ">
<polygon fill="#bfbfbf" stroke="black" points="268,-38.5 268,-57.5 342,-57.5 342,-38.5 268,-38.5"/>
<text text-anchor="middle" x="305" y="-45.5" font-family="Helvetica,sans-Serif" font-size="10.00">align_cases</text>
</a>
</g>
</g>
<!-- Node2 -->
<g id="node2" class="node">
<title>Node2</title>
<g id="a_node2"><a xlink:href="namespacebst_1_1layout.html#af6e9ecdffe95b2f2dc8d345815f11fb0" target="_top" xlink:title=" ">
<polygon fill="none" stroke="black" points="81,-76.5 81,-95.5 228,-95.5 228,-76.5 81,-76.5"/>
<text text-anchor="middle" x="154.5" y="-83.5" font-family="Helvetica,sans-Serif" font-size="10.00">bst::layout::fixedWidthRow</text>
</a>
</g>
</g>
<!-- Node1&#45;&gt;Node2 -->
<g id="edge1" class="edge">
<title>Node1&#45;&gt;Node2</title>
<path fill="none" stroke="midnightblue" d="M258.43,-60.13C249.67,-62.44 240.55,-64.81 232,-67 219.8,-70.12 206.49,-73.46 194.45,-76.44"/>
<polygon fill="midnightblue" stroke="midnightblue" points="259.36,-63.51 268.14,-57.57 257.57,-56.74 259.36,-63.51"/>
</g>
<!-- Node4 -->
<g id="node4" class="node">
<title>Node4</title>
<g id="a_node4"><a xlink:href="namespacebst_1_1layout.html#ad47d39eda077c92a5e55b41e00044aa2" target="_top" xlink:title=" ">
<polygon fill="none" stroke="black" points="77,-38.5 77,-57.5 232,-57.5 232,-38.5 77,-38.5"/>
<text text-anchor="middle" x="154.5" y="-45.5" font-family="Helvetica,sans-Serif" font-size="10.00">bst::layout::fixedWidthString</text>
</a>
</g>
</g>
<!-- Node1&#45;&gt;Node4 -->
<g id="edge3" class="edge">
<title>Node1&#45;&gt;Node4</title>
<path fill="none" stroke="midnightblue" d="M257.41,-48C249.36,-48 240.79,-48 232.19,-48"/>
<polygon fill="midnightblue" stroke="midnightblue" points="257.67,-51.5 267.67,-48 257.67,-44.5 257.67,-51.5"/>
</g>
<!-- Node5 -->
<g id="node5" class="node">
<title>Node5</title>
<g id="a_node5"><a xlink:href="namespacebst_1_1layout.html#a942788f8e16fa4f5bb3d362831899c34" target="_top" xlink:title=" ">
<polygon fill="none" stroke="black" points="79.5,-0.5 79.5,-19.5 229.5,-19.5 229.5,-0.5 79.5,-0.5"/>
<text text-anchor="middle" x="154.5" y="-7.5" font-family="Helvetica,sans-Serif" font-size="10.00">bst::layout::simpleColumns</text>
</a>
</g>
</g>
<!-- Node1&#45;&gt;Node5 -->
<g id="edge5" class="edge">
<title>Node1&#45;&gt;Node5</title>
<path fill="none" stroke="midnightblue" d="M258.43,-35.87C249.67,-33.56 240.55,-31.19 232,-29 219.8,-25.88 206.49,-22.54 194.45,-19.56"/>
<polygon fill="midnightblue" stroke="midnightblue" points="257.57,-39.26 268.14,-38.43 259.36,-32.49 257.57,-39.26"/>
</g>
<!-- Node3 -->
<g id="node3" class="node">
<title>Node3</title>
<g id="a_node3"><a xlink:href="visual__tests_8cpp.html#ae66f6b31b5ad750f1fe042a706a4e3d4" target="_top" xlink:title=" ">
<polygon fill="none" stroke="black" points="0,-38.5 0,-57.5 41,-57.5 41,-38.5 0,-38.5"/>
<text text-anchor="middle" x="20.5" y="-45.5" font-family="Helvetica,sans-Serif" font-size="10.00">main</text>
</a>
</g>
</g>
<!-- Node2&#45;&gt;Node3 -->
<g id="edge2" class="edge">
<title>Node2&#45;&gt;Node3</title>
<path fill="none" stroke="midnightblue" d="M102.53,-73.99C93.97,-71.79 85.21,-69.42 77,-67 64.98,-63.46 51.7,-58.93 41.15,-55.19"/>
<polygon fill="midnightblue" stroke="midnightblue" points="101.88,-77.44 112.43,-76.49 103.59,-70.65 101.88,-77.44"/>
</g>
<!-- Node4&#45;&gt;Node3 -->
<g id="edge4" class="edge">
<title>Node4&#45;&gt;Node3</title>
<path fill="none" stroke="midnightblue" d="M66.69,-48C57.26,-48 48.46,-48 41.17,-48"/>
<polygon fill="midnightblue" stroke="midnightblue" points="66.72,-51.5 76.72,-48 66.72,-44.5 66.72,-51.5"/>
</g>
<!-- Node5&#45;&gt;Node3 -->
<g id="edge6" class="edge">
<title>Node5&#45;&gt;Node3</title>
<path fill="none" stroke="midnightblue" d="M102.53,-22.01C93.97,-24.21 85.21,-26.58 77,-29 64.98,-32.54 51.7,-37.07 41.15,-40.81"/>
<polygon fill="midnightblue" stroke="midnightblue" points="103.59,-25.35 112.43,-19.51 101.88,-18.56 103.59,-25.35"/>
</g>
</g>
</svg>
