<?xml version="1.0" encoding="UTF-8" standalone="no"?>
<!DOCTYPE svg PUBLIC "-//W3C//DTD SVG 1.1//EN"
 "http://www.w3.org/Graphics/SVG/1.1/DTD/svg11.dtd">
<!-- Generated by graphviz version 2.43.0 (0)
 -->
<!-- Title: string_format.cpp Pages: 1 -->
<svg width="527pt" height="218pt"
 viewBox="0.00 0.00 526.50 218.00" xmlns="http://www.w3.org/2000/svg" xmlns:xlink="http://www.w3.org/1999/xlink">
<g id="graph0" class="graph" transform="scale(1 1) rotate(0) translate(4 214)">
<title>string_format.cpp</title>
<!-- Node1 -->
<g id="node1" class="node">
<title>Node1</title>
<g id="a_node1"><a xlink:title=" ">
<polygon fill="#bfbfbf" stroke="black" points="315,-190.5 315,-209.5 418,-209.5 418,-190.5 315,-190.5"/>
<text text-anchor="middle" x="366.5" y="-197.5" font-family="Helvetica,sans-Serif" font-size="10.00">string_format.cpp</text>
</a>
</g>
</g>
<!-- Node2 -->
<g id="node2" class="node">
<title>Node2</title>
<g id="a_node2"><a xlink:href="exception_8hpp.html" target="_top" xlink:title=" ">
<polygon fill="none" stroke="black" points="96.5,-129 96.5,-148 244.5,-148 244.5,-129 96.5,-129"/>
<text text-anchor="middle" x="170.5" y="-136" font-family="Helvetica,sans-Serif" font-size="10.00">BoosterSeat/exception.hpp</text>
</a>
</g>
</g>
<!-- Node1&#45;&gt;Node2 -->
<g id="edge1" class="edge">
<title>Node1&#45;&gt;Node2</title>
<path fill="none" stroke="midnightblue" d="M338.42,-190.48C304.21,-180.09 246.3,-162.51 208.23,-150.95"/>
<polygon fill="midnightblue" stroke="midnightblue" points="209.12,-147.56 198.53,-148.01 207.08,-154.26 209.12,-147.56"/>
</g>
<!-- Node7 -->
<g id="node7" class="node">
<title>Node7</title>
<g id="a_node7"><a xlink:href="string__formatting_8hpp.html" target="_top" xlink:title=" ">
<polygon fill="none" stroke="black" points="263,-123.5 263,-153.5 370,-153.5 370,-123.5 263,-123.5"/>
<text text-anchor="start" x="271" y="-141.5" font-family="Helvetica,sans-Serif" font-size="10.00">BoosterSeat/string</text>
<text text-anchor="middle" x="316.5" y="-130.5" font-family="Helvetica,sans-Serif" font-size="10.00">_formatting.hpp</text>
</a>
</g>
</g>
<!-- Node1&#45;&gt;Node7 -->
<g id="edge6" class="edge">
<title>Node1&#45;&gt;Node7</title>
<path fill="none" stroke="midnightblue" d="M359.34,-190.48C352.94,-182.87 343.31,-171.4 334.79,-161.26"/>
<polygon fill="midnightblue" stroke="midnightblue" points="337.4,-158.93 328.28,-153.52 332.04,-163.43 337.4,-158.93"/>
</g>
<!-- Node9 -->
<g id="node9" class="node">
<title>Node9</title>
<g id="a_node9"><a xlink:title=" ">
<polygon fill="none" stroke="#bfbfbf" points="388.5,-129 388.5,-148 444.5,-148 444.5,-129 388.5,-129"/>
<text text-anchor="middle" x="416.5" y="-136" font-family="Helvetica,sans-Serif" font-size="10.00">iomanip</text>
</a>
</g>
</g>
<!-- Node1&#45;&gt;Node9 -->
<g id="edge9" class="edge">
<title>Node1&#45;&gt;Node9</title>
<path fill="none" stroke="midnightblue" d="M373.66,-190.48C381.24,-181.46 393.37,-167.02 402.79,-155.81"/>
<polygon fill="midnightblue" stroke="midnightblue" points="405.6,-157.92 409.35,-148.01 400.24,-153.41 405.6,-157.92"/>
</g>
<!-- Node10 -->
<g id="node10" class="node">
<title>Node10</title>
<g id="a_node10"><a xlink:title=" ">
<polygon fill="none" stroke="#bfbfbf" points="462.5,-129 462.5,-148 518.5,-148 518.5,-129 462.5,-129"/>
<text text-anchor="middle" x="490.5" y="-136" font-family="Helvetica,sans-Serif" font-size="10.00">sstream</text>
</a>
</g>
</g>
<!-- Node1&#45;&gt;Node10 -->
<g id="edge10" class="edge">
<title>Node1&#45;&gt;Node10</title>
<path fill="none" stroke="midnightblue" d="M384.27,-190.48C404.98,-180.53 439.45,-163.99 463.49,-152.46"/>
<polygon fill="midnightblue" stroke="midnightblue" points="465.27,-155.49 472.77,-148.01 462.24,-149.18 465.27,-155.49"/>
</g>
<!-- Node3 -->
<g id="node3" class="node">
<title>Node3</title>
<g id="a_node3"><a xlink:href="template__tools_8hpp.html" target="_top" xlink:title=" ">
<polygon fill="none" stroke="black" points="0,-56.5 0,-86.5 123,-86.5 123,-56.5 0,-56.5"/>
<text text-anchor="start" x="8" y="-74.5" font-family="Helvetica,sans-Serif" font-size="10.00">BoosterSeat/template</text>
<text text-anchor="middle" x="61.5" y="-63.5" font-family="Helvetica,sans-Serif" font-size="10.00">_tools.hpp</text>
</a>
</g>
</g>
<!-- Node2&#45;&gt;Node3 -->
<g id="edge2" class="edge">
<title>Node2&#45;&gt;Node3</title>
<path fill="none" stroke="midnightblue" d="M155.8,-128.73C140.01,-119.32 114.41,-104.05 93.87,-91.8"/>
<polygon fill="midnightblue" stroke="midnightblue" points="95.51,-88.7 85.13,-86.59 91.92,-94.72 95.51,-88.7"/>
</g>
<!-- Node5 -->
<g id="node5" class="node">
<title>Node5</title>
<g id="a_node5"><a xlink:title=" ">
<polygon fill="none" stroke="#bfbfbf" points="141,-62 141,-81 206,-81 206,-62 141,-62"/>
<text text-anchor="middle" x="173.5" y="-69" font-family="Helvetica,sans-Serif" font-size="10.00">stdexcept</text>
</a>
</g>
</g>
<!-- Node2&#45;&gt;Node5 -->
<g id="edge4" class="edge">
<title>Node2&#45;&gt;Node5</title>
<path fill="none" stroke="midnightblue" d="M170.9,-128.73C171.35,-119.18 172.06,-103.62 172.63,-91.28"/>
<polygon fill="midnightblue" stroke="midnightblue" points="176.14,-91.28 173.1,-81.13 169.14,-90.96 176.14,-91.28"/>
</g>
<!-- Node6 -->
<g id="node6" class="node">
<title>Node6</title>
<g id="a_node6"><a xlink:title=" ">
<polygon fill="none" stroke="#bfbfbf" points="228.5,-62 228.5,-81 272.5,-81 272.5,-62 228.5,-62"/>
<text text-anchor="middle" x="250.5" y="-69" font-family="Helvetica,sans-Serif" font-size="10.00">string</text>
</a>
</g>
</g>
<!-- Node2&#45;&gt;Node6 -->
<g id="edge5" class="edge">
<title>Node2&#45;&gt;Node6</title>
<path fill="none" stroke="midnightblue" d="M181.29,-128.73C194.24,-118.21 216.19,-100.38 231.89,-87.62"/>
<polygon fill="midnightblue" stroke="midnightblue" points="234.33,-90.15 239.88,-81.13 229.91,-84.72 234.33,-90.15"/>
</g>
<!-- Node4 -->
<g id="node4" class="node">
<title>Node4</title>
<g id="a_node4"><a xlink:title=" ">
<polygon fill="none" stroke="#bfbfbf" points="27,-0.5 27,-19.5 96,-19.5 96,-0.5 27,-0.5"/>
<text text-anchor="middle" x="61.5" y="-7.5" font-family="Helvetica,sans-Serif" font-size="10.00">type_traits</text>
</a>
</g>
</g>
<!-- Node3&#45;&gt;Node4 -->
<g id="edge3" class="edge">
<title>Node3&#45;&gt;Node4</title>
<path fill="none" stroke="midnightblue" d="M61.5,-56.4C61.5,-48.47 61.5,-38.46 61.5,-29.86"/>
<polygon fill="midnightblue" stroke="midnightblue" points="65,-29.66 61.5,-19.66 58,-29.66 65,-29.66"/>
</g>
<!-- Node7&#45;&gt;Node6 -->
<g id="edge7" class="edge">
<title>Node7&#45;&gt;Node6</title>
<path fill="none" stroke="midnightblue" d="M302.18,-123.4C291.68,-113.06 277.43,-99.02 266.55,-88.31"/>
<polygon fill="midnightblue" stroke="midnightblue" points="268.91,-85.72 259.33,-81.19 264,-90.71 268.91,-85.72"/>
</g>
<!-- Node8 -->
<g id="node8" class="node">
<title>Node8</title>
<g id="a_node8"><a xlink:title=" ">
<polygon fill="none" stroke="#bfbfbf" points="293,-62 293,-81 340,-81 340,-62 293,-62"/>
<text text-anchor="middle" x="316.5" y="-69" font-family="Helvetica,sans-Serif" font-size="10.00">vector</text>
</a>
</g>
</g>
<!-- Node7&#45;&gt;Node8 -->
<g id="edge8" class="edge">
<title>Node7&#45;&gt;Node8</title>
<path fill="none" stroke="midnightblue" d="M316.5,-123.4C316.5,-114.06 316.5,-101.71 316.5,-91.52"/>
<polygon fill="midnightblue" stroke="midnightblue" points="320,-91.19 316.5,-81.19 313,-91.19 320,-91.19"/>
</g>
</g>
</svg>
