<?xml version="1.0" encoding="UTF-8" standalone="no"?>
<!DOCTYPE svg PUBLIC "-//W3C//DTD SVG 1.1//EN"
 "http://www.w3.org/Graphics/SVG/1.1/DTD/svg11.dtd">
<!-- Generated by graphviz version 2.43.0 (0)
 -->
<!-- Title: bst::raii_char_str Pages: 1 -->
<svg width="117pt" height="182pt"
 viewBox="0.00 0.00 117.00 182.00" xmlns="http://www.w3.org/2000/svg" xmlns:xlink="http://www.w3.org/1999/xlink">
<g id="graph0" class="graph" transform="scale(1 1) rotate(0) translate(4 178)">
<title>bst::raii_char_str</title>
<!-- Node1 -->
<g id="node1" class="node">
<title>Node1</title>
<g id="a_node1"><a xlink:title=" ">
<polygon fill="#bfbfbf" stroke="black" points="0,-0.5 0,-68.5 109,-68.5 109,-0.5 0,-0.5"/>
<text text-anchor="middle" x="54.5" y="-56.5" font-family="Helvetica,sans-Serif" font-size="10.00">bst::raii_char_str</text>
<polyline fill="none" stroke="black" points="0,-49.5 109,-49.5 "/>
<text text-anchor="middle" x="54.5" y="-37.5" font-family="Helvetica,sans-Serif" font-size="10.00"> </text>
<polyline fill="none" stroke="black" points="0,-30.5 109,-30.5 "/>
<text text-anchor="start" x="8" y="-18.5" font-family="Helvetica,sans-Serif" font-size="10.00">+ raii_char_str()</text>
<text text-anchor="start" x="8" y="-7.5" font-family="Helvetica,sans-Serif" font-size="10.00">+ operator char *()</text>
</a>
</g>
</g>
<!-- Node2 -->
<g id="node2" class="node">
<title>Node2</title>
<g id="a_node2"><a xlink:title=" ">
<polygon fill="none" stroke="#bfbfbf" points="9,-116.5 9,-173.5 100,-173.5 100,-116.5 9,-116.5"/>
<text text-anchor="middle" x="54.5" y="-161.5" font-family="Helvetica,sans-Serif" font-size="10.00">vector&lt; char &gt;</text>
<polyline fill="none" stroke="#bfbfbf" points="9,-154.5 100,-154.5 "/>
<text text-anchor="middle" x="54.5" y="-142.5" font-family="Helvetica,sans-Serif" font-size="10.00"> </text>
<polyline fill="none" stroke="#bfbfbf" points="9,-135.5 100,-135.5 "/>
<text text-anchor="middle" x="54.5" y="-123.5" font-family="Helvetica,sans-Serif" font-size="10.00"> </text>
</a>
</g>
</g>
<!-- Node2&#45;&gt;Node1 -->
<g id="edge1" class="edge">
<title>Node2&#45;&gt;Node1</title>
<path fill="none" stroke="#404040" d="M54.5,-116.34C54.5,-105.53 54.5,-92.85 54.5,-80.77"/>
<polygon fill="none" stroke="#404040" points="54.5,-80.52 50.5,-74.52 54.5,-68.52 58.5,-74.52 54.5,-80.52"/>
<text text-anchor="middle" x="68.5" y="-90" font-family="Helvetica,sans-Serif" font-size="10.00"> +buf</text>
</g>
</g>
</svg>
