<?xml version="1.0" encoding="UTF-8" standalone="no"?>
<!DOCTYPE svg PUBLIC "-//W3C//DTD SVG 1.1//EN"
 "http://www.w3.org/Graphics/SVG/1.1/DTD/svg11.dtd">
<!-- Generated by graphviz version 2.43.0 (0)
 -->
<!-- Title: template_tools.hpp Pages: 1 -->
<svg width="721pt" height="196pt"
 viewBox="0.00 0.00 721.00 196.00" xmlns="http://www.w3.org/2000/svg" xmlns:xlink="http://www.w3.org/1999/xlink">
<g id="graph0" class="graph" transform="scale(1 1) rotate(0) translate(4 192)">
<title>template_tools.hpp</title>
<!-- Node1 -->
<g id="node1" class="node">
<title>Node1</title>
<g id="a_node1"><a xlink:title=" ">
<polygon fill="#bfbfbf" stroke="black" points="304.5,-168.5 304.5,-187.5 415.5,-187.5 415.5,-168.5 304.5,-168.5"/>
<text text-anchor="middle" x="360" y="-175.5" font-family="Helvetica,sans-Serif" font-size="10.00">template_tools.hpp</text>
</a>
</g>
</g>
<!-- Node2 -->
<g id="node2" class="node">
<title>Node2</title>
<g id="a_node2"><a xlink:href="exception_8hpp.html" target="_top" xlink:title=" ">
<polygon fill="none" stroke="black" points="317,-112.5 317,-131.5 403,-131.5 403,-112.5 317,-112.5"/>
<text text-anchor="middle" x="360" y="-119.5" font-family="Helvetica,sans-Serif" font-size="10.00">exception.hpp</text>
</a>
</g>
</g>
<!-- Node1&#45;&gt;Node2 -->
<g id="edge1" class="edge">
<title>Node1&#45;&gt;Node2</title>
<path fill="none" stroke="midnightblue" d="M360,-157.8C360,-148.91 360,-138.78 360,-131.75"/>
<polygon fill="midnightblue" stroke="midnightblue" points="356.5,-158.08 360,-168.08 363.5,-158.08 356.5,-158.08"/>
</g>
<!-- Node3 -->
<g id="node3" class="node">
<title>Node3</title>
<g id="a_node3"><a xlink:href="filesystem_8cpp.html" target="_top" xlink:title="Boost_erSeat&#39;s filesystem module.">
<polygon fill="none" stroke="black" points="0,-56.5 0,-75.5 88,-75.5 88,-56.5 0,-56.5"/>
<text text-anchor="middle" x="44" y="-63.5" font-family="Helvetica,sans-Serif" font-size="10.00">filesystem.cpp</text>
</a>
</g>
</g>
<!-- Node2&#45;&gt;Node3 -->
<g id="edge2" class="edge">
<title>Node2&#45;&gt;Node3</title>
<path fill="none" stroke="midnightblue" d="M306.83,-111.91C245.36,-101.41 145.32,-84.31 88.02,-74.52"/>
<polygon fill="midnightblue" stroke="midnightblue" points="306.28,-115.37 316.72,-113.6 307.46,-108.47 306.28,-115.37"/>
</g>
<!-- Node4 -->
<g id="node4" class="node">
<title>Node4</title>
<g id="a_node4"><a xlink:href="geo__point_8cpp.html" target="_top" xlink:title=" ">
<polygon fill="none" stroke="black" points="106.5,-56.5 106.5,-75.5 191.5,-75.5 191.5,-56.5 106.5,-56.5"/>
<text text-anchor="middle" x="149" y="-63.5" font-family="Helvetica,sans-Serif" font-size="10.00">geo_point.cpp</text>
</a>
</g>
</g>
<!-- Node2&#45;&gt;Node4 -->
<g id="edge3" class="edge">
<title>Node2&#45;&gt;Node4</title>
<path fill="none" stroke="midnightblue" d="M316.86,-109.96C277.01,-99.76 218.64,-84.82 182.28,-75.52"/>
<polygon fill="midnightblue" stroke="midnightblue" points="316.01,-113.35 326.57,-112.44 317.75,-106.57 316.01,-113.35"/>
</g>
<!-- Node5 -->
<g id="node5" class="node">
<title>Node5</title>
<g id="a_node5"><a xlink:href="string__format_8cpp.html" target="_top" xlink:title=" ">
<polygon fill="none" stroke="black" points="209.5,-56.5 209.5,-75.5 312.5,-75.5 312.5,-56.5 209.5,-56.5"/>
<text text-anchor="middle" x="261" y="-63.5" font-family="Helvetica,sans-Serif" font-size="10.00">string_format.cpp</text>
</a>
</g>
</g>
<!-- Node2&#45;&gt;Node5 -->
<g id="edge4" class="edge">
<title>Node2&#45;&gt;Node5</title>
<path fill="none" stroke="midnightblue" d="M335.16,-107.45C316.89,-97.48 292.58,-84.23 276.87,-75.65"/>
<polygon fill="midnightblue" stroke="midnightblue" points="333.64,-110.61 344.09,-112.32 336.99,-104.46 333.64,-110.61"/>
</g>
<!-- Node6 -->
<g id="node6" class="node">
<title>Node6</title>
<g id="a_node6"><a xlink:href="time_8cpp.html" target="_top" xlink:title=" ">
<polygon fill="none" stroke="black" points="330.5,-56.5 330.5,-75.5 389.5,-75.5 389.5,-56.5 330.5,-56.5"/>
<text text-anchor="middle" x="360" y="-63.5" font-family="Helvetica,sans-Serif" font-size="10.00">time.cpp</text>
</a>
</g>
</g>
<!-- Node2&#45;&gt;Node6 -->
<g id="edge5" class="edge">
<title>Node2&#45;&gt;Node6</title>
<path fill="none" stroke="midnightblue" d="M360,-101.8C360,-92.91 360,-82.78 360,-75.75"/>
<polygon fill="midnightblue" stroke="midnightblue" points="356.5,-102.08 360,-112.08 363.5,-102.08 356.5,-102.08"/>
</g>
<!-- Node7 -->
<g id="node7" class="node">
<title>Node7</title>
<g id="a_node7"><a xlink:href="stopwatch_8hpp.html" target="_top" xlink:title=" ">
<polygon fill="none" stroke="black" points="408,-56.5 408,-75.5 496,-75.5 496,-56.5 408,-56.5"/>
<text text-anchor="middle" x="452" y="-63.5" font-family="Helvetica,sans-Serif" font-size="10.00">stopwatch.hpp</text>
</a>
</g>
</g>
<!-- Node2&#45;&gt;Node7 -->
<g id="edge6" class="edge">
<title>Node2&#45;&gt;Node7</title>
<path fill="none" stroke="midnightblue" d="M383.55,-107.18C400.48,-97.24 422.78,-84.15 437.26,-75.65"/>
<polygon fill="midnightblue" stroke="midnightblue" points="381.63,-104.24 374.78,-112.32 385.18,-110.28 381.63,-104.24"/>
</g>
<!-- Node10 -->
<g id="node10" class="node">
<title>Node10</title>
<g id="a_node10"><a xlink:href="timer_8hpp.html" target="_top" xlink:title=" ">
<polygon fill="none" stroke="black" points="519.5,-56.5 519.5,-75.5 582.5,-75.5 582.5,-56.5 519.5,-56.5"/>
<text text-anchor="middle" x="551" y="-63.5" font-family="Helvetica,sans-Serif" font-size="10.00">timer.hpp</text>
</a>
</g>
</g>
<!-- Node2&#45;&gt;Node10 -->
<g id="edge9" class="edge">
<title>Node2&#45;&gt;Node10</title>
<path fill="none" stroke="midnightblue" d="M399.97,-109.7C436.02,-99.51 488.24,-84.74 520.88,-75.52"/>
<polygon fill="midnightblue" stroke="midnightblue" points="398.94,-106.35 390.26,-112.44 400.84,-113.09 398.94,-106.35"/>
</g>
<!-- Node13 -->
<g id="node13" class="node">
<title>Node13</title>
<g id="a_node13"><a xlink:href="filesystem__test_8cpp.html" target="_top" xlink:title=" ">
<polygon fill="none" stroke="black" points="601,-56.5 601,-75.5 713,-75.5 713,-56.5 601,-56.5"/>
<text text-anchor="middle" x="657" y="-63.5" font-family="Helvetica,sans-Serif" font-size="10.00">filesystem_test.cpp</text>
</a>
</g>
</g>
<!-- Node2&#45;&gt;Node13 -->
<g id="edge12" class="edge">
<title>Node2&#45;&gt;Node13</title>
<path fill="none" stroke="midnightblue" d="M413.25,-111.32C469.18,-101.15 556.3,-85.31 609.83,-75.58"/>
<polygon fill="midnightblue" stroke="midnightblue" points="412.4,-107.92 403.19,-113.15 413.65,-114.8 412.4,-107.92"/>
</g>
<!-- Node8 -->
<g id="node8" class="node">
<title>Node8</title>
<g id="a_node8"><a xlink:href="stopwatch_8cpp.html" target="_top" xlink:title=" ">
<polygon fill="none" stroke="black" points="288.5,-0.5 288.5,-19.5 375.5,-19.5 375.5,-0.5 288.5,-0.5"/>
<text text-anchor="middle" x="332" y="-7.5" font-family="Helvetica,sans-Serif" font-size="10.00">stopwatch.cpp</text>
</a>
</g>
</g>
<!-- Node7&#45;&gt;Node8 -->
<g id="edge7" class="edge">
<title>Node7&#45;&gt;Node8</title>
<path fill="none" stroke="midnightblue" d="M423.63,-52.23C401.18,-42.13 370.46,-28.31 350.93,-19.52"/>
<polygon fill="midnightblue" stroke="midnightblue" points="422.43,-55.53 432.99,-56.44 425.3,-49.15 422.43,-55.53"/>
</g>
<!-- Node9 -->
<g id="node9" class="node">
<title>Node9</title>
<g id="a_node9"><a xlink:href="stopwatch__test_8cpp.html" target="_top" xlink:title=" ">
<polygon fill="none" stroke="black" points="393.5,-0.5 393.5,-19.5 504.5,-19.5 504.5,-0.5 393.5,-0.5"/>
<text text-anchor="middle" x="449" y="-7.5" font-family="Helvetica,sans-Serif" font-size="10.00">stopwatch_test.cpp</text>
</a>
</g>
</g>
<!-- Node7&#45;&gt;Node9 -->
<g id="edge8" class="edge">
<title>Node7&#45;&gt;Node9</title>
<path fill="none" stroke="midnightblue" d="M450.93,-45.8C450.44,-36.91 449.88,-26.78 449.49,-19.75"/>
<polygon fill="midnightblue" stroke="midnightblue" points="447.46,-46.29 451.5,-56.08 454.44,-45.9 447.46,-46.29"/>
</g>
<!-- Node11 -->
<g id="node11" class="node">
<title>Node11</title>
<g id="a_node11"><a xlink:href="timer_8cpp.html" target="_top" xlink:title=" ">
<polygon fill="none" stroke="black" points="523,-0.5 523,-19.5 585,-19.5 585,-0.5 523,-0.5"/>
<text text-anchor="middle" x="554" y="-7.5" font-family="Helvetica,sans-Serif" font-size="10.00">timer.cpp</text>
</a>
</g>
</g>
<!-- Node10&#45;&gt;Node11 -->
<g id="edge10" class="edge">
<title>Node10&#45;&gt;Node11</title>
<path fill="none" stroke="midnightblue" d="M552.07,-45.8C552.56,-36.91 553.12,-26.78 553.51,-19.75"/>
<polygon fill="midnightblue" stroke="midnightblue" points="548.56,-45.9 551.5,-56.08 555.54,-46.29 548.56,-45.9"/>
</g>
<!-- Node12 -->
<g id="node12" class="node">
<title>Node12</title>
<g id="a_node12"><a xlink:href="visual__tests_8cpp.html" target="_top" xlink:title=" ">
<polygon fill="none" stroke="black" points="603.5,-0.5 603.5,-19.5 698.5,-19.5 698.5,-0.5 603.5,-0.5"/>
<text text-anchor="middle" x="651" y="-7.5" font-family="Helvetica,sans-Serif" font-size="10.00">visual_tests.cpp</text>
</a>
</g>
</g>
<!-- Node10&#45;&gt;Node12 -->
<g id="edge11" class="edge">
<title>Node10&#45;&gt;Node12</title>
<path fill="none" stroke="midnightblue" d="M576.09,-51.45C594.55,-41.48 619.1,-28.23 634.97,-19.65"/>
<polygon fill="midnightblue" stroke="midnightblue" points="574.2,-48.49 567.07,-56.32 577.53,-54.65 574.2,-48.49"/>
</g>
</g>
</svg>
