<?xml version="1.0" encoding="UTF-8" standalone="no"?>
<!DOCTYPE svg PUBLIC "-//W3C//DTD SVG 1.1//EN"
 "http://www.w3.org/Graphics/SVG/1.1/DTD/svg11.dtd">
<!-- Generated by graphviz version 2.43.0 (0)
 -->
<!-- Title: getTm Pages: 1 -->
<svg width="448pt" height="104pt"
 viewBox="0.00 0.00 448.00 104.00" xmlns="http://www.w3.org/2000/svg" xmlns:xlink="http://www.w3.org/1999/xlink">
<g id="graph0" class="graph" transform="scale(1 1) rotate(0) translate(4 100)">
<title>getTm</title>
<!-- Node1 -->
<g id="node1" class="node">
<title>Node1</title>
<g id="a_node1"><a xlink:title=" ">
<polygon fill="#bfbfbf" stroke="black" points="392,-38.5 392,-57.5 440,-57.5 440,-38.5 392,-38.5"/>
<text text-anchor="middle" x="416" y="-45.5" font-family="Helvetica,sans-Serif" font-size="10.00">getTm</text>
</a>
</g>
</g>
<!-- Node2 -->
<g id="node2" class="node">
<title>Node2</title>
<g id="a_node2"><a xlink:href="namespacebst_1_1time.html#a2f5614e38783fb2a27cbed3987e3fd4d" target="_top" xlink:title="Get the date and time in the format: YYYY&#45;MM&#45;DD HH:MM:SS.">
<polygon fill="none" stroke="black" points="196,-76.5 196,-95.5 356,-95.5 356,-76.5 196,-76.5"/>
<text text-anchor="middle" x="276" y="-83.5" font-family="Helvetica,sans-Serif" font-size="10.00">bst::time::dateAndTimeString</text>
</a>
</g>
</g>
<!-- Node1&#45;&gt;Node2 -->
<g id="edge1" class="edge">
<title>Node1&#45;&gt;Node2</title>
<path fill="none" stroke="midnightblue" d="M382.26,-59.03C373.75,-61.76 364.56,-64.6 356,-67 344.18,-70.32 331.28,-73.58 319.38,-76.43"/>
<polygon fill="midnightblue" stroke="midnightblue" points="383.44,-62.32 391.86,-55.9 381.27,-55.67 383.44,-62.32"/>
</g>
<!-- Node5 -->
<g id="node5" class="node">
<title>Node5</title>
<g id="a_node5"><a xlink:href="namespacebst_1_1time.html#acb25143aaac68c8a587e11d4ecf7c93c" target="_top" xlink:title=" ">
<polygon fill="none" stroke="black" points="218,-38.5 218,-57.5 334,-57.5 334,-38.5 218,-38.5"/>
<text text-anchor="middle" x="276" y="-45.5" font-family="Helvetica,sans-Serif" font-size="10.00">bst::time::dateString</text>
</a>
</g>
</g>
<!-- Node1&#45;&gt;Node5 -->
<g id="edge4" class="edge">
<title>Node1&#45;&gt;Node5</title>
<path fill="none" stroke="midnightblue" d="M381.6,-48C367.34,-48 350.29,-48 334.13,-48"/>
<polygon fill="midnightblue" stroke="midnightblue" points="381.9,-51.5 391.9,-48 381.9,-44.5 381.9,-51.5"/>
</g>
<!-- Node6 -->
<g id="node6" class="node">
<title>Node6</title>
<g id="a_node6"><a xlink:href="namespacebst_1_1time.html#abeb64b609248997e84ed7a6bd781ad0f" target="_top" xlink:title="Get the time in format: HH:MM:SS (24 hour clock) for a given time zone.">
<polygon fill="none" stroke="black" points="217.5,-0.5 217.5,-19.5 334.5,-19.5 334.5,-0.5 217.5,-0.5"/>
<text text-anchor="middle" x="276" y="-7.5" font-family="Helvetica,sans-Serif" font-size="10.00">bst::time::timeString</text>
</a>
</g>
</g>
<!-- Node1&#45;&gt;Node6 -->
<g id="edge6" class="edge">
<title>Node1&#45;&gt;Node6</title>
<path fill="none" stroke="midnightblue" d="M382.26,-36.97C373.75,-34.24 364.56,-31.4 356,-29 344.18,-25.68 331.28,-22.42 319.38,-19.57"/>
<polygon fill="midnightblue" stroke="midnightblue" points="381.27,-40.33 391.86,-40.1 383.44,-33.68 381.27,-40.33"/>
</g>
<!-- Node3 -->
<g id="node3" class="node">
<title>Node3</title>
<g id="a_node3"><a xlink:href="namespacebst_1_1time.html#a787a2d545752d701707526e58807cc08" target="_top" xlink:title=" ">
<polygon fill="none" stroke="black" points="0,-76.5 0,-95.5 160,-95.5 160,-76.5 0,-76.5"/>
<text text-anchor="middle" x="80" y="-83.5" font-family="Helvetica,sans-Serif" font-size="10.00">bst::time::dateAndTimeString</text>
</a>
</g>
</g>
<!-- Node2&#45;&gt;Node3 -->
<g id="edge2" class="edge">
<title>Node2&#45;&gt;Node3</title>
<path fill="none" stroke="midnightblue" d="M185.56,-86C177.12,-86 168.59,-86 160.25,-86"/>
<polygon fill="midnightblue" stroke="midnightblue" points="185.81,-89.5 195.81,-86 185.81,-82.5 185.81,-89.5"/>
</g>
<!-- Node4 -->
<g id="node4" class="node">
<title>Node4</title>
<g id="a_node4"><a xlink:href="visual__tests_8cpp.html#ae66f6b31b5ad750f1fe042a706a4e3d4" target="_top" xlink:title=" ">
<polygon fill="none" stroke="black" points="59.5,-38.5 59.5,-57.5 100.5,-57.5 100.5,-38.5 59.5,-38.5"/>
<text text-anchor="middle" x="80" y="-45.5" font-family="Helvetica,sans-Serif" font-size="10.00">main</text>
</a>
</g>
</g>
<!-- Node2&#45;&gt;Node4 -->
<g id="edge3" class="edge">
<title>Node2&#45;&gt;Node4</title>
<path fill="none" stroke="midnightblue" d="M216.02,-74.45C176.66,-66.74 127.4,-57.09 100.59,-51.84"/>
<polygon fill="midnightblue" stroke="midnightblue" points="215.56,-77.92 226.05,-76.41 216.9,-71.05 215.56,-77.92"/>
</g>
<!-- Node5&#45;&gt;Node4 -->
<g id="edge5" class="edge">
<title>Node5&#45;&gt;Node4</title>
<path fill="none" stroke="midnightblue" d="M207.43,-48C169.81,-48 125.66,-48 100.75,-48"/>
<polygon fill="midnightblue" stroke="midnightblue" points="207.84,-51.5 217.84,-48 207.84,-44.5 207.84,-51.5"/>
</g>
<!-- Node6&#45;&gt;Node4 -->
<g id="edge7" class="edge">
<title>Node6&#45;&gt;Node4</title>
<path fill="none" stroke="midnightblue" d="M216.02,-21.55C176.66,-29.26 127.4,-38.91 100.59,-44.16"/>
<polygon fill="midnightblue" stroke="midnightblue" points="216.9,-24.95 226.05,-19.59 215.56,-18.08 216.9,-24.95"/>
</g>
</g>
</svg>
