<?xml version="1.0" encoding="UTF-8" standalone="no"?>
<!DOCTYPE svg PUBLIC "-//W3C//DTD SVG 1.1//EN"
 "http://www.w3.org/Graphics/SVG/1.1/DTD/svg11.dtd">
<!-- Generated by graphviz version 2.43.0 (0)
 -->
<!-- Title: time.cpp Pages: 1 -->
<svg width="569pt" height="207pt"
 viewBox="0.00 0.00 568.50 207.00" xmlns="http://www.w3.org/2000/svg" xmlns:xlink="http://www.w3.org/1999/xlink">
<g id="graph0" class="graph" transform="scale(1 1) rotate(0) translate(4 203)">
<title>time.cpp</title>
<!-- Node1 -->
<g id="node1" class="node">
<title>Node1</title>
<g id="a_node1"><a xlink:title=" ">
<polygon fill="#bfbfbf" stroke="black" points="320,-179.5 320,-198.5 379,-198.5 379,-179.5 320,-179.5"/>
<text text-anchor="middle" x="349.5" y="-186.5" font-family="Helvetica,sans-Serif" font-size="10.00">time.cpp</text>
</a>
</g>
</g>
<!-- Node2 -->
<g id="node2" class="node">
<title>Node2</title>
<g id="a_node2"><a xlink:href="exception_8hpp.html" target="_top" xlink:title=" ">
<polygon fill="none" stroke="black" points="111.5,-123.5 111.5,-142.5 259.5,-142.5 259.5,-123.5 111.5,-123.5"/>
<text text-anchor="middle" x="185.5" y="-130.5" font-family="Helvetica,sans-Serif" font-size="10.00">BoosterSeat/exception.hpp</text>
</a>
</g>
</g>
<!-- Node1&#45;&gt;Node2 -->
<g id="edge1" class="edge">
<title>Node1&#45;&gt;Node2</title>
<path fill="none" stroke="midnightblue" d="M323.51,-179.44C295.8,-170.32 251.75,-155.81 220.88,-145.65"/>
<polygon fill="midnightblue" stroke="midnightblue" points="221.96,-142.32 211.36,-142.52 219.77,-148.97 221.96,-142.32"/>
</g>
<!-- Node7 -->
<g id="node7" class="node">
<title>Node7</title>
<g id="a_node7"><a xlink:href="time_8hpp.html" target="_top" xlink:title=" ">
<polygon fill="none" stroke="black" points="288.5,-123.5 288.5,-142.5 410.5,-142.5 410.5,-123.5 288.5,-123.5"/>
<text text-anchor="middle" x="349.5" y="-130.5" font-family="Helvetica,sans-Serif" font-size="10.00">BoosterSeat/time.hpp</text>
</a>
</g>
</g>
<!-- Node1&#45;&gt;Node7 -->
<g id="edge6" class="edge">
<title>Node1&#45;&gt;Node7</title>
<path fill="none" stroke="midnightblue" d="M349.5,-179.08C349.5,-172.01 349.5,-161.86 349.5,-152.99"/>
<polygon fill="midnightblue" stroke="midnightblue" points="353,-152.75 349.5,-142.75 346,-152.75 353,-152.75"/>
</g>
<!-- Node12 -->
<g id="node12" class="node">
<title>Node12</title>
<g id="a_node12"><a xlink:title=" ">
<polygon fill="none" stroke="#bfbfbf" points="428.5,-123.5 428.5,-142.5 492.5,-142.5 492.5,-123.5 428.5,-123.5"/>
<text text-anchor="middle" x="460.5" y="-130.5" font-family="Helvetica,sans-Serif" font-size="10.00">algorithm</text>
</a>
</g>
</g>
<!-- Node1&#45;&gt;Node12 -->
<g id="edge12" class="edge">
<title>Node1&#45;&gt;Node12</title>
<path fill="none" stroke="midnightblue" d="M367.33,-179.32C385.22,-170.62 412.98,-157.12 433.55,-147.11"/>
<polygon fill="midnightblue" stroke="midnightblue" points="435.25,-150.18 442.71,-142.65 432.19,-143.88 435.25,-150.18"/>
</g>
<!-- Node3 -->
<g id="node3" class="node">
<title>Node3</title>
<g id="a_node3"><a xlink:href="template__tools_8hpp.html" target="_top" xlink:title=" ">
<polygon fill="none" stroke="black" points="0,-56.5 0,-86.5 123,-86.5 123,-56.5 0,-56.5"/>
<text text-anchor="start" x="8" y="-74.5" font-family="Helvetica,sans-Serif" font-size="10.00">BoosterSeat/template</text>
<text text-anchor="middle" x="61.5" y="-63.5" font-family="Helvetica,sans-Serif" font-size="10.00">_tools.hpp</text>
</a>
</g>
</g>
<!-- Node2&#45;&gt;Node3 -->
<g id="edge2" class="edge">
<title>Node2&#45;&gt;Node3</title>
<path fill="none" stroke="midnightblue" d="M167.73,-123.48C150.08,-115 122.43,-101.74 99.77,-90.86"/>
<polygon fill="midnightblue" stroke="midnightblue" points="101.25,-87.69 90.72,-86.52 98.23,-94 101.25,-87.69"/>
</g>
<!-- Node5 -->
<g id="node5" class="node">
<title>Node5</title>
<g id="a_node5"><a xlink:title=" ">
<polygon fill="none" stroke="#bfbfbf" points="141,-62 141,-81 206,-81 206,-62 141,-62"/>
<text text-anchor="middle" x="173.5" y="-69" font-family="Helvetica,sans-Serif" font-size="10.00">stdexcept</text>
</a>
</g>
</g>
<!-- Node2&#45;&gt;Node5 -->
<g id="edge4" class="edge">
<title>Node2&#45;&gt;Node5</title>
<path fill="none" stroke="midnightblue" d="M183.78,-123.48C182.07,-114.99 179.39,-101.7 177.2,-90.82"/>
<polygon fill="midnightblue" stroke="midnightblue" points="180.62,-90.12 175.22,-81.01 173.76,-91.5 180.62,-90.12"/>
</g>
<!-- Node6 -->
<g id="node6" class="node">
<title>Node6</title>
<g id="a_node6"><a xlink:title=" ">
<polygon fill="none" stroke="#bfbfbf" points="224.5,-62 224.5,-81 268.5,-81 268.5,-62 224.5,-62"/>
<text text-anchor="middle" x="246.5" y="-69" font-family="Helvetica,sans-Serif" font-size="10.00">string</text>
</a>
</g>
</g>
<!-- Node2&#45;&gt;Node6 -->
<g id="edge5" class="edge">
<title>Node2&#45;&gt;Node6</title>
<path fill="none" stroke="midnightblue" d="M194.24,-123.48C203.66,-114.28 218.86,-99.46 230.45,-88.16"/>
<polygon fill="midnightblue" stroke="midnightblue" points="233.06,-90.5 237.78,-81.01 228.17,-85.49 233.06,-90.5"/>
</g>
<!-- Node4 -->
<g id="node4" class="node">
<title>Node4</title>
<g id="a_node4"><a xlink:title=" ">
<polygon fill="none" stroke="#bfbfbf" points="27,-0.5 27,-19.5 96,-19.5 96,-0.5 27,-0.5"/>
<text text-anchor="middle" x="61.5" y="-7.5" font-family="Helvetica,sans-Serif" font-size="10.00">type_traits</text>
</a>
</g>
</g>
<!-- Node3&#45;&gt;Node4 -->
<g id="edge3" class="edge">
<title>Node3&#45;&gt;Node4</title>
<path fill="none" stroke="midnightblue" d="M61.5,-56.4C61.5,-48.47 61.5,-38.46 61.5,-29.86"/>
<polygon fill="midnightblue" stroke="midnightblue" points="65,-29.66 61.5,-19.66 58,-29.66 65,-29.66"/>
</g>
<!-- Node7&#45;&gt;Node6 -->
<g id="edge11" class="edge">
<title>Node7&#45;&gt;Node6</title>
<path fill="none" stroke="midnightblue" d="M334.74,-123.48C317.84,-113.71 289.92,-97.58 270.01,-86.08"/>
<polygon fill="midnightblue" stroke="midnightblue" points="271.64,-82.98 261.23,-81.01 268.14,-89.04 271.64,-82.98"/>
</g>
<!-- Node8 -->
<g id="node8" class="node">
<title>Node8</title>
<g id="a_node8"><a xlink:href="clock_8hpp.html" target="_top" xlink:title=" ">
<polygon fill="none" stroke="black" points="287,-62 287,-81 412,-81 412,-62 287,-62"/>
<text text-anchor="middle" x="349.5" y="-69" font-family="Helvetica,sans-Serif" font-size="10.00">BoosterSeat/clock.hpp</text>
</a>
</g>
</g>
<!-- Node7&#45;&gt;Node8 -->
<g id="edge7" class="edge">
<title>Node7&#45;&gt;Node8</title>
<path fill="none" stroke="midnightblue" d="M349.5,-123.48C349.5,-115.08 349.5,-101.98 349.5,-91.16"/>
<polygon fill="midnightblue" stroke="midnightblue" points="353,-91.01 349.5,-81.01 346,-91.01 353,-91.01"/>
</g>
<!-- Node10 -->
<g id="node10" class="node">
<title>Node10</title>
<g id="a_node10"><a xlink:title=" ">
<polygon fill="none" stroke="#bfbfbf" points="430.5,-62 430.5,-81 486.5,-81 486.5,-62 430.5,-62"/>
<text text-anchor="middle" x="458.5" y="-69" font-family="Helvetica,sans-Serif" font-size="10.00">iomanip</text>
</a>
</g>
</g>
<!-- Node7&#45;&gt;Node10 -->
<g id="edge9" class="edge">
<title>Node7&#45;&gt;Node10</title>
<path fill="none" stroke="midnightblue" d="M365.12,-123.48C383.09,-113.67 412.82,-97.43 433.91,-85.92"/>
<polygon fill="midnightblue" stroke="midnightblue" points="435.81,-88.87 442.91,-81.01 432.46,-82.73 435.81,-88.87"/>
</g>
<!-- Node11 -->
<g id="node11" class="node">
<title>Node11</title>
<g id="a_node11"><a xlink:title=" ">
<polygon fill="none" stroke="#bfbfbf" points="504.5,-62 504.5,-81 560.5,-81 560.5,-62 504.5,-62"/>
<text text-anchor="middle" x="532.5" y="-69" font-family="Helvetica,sans-Serif" font-size="10.00">sstream</text>
</a>
</g>
</g>
<!-- Node7&#45;&gt;Node11 -->
<g id="edge10" class="edge">
<title>Node7&#45;&gt;Node11</title>
<path fill="none" stroke="midnightblue" d="M379.63,-123.43C409.3,-114.82 455.81,-100.87 495.5,-87 497.62,-86.26 499.79,-85.47 501.98,-84.67"/>
<polygon fill="midnightblue" stroke="midnightblue" points="503.37,-87.88 511.47,-81.05 500.88,-81.34 503.37,-87.88"/>
</g>
<!-- Node9 -->
<g id="node9" class="node">
<title>Node9</title>
<g id="a_node9"><a xlink:title=" ">
<polygon fill="none" stroke="#bfbfbf" points="324.5,-0.5 324.5,-19.5 374.5,-19.5 374.5,-0.5 324.5,-0.5"/>
<text text-anchor="middle" x="349.5" y="-7.5" font-family="Helvetica,sans-Serif" font-size="10.00">chrono</text>
</a>
</g>
</g>
<!-- Node8&#45;&gt;Node9 -->
<g id="edge8" class="edge">
<title>Node8&#45;&gt;Node9</title>
<path fill="none" stroke="midnightblue" d="M349.5,-61.98C349.5,-53.58 349.5,-40.48 349.5,-29.66"/>
<polygon fill="midnightblue" stroke="midnightblue" points="353,-29.51 349.5,-19.51 346,-29.51 353,-29.51"/>
</g>
</g>
</svg>
