<?xml version="1.0" encoding="UTF-8" standalone="no"?>
<!DOCTYPE svg PUBLIC "-//W3C//DTD SVG 1.1//EN"
 "http://www.w3.org/Graphics/SVG/1.1/DTD/svg11.dtd">
<!-- Generated by graphviz version 2.43.0 (0)
 -->
<!-- Title: getTm Pages: 1 -->
<svg width="202pt" height="137pt"
 viewBox="0.00 0.00 202.00 137.00" xmlns="http://www.w3.org/2000/svg" xmlns:xlink="http://www.w3.org/1999/xlink">
<g id="graph0" class="graph" transform="scale(1 1) rotate(0) translate(4 133)">
<title>getTm</title>
<!-- Node1 -->
<g id="node1" class="node">
<title>Node1</title>
<g id="a_node1"><a xlink:title=" ">
<polygon fill="#bfbfbf" stroke="black" points="146,-55 146,-74 194,-74 194,-55 146,-55"/>
<text text-anchor="middle" x="170" y="-62" font-family="Helvetica,sans-Serif" font-size="10.00">getTm</text>
</a>
</g>
</g>
<!-- Node2 -->
<g id="node2" class="node">
<title>Node2</title>
<g id="a_node2"><a xlink:href="namespaceBoosterSeat_1_1time.html#a5fd70e926d174b7a55901f51e98f3a82" target="_top" xlink:title="Get the date and time in the format: YYYY&#45;MM&#45;DD HH:MM:SS.">
<polygon fill="none" stroke="black" points="0,-98.5 0,-128.5 110,-128.5 110,-98.5 0,-98.5"/>
<text text-anchor="start" x="8" y="-116.5" font-family="Helvetica,sans-Serif" font-size="10.00">BoosterSeat::time::</text>
<text text-anchor="middle" x="55" y="-105.5" font-family="Helvetica,sans-Serif" font-size="10.00">dateAndTimeString</text>
</a>
</g>
</g>
<!-- Node1&#45;&gt;Node2 -->
<g id="edge1" class="edge">
<title>Node1&#45;&gt;Node2</title>
<path fill="none" stroke="midnightblue" d="M137.42,-78.19C122.95,-84.47 105.75,-91.93 90.9,-98.37"/>
<polygon fill="midnightblue" stroke="midnightblue" points="139.16,-81.25 146.94,-74.06 136.38,-74.83 139.16,-81.25"/>
</g>
<!-- Node3 -->
<g id="node3" class="node">
<title>Node3</title>
<g id="a_node3"><a xlink:href="namespaceBoosterSeat_1_1time.html#a8ed26107d4aadc73bed18c3ba149f37f" target="_top" xlink:title=" ">
<polygon fill="none" stroke="black" points="0,-49.5 0,-79.5 110,-79.5 110,-49.5 0,-49.5"/>
<text text-anchor="start" x="8" y="-67.5" font-family="Helvetica,sans-Serif" font-size="10.00">BoosterSeat::time::</text>
<text text-anchor="middle" x="55" y="-56.5" font-family="Helvetica,sans-Serif" font-size="10.00">dateString</text>
</a>
</g>
</g>
<!-- Node1&#45;&gt;Node3 -->
<g id="edge2" class="edge">
<title>Node1&#45;&gt;Node3</title>
<path fill="none" stroke="midnightblue" d="M135.84,-64.5C127.83,-64.5 119.07,-64.5 110.37,-64.5"/>
<polygon fill="midnightblue" stroke="midnightblue" points="135.86,-68 145.86,-64.5 135.86,-61 135.86,-68"/>
</g>
<!-- Node4 -->
<g id="node4" class="node">
<title>Node4</title>
<g id="a_node4"><a xlink:href="namespaceBoosterSeat_1_1time.html#a96007d776fbd61a86911e5a91ec46a0a" target="_top" xlink:title="Get the time in format: HH:MM:SS (24 hour clock) for a given time zone.">
<polygon fill="none" stroke="black" points="0,-0.5 0,-30.5 110,-30.5 110,-0.5 0,-0.5"/>
<text text-anchor="start" x="8" y="-18.5" font-family="Helvetica,sans-Serif" font-size="10.00">BoosterSeat::time::</text>
<text text-anchor="middle" x="55" y="-7.5" font-family="Helvetica,sans-Serif" font-size="10.00">timeString</text>
</a>
</g>
</g>
<!-- Node1&#45;&gt;Node4 -->
<g id="edge3" class="edge">
<title>Node1&#45;&gt;Node4</title>
<path fill="none" stroke="midnightblue" d="M137.42,-50.81C122.95,-44.53 105.75,-37.07 90.9,-30.63"/>
<polygon fill="midnightblue" stroke="midnightblue" points="136.38,-54.17 146.94,-54.94 139.16,-47.75 136.38,-54.17"/>
</g>
</g>
</svg>
