<?xml version="1.0" encoding="UTF-8" standalone="no"?>
<!DOCTYPE svg PUBLIC "-//W3C//DTD SVG 1.1//EN"
 "http://www.w3.org/Graphics/SVG/1.1/DTD/svg11.dtd">
<!-- Generated by graphviz version 2.43.0 (0)
 -->
<!-- Title: timer.hpp Pages: 1 -->
<svg width="352pt" height="207pt"
 viewBox="0.00 0.00 351.50 207.00" xmlns="http://www.w3.org/2000/svg" xmlns:xlink="http://www.w3.org/1999/xlink">
<g id="graph0" class="graph" transform="scale(1 1) rotate(0) translate(4 203)">
<title>timer.hpp</title>
<!-- Node1 -->
<g id="node1" class="node">
<title>Node1</title>
<g id="a_node1"><a xlink:title=" ">
<polygon fill="#bfbfbf" stroke="black" points="108,-179.5 108,-198.5 171,-198.5 171,-179.5 108,-179.5"/>
<text text-anchor="middle" x="139.5" y="-186.5" font-family="Helvetica,sans-Serif" font-size="10.00">timer.hpp</text>
</a>
</g>
</g>
<!-- Node2 -->
<g id="node2" class="node">
<title>Node2</title>
<g id="a_node2"><a xlink:href="clock_8hpp.html" target="_top" xlink:title=" ">
<polygon fill="none" stroke="black" points="0,-123.5 0,-142.5 125,-142.5 125,-123.5 0,-123.5"/>
<text text-anchor="middle" x="62.5" y="-130.5" font-family="Helvetica,sans-Serif" font-size="10.00">BoosterSeat/clock.hpp</text>
</a>
</g>
</g>
<!-- Node1&#45;&gt;Node2 -->
<g id="edge1" class="edge">
<title>Node1&#45;&gt;Node2</title>
<path fill="none" stroke="midnightblue" d="M127.13,-179.32C115.34,-171.06 97.37,-158.45 83.36,-148.63"/>
<polygon fill="midnightblue" stroke="midnightblue" points="85.04,-145.53 74.84,-142.65 81.02,-151.26 85.04,-145.53"/>
</g>
<!-- Node4 -->
<g id="node4" class="node">
<title>Node4</title>
<g id="a_node4"><a xlink:href="exception_8hpp.html" target="_top" xlink:title=" ">
<polygon fill="none" stroke="black" points="158.5,-123.5 158.5,-142.5 306.5,-142.5 306.5,-123.5 158.5,-123.5"/>
<text text-anchor="middle" x="232.5" y="-130.5" font-family="Helvetica,sans-Serif" font-size="10.00">BoosterSeat/exception.hpp</text>
</a>
</g>
</g>
<!-- Node1&#45;&gt;Node4 -->
<g id="edge3" class="edge">
<title>Node1&#45;&gt;Node4</title>
<path fill="none" stroke="midnightblue" d="M154.44,-179.32C169.09,-170.82 191.63,-157.73 208.74,-147.8"/>
<polygon fill="midnightblue" stroke="midnightblue" points="210.7,-150.7 217.6,-142.65 207.19,-144.65 210.7,-150.7"/>
</g>
<!-- Node3 -->
<g id="node3" class="node">
<title>Node3</title>
<g id="a_node3"><a xlink:title=" ">
<polygon fill="none" stroke="#bfbfbf" points="6.5,-62 6.5,-81 56.5,-81 56.5,-62 6.5,-62"/>
<text text-anchor="middle" x="31.5" y="-69" font-family="Helvetica,sans-Serif" font-size="10.00">chrono</text>
</a>
</g>
</g>
<!-- Node2&#45;&gt;Node3 -->
<g id="edge2" class="edge">
<title>Node2&#45;&gt;Node3</title>
<path fill="none" stroke="midnightblue" d="M58.06,-123.48C53.55,-114.82 46.43,-101.15 40.69,-90.15"/>
<polygon fill="midnightblue" stroke="midnightblue" points="43.66,-88.26 35.93,-81.01 37.45,-91.49 43.66,-88.26"/>
</g>
<!-- Node5 -->
<g id="node5" class="node">
<title>Node5</title>
<g id="a_node5"><a xlink:href="template__tools_8hpp.html" target="_top" xlink:title=" ">
<polygon fill="none" stroke="black" points="75,-56.5 75,-86.5 198,-86.5 198,-56.5 75,-56.5"/>
<text text-anchor="start" x="83" y="-74.5" font-family="Helvetica,sans-Serif" font-size="10.00">BoosterSeat/template</text>
<text text-anchor="middle" x="136.5" y="-63.5" font-family="Helvetica,sans-Serif" font-size="10.00">_tools.hpp</text>
</a>
</g>
</g>
<!-- Node4&#45;&gt;Node5 -->
<g id="edge4" class="edge">
<title>Node4&#45;&gt;Node5</title>
<path fill="none" stroke="midnightblue" d="M218.75,-123.48C205.5,-115.27 185,-102.56 167.78,-91.88"/>
<polygon fill="midnightblue" stroke="midnightblue" points="169.47,-88.82 159.13,-86.52 165.78,-94.77 169.47,-88.82"/>
</g>
<!-- Node7 -->
<g id="node7" class="node">
<title>Node7</title>
<g id="a_node7"><a xlink:title=" ">
<polygon fill="none" stroke="#bfbfbf" points="216,-62 216,-81 281,-81 281,-62 216,-62"/>
<text text-anchor="middle" x="248.5" y="-69" font-family="Helvetica,sans-Serif" font-size="10.00">stdexcept</text>
</a>
</g>
</g>
<!-- Node4&#45;&gt;Node7 -->
<g id="edge6" class="edge">
<title>Node4&#45;&gt;Node7</title>
<path fill="none" stroke="midnightblue" d="M234.79,-123.48C237.07,-114.99 240.65,-101.7 243.57,-90.82"/>
<polygon fill="midnightblue" stroke="midnightblue" points="246.99,-91.57 246.21,-81.01 240.24,-89.76 246.99,-91.57"/>
</g>
<!-- Node8 -->
<g id="node8" class="node">
<title>Node8</title>
<g id="a_node8"><a xlink:title=" ">
<polygon fill="none" stroke="#bfbfbf" points="299.5,-62 299.5,-81 343.5,-81 343.5,-62 299.5,-62"/>
<text text-anchor="middle" x="321.5" y="-69" font-family="Helvetica,sans-Serif" font-size="10.00">string</text>
</a>
</g>
</g>
<!-- Node4&#45;&gt;Node8 -->
<g id="edge7" class="edge">
<title>Node4&#45;&gt;Node8</title>
<path fill="none" stroke="midnightblue" d="M245.25,-123.48C259.53,-113.93 282.9,-98.31 300.01,-86.87"/>
<polygon fill="midnightblue" stroke="midnightblue" points="302.4,-89.48 308.77,-81.01 298.51,-83.66 302.4,-89.48"/>
</g>
<!-- Node6 -->
<g id="node6" class="node">
<title>Node6</title>
<g id="a_node6"><a xlink:title=" ">
<polygon fill="none" stroke="#bfbfbf" points="102,-0.5 102,-19.5 171,-19.5 171,-0.5 102,-0.5"/>
<text text-anchor="middle" x="136.5" y="-7.5" font-family="Helvetica,sans-Serif" font-size="10.00">type_traits</text>
</a>
</g>
</g>
<!-- Node5&#45;&gt;Node6 -->
<g id="edge5" class="edge">
<title>Node5&#45;&gt;Node6</title>
<path fill="none" stroke="midnightblue" d="M136.5,-56.4C136.5,-48.47 136.5,-38.46 136.5,-29.86"/>
<polygon fill="midnightblue" stroke="midnightblue" points="140,-29.66 136.5,-19.66 133,-29.66 140,-29.66"/>
</g>
</g>
</svg>
