<?xml version="1.0" encoding="UTF-8" standalone="no"?>
<!DOCTYPE svg PUBLIC "-//W3C//DTD SVG 1.1//EN"
 "http://www.w3.org/Graphics/SVG/1.1/DTD/svg11.dtd">
<!-- Generated by graphviz version 2.43.0 (0)
 -->
<!-- Title: dateFormatString Pages: 1 -->
<svg width="501pt" height="66pt"
 viewBox="0.00 0.00 501.00 66.00" xmlns="http://www.w3.org/2000/svg" xmlns:xlink="http://www.w3.org/1999/xlink">
<g id="graph0" class="graph" transform="scale(1 1) rotate(0) translate(4 62)">
<title>dateFormatString</title>
<!-- Node1 -->
<g id="node1" class="node">
<title>Node1</title>
<g id="a_node1"><a xlink:title=" ">
<polygon fill="#bfbfbf" stroke="black" points="392,-19.5 392,-38.5 493,-38.5 493,-19.5 392,-19.5"/>
<text text-anchor="middle" x="442.5" y="-26.5" font-family="Helvetica,sans-Serif" font-size="10.00">dateFormatString</text>
</a>
</g>
</g>
<!-- Node2 -->
<g id="node2" class="node">
<title>Node2</title>
<g id="a_node2"><a xlink:href="namespacebst_1_1time.html#a2f5614e38783fb2a27cbed3987e3fd4d" target="_top" xlink:title="Get the date and time in the format: YYYY&#45;MM&#45;DD HH:MM:SS.">
<polygon fill="none" stroke="black" points="196,-38.5 196,-57.5 356,-57.5 356,-38.5 196,-38.5"/>
<text text-anchor="middle" x="276" y="-45.5" font-family="Helvetica,sans-Serif" font-size="10.00">bst::time::dateAndTimeString</text>
</a>
</g>
</g>
<!-- Node1&#45;&gt;Node2 -->
<g id="edge1" class="edge">
<title>Node1&#45;&gt;Node2</title>
<path fill="none" stroke="midnightblue" d="M381.72,-35.9C373.39,-36.87 364.72,-37.87 356.1,-38.86"/>
<polygon fill="midnightblue" stroke="midnightblue" points="382.17,-39.38 391.7,-34.75 381.36,-32.42 382.17,-39.38"/>
</g>
<!-- Node5 -->
<g id="node5" class="node">
<title>Node5</title>
<g id="a_node5"><a xlink:href="namespacebst_1_1time.html#acb25143aaac68c8a587e11d4ecf7c93c" target="_top" xlink:title=" ">
<polygon fill="none" stroke="black" points="218,-0.5 218,-19.5 334,-19.5 334,-0.5 218,-0.5"/>
<text text-anchor="middle" x="276" y="-7.5" font-family="Helvetica,sans-Serif" font-size="10.00">bst::time::dateString</text>
</a>
</g>
</g>
<!-- Node1&#45;&gt;Node5 -->
<g id="edge4" class="edge">
<title>Node1&#45;&gt;Node5</title>
<path fill="none" stroke="midnightblue" d="M381.69,-22.09C366.18,-20.3 349.51,-18.37 334.13,-16.6"/>
<polygon fill="midnightblue" stroke="midnightblue" points="381.36,-25.58 391.7,-23.25 382.17,-18.62 381.36,-25.58"/>
</g>
<!-- Node3 -->
<g id="node3" class="node">
<title>Node3</title>
<g id="a_node3"><a xlink:href="namespacebst_1_1time.html#a787a2d545752d701707526e58807cc08" target="_top" xlink:title=" ">
<polygon fill="none" stroke="black" points="0,-38.5 0,-57.5 160,-57.5 160,-38.5 0,-38.5"/>
<text text-anchor="middle" x="80" y="-45.5" font-family="Helvetica,sans-Serif" font-size="10.00">bst::time::dateAndTimeString</text>
</a>
</g>
</g>
<!-- Node2&#45;&gt;Node3 -->
<g id="edge2" class="edge">
<title>Node2&#45;&gt;Node3</title>
<path fill="none" stroke="midnightblue" d="M185.56,-48C177.12,-48 168.59,-48 160.25,-48"/>
<polygon fill="midnightblue" stroke="midnightblue" points="185.81,-51.5 195.81,-48 185.81,-44.5 185.81,-51.5"/>
</g>
<!-- Node4 -->
<g id="node4" class="node">
<title>Node4</title>
<g id="a_node4"><a xlink:href="visual__tests_8cpp.html#ae66f6b31b5ad750f1fe042a706a4e3d4" target="_top" xlink:title=" ">
<polygon fill="none" stroke="black" points="59.5,-0.5 59.5,-19.5 100.5,-19.5 100.5,-0.5 59.5,-0.5"/>
<text text-anchor="middle" x="80" y="-7.5" font-family="Helvetica,sans-Serif" font-size="10.00">main</text>
</a>
</g>
</g>
<!-- Node2&#45;&gt;Node4 -->
<g id="edge3" class="edge">
<title>Node2&#45;&gt;Node4</title>
<path fill="none" stroke="midnightblue" d="M216.02,-36.45C176.66,-28.74 127.4,-19.09 100.59,-13.84"/>
<polygon fill="midnightblue" stroke="midnightblue" points="215.56,-39.92 226.05,-38.41 216.9,-33.05 215.56,-39.92"/>
</g>
<!-- Node5&#45;&gt;Node4 -->
<g id="edge5" class="edge">
<title>Node5&#45;&gt;Node4</title>
<path fill="none" stroke="midnightblue" d="M207.43,-10C169.81,-10 125.66,-10 100.75,-10"/>
<polygon fill="midnightblue" stroke="midnightblue" points="207.84,-13.5 217.84,-10 207.84,-6.5 207.84,-13.5"/>
</g>
</g>
</svg>
