<?xml version="1.0" encoding="UTF-8" standalone="no"?>
<!DOCTYPE svg PUBLIC "-//W3C//DTD SVG 1.1//EN"
 "http://www.w3.org/Graphics/SVG/1.1/DTD/svg11.dtd">
<!-- Generated by graphviz version 2.43.0 (0)
 -->
<!-- Title: getTm Pages: 1 -->
<svg width="279pt" height="137pt"
 viewBox="0.00 0.00 279.00 137.00" xmlns="http://www.w3.org/2000/svg" xmlns:xlink="http://www.w3.org/1999/xlink">
<g id="graph0" class="graph" transform="scale(1 1) rotate(0) translate(4 133)">
<title>getTm</title>
<!-- Node1 -->
<g id="node1" class="node">
<title>Node1</title>
<g id="a_node1"><a xlink:title=" ">
<polygon fill="#bfbfbf" stroke="black" points="223,-55 223,-74 271,-74 271,-55 223,-55"/>
<text text-anchor="middle" x="247" y="-62" font-family="Helvetica,sans-Serif" font-size="10.00">getTm</text>
</a>
</g>
</g>
<!-- Node2 -->
<g id="node2" class="node">
<title>Node2</title>
<g id="a_node2"><a xlink:href="namespaceBoosterSeat_1_1time.html#a5fd70e926d174b7a55901f51e98f3a82" target="_top" xlink:title="Get the date and time in the format: YYYY&#45;MM&#45;DD HH:MM:SS.">
<polygon fill="none" stroke="black" points="77,-98.5 77,-128.5 187,-128.5 187,-98.5 77,-98.5"/>
<text text-anchor="start" x="85" y="-116.5" font-family="Helvetica,sans-Serif" font-size="10.00">BoosterSeat::time::</text>
<text text-anchor="middle" x="132" y="-105.5" font-family="Helvetica,sans-Serif" font-size="10.00">dateAndTimeString</text>
</a>
</g>
</g>
<!-- Node1&#45;&gt;Node2 -->
<g id="edge1" class="edge">
<title>Node1&#45;&gt;Node2</title>
<path fill="none" stroke="midnightblue" d="M214.42,-78.19C199.95,-84.47 182.75,-91.93 167.9,-98.37"/>
<polygon fill="midnightblue" stroke="midnightblue" points="216.16,-81.25 223.94,-74.06 213.38,-74.83 216.16,-81.25"/>
</g>
<!-- Node4 -->
<g id="node4" class="node">
<title>Node4</title>
<g id="a_node4"><a xlink:href="namespaceBoosterSeat_1_1time.html#a8ed26107d4aadc73bed18c3ba149f37f" target="_top" xlink:title=" ">
<polygon fill="none" stroke="black" points="77,-49.5 77,-79.5 187,-79.5 187,-49.5 77,-49.5"/>
<text text-anchor="start" x="85" y="-67.5" font-family="Helvetica,sans-Serif" font-size="10.00">BoosterSeat::time::</text>
<text text-anchor="middle" x="132" y="-56.5" font-family="Helvetica,sans-Serif" font-size="10.00">dateString</text>
</a>
</g>
</g>
<!-- Node1&#45;&gt;Node4 -->
<g id="edge3" class="edge">
<title>Node1&#45;&gt;Node4</title>
<path fill="none" stroke="midnightblue" d="M212.84,-64.5C204.83,-64.5 196.07,-64.5 187.37,-64.5"/>
<polygon fill="midnightblue" stroke="midnightblue" points="212.86,-68 222.86,-64.5 212.86,-61 212.86,-68"/>
</g>
<!-- Node5 -->
<g id="node5" class="node">
<title>Node5</title>
<g id="a_node5"><a xlink:href="namespaceBoosterSeat_1_1time.html#a96007d776fbd61a86911e5a91ec46a0a" target="_top" xlink:title="Get the time in format: HH:MM:SS (24 hour clock) for a given time zone.">
<polygon fill="none" stroke="black" points="77,-0.5 77,-30.5 187,-30.5 187,-0.5 77,-0.5"/>
<text text-anchor="start" x="85" y="-18.5" font-family="Helvetica,sans-Serif" font-size="10.00">BoosterSeat::time::</text>
<text text-anchor="middle" x="132" y="-7.5" font-family="Helvetica,sans-Serif" font-size="10.00">timeString</text>
</a>
</g>
</g>
<!-- Node1&#45;&gt;Node5 -->
<g id="edge5" class="edge">
<title>Node1&#45;&gt;Node5</title>
<path fill="none" stroke="midnightblue" d="M214.42,-50.81C199.95,-44.53 182.75,-37.07 167.9,-30.63"/>
<polygon fill="midnightblue" stroke="midnightblue" points="213.38,-54.17 223.94,-54.94 216.16,-47.75 213.38,-54.17"/>
</g>
<!-- Node3 -->
<g id="node3" class="node">
<title>Node3</title>
<g id="a_node3"><a xlink:href="visual__tests_8cpp.html#ae66f6b31b5ad750f1fe042a706a4e3d4" target="_top" xlink:title=" ">
<polygon fill="none" stroke="black" points="0,-55 0,-74 41,-74 41,-55 0,-55"/>
<text text-anchor="middle" x="20.5" y="-62" font-family="Helvetica,sans-Serif" font-size="10.00">main</text>
</a>
</g>
</g>
<!-- Node2&#45;&gt;Node3 -->
<g id="edge2" class="edge">
<title>Node2&#45;&gt;Node3</title>
<path fill="none" stroke="midnightblue" d="M87.56,-94.22C83.99,-92.62 80.43,-91.04 77,-89.5 65.04,-84.15 51.64,-78.12 41.01,-73.32"/>
<polygon fill="midnightblue" stroke="midnightblue" points="86.44,-97.55 97,-98.42 89.29,-91.15 86.44,-97.55"/>
</g>
<!-- Node4&#45;&gt;Node3 -->
<g id="edge4" class="edge">
<title>Node4&#45;&gt;Node3</title>
<path fill="none" stroke="midnightblue" d="M66.72,-64.5C57.43,-64.5 48.51,-64.5 41.09,-64.5"/>
<polygon fill="midnightblue" stroke="midnightblue" points="66.89,-68 76.89,-64.5 66.89,-61 66.89,-68"/>
</g>
<!-- Node5&#45;&gt;Node3 -->
<g id="edge6" class="edge">
<title>Node5&#45;&gt;Node3</title>
<path fill="none" stroke="midnightblue" d="M87.97,-34.76C71.84,-41.97 54.29,-49.83 41.28,-55.65"/>
<polygon fill="midnightblue" stroke="midnightblue" points="89.55,-37.88 97.25,-30.6 86.7,-31.49 89.55,-37.88"/>
</g>
</g>
</svg>
