<?xml version="1.0" encoding="UTF-8" standalone="no"?>
<!DOCTYPE svg PUBLIC "-//W3C//DTD SVG 1.1//EN"
 "http://www.w3.org/Graphics/SVG/1.1/DTD/svg11.dtd">
<!-- Generated by graphviz version 2.43.0 (0)
 -->
<!-- Title: timeFormatString Pages: 1 -->
<svg width="333pt" height="88pt"
 viewBox="0.00 0.00 333.00 88.00" xmlns="http://www.w3.org/2000/svg" xmlns:xlink="http://www.w3.org/1999/xlink">
<g id="graph0" class="graph" transform="scale(1 1) rotate(0) translate(4 84)">
<title>timeFormatString</title>
<!-- Node1 -->
<g id="node1" class="node">
<title>Node1</title>
<g id="a_node1"><a xlink:title=" ">
<polygon fill="#bfbfbf" stroke="black" points="223,-30 223,-49 325,-49 325,-30 223,-30"/>
<text text-anchor="middle" x="274" y="-37" font-family="Helvetica,sans-Serif" font-size="10.00">timeFormatString</text>
</a>
</g>
</g>
<!-- Node2 -->
<g id="node2" class="node">
<title>Node2</title>
<g id="a_node2"><a xlink:href="namespaceBoosterSeat_1_1time.html#a5fd70e926d174b7a55901f51e98f3a82" target="_top" xlink:title="Get the date and time in the format: YYYY&#45;MM&#45;DD HH:MM:SS.">
<polygon fill="none" stroke="black" points="77,-49.5 77,-79.5 187,-79.5 187,-49.5 77,-49.5"/>
<text text-anchor="start" x="85" y="-67.5" font-family="Helvetica,sans-Serif" font-size="10.00">BoosterSeat::time::</text>
<text text-anchor="middle" x="132" y="-56.5" font-family="Helvetica,sans-Serif" font-size="10.00">dateAndTimeString</text>
</a>
</g>
</g>
<!-- Node1&#45;&gt;Node2 -->
<g id="edge1" class="edge">
<title>Node1&#45;&gt;Node2</title>
<path fill="none" stroke="midnightblue" d="M212.9,-50.23C204.31,-51.77 195.52,-53.34 187.06,-54.85"/>
<polygon fill="midnightblue" stroke="midnightblue" points="213.62,-53.66 222.85,-48.45 212.39,-46.77 213.62,-53.66"/>
</g>
<!-- Node4 -->
<g id="node4" class="node">
<title>Node4</title>
<g id="a_node4"><a xlink:href="namespaceBoosterSeat_1_1time.html#a96007d776fbd61a86911e5a91ec46a0a" target="_top" xlink:title="Get the time in format: HH:MM:SS (24 hour clock) for a given time zone.">
<polygon fill="none" stroke="black" points="77,-0.5 77,-30.5 187,-30.5 187,-0.5 77,-0.5"/>
<text text-anchor="start" x="85" y="-18.5" font-family="Helvetica,sans-Serif" font-size="10.00">BoosterSeat::time::</text>
<text text-anchor="middle" x="132" y="-7.5" font-family="Helvetica,sans-Serif" font-size="10.00">timeString</text>
</a>
</g>
</g>
<!-- Node1&#45;&gt;Node4 -->
<g id="edge3" class="edge">
<title>Node1&#45;&gt;Node4</title>
<path fill="none" stroke="midnightblue" d="M212.9,-29.2C204.31,-27.72 195.52,-26.22 187.06,-24.77"/>
<polygon fill="midnightblue" stroke="midnightblue" points="212.4,-32.66 222.85,-30.9 213.59,-25.76 212.4,-32.66"/>
</g>
<!-- Node3 -->
<g id="node3" class="node">
<title>Node3</title>
<g id="a_node3"><a xlink:href="visual__tests_8cpp.html#ae66f6b31b5ad750f1fe042a706a4e3d4" target="_top" xlink:title=" ">
<polygon fill="none" stroke="black" points="0,-30 0,-49 41,-49 41,-30 0,-30"/>
<text text-anchor="middle" x="20.5" y="-37" font-family="Helvetica,sans-Serif" font-size="10.00">main</text>
</a>
</g>
</g>
<!-- Node2&#45;&gt;Node3 -->
<g id="edge2" class="edge">
<title>Node2&#45;&gt;Node3</title>
<path fill="none" stroke="midnightblue" d="M67.01,-49.89C57.62,-47.75 48.59,-45.69 41.09,-43.97"/>
<polygon fill="midnightblue" stroke="midnightblue" points="66.36,-53.33 76.89,-52.15 67.92,-46.51 66.36,-53.33"/>
</g>
<!-- Node4&#45;&gt;Node3 -->
<g id="edge4" class="edge">
<title>Node4&#45;&gt;Node3</title>
<path fill="none" stroke="midnightblue" d="M67.01,-29.52C57.62,-31.58 48.59,-33.56 41.09,-35.21"/>
<polygon fill="midnightblue" stroke="midnightblue" points="67.87,-32.92 76.89,-27.36 66.37,-26.08 67.87,-32.92"/>
</g>
</g>
</svg>
