<?xml version="1.0" encoding="UTF-8" standalone="no"?>
<!DOCTYPE svg PUBLIC "-//W3C//DTD SVG 1.1//EN"
 "http://www.w3.org/Graphics/SVG/1.1/DTD/svg11.dtd">
<!-- Generated by graphviz version 2.43.0 (0)
 -->
<!-- Title: time.cpp Pages: 1 -->
<svg width="833pt" height="207pt"
 viewBox="0.00 0.00 832.50 207.00" xmlns="http://www.w3.org/2000/svg" xmlns:xlink="http://www.w3.org/1999/xlink">
<g id="graph0" class="graph" transform="scale(1 1) rotate(0) translate(4 203)">
<title>time.cpp</title>
<!-- Node1 -->
<g id="node1" class="node">
<title>Node1</title>
<g id="a_node1"><a xlink:title=" ">
<polygon fill="#bfbfbf" stroke="black" points="589,-179.5 589,-198.5 648,-198.5 648,-179.5 589,-179.5"/>
<text text-anchor="middle" x="618.5" y="-186.5" font-family="Helvetica,sans-Serif" font-size="10.00">time.cpp</text>
</a>
</g>
</g>
<!-- Node2 -->
<g id="node2" class="node">
<title>Node2</title>
<g id="a_node2"><a xlink:href="exception_8hpp.html" target="_top" xlink:title=" ">
<polygon fill="none" stroke="black" points="136.5,-123.5 136.5,-142.5 284.5,-142.5 284.5,-123.5 136.5,-123.5"/>
<text text-anchor="middle" x="210.5" y="-130.5" font-family="Helvetica,sans-Serif" font-size="10.00">BoosterSeat/exception.hpp</text>
</a>
</g>
</g>
<!-- Node1&#45;&gt;Node2 -->
<g id="edge1" class="edge">
<title>Node1&#45;&gt;Node2</title>
<path fill="none" stroke="midnightblue" d="M588.83,-184.07C525.55,-175.7 375.72,-155.87 284.75,-143.83"/>
<polygon fill="midnightblue" stroke="midnightblue" points="285.15,-140.35 274.77,-142.51 284.23,-147.29 285.15,-140.35"/>
</g>
<!-- Node7 -->
<g id="node7" class="node">
<title>Node7</title>
<g id="a_node7"><a xlink:href="time_8hpp.html" target="_top" xlink:title=" ">
<polygon fill="none" stroke="black" points="397.5,-123.5 397.5,-142.5 519.5,-142.5 519.5,-123.5 397.5,-123.5"/>
<text text-anchor="middle" x="458.5" y="-130.5" font-family="Helvetica,sans-Serif" font-size="10.00">BoosterSeat/time.hpp</text>
</a>
</g>
</g>
<!-- Node1&#45;&gt;Node7 -->
<g id="edge6" class="edge">
<title>Node1&#45;&gt;Node7</title>
<path fill="none" stroke="midnightblue" d="M593.15,-179.44C566.23,-170.36 523.5,-155.94 493.41,-145.78"/>
<polygon fill="midnightblue" stroke="midnightblue" points="494.33,-142.4 483.73,-142.52 492.09,-149.03 494.33,-142.4"/>
</g>
<!-- Node9 -->
<g id="node9" class="node">
<title>Node9</title>
<g id="a_node9"><a xlink:title=" ">
<polygon fill="none" stroke="#bfbfbf" points="443.5,-0.5 443.5,-19.5 493.5,-19.5 493.5,-0.5 443.5,-0.5"/>
<text text-anchor="middle" x="468.5" y="-7.5" font-family="Helvetica,sans-Serif" font-size="10.00">chrono</text>
</a>
</g>
</g>
<!-- Node1&#45;&gt;Node9 -->
<g id="edge13" class="edge">
<title>Node1&#45;&gt;Node9</title>
<path fill="none" stroke="midnightblue" d="M616.23,-179.32C609.2,-153.02 587.23,-74.9 569.5,-56 551.92,-37.27 525.13,-25.82 503.55,-19.17"/>
<polygon fill="midnightblue" stroke="midnightblue" points="504.33,-15.75 493.75,-16.35 502.4,-22.48 504.33,-15.75"/>
</g>
<!-- Node12 -->
<g id="node12" class="node">
<title>Node12</title>
<g id="a_node12"><a xlink:title=" ">
<polygon fill="none" stroke="#bfbfbf" points="616.5,-123.5 616.5,-142.5 680.5,-142.5 680.5,-123.5 616.5,-123.5"/>
<text text-anchor="middle" x="648.5" y="-130.5" font-family="Helvetica,sans-Serif" font-size="10.00">algorithm</text>
</a>
</g>
</g>
<!-- Node1&#45;&gt;Node12 -->
<g id="edge12" class="edge">
<title>Node1&#45;&gt;Node12</title>
<path fill="none" stroke="midnightblue" d="M623.45,-179.08C627.6,-171.61 633.65,-160.72 638.77,-151.52"/>
<polygon fill="midnightblue" stroke="midnightblue" points="641.84,-153.19 643.64,-142.75 635.72,-149.79 641.84,-153.19"/>
</g>
<!-- Node13 -->
<g id="node13" class="node">
<title>Node13</title>
<g id="a_node13"><a xlink:title=" ">
<polygon fill="none" stroke="#bfbfbf" points="698.5,-123.5 698.5,-142.5 746.5,-142.5 746.5,-123.5 698.5,-123.5"/>
<text text-anchor="middle" x="722.5" y="-130.5" font-family="Helvetica,sans-Serif" font-size="10.00">time.h</text>
</a>
</g>
</g>
<!-- Node1&#45;&gt;Node13 -->
<g id="edge14" class="edge">
<title>Node1&#45;&gt;Node13</title>
<path fill="none" stroke="midnightblue" d="M635.21,-179.32C651.81,-170.7 677.5,-157.36 696.72,-147.39"/>
<polygon fill="midnightblue" stroke="midnightblue" points="698.57,-150.37 705.83,-142.65 695.34,-144.16 698.57,-150.37"/>
</g>
<!-- Node14 -->
<g id="node14" class="node">
<title>Node14</title>
<g id="a_node14"><a xlink:title=" ">
<polygon fill="none" stroke="#bfbfbf" points="764.5,-123.5 764.5,-142.5 824.5,-142.5 824.5,-123.5 764.5,-123.5"/>
<text text-anchor="middle" x="794.5" y="-130.5" font-family="Helvetica,sans-Serif" font-size="10.00">iostream</text>
</a>
</g>
</g>
<!-- Node1&#45;&gt;Node14 -->
<g id="edge15" class="edge">
<title>Node1&#45;&gt;Node14</title>
<path fill="none" stroke="midnightblue" d="M646.39,-179.44C676.25,-170.28 723.81,-155.69 756.96,-145.52"/>
<polygon fill="midnightblue" stroke="midnightblue" points="758.21,-148.8 766.74,-142.52 756.16,-142.1 758.21,-148.8"/>
</g>
<!-- Node3 -->
<g id="node3" class="node">
<title>Node3</title>
<g id="a_node3"><a xlink:href="template__tools_8hpp.html" target="_top" xlink:title=" ">
<polygon fill="none" stroke="black" points="0,-56.5 0,-86.5 123,-86.5 123,-56.5 0,-56.5"/>
<text text-anchor="start" x="8" y="-74.5" font-family="Helvetica,sans-Serif" font-size="10.00">BoosterSeat/template</text>
<text text-anchor="middle" x="61.5" y="-63.5" font-family="Helvetica,sans-Serif" font-size="10.00">_tools.hpp</text>
</a>
</g>
</g>
<!-- Node2&#45;&gt;Node3 -->
<g id="edge2" class="edge">
<title>Node2&#45;&gt;Node3</title>
<path fill="none" stroke="midnightblue" d="M189.15,-123.48C167.56,-114.85 133.53,-101.26 106.04,-90.29"/>
<polygon fill="midnightblue" stroke="midnightblue" points="107.2,-86.98 96.62,-86.52 104.61,-93.48 107.2,-86.98"/>
</g>
<!-- Node5 -->
<g id="node5" class="node">
<title>Node5</title>
<g id="a_node5"><a xlink:title=" ">
<polygon fill="none" stroke="#bfbfbf" points="141,-62 141,-81 206,-81 206,-62 141,-62"/>
<text text-anchor="middle" x="173.5" y="-69" font-family="Helvetica,sans-Serif" font-size="10.00">stdexcept</text>
</a>
</g>
</g>
<!-- Node2&#45;&gt;Node5 -->
<g id="edge4" class="edge">
<title>Node2&#45;&gt;Node5</title>
<path fill="none" stroke="midnightblue" d="M205.2,-123.48C199.76,-114.73 191.14,-100.87 184.26,-89.81"/>
<polygon fill="midnightblue" stroke="midnightblue" points="187.04,-87.65 178.79,-81.01 181.1,-91.35 187.04,-87.65"/>
</g>
<!-- Node6 -->
<g id="node6" class="node">
<title>Node6</title>
<g id="a_node6"><a xlink:title=" ">
<polygon fill="none" stroke="#bfbfbf" points="224.5,-62 224.5,-81 268.5,-81 268.5,-62 224.5,-62"/>
<text text-anchor="middle" x="246.5" y="-69" font-family="Helvetica,sans-Serif" font-size="10.00">string</text>
</a>
</g>
</g>
<!-- Node2&#45;&gt;Node6 -->
<g id="edge5" class="edge">
<title>Node2&#45;&gt;Node6</title>
<path fill="none" stroke="midnightblue" d="M215.66,-123.48C220.95,-114.73 229.34,-100.87 236.03,-89.81"/>
<polygon fill="midnightblue" stroke="midnightblue" points="239.17,-91.38 241.35,-81.01 233.18,-87.75 239.17,-91.38"/>
</g>
<!-- Node4 -->
<g id="node4" class="node">
<title>Node4</title>
<g id="a_node4"><a xlink:title=" ">
<polygon fill="none" stroke="#bfbfbf" points="27,-0.5 27,-19.5 96,-19.5 96,-0.5 27,-0.5"/>
<text text-anchor="middle" x="61.5" y="-7.5" font-family="Helvetica,sans-Serif" font-size="10.00">type_traits</text>
</a>
</g>
</g>
<!-- Node3&#45;&gt;Node4 -->
<g id="edge3" class="edge">
<title>Node3&#45;&gt;Node4</title>
<path fill="none" stroke="midnightblue" d="M61.5,-56.4C61.5,-48.47 61.5,-38.46 61.5,-29.86"/>
<polygon fill="midnightblue" stroke="midnightblue" points="65,-29.66 61.5,-19.66 58,-29.66 65,-29.66"/>
</g>
<!-- Node7&#45;&gt;Node6 -->
<g id="edge11" class="edge">
<title>Node7&#45;&gt;Node6</title>
<path fill="none" stroke="midnightblue" d="M413.9,-123.43C376.83,-115.72 322.98,-103.12 277.5,-87 275.88,-86.43 274.24,-85.8 272.59,-85.13"/>
<polygon fill="midnightblue" stroke="midnightblue" points="273.87,-81.88 263.31,-81.08 271.07,-88.29 273.87,-81.88"/>
</g>
<!-- Node8 -->
<g id="node8" class="node">
<title>Node8</title>
<g id="a_node8"><a xlink:href="clock_8hpp.html" target="_top" xlink:title=" ">
<polygon fill="none" stroke="black" points="287,-62 287,-81 412,-81 412,-62 287,-62"/>
<text text-anchor="middle" x="349.5" y="-69" font-family="Helvetica,sans-Serif" font-size="10.00">BoosterSeat/clock.hpp</text>
</a>
</g>
</g>
<!-- Node7&#45;&gt;Node8 -->
<g id="edge7" class="edge">
<title>Node7&#45;&gt;Node8</title>
<path fill="none" stroke="midnightblue" d="M442.88,-123.48C424.91,-113.67 395.18,-97.43 374.09,-85.92"/>
<polygon fill="midnightblue" stroke="midnightblue" points="375.54,-82.73 365.09,-81.01 372.19,-88.87 375.54,-82.73"/>
</g>
<!-- Node10 -->
<g id="node10" class="node">
<title>Node10</title>
<g id="a_node10"><a xlink:title=" ">
<polygon fill="none" stroke="#bfbfbf" points="430.5,-62 430.5,-81 486.5,-81 486.5,-62 430.5,-62"/>
<text text-anchor="middle" x="458.5" y="-69" font-family="Helvetica,sans-Serif" font-size="10.00">iomanip</text>
</a>
</g>
</g>
<!-- Node7&#45;&gt;Node10 -->
<g id="edge9" class="edge">
<title>Node7&#45;&gt;Node10</title>
<path fill="none" stroke="midnightblue" d="M458.5,-123.48C458.5,-115.08 458.5,-101.98 458.5,-91.16"/>
<polygon fill="midnightblue" stroke="midnightblue" points="462,-91.01 458.5,-81.01 455,-91.01 462,-91.01"/>
</g>
<!-- Node11 -->
<g id="node11" class="node">
<title>Node11</title>
<g id="a_node11"><a xlink:title=" ">
<polygon fill="none" stroke="#bfbfbf" points="504.5,-62 504.5,-81 560.5,-81 560.5,-62 504.5,-62"/>
<text text-anchor="middle" x="532.5" y="-69" font-family="Helvetica,sans-Serif" font-size="10.00">sstream</text>
</a>
</g>
</g>
<!-- Node7&#45;&gt;Node11 -->
<g id="edge10" class="edge">
<title>Node7&#45;&gt;Node11</title>
<path fill="none" stroke="midnightblue" d="M469.1,-123.48C480.75,-114.11 499.69,-98.88 513.83,-87.51"/>
<polygon fill="midnightblue" stroke="midnightblue" points="516.32,-90 521.92,-81.01 511.93,-84.55 516.32,-90"/>
</g>
<!-- Node8&#45;&gt;Node9 -->
<g id="edge8" class="edge">
<title>Node8&#45;&gt;Node9</title>
<path fill="none" stroke="midnightblue" d="M366.55,-61.98C386.34,-52.08 419.22,-35.64 442.27,-24.12"/>
<polygon fill="midnightblue" stroke="midnightblue" points="444.1,-27.11 451.48,-19.51 440.97,-20.85 444.1,-27.11"/>
</g>
</g>
</svg>
